; NON-PLATED HOLES START AT T1
; THROUGH (PLATED) HOLES START AT T100
M48
INCH
T100C0.015748
T101C0.039370
%
T100
X024968Y079080
X064968Y070080
X064968Y060080
X064968Y050080
X064968Y040080
X064968Y030080
X064968Y020080
X064968Y010080
X052968Y071080
X052968Y061080
X052968Y051080
X052968Y041080
X052968Y031080
X052968Y021080
X052968Y011080
X052968Y070080
X052968Y060080
X052968Y050080
X052968Y040080
X052968Y030080
X052968Y020080
X052968Y010080
X064218Y079080
X037468Y017080
X038468Y037080
X039468Y057080
X036468Y007080
X037468Y027080
X038468Y047080
X039468Y067080
X037468Y037080
X038468Y017080
X039468Y077080
X037468Y047080
X038468Y027080
X036468Y037080
X036468Y047080
X038468Y007080
X036468Y017080
X036468Y027080
X037468Y007080
X036468Y077080
X036468Y057080
X052218Y080080
X036468Y067080
X039468Y007080
X037468Y057080
X038468Y077080
X039468Y017080
X037468Y067080
X039468Y027080
X037468Y077080
X038468Y057080
X039468Y037080
X038468Y067080
X039468Y047080
X030968Y049080
X030968Y039080
X030968Y029080
X030968Y019080
X030968Y009080
X030968Y079080
X030968Y069080
X030968Y059080
X058968Y049080
X058968Y039080
X058968Y029080
X058968Y019080
X058968Y009080
X024968Y070080
X024968Y060080
X024968Y050080
X024968Y040080
X024968Y030080
X024968Y020080
X024968Y010080
X058968Y079080
X058968Y069080
X058968Y059080
X052468Y077080
X050468Y037080
X051468Y057080
X050468Y047080
X051468Y067080
X052468Y057080
X050468Y017080
X051468Y077080
X052468Y067080
X050468Y027080
X053468Y057080
X053468Y067080
X050468Y007080
X053468Y077080
X053468Y017080
X053468Y027080
X052468Y007080
X053468Y037080
X053468Y047080
X051468Y007080
X052468Y037080
X050468Y077080
X051468Y017080
X052468Y047080
X051468Y027080
X052468Y017080
X050468Y057080
X051468Y037080
X053468Y007080
X052468Y027080
X050468Y067080
X051468Y047080
X036968Y041080
X036968Y031080
X036968Y021080
X036968Y011080
X036968Y071080
X036968Y061080
X036968Y051080
X037968Y081080
X036968Y040080
X036968Y030080
X036968Y020080
X036968Y010080
X036968Y070080
X036968Y060080
X052218Y081080
X036968Y050080
X037968Y080080
T101
X036968Y009080
X026968Y029080
X056968Y019080
X049968Y071080
X016968Y019080
X009968Y071080
X072968Y049080
X076968Y079080
X032968Y049080
X036968Y079080
X049968Y021080
X062968Y039080
X079968Y011080
X076968Y049080
X066968Y069080
X069968Y061080
X009968Y021080
X082968Y079080
X022968Y039080
X039968Y011080
X052968Y029080
X036968Y049080
X026968Y069080
X054968Y081080
X029968Y061080
X056968Y059080
X042968Y079080
X059968Y051080
X072968Y069080
X062968Y009080
X012968Y029080
X069968Y041080
X014968Y081080
X082968Y019080
X066968Y039080
X016968Y059080
X019968Y051080
X032968Y069080
X022968Y009080
X029968Y041080
X042968Y019080
X026968Y039080
X059968Y031080
X056968Y029080
X049968Y081080
X062968Y059080
X079968Y071080
X019968Y031080
X066968Y009080
X016968Y029080
X009968Y081080
X022968Y059080
X039968Y071080
X026968Y009080
X046968Y019080
X006968Y019080
X062968Y049080
X079968Y021080
X066968Y079080
X022968Y049080
X039968Y021080
X052968Y039080
X026968Y079080
X056968Y069080
X059968Y061080
X072968Y079080
X012968Y039080
X069968Y011080
X082968Y029080
X066968Y049080
X016968Y069080
X019968Y061080
X032968Y079080
X029968Y011080
X052968Y009080
X042968Y029080
X026968Y049080
X059968Y041080
X044968Y081080
X072968Y019080
X056968Y039080
X046968Y059080
X049968Y051080
X062968Y069080
X012968Y009080
X079968Y081080
X019968Y041080
X032968Y019080
X016968Y039080
X006968Y059080
X009968Y051080
X022968Y069080
X039968Y081080
X052968Y059080
X049968Y031080
X056968Y009080
X046968Y029080
X014968Y076080
X076968Y019080
X012968Y059080
X069968Y071080
X009968Y031080
X016968Y009080
X006968Y029080
X036968Y019080
X029968Y071080
X052968Y049080
X056968Y079080
X012968Y049080
X069968Y021080
X082968Y039080
X016968Y079080
X029968Y021080
X042968Y039080
X059968Y011080
X072968Y029080
X056968Y049080
X046968Y069080
X074968Y081080
X049968Y061080
X076968Y059080
X062968Y079080
X079968Y051080
X019968Y011080
X082968Y009080
X032968Y029080
X016968Y049080
X006968Y069080
X034968Y081080
X009968Y061080
X036968Y059080
X022968Y079080
X039968Y051080
X052968Y069080
X042968Y009080
X049968Y041080
X062968Y019080
X046968Y039080
X079968Y031080
X076968Y029080
X012968Y069080
X069968Y081080
X009968Y041080
X082968Y059080
X022968Y019080
X006968Y039080
X039968Y031080
X036968Y029080
X029968Y081080
X042968Y059080
X059968Y071080
X046968Y009080
X066968Y019080
X019968Y071080
X006968Y009080
X026968Y019080
X082968Y049080
X042968Y049080
X059968Y021080
X072968Y039080
X046968Y079080
X076968Y069080
X079968Y061080
X019968Y021080
X032968Y039080
X006968Y079080
X036968Y069080
X039968Y061080
X052968Y079080
X049968Y011080
X072968Y009080
X062968Y029080
X046968Y049080
X079968Y041080
X064968Y081080
X076968Y039080
X066968Y059080
X012968Y079080
X069968Y051080
X009968Y011080
X082968Y069080
X032968Y009080
X022968Y029080
X006968Y049080
X039968Y041080
X024968Y081080
X052968Y019080
X036968Y039080
X026968Y059080
X029968Y051080
X042968Y069080
X059968Y081080
X072968Y059080
X012968Y019080
X069968Y031080
X076968Y009080
X066968Y029080
X019968Y081080
X032968Y059080
X029968Y031080
T00
M30
