G04 MADE WITH FRITZING*
G04 WWW.FRITZING.ORG*
G04 DOUBLE SIDED*
G04 HOLES PLATED*
G04 CONTOUR ON CENTER OF CONTOUR VECTOR*
%ASAXBY*%
%FSLAX23Y23*%
%MOIN*%
%OFA0B0*%
%SFA1.0B1.0*%
%ADD10C,0.157480*%
%ADD11C,0.039370*%
%ADD12C,0.079370*%
%ADD13R,0.314961X0.314961*%
%ADD14R,0.039370X0.078740*%
%ADD15C,0.024000*%
%ADD16R,0.001000X0.001000*%
%LNCOPPER0*%
G90*
G70*
G54D10*
X7497Y8108D03*
X1497Y7608D03*
X3497Y8108D03*
X4497Y8108D03*
X6497Y8108D03*
X5497Y8108D03*
X2497Y8108D03*
X1497Y8108D03*
G54D11*
X5147Y7708D03*
X5147Y6708D03*
X5147Y5708D03*
X5147Y4708D03*
X5147Y3708D03*
X5147Y2708D03*
X5147Y1708D03*
X5147Y708D03*
X5047Y7708D03*
X5047Y6708D03*
X5047Y5708D03*
X5047Y4708D03*
X5047Y3708D03*
X5047Y2708D03*
X5047Y1708D03*
X5047Y708D03*
X5247Y7708D03*
X5247Y6708D03*
X5247Y5708D03*
X5247Y4708D03*
X5247Y3708D03*
X5247Y2708D03*
X5247Y1708D03*
X5247Y708D03*
X5347Y7708D03*
X5347Y6708D03*
X5347Y5708D03*
X5347Y4708D03*
X5347Y3708D03*
X5347Y2708D03*
X5347Y1708D03*
X5347Y708D03*
X3947Y7708D03*
X3947Y6708D03*
X3947Y5708D03*
X3947Y4708D03*
X3947Y3708D03*
X3947Y2708D03*
X3947Y1708D03*
X3947Y708D03*
X3847Y7708D03*
X3847Y6708D03*
X3847Y5708D03*
X3847Y4708D03*
X3847Y3708D03*
X3847Y2708D03*
X3847Y1708D03*
X3847Y708D03*
X3747Y7708D03*
X3747Y6708D03*
X3747Y5708D03*
X3747Y4708D03*
X3747Y3708D03*
X3747Y2708D03*
X3747Y1708D03*
X3747Y708D03*
X3647Y7708D03*
X3647Y6708D03*
X3647Y5708D03*
X3647Y4708D03*
X3647Y3708D03*
X3647Y2708D03*
X3647Y1708D03*
X3647Y708D03*
X3797Y8008D03*
X3697Y7008D03*
X3697Y6008D03*
X3697Y5008D03*
X3697Y4008D03*
X3697Y3008D03*
X3697Y2008D03*
X3697Y1008D03*
X2497Y7908D03*
X2497Y7008D03*
X2497Y6008D03*
X2497Y5008D03*
X2497Y4008D03*
X2497Y3008D03*
X2497Y2008D03*
X2497Y1008D03*
X3797Y8108D03*
X3697Y7108D03*
X3697Y6108D03*
X3697Y5108D03*
X3697Y4108D03*
X3697Y3108D03*
X3697Y2108D03*
X3697Y1108D03*
X3097Y7908D03*
X3097Y6908D03*
X3097Y5908D03*
X3097Y4908D03*
X3097Y3908D03*
X3097Y2908D03*
X3097Y1908D03*
X3097Y908D03*
X5222Y8108D03*
X5297Y7108D03*
X5297Y6108D03*
X5297Y5108D03*
X5297Y4108D03*
X5297Y3108D03*
X5297Y2108D03*
X5297Y1108D03*
X5897Y7908D03*
X5897Y6908D03*
X5897Y5908D03*
X5897Y4908D03*
X5897Y3908D03*
X5897Y2908D03*
X5897Y1908D03*
X5897Y908D03*
X6422Y7908D03*
X6497Y7008D03*
X6497Y6008D03*
X6497Y5008D03*
X6497Y4008D03*
X6497Y3008D03*
X6497Y2008D03*
X6497Y1008D03*
X5222Y8008D03*
X5297Y7008D03*
X5297Y6008D03*
X5297Y5008D03*
X5297Y4008D03*
X5297Y3008D03*
X5297Y2008D03*
X5297Y1008D03*
G54D12*
X6697Y7908D03*
X6697Y6908D03*
X6697Y5908D03*
X6697Y4908D03*
X6697Y3908D03*
X6697Y2908D03*
X6697Y1908D03*
X6697Y908D03*
X8297Y7908D03*
X8297Y6908D03*
X8297Y5908D03*
X8297Y4908D03*
X8297Y3908D03*
X8297Y2908D03*
X8297Y1908D03*
X8297Y908D03*
X6997Y8108D03*
X6997Y7108D03*
X6997Y6108D03*
X6997Y5108D03*
X6997Y4108D03*
X6997Y3108D03*
X6997Y2108D03*
X6997Y1108D03*
X5297Y7908D03*
X5297Y6908D03*
X5297Y5908D03*
X5297Y4908D03*
X5297Y3908D03*
X5297Y2908D03*
X5297Y1908D03*
X5297Y908D03*
X7997Y8108D03*
X7997Y7108D03*
X7997Y6108D03*
X7997Y5108D03*
X7997Y4108D03*
X7997Y3108D03*
X7997Y2108D03*
X7997Y1108D03*
X5997Y8108D03*
X5997Y7108D03*
X5997Y6108D03*
X5997Y5108D03*
X5997Y4108D03*
X5997Y3108D03*
X5997Y2108D03*
X5997Y1108D03*
X7297Y7908D03*
X7297Y6908D03*
X7297Y5908D03*
X7297Y4908D03*
X7297Y3908D03*
X7297Y2908D03*
X7297Y1908D03*
X7297Y908D03*
X4997Y8108D03*
X4997Y7108D03*
X4997Y6108D03*
X4997Y5108D03*
X4997Y4108D03*
X4997Y3108D03*
X4997Y2108D03*
X4997Y1108D03*
X5697Y7908D03*
X5697Y6908D03*
X5697Y5908D03*
X5697Y4908D03*
X5697Y3908D03*
X5697Y2908D03*
X5697Y1908D03*
X5697Y908D03*
X7697Y7908D03*
X7697Y6908D03*
X7697Y5908D03*
X7697Y4908D03*
X7697Y3908D03*
X7697Y2908D03*
X7697Y1908D03*
X7697Y908D03*
X6297Y7908D03*
X6297Y6908D03*
X6297Y5908D03*
X6297Y4908D03*
X6297Y3908D03*
X6297Y2908D03*
X6297Y1908D03*
X6297Y908D03*
X4697Y7908D03*
X4697Y6908D03*
X4697Y5908D03*
X4697Y4908D03*
X4697Y3908D03*
X4697Y2908D03*
X4697Y1908D03*
X4697Y908D03*
X3997Y8108D03*
X3997Y7108D03*
X3997Y6108D03*
X3997Y5108D03*
X3997Y4108D03*
X3997Y3108D03*
X3997Y2108D03*
X3997Y1108D03*
X4297Y7908D03*
X4297Y6908D03*
X4297Y5908D03*
X4297Y4908D03*
X4297Y3908D03*
X4297Y2908D03*
X4297Y1908D03*
X4297Y908D03*
X3697Y7908D03*
X3697Y6908D03*
X3697Y5908D03*
X3697Y4908D03*
X3697Y3908D03*
X3697Y2908D03*
X3697Y1908D03*
X3697Y908D03*
X2997Y8108D03*
X2997Y7108D03*
X2997Y6108D03*
X2997Y5108D03*
X2997Y4108D03*
X2997Y3108D03*
X2997Y2108D03*
X2997Y1108D03*
X3297Y7908D03*
X3297Y6908D03*
X3297Y5908D03*
X3297Y4908D03*
X3297Y3908D03*
X3297Y2908D03*
X3297Y1908D03*
X3297Y908D03*
X2697Y7908D03*
X2697Y6908D03*
X2697Y5908D03*
X2697Y4908D03*
X2697Y3908D03*
X2697Y2908D03*
X2697Y1908D03*
X2697Y908D03*
X1997Y8108D03*
X1997Y7108D03*
X1997Y6108D03*
X1997Y5108D03*
X1997Y4108D03*
X1997Y3108D03*
X1997Y2108D03*
X1997Y1108D03*
X2297Y7908D03*
X2297Y6908D03*
X2297Y5908D03*
X2297Y4908D03*
X2297Y3908D03*
X2297Y2908D03*
X2297Y1908D03*
X2297Y908D03*
X1697Y7908D03*
X1697Y6908D03*
X1697Y5908D03*
X1697Y4908D03*
X1697Y3908D03*
X1697Y2908D03*
X1697Y1908D03*
X1697Y908D03*
X1297Y7908D03*
X1297Y6908D03*
X1297Y5908D03*
X1297Y4908D03*
X1297Y3908D03*
X1297Y2908D03*
X1297Y1908D03*
X1297Y908D03*
X997Y8108D03*
X997Y7108D03*
X997Y6108D03*
X997Y5108D03*
X997Y4108D03*
X997Y3108D03*
X997Y2108D03*
X997Y1108D03*
X697Y7908D03*
X697Y6908D03*
X697Y5908D03*
X697Y4908D03*
X697Y3908D03*
X697Y2908D03*
X697Y1908D03*
X697Y908D03*
G54D13*
X1497Y8249D03*
X2497Y8249D03*
X3497Y8249D03*
X4497Y8249D03*
X1497Y7449D03*
X5497Y8249D03*
X6497Y8249D03*
X7497Y8249D03*
X8797Y8808D03*
X8797Y208D03*
X197Y208D03*
X4497Y208D03*
X8797Y4508D03*
X197Y4508D03*
X4497Y8808D03*
X197Y8808D03*
G54D14*
X3847Y7478D03*
X3647Y7478D03*
X3447Y7478D03*
X3247Y7478D03*
X3947Y7608D03*
X3747Y7608D03*
X3547Y7608D03*
X3347Y7608D03*
X4747Y7478D03*
X4547Y7478D03*
X4347Y7478D03*
X4147Y7478D03*
X4847Y7608D03*
X4647Y7608D03*
X4447Y7608D03*
X4247Y7608D03*
X5647Y7478D03*
X5447Y7478D03*
X5247Y7478D03*
X5047Y7478D03*
X5747Y7608D03*
X5547Y7608D03*
X5347Y7608D03*
X5147Y7608D03*
X3847Y6478D03*
X3647Y6478D03*
X3447Y6478D03*
X3247Y6478D03*
X3947Y6608D03*
X3747Y6608D03*
X3547Y6608D03*
X3347Y6608D03*
X4747Y6478D03*
X4547Y6478D03*
X4347Y6478D03*
X4147Y6478D03*
X4847Y6608D03*
X4647Y6608D03*
X4447Y6608D03*
X4247Y6608D03*
X5647Y6478D03*
X5447Y6478D03*
X5247Y6478D03*
X5047Y6478D03*
X5747Y6608D03*
X5547Y6608D03*
X5347Y6608D03*
X5147Y6608D03*
X3847Y5478D03*
X3647Y5478D03*
X3447Y5478D03*
X3247Y5478D03*
X3947Y5608D03*
X3747Y5608D03*
X3547Y5608D03*
X3347Y5608D03*
X4747Y5478D03*
X4547Y5478D03*
X4347Y5478D03*
X4147Y5478D03*
X4847Y5608D03*
X4647Y5608D03*
X4447Y5608D03*
X4247Y5608D03*
X5647Y5478D03*
X5447Y5478D03*
X5247Y5478D03*
X5047Y5478D03*
X5747Y5608D03*
X5547Y5608D03*
X5347Y5608D03*
X5147Y5608D03*
X3847Y4478D03*
X3647Y4478D03*
X3447Y4478D03*
X3247Y4478D03*
X3947Y4608D03*
X3747Y4608D03*
X3547Y4608D03*
X3347Y4608D03*
X4747Y4478D03*
X4547Y4478D03*
X4347Y4478D03*
X4147Y4478D03*
X4847Y4608D03*
X4647Y4608D03*
X4447Y4608D03*
X4247Y4608D03*
X5647Y4478D03*
X5447Y4478D03*
X5247Y4478D03*
X5047Y4478D03*
X5747Y4608D03*
X5547Y4608D03*
X5347Y4608D03*
X5147Y4608D03*
X3847Y3478D03*
X3647Y3478D03*
X3447Y3478D03*
X3247Y3478D03*
X3947Y3608D03*
X3747Y3608D03*
X3547Y3608D03*
X3347Y3608D03*
X4747Y3478D03*
X4547Y3478D03*
X4347Y3478D03*
X4147Y3478D03*
X4847Y3608D03*
X4647Y3608D03*
X4447Y3608D03*
X4247Y3608D03*
X5647Y3478D03*
X5447Y3478D03*
X5247Y3478D03*
X5047Y3478D03*
X5747Y3608D03*
X5547Y3608D03*
X5347Y3608D03*
X5147Y3608D03*
X3847Y2478D03*
X3647Y2478D03*
X3447Y2478D03*
X3247Y2478D03*
X3947Y2608D03*
X3747Y2608D03*
X3547Y2608D03*
X3347Y2608D03*
X4747Y2478D03*
X4547Y2478D03*
X4347Y2478D03*
X4147Y2478D03*
X4847Y2608D03*
X4647Y2608D03*
X4447Y2608D03*
X4247Y2608D03*
X5647Y2478D03*
X5447Y2478D03*
X5247Y2478D03*
X5047Y2478D03*
X5747Y2608D03*
X5547Y2608D03*
X5347Y2608D03*
X5147Y2608D03*
X3847Y1478D03*
X3647Y1478D03*
X3447Y1478D03*
X3247Y1478D03*
X3947Y1608D03*
X3747Y1608D03*
X3547Y1608D03*
X3347Y1608D03*
X4747Y1478D03*
X4547Y1478D03*
X4347Y1478D03*
X4147Y1478D03*
X4847Y1608D03*
X4647Y1608D03*
X4447Y1608D03*
X4247Y1608D03*
X5647Y1478D03*
X5447Y1478D03*
X5247Y1478D03*
X5047Y1478D03*
X5747Y1608D03*
X5547Y1608D03*
X5347Y1608D03*
X5147Y1608D03*
X3847Y478D03*
X3647Y478D03*
X3447Y478D03*
X3247Y478D03*
X3947Y608D03*
X3747Y608D03*
X3547Y608D03*
X3347Y608D03*
X4747Y478D03*
X4547Y478D03*
X4347Y478D03*
X4147Y478D03*
X4847Y608D03*
X4647Y608D03*
X4447Y608D03*
X4247Y608D03*
X5647Y478D03*
X5447Y478D03*
X5247Y478D03*
X5047Y478D03*
X5747Y608D03*
X5547Y608D03*
X5347Y608D03*
X5147Y608D03*
G54D15*
X1996Y7860D02*
X1997Y8077D01*
D02*
X2948Y7808D02*
X2048Y7808D01*
D02*
X3047Y7908D02*
X2948Y7808D01*
D02*
X3078Y7908D02*
X3047Y7908D01*
D02*
X2048Y7808D02*
X1996Y7860D01*
D02*
X1996Y6860D02*
X1997Y7077D01*
D02*
X2948Y6808D02*
X2048Y6808D01*
D02*
X3047Y6908D02*
X2948Y6808D01*
D02*
X3078Y6908D02*
X3047Y6908D01*
D02*
X2048Y6808D02*
X1996Y6860D01*
D02*
X1996Y5860D02*
X1997Y6077D01*
D02*
X2948Y5808D02*
X2048Y5808D01*
D02*
X3047Y5908D02*
X2948Y5808D01*
D02*
X3078Y5908D02*
X3047Y5908D01*
D02*
X2048Y5808D02*
X1996Y5860D01*
D02*
X1996Y4860D02*
X1997Y5077D01*
D02*
X2948Y4808D02*
X2048Y4808D01*
D02*
X3047Y4908D02*
X2948Y4808D01*
D02*
X3078Y4908D02*
X3047Y4908D01*
D02*
X2048Y4808D02*
X1996Y4860D01*
D02*
X1996Y3860D02*
X1997Y4077D01*
D02*
X2948Y3808D02*
X2048Y3808D01*
D02*
X3047Y3908D02*
X2948Y3808D01*
D02*
X3078Y3908D02*
X3047Y3908D01*
D02*
X2048Y3808D02*
X1996Y3860D01*
D02*
X1996Y2860D02*
X1997Y3077D01*
D02*
X2948Y2808D02*
X2048Y2808D01*
D02*
X3047Y2908D02*
X2948Y2808D01*
D02*
X3078Y2908D02*
X3047Y2908D01*
D02*
X2048Y2808D02*
X1996Y2860D01*
D02*
X1996Y1860D02*
X1997Y2077D01*
D02*
X2948Y1808D02*
X2048Y1808D01*
D02*
X3047Y1908D02*
X2948Y1808D01*
D02*
X3078Y1908D02*
X3047Y1908D01*
D02*
X2048Y1808D02*
X1996Y1860D01*
D02*
X3047Y908D02*
X2948Y808D01*
D02*
X2948Y808D02*
X2048Y808D01*
D02*
X2048Y808D02*
X1996Y860D01*
D02*
X1996Y860D02*
X1997Y1077D01*
D02*
X3078Y908D02*
X3047Y908D01*
D02*
X4447Y7708D02*
X4297Y7858D01*
D02*
X4447Y7642D02*
X4447Y7708D01*
D02*
X4297Y7858D02*
X4297Y7877D01*
D02*
X4447Y6708D02*
X4297Y6858D01*
D02*
X4447Y6642D02*
X4447Y6708D01*
D02*
X4297Y6858D02*
X4297Y6877D01*
D02*
X4447Y5708D02*
X4297Y5858D01*
D02*
X4447Y5642D02*
X4447Y5708D01*
D02*
X4297Y5858D02*
X4297Y5877D01*
D02*
X4447Y4708D02*
X4297Y4858D01*
D02*
X4447Y4642D02*
X4447Y4708D01*
D02*
X4297Y4858D02*
X4297Y4877D01*
D02*
X4447Y3708D02*
X4297Y3858D01*
D02*
X4447Y3642D02*
X4447Y3708D01*
D02*
X4297Y3858D02*
X4297Y3877D01*
D02*
X4447Y2708D02*
X4297Y2858D01*
D02*
X4447Y2642D02*
X4447Y2708D01*
D02*
X4297Y2858D02*
X4297Y2877D01*
D02*
X4447Y1708D02*
X4297Y1858D01*
D02*
X4447Y1642D02*
X4447Y1708D01*
D02*
X4297Y1858D02*
X4297Y1877D01*
D02*
X4447Y708D02*
X4297Y858D01*
D02*
X4297Y858D02*
X4297Y877D01*
D02*
X4447Y642D02*
X4447Y708D01*
D02*
X3997Y8058D02*
X4347Y7708D01*
D02*
X4347Y7708D02*
X4347Y7512D01*
D02*
X3997Y8077D02*
X3997Y8058D01*
D02*
X3997Y7058D02*
X4347Y6708D01*
D02*
X4347Y6708D02*
X4347Y6512D01*
D02*
X3997Y7077D02*
X3997Y7058D01*
D02*
X3997Y6058D02*
X4347Y5708D01*
D02*
X4347Y5708D02*
X4347Y5512D01*
D02*
X3997Y6077D02*
X3997Y6058D01*
D02*
X3997Y5058D02*
X4347Y4708D01*
D02*
X4347Y4708D02*
X4347Y4512D01*
D02*
X3997Y5077D02*
X3997Y5058D01*
D02*
X3997Y4058D02*
X4347Y3708D01*
D02*
X4347Y3708D02*
X4347Y3512D01*
D02*
X3997Y4077D02*
X3997Y4058D01*
D02*
X3997Y3058D02*
X4347Y2708D01*
D02*
X4347Y2708D02*
X4347Y2512D01*
D02*
X3997Y3077D02*
X3997Y3058D01*
D02*
X3997Y2058D02*
X4347Y1708D01*
D02*
X4347Y1708D02*
X4347Y1512D01*
D02*
X3997Y2077D02*
X3997Y2058D01*
D02*
X3996Y1058D02*
X4347Y708D01*
D02*
X4347Y708D02*
X4347Y512D01*
D02*
X3997Y1077D02*
X3996Y1058D01*
D02*
X4747Y7708D02*
X4947Y7908D01*
D02*
X4947Y7908D02*
X5266Y7908D01*
D02*
X4747Y7512D02*
X4747Y7708D01*
D02*
X4747Y6708D02*
X4947Y6908D01*
D02*
X4947Y6908D02*
X5266Y6908D01*
D02*
X4747Y6512D02*
X4747Y6708D01*
D02*
X4747Y5708D02*
X4947Y5908D01*
D02*
X4947Y5908D02*
X5266Y5908D01*
D02*
X4747Y5512D02*
X4747Y5708D01*
D02*
X4747Y4708D02*
X4947Y4908D01*
D02*
X4947Y4908D02*
X5266Y4908D01*
D02*
X4747Y4512D02*
X4747Y4708D01*
D02*
X4747Y3708D02*
X4947Y3908D01*
D02*
X4947Y3908D02*
X5266Y3908D01*
D02*
X4747Y3512D02*
X4747Y3708D01*
D02*
X4747Y2708D02*
X4947Y2908D01*
D02*
X4947Y2908D02*
X5266Y2908D01*
D02*
X4747Y2512D02*
X4747Y2708D01*
D02*
X4747Y1708D02*
X4947Y1908D01*
D02*
X4947Y1908D02*
X5266Y1908D01*
D02*
X4747Y1512D02*
X4747Y1708D01*
D02*
X4947Y908D02*
X5266Y908D01*
D02*
X4747Y708D02*
X4947Y908D01*
D02*
X4747Y512D02*
X4747Y708D01*
D02*
X4697Y7858D02*
X4697Y7877D01*
D02*
X4547Y7512D02*
X4547Y7708D01*
D02*
X4547Y7708D02*
X4697Y7858D01*
D02*
X4697Y6858D02*
X4697Y6877D01*
D02*
X4547Y6512D02*
X4547Y6708D01*
D02*
X4547Y6708D02*
X4697Y6858D01*
D02*
X4697Y5858D02*
X4697Y5877D01*
D02*
X4547Y5512D02*
X4547Y5708D01*
D02*
X4547Y5708D02*
X4697Y5858D01*
D02*
X4697Y4858D02*
X4697Y4877D01*
D02*
X4547Y4512D02*
X4547Y4708D01*
D02*
X4547Y4708D02*
X4697Y4858D01*
D02*
X4697Y3858D02*
X4697Y3877D01*
D02*
X4547Y3512D02*
X4547Y3708D01*
D02*
X4547Y3708D02*
X4697Y3858D01*
D02*
X4697Y2858D02*
X4697Y2877D01*
D02*
X4547Y2512D02*
X4547Y2708D01*
D02*
X4547Y2708D02*
X4697Y2858D01*
D02*
X4697Y1858D02*
X4697Y1877D01*
D02*
X4547Y1512D02*
X4547Y1708D01*
D02*
X4547Y1708D02*
X4697Y1858D01*
D02*
X4697Y858D02*
X4697Y877D01*
D02*
X4547Y708D02*
X4697Y858D01*
D02*
X4547Y512D02*
X4547Y708D01*
D02*
X4997Y8058D02*
X4647Y7708D01*
D02*
X4647Y7708D02*
X4647Y7642D01*
D02*
X4997Y8077D02*
X4997Y8058D01*
D02*
X4997Y7058D02*
X4647Y6708D01*
D02*
X4647Y6708D02*
X4647Y6642D01*
D02*
X4997Y7077D02*
X4997Y7058D01*
D02*
X4997Y6058D02*
X4647Y5708D01*
D02*
X4647Y5708D02*
X4647Y5642D01*
D02*
X4997Y6077D02*
X4997Y6058D01*
D02*
X4997Y5058D02*
X4647Y4708D01*
D02*
X4647Y4708D02*
X4647Y4642D01*
D02*
X4997Y5077D02*
X4997Y5058D01*
D02*
X4997Y4058D02*
X4647Y3708D01*
D02*
X4647Y3708D02*
X4647Y3642D01*
D02*
X4997Y4077D02*
X4997Y4058D01*
D02*
X4997Y3058D02*
X4647Y2708D01*
D02*
X4647Y2708D02*
X4647Y2642D01*
D02*
X4997Y3077D02*
X4997Y3058D01*
D02*
X4997Y2058D02*
X4647Y1708D01*
D02*
X4647Y1708D02*
X4647Y1642D01*
D02*
X4997Y2077D02*
X4997Y2058D01*
D02*
X4997Y1058D02*
X4647Y708D01*
D02*
X4647Y708D02*
X4647Y642D01*
D02*
X4997Y1077D02*
X4997Y1058D01*
D02*
X4247Y7708D02*
X4047Y7908D01*
D02*
X4247Y7642D02*
X4247Y7708D01*
D02*
X4047Y7908D02*
X3728Y7908D01*
D02*
X4247Y6708D02*
X4047Y6908D01*
D02*
X4247Y6642D02*
X4247Y6708D01*
D02*
X4047Y6908D02*
X3728Y6908D01*
D02*
X4247Y5708D02*
X4047Y5908D01*
D02*
X4247Y5642D02*
X4247Y5708D01*
D02*
X4047Y5908D02*
X3728Y5908D01*
D02*
X4247Y4708D02*
X4047Y4908D01*
D02*
X4247Y4642D02*
X4247Y4708D01*
D02*
X4047Y4908D02*
X3728Y4908D01*
D02*
X4247Y3708D02*
X4047Y3908D01*
D02*
X4247Y3642D02*
X4247Y3708D01*
D02*
X4047Y3908D02*
X3728Y3908D01*
D02*
X4247Y2708D02*
X4047Y2908D01*
D02*
X4247Y2642D02*
X4247Y2708D01*
D02*
X4047Y2908D02*
X3728Y2908D01*
D02*
X4247Y1708D02*
X4047Y1908D01*
D02*
X4247Y1642D02*
X4247Y1708D01*
D02*
X4047Y1908D02*
X3728Y1908D01*
D02*
X4047Y908D02*
X3728Y908D01*
D02*
X4247Y708D02*
X4047Y908D01*
D02*
X4247Y642D02*
X4247Y708D01*
D02*
X4847Y7708D02*
X4847Y7642D01*
D02*
X4947Y7808D02*
X4847Y7708D01*
D02*
X5675Y7887D02*
X5646Y7859D01*
D02*
X5397Y7859D02*
X5347Y7807D01*
D02*
X5646Y7859D02*
X5397Y7859D01*
D02*
X5347Y7807D02*
X4947Y7808D01*
D02*
X4847Y6708D02*
X4847Y6642D01*
D02*
X4947Y6808D02*
X4847Y6708D01*
D02*
X5666Y6908D02*
X5447Y6908D01*
D02*
X5447Y6908D02*
X5347Y6807D01*
D02*
X5347Y6807D02*
X4947Y6808D01*
D02*
X4847Y5708D02*
X4847Y5642D01*
D02*
X4947Y5808D02*
X4847Y5708D01*
D02*
X5666Y5908D02*
X5447Y5908D01*
D02*
X5447Y5908D02*
X5347Y5807D01*
D02*
X5347Y5807D02*
X4947Y5808D01*
D02*
X4847Y4708D02*
X4847Y4642D01*
D02*
X4947Y4808D02*
X4847Y4708D01*
D02*
X5666Y4908D02*
X5447Y4908D01*
D02*
X5447Y4908D02*
X5347Y4807D01*
D02*
X5347Y4807D02*
X4947Y4808D01*
D02*
X4847Y3708D02*
X4847Y3642D01*
D02*
X4947Y3808D02*
X4847Y3708D01*
D02*
X5666Y3908D02*
X5447Y3908D01*
D02*
X5447Y3908D02*
X5347Y3807D01*
D02*
X5347Y3807D02*
X4947Y3808D01*
D02*
X4847Y2708D02*
X4847Y2642D01*
D02*
X4947Y2808D02*
X4847Y2708D01*
D02*
X5666Y2908D02*
X5447Y2908D01*
D02*
X5447Y2908D02*
X5347Y2807D01*
D02*
X5347Y2807D02*
X4947Y2808D01*
D02*
X4847Y1708D02*
X4847Y1642D01*
D02*
X4947Y1808D02*
X4847Y1708D01*
D02*
X5666Y1908D02*
X5447Y1908D01*
D02*
X5447Y1908D02*
X5347Y1807D01*
D02*
X5347Y1807D02*
X4947Y1808D01*
D02*
X4847Y708D02*
X4847Y642D01*
D02*
X4947Y808D02*
X4847Y708D01*
D02*
X5347Y807D02*
X4947Y808D01*
D02*
X5447Y908D02*
X5347Y807D01*
D02*
X5666Y908D02*
X5447Y908D01*
D02*
X4048Y7808D02*
X3397Y7809D01*
D02*
X3397Y7809D02*
X3319Y7886D01*
D02*
X4147Y7512D02*
X4147Y7708D01*
D02*
X4147Y7708D02*
X4048Y7808D01*
D02*
X3647Y6807D02*
X3546Y6908D01*
D02*
X4048Y6808D02*
X3647Y6807D01*
D02*
X3546Y6908D02*
X3328Y6908D01*
D02*
X4147Y6512D02*
X4147Y6708D01*
D02*
X4147Y6708D02*
X4048Y6808D01*
D02*
X3647Y5807D02*
X3546Y5908D01*
D02*
X4048Y5808D02*
X3647Y5807D01*
D02*
X3546Y5908D02*
X3328Y5908D01*
D02*
X4147Y5512D02*
X4147Y5708D01*
D02*
X4147Y5708D02*
X4048Y5808D01*
D02*
X3647Y4807D02*
X3546Y4908D01*
D02*
X4048Y4808D02*
X3647Y4807D01*
D02*
X3546Y4908D02*
X3328Y4908D01*
D02*
X4147Y4512D02*
X4147Y4708D01*
D02*
X4147Y4708D02*
X4048Y4808D01*
D02*
X3647Y3807D02*
X3546Y3908D01*
D02*
X4048Y3808D02*
X3647Y3807D01*
D02*
X3546Y3908D02*
X3328Y3908D01*
D02*
X4147Y3512D02*
X4147Y3708D01*
D02*
X4147Y3708D02*
X4048Y3808D01*
D02*
X3647Y2807D02*
X3546Y2908D01*
D02*
X4048Y2808D02*
X3647Y2807D01*
D02*
X3546Y2908D02*
X3328Y2908D01*
D02*
X4147Y2512D02*
X4147Y2708D01*
D02*
X4147Y2708D02*
X4048Y2808D01*
D02*
X3647Y1807D02*
X3546Y1908D01*
D02*
X4048Y1808D02*
X3647Y1807D01*
D02*
X3546Y1908D02*
X3328Y1908D01*
D02*
X4147Y1512D02*
X4147Y1708D01*
D02*
X4147Y1708D02*
X4048Y1808D01*
D02*
X4048Y808D02*
X3647Y807D01*
D02*
X3546Y908D02*
X3328Y908D01*
D02*
X3647Y807D02*
X3546Y908D01*
D02*
X4147Y708D02*
X4048Y808D01*
D02*
X4147Y512D02*
X4147Y708D01*
D02*
X5047Y7689D02*
X5047Y7512D01*
D02*
X5047Y6689D02*
X5047Y6512D01*
D02*
X5047Y5689D02*
X5047Y5512D01*
D02*
X5047Y4689D02*
X5047Y4512D01*
D02*
X5047Y3689D02*
X5047Y3512D01*
D02*
X5047Y2689D02*
X5047Y2512D01*
D02*
X5047Y1689D02*
X5047Y1512D01*
D02*
X5047Y689D02*
X5047Y512D01*
D02*
X5147Y7642D02*
X5147Y7689D01*
D02*
X5147Y6642D02*
X5147Y6689D01*
D02*
X5147Y5642D02*
X5147Y5689D01*
D02*
X5147Y4642D02*
X5147Y4689D01*
D02*
X5147Y3642D02*
X5147Y3689D01*
D02*
X5147Y2642D02*
X5147Y2689D01*
D02*
X5147Y1642D02*
X5147Y1689D01*
D02*
X5147Y642D02*
X5147Y689D01*
D02*
X5247Y7689D02*
X5247Y7512D01*
D02*
X5247Y6689D02*
X5247Y6512D01*
D02*
X5247Y5689D02*
X5247Y5512D01*
D02*
X5247Y4689D02*
X5247Y4512D01*
D02*
X5247Y3689D02*
X5247Y3512D01*
D02*
X5247Y2689D02*
X5247Y2512D01*
D02*
X5247Y1689D02*
X5247Y1512D01*
D02*
X5247Y689D02*
X5247Y512D01*
D02*
X5347Y7689D02*
X5347Y7642D01*
D02*
X5347Y6689D02*
X5347Y6642D01*
D02*
X5347Y5689D02*
X5347Y5642D01*
D02*
X5347Y4689D02*
X5347Y4642D01*
D02*
X5347Y3689D02*
X5347Y3642D01*
D02*
X5347Y2689D02*
X5347Y2642D01*
D02*
X5347Y1689D02*
X5347Y1642D01*
D02*
X5347Y689D02*
X5347Y642D01*
D02*
X7247Y7758D02*
X5997Y7758D01*
D02*
X7297Y7808D02*
X7247Y7758D01*
D02*
X5448Y7708D02*
X5447Y7512D01*
D02*
X5997Y7758D02*
X5947Y7808D01*
D02*
X5947Y7808D02*
X5547Y7808D01*
D02*
X5547Y7808D02*
X5448Y7708D01*
D02*
X7297Y7877D02*
X7297Y7808D01*
D02*
X7247Y6758D02*
X5997Y6758D01*
D02*
X7297Y6808D02*
X7247Y6758D01*
D02*
X5448Y6708D02*
X5447Y6512D01*
D02*
X5997Y6758D02*
X5947Y6808D01*
D02*
X5947Y6808D02*
X5547Y6808D01*
D02*
X5547Y6808D02*
X5448Y6708D01*
D02*
X7297Y6877D02*
X7297Y6808D01*
D02*
X7247Y5758D02*
X5997Y5758D01*
D02*
X7297Y5808D02*
X7247Y5758D01*
D02*
X5448Y5708D02*
X5447Y5512D01*
D02*
X5997Y5758D02*
X5947Y5808D01*
D02*
X5947Y5808D02*
X5547Y5808D01*
D02*
X5547Y5808D02*
X5448Y5708D01*
D02*
X7297Y5877D02*
X7297Y5808D01*
D02*
X7247Y4758D02*
X5997Y4758D01*
D02*
X7297Y4808D02*
X7247Y4758D01*
D02*
X5448Y4708D02*
X5447Y4512D01*
D02*
X5997Y4758D02*
X5947Y4808D01*
D02*
X5947Y4808D02*
X5547Y4808D01*
D02*
X5547Y4808D02*
X5448Y4708D01*
D02*
X7297Y4877D02*
X7297Y4808D01*
D02*
X7247Y3758D02*
X5997Y3758D01*
D02*
X7297Y3808D02*
X7247Y3758D01*
D02*
X5448Y3708D02*
X5447Y3512D01*
D02*
X5997Y3758D02*
X5947Y3808D01*
D02*
X5947Y3808D02*
X5547Y3808D01*
D02*
X5547Y3808D02*
X5448Y3708D01*
D02*
X7297Y3877D02*
X7297Y3808D01*
D02*
X7247Y2758D02*
X5997Y2758D01*
D02*
X7297Y2808D02*
X7247Y2758D01*
D02*
X5448Y2708D02*
X5447Y2512D01*
D02*
X5997Y2758D02*
X5947Y2808D01*
D02*
X5947Y2808D02*
X5547Y2808D01*
D02*
X5547Y2808D02*
X5448Y2708D01*
D02*
X7297Y2877D02*
X7297Y2808D01*
D02*
X7247Y1758D02*
X5997Y1758D01*
D02*
X7297Y1808D02*
X7247Y1758D01*
D02*
X5448Y1708D02*
X5447Y1512D01*
D02*
X5997Y1758D02*
X5947Y1808D01*
D02*
X5947Y1808D02*
X5547Y1808D01*
D02*
X5547Y1808D02*
X5448Y1708D01*
D02*
X7297Y1877D02*
X7297Y1808D01*
D02*
X7297Y808D02*
X7247Y758D01*
D02*
X7247Y758D02*
X5997Y758D01*
D02*
X5997Y758D02*
X5947Y808D01*
D02*
X5947Y808D02*
X5547Y808D01*
D02*
X5547Y808D02*
X5448Y708D01*
D02*
X5448Y708D02*
X5447Y512D01*
D02*
X7297Y877D02*
X7297Y808D01*
D02*
X5597Y7758D02*
X5547Y7708D01*
D02*
X7697Y7758D02*
X7647Y7708D01*
D02*
X7697Y7877D02*
X7697Y7758D01*
D02*
X5947Y7708D02*
X5897Y7758D01*
D02*
X5897Y7758D02*
X5597Y7758D01*
D02*
X5547Y7708D02*
X5547Y7642D01*
D02*
X7647Y7708D02*
X5947Y7708D01*
D02*
X5597Y6758D02*
X5547Y6708D01*
D02*
X7697Y6758D02*
X7647Y6708D01*
D02*
X7697Y6877D02*
X7697Y6758D01*
D02*
X5947Y6708D02*
X5897Y6758D01*
D02*
X5897Y6758D02*
X5597Y6758D01*
D02*
X5547Y6708D02*
X5547Y6642D01*
D02*
X7647Y6708D02*
X5947Y6708D01*
D02*
X5597Y5758D02*
X5547Y5708D01*
D02*
X7697Y5758D02*
X7647Y5708D01*
D02*
X7697Y5877D02*
X7697Y5758D01*
D02*
X5947Y5708D02*
X5897Y5758D01*
D02*
X5897Y5758D02*
X5597Y5758D01*
D02*
X5547Y5708D02*
X5547Y5642D01*
D02*
X7647Y5708D02*
X5947Y5708D01*
D02*
X5597Y4758D02*
X5547Y4708D01*
D02*
X7697Y4758D02*
X7647Y4708D01*
D02*
X7697Y4877D02*
X7697Y4758D01*
D02*
X5947Y4708D02*
X5897Y4758D01*
D02*
X5897Y4758D02*
X5597Y4758D01*
D02*
X5547Y4708D02*
X5547Y4642D01*
D02*
X7647Y4708D02*
X5947Y4708D01*
D02*
X5597Y3758D02*
X5547Y3708D01*
D02*
X7697Y3758D02*
X7647Y3708D01*
D02*
X7697Y3877D02*
X7697Y3758D01*
D02*
X5947Y3708D02*
X5897Y3758D01*
D02*
X5897Y3758D02*
X5597Y3758D01*
D02*
X5547Y3708D02*
X5547Y3642D01*
D02*
X7647Y3708D02*
X5947Y3708D01*
D02*
X5597Y2758D02*
X5547Y2708D01*
D02*
X7697Y2758D02*
X7647Y2708D01*
D02*
X7697Y2877D02*
X7697Y2758D01*
D02*
X5947Y2708D02*
X5897Y2758D01*
D02*
X5897Y2758D02*
X5597Y2758D01*
D02*
X5547Y2708D02*
X5547Y2642D01*
D02*
X7647Y2708D02*
X5947Y2708D01*
D02*
X5597Y1758D02*
X5547Y1708D01*
D02*
X7697Y1758D02*
X7647Y1708D01*
D02*
X7697Y1877D02*
X7697Y1758D01*
D02*
X5947Y1708D02*
X5897Y1758D01*
D02*
X5897Y1758D02*
X5597Y1758D01*
D02*
X5547Y1708D02*
X5547Y1642D01*
D02*
X7647Y1708D02*
X5947Y1708D01*
D02*
X7697Y758D02*
X7647Y708D01*
D02*
X7647Y708D02*
X5947Y708D01*
D02*
X5947Y708D02*
X5897Y758D01*
D02*
X5897Y758D02*
X5597Y758D01*
D02*
X5597Y758D02*
X5547Y708D01*
D02*
X5547Y708D02*
X5547Y642D01*
D02*
X7697Y877D02*
X7697Y758D01*
D02*
X5897Y7659D02*
X5847Y7708D01*
D02*
X5847Y7708D02*
X5696Y7708D01*
D02*
X7947Y7659D02*
X5897Y7659D01*
D02*
X7997Y8077D02*
X7997Y7708D01*
D02*
X7997Y7708D02*
X7947Y7659D01*
D02*
X5696Y7708D02*
X5647Y7659D01*
D02*
X5647Y7659D02*
X5647Y7512D01*
D02*
X5897Y6659D02*
X5847Y6708D01*
D02*
X5847Y6708D02*
X5696Y6708D01*
D02*
X7947Y6659D02*
X5897Y6659D01*
D02*
X7997Y7077D02*
X7997Y6708D01*
D02*
X7997Y6708D02*
X7947Y6659D01*
D02*
X5696Y6708D02*
X5647Y6659D01*
D02*
X5647Y6659D02*
X5647Y6512D01*
D02*
X5897Y5659D02*
X5847Y5708D01*
D02*
X5847Y5708D02*
X5696Y5708D01*
D02*
X7947Y5659D02*
X5897Y5659D01*
D02*
X7997Y6077D02*
X7997Y5708D01*
D02*
X7997Y5708D02*
X7947Y5659D01*
D02*
X5696Y5708D02*
X5647Y5659D01*
D02*
X5647Y5659D02*
X5647Y5512D01*
D02*
X5897Y4659D02*
X5847Y4708D01*
D02*
X5847Y4708D02*
X5696Y4708D01*
D02*
X7947Y4659D02*
X5897Y4659D01*
D02*
X7997Y5077D02*
X7997Y4708D01*
D02*
X7997Y4708D02*
X7947Y4659D01*
D02*
X5696Y4708D02*
X5647Y4659D01*
D02*
X5647Y4659D02*
X5647Y4512D01*
D02*
X5897Y3659D02*
X5847Y3708D01*
D02*
X5847Y3708D02*
X5696Y3708D01*
D02*
X7947Y3659D02*
X5897Y3659D01*
D02*
X7997Y4077D02*
X7997Y3708D01*
D02*
X7997Y3708D02*
X7947Y3659D01*
D02*
X5696Y3708D02*
X5647Y3659D01*
D02*
X5647Y3659D02*
X5647Y3512D01*
D02*
X5897Y2659D02*
X5847Y2708D01*
D02*
X5847Y2708D02*
X5696Y2708D01*
D02*
X7947Y2659D02*
X5897Y2659D01*
D02*
X7997Y3077D02*
X7997Y2708D01*
D02*
X7997Y2708D02*
X7947Y2659D01*
D02*
X5696Y2708D02*
X5647Y2659D01*
D02*
X5647Y2659D02*
X5647Y2512D01*
D02*
X5897Y1659D02*
X5847Y1708D01*
D02*
X5847Y1708D02*
X5696Y1708D01*
D02*
X7947Y1659D02*
X5897Y1659D01*
D02*
X7997Y2077D02*
X7997Y1708D01*
D02*
X7997Y1708D02*
X7947Y1659D01*
D02*
X5696Y1708D02*
X5647Y1659D01*
D02*
X5647Y1659D02*
X5647Y1512D01*
D02*
X7997Y708D02*
X7947Y659D01*
D02*
X7947Y659D02*
X5897Y659D01*
D02*
X5897Y659D02*
X5847Y708D01*
D02*
X5847Y708D02*
X5696Y708D01*
D02*
X5696Y708D02*
X5647Y659D01*
D02*
X5647Y659D02*
X5647Y512D01*
D02*
X7997Y1077D02*
X7997Y708D01*
D02*
X8297Y7659D02*
X8248Y7609D01*
D02*
X8248Y7609D02*
X5761Y7608D01*
D02*
X8297Y7877D02*
X8297Y7659D01*
D02*
X8297Y6659D02*
X8248Y6609D01*
D02*
X8248Y6609D02*
X5761Y6608D01*
D02*
X8297Y6877D02*
X8297Y6659D01*
D02*
X8297Y5659D02*
X8248Y5609D01*
D02*
X8248Y5609D02*
X5761Y5608D01*
D02*
X8297Y5877D02*
X8297Y5659D01*
D02*
X8297Y4659D02*
X8248Y4609D01*
D02*
X8248Y4609D02*
X5761Y4608D01*
D02*
X8297Y4877D02*
X8297Y4659D01*
D02*
X8297Y3659D02*
X8248Y3609D01*
D02*
X8248Y3609D02*
X5761Y3608D01*
D02*
X8297Y3877D02*
X8297Y3659D01*
D02*
X8297Y2659D02*
X8248Y2609D01*
D02*
X8248Y2609D02*
X5761Y2608D01*
D02*
X8297Y2877D02*
X8297Y2659D01*
D02*
X8297Y1659D02*
X8248Y1609D01*
D02*
X8248Y1609D02*
X5761Y1608D01*
D02*
X8297Y1877D02*
X8297Y1659D01*
D02*
X8248Y609D02*
X5761Y608D01*
D02*
X8297Y659D02*
X8248Y609D01*
D02*
X8297Y877D02*
X8297Y659D01*
D02*
X3947Y7689D02*
X3947Y7642D01*
D02*
X3947Y6689D02*
X3947Y6642D01*
D02*
X3947Y5689D02*
X3947Y5642D01*
D02*
X3947Y4689D02*
X3947Y4642D01*
D02*
X3947Y3689D02*
X3947Y3642D01*
D02*
X3947Y2689D02*
X3947Y2642D01*
D02*
X3947Y1689D02*
X3947Y1642D01*
D02*
X3947Y689D02*
X3947Y642D01*
D02*
X3847Y7689D02*
X3847Y7512D01*
D02*
X3847Y6689D02*
X3847Y6512D01*
D02*
X3847Y5689D02*
X3847Y5512D01*
D02*
X3847Y4689D02*
X3847Y4512D01*
D02*
X3847Y3689D02*
X3847Y3512D01*
D02*
X3847Y2689D02*
X3847Y2512D01*
D02*
X3847Y1689D02*
X3847Y1512D01*
D02*
X3847Y689D02*
X3847Y512D01*
D02*
X3747Y7689D02*
X3747Y7642D01*
D02*
X3747Y6689D02*
X3747Y6642D01*
D02*
X3747Y5689D02*
X3747Y5642D01*
D02*
X3747Y4689D02*
X3747Y4642D01*
D02*
X3747Y3689D02*
X3747Y3642D01*
D02*
X3747Y2689D02*
X3747Y2642D01*
D02*
X3747Y1689D02*
X3747Y1642D01*
D02*
X3747Y689D02*
X3747Y642D01*
D02*
X3647Y7689D02*
X3647Y7512D01*
D02*
X3647Y6689D02*
X3647Y6512D01*
D02*
X3647Y5689D02*
X3647Y5512D01*
D02*
X3647Y4689D02*
X3647Y4512D01*
D02*
X3647Y3689D02*
X3647Y3512D01*
D02*
X3647Y2689D02*
X3647Y2512D01*
D02*
X3647Y1689D02*
X3647Y1512D01*
D02*
X3647Y689D02*
X3647Y512D01*
D02*
X747Y7733D02*
X1721Y7733D01*
D02*
X3246Y7557D02*
X3247Y7512D01*
D02*
X1846Y7608D02*
X3197Y7609D01*
D02*
X1721Y7733D02*
X1846Y7608D01*
D02*
X697Y7783D02*
X747Y7733D01*
D02*
X697Y7877D02*
X697Y7783D01*
D02*
X3197Y7609D02*
X3246Y7557D01*
D02*
X697Y6659D02*
X747Y6609D01*
D02*
X3246Y6557D02*
X3247Y6512D01*
D02*
X747Y6609D02*
X3197Y6609D01*
D02*
X697Y6877D02*
X697Y6659D01*
D02*
X3197Y6609D02*
X3246Y6557D01*
D02*
X697Y5659D02*
X747Y5609D01*
D02*
X3246Y5557D02*
X3247Y5512D01*
D02*
X747Y5609D02*
X3197Y5609D01*
D02*
X697Y5877D02*
X697Y5659D01*
D02*
X3197Y5609D02*
X3246Y5557D01*
D02*
X697Y4659D02*
X747Y4609D01*
D02*
X3246Y4557D02*
X3247Y4512D01*
D02*
X747Y4609D02*
X3197Y4609D01*
D02*
X697Y4877D02*
X697Y4659D01*
D02*
X3197Y4609D02*
X3246Y4557D01*
D02*
X697Y3659D02*
X747Y3609D01*
D02*
X3246Y3557D02*
X3247Y3512D01*
D02*
X747Y3609D02*
X3197Y3609D01*
D02*
X697Y3877D02*
X697Y3659D01*
D02*
X3197Y3609D02*
X3246Y3557D01*
D02*
X697Y2659D02*
X747Y2609D01*
D02*
X3246Y2557D02*
X3247Y2512D01*
D02*
X747Y2609D02*
X3197Y2609D01*
D02*
X697Y2877D02*
X697Y2659D01*
D02*
X3197Y2609D02*
X3246Y2557D01*
D02*
X697Y1659D02*
X747Y1609D01*
D02*
X3246Y1557D02*
X3247Y1512D01*
D02*
X747Y1609D02*
X3197Y1609D01*
D02*
X697Y1877D02*
X697Y1659D01*
D02*
X3197Y1609D02*
X3246Y1557D01*
D02*
X3246Y557D02*
X3247Y512D01*
D02*
X3197Y609D02*
X3246Y557D01*
D02*
X747Y609D02*
X3197Y609D01*
D02*
X697Y659D02*
X747Y609D01*
D02*
X697Y877D02*
X697Y659D01*
D02*
X1771Y7783D02*
X1896Y7658D01*
D02*
X1896Y7658D02*
X3305Y7656D01*
D02*
X1047Y7783D02*
X1771Y7783D01*
D02*
X997Y7833D02*
X1047Y7783D01*
D02*
X997Y8077D02*
X997Y7833D01*
D02*
X3305Y7656D02*
X3333Y7625D01*
D02*
X997Y6708D02*
X1047Y6659D01*
D02*
X1047Y6659D02*
X3305Y6656D01*
D02*
X997Y7077D02*
X997Y6708D01*
D02*
X3305Y6656D02*
X3333Y6625D01*
D02*
X997Y5708D02*
X1047Y5659D01*
D02*
X1047Y5659D02*
X3305Y5656D01*
D02*
X997Y6077D02*
X997Y5708D01*
D02*
X3305Y5656D02*
X3333Y5625D01*
D02*
X997Y4708D02*
X1047Y4659D01*
D02*
X1047Y4659D02*
X3305Y4656D01*
D02*
X997Y5077D02*
X997Y4708D01*
D02*
X3305Y4656D02*
X3333Y4625D01*
D02*
X997Y3708D02*
X1047Y3659D01*
D02*
X1047Y3659D02*
X3305Y3656D01*
D02*
X997Y4077D02*
X997Y3708D01*
D02*
X3305Y3656D02*
X3333Y3625D01*
D02*
X997Y2708D02*
X1047Y2659D01*
D02*
X1047Y2659D02*
X3305Y2656D01*
D02*
X997Y3077D02*
X997Y2708D01*
D02*
X3305Y2656D02*
X3333Y2625D01*
D02*
X997Y1708D02*
X1047Y1659D01*
D02*
X1047Y1659D02*
X3305Y1656D01*
D02*
X997Y2077D02*
X997Y1708D01*
D02*
X3305Y1656D02*
X3333Y1625D01*
D02*
X3305Y656D02*
X3333Y625D01*
D02*
X1047Y659D02*
X3305Y656D01*
D02*
X997Y708D02*
X1047Y659D01*
D02*
X997Y1077D02*
X997Y708D01*
D02*
X1947Y7708D02*
X3397Y7708D01*
D02*
X3447Y7659D02*
X3447Y7512D01*
D02*
X3397Y7708D02*
X3447Y7659D01*
D02*
X1821Y7833D02*
X1947Y7708D01*
D02*
X1521Y7833D02*
X1821Y7833D01*
D02*
X1446Y7908D02*
X1521Y7833D01*
D02*
X1328Y7908D02*
X1446Y7908D01*
D02*
X1347Y6708D02*
X3397Y6708D01*
D02*
X3447Y6659D02*
X3447Y6512D01*
D02*
X1297Y6877D02*
X1297Y6758D01*
D02*
X3397Y6708D02*
X3447Y6659D01*
D02*
X1297Y6758D02*
X1347Y6708D01*
D02*
X1347Y5708D02*
X3397Y5708D01*
D02*
X3447Y5659D02*
X3447Y5512D01*
D02*
X1297Y5877D02*
X1297Y5758D01*
D02*
X3397Y5708D02*
X3447Y5659D01*
D02*
X1297Y5758D02*
X1347Y5708D01*
D02*
X1347Y4708D02*
X3397Y4708D01*
D02*
X3447Y4659D02*
X3447Y4512D01*
D02*
X1297Y4877D02*
X1297Y4758D01*
D02*
X3397Y4708D02*
X3447Y4659D01*
D02*
X1297Y4758D02*
X1347Y4708D01*
D02*
X1347Y3708D02*
X3397Y3708D01*
D02*
X3447Y3659D02*
X3447Y3512D01*
D02*
X1297Y3877D02*
X1297Y3758D01*
D02*
X3397Y3708D02*
X3447Y3659D01*
D02*
X1297Y3758D02*
X1347Y3708D01*
D02*
X1347Y2708D02*
X3397Y2708D01*
D02*
X3447Y2659D02*
X3447Y2512D01*
D02*
X1297Y2877D02*
X1297Y2758D01*
D02*
X3397Y2708D02*
X3447Y2659D01*
D02*
X1297Y2758D02*
X1347Y2708D01*
D02*
X1347Y1708D02*
X3397Y1708D01*
D02*
X3447Y1659D02*
X3447Y1512D01*
D02*
X1297Y1877D02*
X1297Y1758D01*
D02*
X3397Y1708D02*
X3447Y1659D01*
D02*
X1297Y1758D02*
X1347Y1708D01*
D02*
X3397Y708D02*
X3447Y659D01*
D02*
X3447Y659D02*
X3447Y512D01*
D02*
X1347Y708D02*
X3397Y708D01*
D02*
X1297Y758D02*
X1347Y708D01*
D02*
X1297Y877D02*
X1297Y758D01*
D02*
X1997Y7758D02*
X3497Y7758D01*
D02*
X3547Y7708D02*
X3547Y7642D01*
D02*
X1846Y7908D02*
X1997Y7758D01*
D02*
X1728Y7908D02*
X1846Y7908D01*
D02*
X3497Y7758D02*
X3547Y7708D01*
D02*
X1747Y6758D02*
X3497Y6758D01*
D02*
X3547Y6708D02*
X3547Y6642D01*
D02*
X1697Y6808D02*
X1747Y6758D01*
D02*
X1697Y6877D02*
X1697Y6808D01*
D02*
X3497Y6758D02*
X3547Y6708D01*
D02*
X1747Y5758D02*
X3497Y5758D01*
D02*
X3547Y5708D02*
X3547Y5642D01*
D02*
X1697Y5808D02*
X1747Y5758D01*
D02*
X1697Y5877D02*
X1697Y5808D01*
D02*
X3497Y5758D02*
X3547Y5708D01*
D02*
X1747Y4758D02*
X3497Y4758D01*
D02*
X3547Y4708D02*
X3547Y4642D01*
D02*
X1697Y4808D02*
X1747Y4758D01*
D02*
X1697Y4877D02*
X1697Y4808D01*
D02*
X3497Y4758D02*
X3547Y4708D01*
D02*
X1747Y3758D02*
X3497Y3758D01*
D02*
X3547Y3708D02*
X3547Y3642D01*
D02*
X1697Y3808D02*
X1747Y3758D01*
D02*
X1697Y3877D02*
X1697Y3808D01*
D02*
X3497Y3758D02*
X3547Y3708D01*
D02*
X1747Y2758D02*
X3497Y2758D01*
D02*
X3547Y2708D02*
X3547Y2642D01*
D02*
X1697Y2808D02*
X1747Y2758D01*
D02*
X1697Y2877D02*
X1697Y2808D01*
D02*
X3497Y2758D02*
X3547Y2708D01*
D02*
X1747Y1758D02*
X3497Y1758D01*
D02*
X3547Y1708D02*
X3547Y1642D01*
D02*
X1697Y1808D02*
X1747Y1758D01*
D02*
X1697Y1877D02*
X1697Y1808D01*
D02*
X3497Y1758D02*
X3547Y1708D01*
D02*
X3547Y708D02*
X3547Y642D01*
D02*
X3497Y758D02*
X3547Y708D01*
D02*
X1747Y758D02*
X3497Y758D01*
D02*
X1697Y808D02*
X1747Y758D01*
D02*
X1697Y877D02*
X1697Y808D01*
D02*
X2946Y7909D02*
X2728Y7908D01*
D02*
X2946Y6909D02*
X2728Y6908D01*
D02*
X2946Y5909D02*
X2728Y5908D01*
D02*
X2946Y4909D02*
X2728Y4908D01*
D02*
X2946Y3909D02*
X2728Y3908D01*
D02*
X2946Y2909D02*
X2728Y2908D01*
D02*
X2946Y1909D02*
X2728Y1908D01*
D02*
X2946Y909D02*
X2728Y908D01*
D02*
X3047Y8008D02*
X2946Y7909D01*
D02*
X3047Y7008D02*
X2946Y6909D01*
D02*
X3047Y6008D02*
X2946Y5909D01*
D02*
X3047Y5008D02*
X2946Y4909D01*
D02*
X3047Y4008D02*
X2946Y3909D01*
D02*
X3047Y3008D02*
X2946Y2909D01*
D02*
X3047Y2008D02*
X2946Y1909D01*
D02*
X3047Y1008D02*
X2946Y909D01*
D02*
X3572Y7883D02*
X3447Y7883D01*
D02*
X3321Y8008D02*
X3047Y8008D01*
D02*
X3447Y7883D02*
X3321Y8008D01*
D02*
X3697Y8008D02*
X3572Y7883D01*
D02*
X3778Y8008D02*
X3697Y8008D01*
D02*
X3678Y7008D02*
X3047Y7008D01*
D02*
X3678Y6008D02*
X3047Y6008D01*
D02*
X3678Y5008D02*
X3047Y5008D01*
D02*
X3678Y4008D02*
X3047Y4008D01*
D02*
X3678Y3008D02*
X3047Y3008D01*
D02*
X3678Y2008D02*
X3047Y2008D01*
D02*
X3678Y1008D02*
X3047Y1008D01*
D02*
X2478Y7908D02*
X2328Y7908D01*
D02*
X2297Y6958D02*
X2297Y6939D01*
D02*
X2297Y5958D02*
X2297Y5939D01*
D02*
X2297Y4958D02*
X2297Y4939D01*
D02*
X2297Y3958D02*
X2297Y3939D01*
D02*
X2297Y2958D02*
X2297Y2939D01*
D02*
X2297Y1958D02*
X2297Y1939D01*
D02*
X2297Y958D02*
X2297Y939D01*
D02*
X2347Y7008D02*
X2297Y6958D01*
D02*
X2347Y6008D02*
X2297Y5958D01*
D02*
X2347Y5008D02*
X2297Y4958D01*
D02*
X2347Y4008D02*
X2297Y3958D01*
D02*
X2347Y3008D02*
X2297Y2958D01*
D02*
X2347Y2008D02*
X2297Y1958D01*
D02*
X2347Y1008D02*
X2297Y958D01*
D02*
X2478Y7008D02*
X2347Y7008D01*
D02*
X2478Y6008D02*
X2347Y6008D01*
D02*
X2478Y5008D02*
X2347Y5008D01*
D02*
X2478Y4008D02*
X2347Y4008D01*
D02*
X2478Y3008D02*
X2347Y3008D01*
D02*
X2478Y2008D02*
X2347Y2008D01*
D02*
X2478Y1008D02*
X2347Y1008D01*
D02*
X5947Y8058D02*
X5975Y8086D01*
D02*
X5672Y8058D02*
X5947Y8058D01*
D02*
X5572Y7959D02*
X5672Y8058D01*
D02*
X5422Y7959D02*
X5572Y7959D01*
D02*
X5271Y8108D02*
X5422Y7959D01*
D02*
X5241Y8108D02*
X5271Y8108D01*
D02*
X5316Y7108D02*
X5966Y7108D01*
D02*
X5316Y6108D02*
X5966Y6108D01*
D02*
X5316Y5108D02*
X5966Y5108D01*
D02*
X5316Y4108D02*
X5966Y4108D01*
D02*
X5316Y3108D02*
X5966Y3108D01*
D02*
X5316Y2108D02*
X5966Y2108D01*
D02*
X5316Y1108D02*
X5966Y1108D01*
D02*
X6997Y8077D02*
X6997Y7858D01*
D02*
X6997Y7077D02*
X6997Y6858D01*
D02*
X6997Y6077D02*
X6997Y5858D01*
D02*
X6997Y5077D02*
X6997Y4858D01*
D02*
X6997Y4077D02*
X6997Y3858D01*
D02*
X6997Y3077D02*
X6997Y2858D01*
D02*
X6997Y2077D02*
X6997Y1858D01*
D02*
X6997Y1077D02*
X6997Y858D01*
D02*
X6997Y7858D02*
X6947Y7808D01*
D02*
X6997Y6858D02*
X6947Y6808D01*
D02*
X6997Y5858D02*
X6947Y5808D01*
D02*
X6997Y4858D02*
X6947Y4808D01*
D02*
X6997Y3858D02*
X6947Y3808D01*
D02*
X6997Y2858D02*
X6947Y2808D01*
D02*
X6997Y1858D02*
X6947Y1808D01*
D02*
X6997Y858D02*
X6947Y808D01*
D02*
X6947Y7808D02*
X6046Y7808D01*
D02*
X6947Y6808D02*
X6046Y6808D01*
D02*
X6947Y5808D02*
X6046Y5808D01*
D02*
X6947Y4808D02*
X6046Y4808D01*
D02*
X6947Y3808D02*
X6046Y3808D01*
D02*
X6947Y2808D02*
X6046Y2808D01*
D02*
X6947Y1808D02*
X6046Y1808D01*
D02*
X6947Y808D02*
X6046Y808D01*
D02*
X6046Y7808D02*
X5947Y7909D01*
D02*
X6046Y6808D02*
X5947Y6909D01*
D02*
X6046Y5808D02*
X5947Y5909D01*
D02*
X6046Y4808D02*
X5947Y4909D01*
D02*
X6046Y3808D02*
X5947Y3909D01*
D02*
X6046Y2808D02*
X5947Y2909D01*
D02*
X6046Y1808D02*
X5947Y1909D01*
D02*
X6046Y808D02*
X5947Y909D01*
D02*
X5947Y7909D02*
X5916Y7908D01*
D02*
X5947Y6909D02*
X5916Y6908D01*
D02*
X5947Y5909D02*
X5916Y5908D01*
D02*
X5947Y4909D02*
X5916Y4908D01*
D02*
X5947Y3909D02*
X5916Y3908D01*
D02*
X5947Y2909D02*
X5916Y2908D01*
D02*
X5947Y1909D02*
X5916Y1908D01*
D02*
X5947Y909D02*
X5916Y908D01*
D02*
X6266Y7908D02*
X6046Y7908D01*
D02*
X6266Y6908D02*
X6046Y6908D01*
D02*
X6266Y5908D02*
X6046Y5908D01*
D02*
X6266Y4908D02*
X6046Y4908D01*
D02*
X6266Y3908D02*
X6046Y3908D01*
D02*
X6266Y2908D02*
X6046Y2908D01*
D02*
X6266Y1908D02*
X6046Y1908D01*
D02*
X6266Y908D02*
X6046Y908D01*
D02*
X6046Y7908D02*
X5946Y8008D01*
D02*
X6046Y6908D02*
X5946Y7008D01*
D02*
X6046Y5908D02*
X5946Y6008D01*
D02*
X6046Y4908D02*
X5946Y5008D01*
D02*
X6046Y3908D02*
X5946Y4008D01*
D02*
X6046Y2908D02*
X5946Y3008D01*
D02*
X6046Y1908D02*
X5946Y2008D01*
D02*
X6046Y908D02*
X5946Y1008D01*
D02*
X5697Y8007D02*
X5597Y7908D01*
D02*
X5597Y7908D02*
X5397Y7909D01*
D02*
X5397Y7909D02*
X5297Y8008D01*
D02*
X5297Y8008D02*
X5241Y8008D01*
D02*
X5946Y8008D02*
X5697Y8007D01*
D02*
X5946Y7008D02*
X5316Y7008D01*
D02*
X5946Y6008D02*
X5316Y6008D01*
D02*
X5946Y5008D02*
X5316Y5008D01*
D02*
X5946Y4008D02*
X5316Y4008D01*
D02*
X5946Y3008D02*
X5316Y3008D01*
D02*
X5946Y2008D02*
X5316Y2008D01*
D02*
X5946Y1008D02*
X5316Y1008D01*
D02*
X6666Y7908D02*
X6441Y7908D01*
D02*
X6647Y7008D02*
X6516Y7008D01*
D02*
X6647Y6008D02*
X6516Y6008D01*
D02*
X6647Y5008D02*
X6516Y5008D01*
D02*
X6647Y4008D02*
X6516Y4008D01*
D02*
X6647Y3008D02*
X6516Y3008D01*
D02*
X6647Y2008D02*
X6516Y2008D01*
D02*
X6647Y1008D02*
X6516Y1008D01*
D02*
X6698Y6959D02*
X6647Y7008D01*
D02*
X6698Y5959D02*
X6647Y6008D01*
D02*
X6698Y4959D02*
X6647Y5008D01*
D02*
X6698Y3959D02*
X6647Y4008D01*
D02*
X6698Y2959D02*
X6647Y3008D01*
D02*
X6698Y1959D02*
X6647Y2008D01*
D02*
X6698Y959D02*
X6647Y1008D01*
D02*
X6697Y6939D02*
X6698Y6959D01*
D02*
X6697Y5939D02*
X6698Y5959D01*
D02*
X6697Y4939D02*
X6698Y4959D01*
D02*
X6697Y3939D02*
X6698Y3959D01*
D02*
X6697Y2939D02*
X6698Y2959D01*
D02*
X6697Y1939D02*
X6698Y1959D01*
D02*
X6697Y939D02*
X6698Y959D01*
D02*
X3047Y8058D02*
X3018Y8086D01*
D02*
X3347Y8058D02*
X3047Y8058D01*
D02*
X3572Y7958D02*
X3447Y7958D01*
D02*
X3447Y7958D02*
X3347Y8058D01*
D02*
X3722Y8108D02*
X3572Y7958D01*
D02*
X3778Y8108D02*
X3722Y8108D01*
D02*
X3678Y7108D02*
X3028Y7108D01*
D02*
X3678Y6108D02*
X3028Y6108D01*
D02*
X3678Y5108D02*
X3028Y5108D01*
D02*
X3678Y4108D02*
X3028Y4108D01*
D02*
X3678Y3108D02*
X3028Y3108D01*
D02*
X3678Y2108D02*
X3028Y2108D01*
D02*
X3678Y1108D02*
X3028Y1108D01*
G54D16*
X2514Y326D02*
X2519Y326D01*
X2576Y326D02*
X2608Y326D01*
X2646Y326D02*
X2689Y326D01*
X2732Y326D02*
X2779Y326D01*
X2899Y326D02*
X2954Y326D01*
X2984Y326D02*
X2990Y326D01*
X3024Y326D02*
X3040Y326D01*
X3070Y326D02*
X3075Y326D01*
X3117Y326D02*
X3122Y326D01*
X3162Y326D02*
X3167Y326D01*
X3519Y326D02*
X3551Y326D01*
X3691Y326D02*
X3723Y326D01*
X3842Y326D02*
X3847Y326D01*
X3889Y326D02*
X3894Y326D01*
X3927Y326D02*
X3983Y326D01*
X4023Y326D02*
X4068Y326D01*
X4893Y326D02*
X4923Y326D01*
X4966Y326D02*
X5011Y326D01*
X5066Y326D02*
X5071Y326D01*
X5149Y326D02*
X5158Y326D01*
X5228Y326D02*
X5269Y326D01*
X5385Y326D02*
X5440Y326D01*
X5479Y326D02*
X5517Y326D01*
X5580Y326D02*
X5585Y326D01*
X5657Y326D02*
X5697Y326D01*
X5985Y326D02*
X6040Y326D01*
X6085Y326D02*
X6126Y326D01*
X6157Y326D02*
X6162Y326D01*
X6204Y326D02*
X6209Y326D01*
X6242Y326D02*
X6272Y326D01*
X6436Y326D02*
X6466Y326D01*
X6499Y326D02*
X6555Y326D01*
X6632Y326D02*
X6637Y326D01*
X6771Y326D02*
X6812Y326D01*
X6842Y326D02*
X6868Y326D01*
X6938Y326D02*
X6983Y326D01*
X7111Y326D02*
X7140Y326D01*
X7283Y326D02*
X7311Y326D01*
X7454Y326D02*
X7483Y326D01*
X2513Y325D02*
X2521Y325D01*
X2576Y325D02*
X2609Y325D01*
X2644Y325D02*
X2691Y325D01*
X2730Y325D02*
X2781Y325D01*
X2897Y325D02*
X2954Y325D01*
X2983Y325D02*
X2991Y325D01*
X3024Y325D02*
X3040Y325D01*
X3069Y325D02*
X3077Y325D01*
X3116Y325D02*
X3124Y325D01*
X3161Y325D02*
X3168Y325D01*
X3519Y325D02*
X3552Y325D01*
X3691Y325D02*
X3724Y325D01*
X3841Y325D02*
X3848Y325D01*
X3888Y325D02*
X3895Y325D01*
X3926Y325D02*
X3983Y325D01*
X4020Y325D02*
X4068Y325D01*
X4891Y325D02*
X4924Y325D01*
X4963Y325D02*
X5011Y325D01*
X5064Y325D02*
X5072Y325D01*
X5147Y325D02*
X5161Y325D01*
X5225Y325D02*
X5269Y325D01*
X5384Y325D02*
X5440Y325D01*
X5476Y325D02*
X5519Y325D01*
X5579Y325D02*
X5586Y325D01*
X5654Y325D02*
X5697Y325D01*
X5984Y325D02*
X6040Y325D01*
X6083Y325D02*
X6126Y325D01*
X6155Y325D02*
X6163Y325D01*
X6202Y325D02*
X6210Y325D01*
X6241Y325D02*
X6274Y325D01*
X6434Y325D02*
X6467Y325D01*
X6498Y325D02*
X6555Y325D01*
X6631Y325D02*
X6639Y325D01*
X6768Y325D02*
X6812Y325D01*
X6841Y325D02*
X6870Y325D01*
X6935Y325D02*
X6983Y325D01*
X7110Y325D02*
X7141Y325D01*
X7282Y325D02*
X7313Y325D01*
X7453Y325D02*
X7484Y325D01*
X2512Y324D02*
X2521Y324D01*
X2576Y324D02*
X2610Y324D01*
X2643Y324D02*
X2692Y324D01*
X2729Y324D02*
X2781Y324D01*
X2897Y324D02*
X2954Y324D01*
X2982Y324D02*
X2992Y324D01*
X3024Y324D02*
X3040Y324D01*
X3068Y324D02*
X3077Y324D01*
X3115Y324D02*
X3124Y324D01*
X3160Y324D02*
X3169Y324D01*
X3519Y324D02*
X3553Y324D01*
X3691Y324D02*
X3725Y324D01*
X3840Y324D02*
X3849Y324D01*
X3887Y324D02*
X3896Y324D01*
X3925Y324D02*
X3983Y324D01*
X4019Y324D02*
X4068Y324D01*
X4889Y324D02*
X4925Y324D01*
X4962Y324D02*
X5011Y324D01*
X5063Y324D02*
X5073Y324D01*
X5145Y324D02*
X5162Y324D01*
X5223Y324D02*
X5269Y324D01*
X5383Y324D02*
X5440Y324D01*
X5475Y324D02*
X5521Y324D01*
X5578Y324D02*
X5587Y324D01*
X5652Y324D02*
X5697Y324D01*
X5983Y324D02*
X6040Y324D01*
X6081Y324D02*
X6126Y324D01*
X6154Y324D02*
X6164Y324D01*
X6202Y324D02*
X6211Y324D01*
X6240Y324D02*
X6276Y324D01*
X6432Y324D02*
X6468Y324D01*
X6497Y324D02*
X6555Y324D01*
X6630Y324D02*
X6639Y324D01*
X6766Y324D02*
X6812Y324D01*
X6840Y324D02*
X6872Y324D01*
X6933Y324D02*
X6983Y324D01*
X7109Y324D02*
X7142Y324D01*
X7281Y324D02*
X7313Y324D01*
X7452Y324D02*
X7485Y324D01*
X2512Y323D02*
X2522Y323D01*
X2576Y323D02*
X2611Y323D01*
X2642Y323D02*
X2693Y323D01*
X2728Y323D02*
X2782Y323D01*
X2896Y323D02*
X2954Y323D01*
X2982Y323D02*
X2992Y323D01*
X3023Y323D02*
X3040Y323D01*
X3068Y323D02*
X3078Y323D01*
X3115Y323D02*
X3125Y323D01*
X3159Y323D02*
X3169Y323D01*
X3519Y323D02*
X3554Y323D01*
X3691Y323D02*
X3725Y323D01*
X3839Y323D02*
X3849Y323D01*
X3886Y323D02*
X3896Y323D01*
X3925Y323D02*
X3983Y323D01*
X4017Y323D02*
X4068Y323D01*
X4888Y323D02*
X4925Y323D01*
X4960Y323D02*
X5011Y323D01*
X5063Y323D02*
X5073Y323D01*
X5144Y323D02*
X5164Y323D01*
X5222Y323D02*
X5269Y323D01*
X5382Y323D02*
X5440Y323D01*
X5473Y323D02*
X5522Y323D01*
X5577Y323D02*
X5588Y323D01*
X5650Y323D02*
X5697Y323D01*
X5982Y323D02*
X6040Y323D01*
X6079Y323D02*
X6126Y323D01*
X6154Y323D02*
X6164Y323D01*
X6201Y323D02*
X6211Y323D01*
X6240Y323D02*
X6278Y323D01*
X6431Y323D02*
X6468Y323D01*
X6497Y323D02*
X6555Y323D01*
X6630Y323D02*
X6640Y323D01*
X6765Y323D02*
X6812Y323D01*
X6840Y323D02*
X6873Y323D01*
X6932Y323D02*
X6983Y323D01*
X7109Y323D02*
X7142Y323D01*
X7280Y323D02*
X7314Y323D01*
X7452Y323D02*
X7485Y323D01*
X2511Y322D02*
X2522Y322D01*
X2576Y322D02*
X2611Y322D01*
X2641Y322D02*
X2694Y322D01*
X2727Y322D02*
X2782Y322D01*
X2896Y322D02*
X2954Y322D01*
X2982Y322D02*
X2992Y322D01*
X3023Y322D02*
X3040Y322D01*
X3067Y322D02*
X3078Y322D01*
X3114Y322D02*
X3125Y322D01*
X3159Y322D02*
X3170Y322D01*
X3519Y322D02*
X3554Y322D01*
X3691Y322D02*
X3725Y322D01*
X3839Y322D02*
X3850Y322D01*
X3886Y322D02*
X3897Y322D01*
X3925Y322D02*
X3983Y322D01*
X4016Y322D02*
X4068Y322D01*
X4887Y322D02*
X4926Y322D01*
X4959Y322D02*
X5011Y322D01*
X5063Y322D02*
X5074Y322D01*
X5143Y322D02*
X5165Y322D01*
X5220Y322D02*
X5269Y322D01*
X5382Y322D02*
X5440Y322D01*
X5472Y322D02*
X5523Y322D01*
X5577Y322D02*
X5588Y322D01*
X5649Y322D02*
X5697Y322D01*
X5982Y322D02*
X6040Y322D01*
X6077Y322D02*
X6126Y322D01*
X6154Y322D02*
X6164Y322D01*
X6201Y322D02*
X6211Y322D01*
X6239Y322D02*
X6279Y322D01*
X6430Y322D02*
X6469Y322D01*
X6497Y322D02*
X6555Y322D01*
X6629Y322D02*
X6640Y322D01*
X6763Y322D02*
X6812Y322D01*
X6839Y322D02*
X6875Y322D01*
X6931Y322D02*
X6983Y322D01*
X7109Y322D02*
X7143Y322D01*
X7280Y322D02*
X7314Y322D01*
X7452Y322D02*
X7486Y322D01*
X2511Y321D02*
X2522Y321D01*
X2576Y321D02*
X2611Y321D01*
X2640Y321D02*
X2695Y321D01*
X2726Y321D02*
X2782Y321D01*
X2896Y321D02*
X2954Y321D01*
X2982Y321D02*
X2992Y321D01*
X3022Y321D02*
X3040Y321D01*
X3067Y321D02*
X3078Y321D01*
X3114Y321D02*
X3125Y321D01*
X3159Y321D02*
X3170Y321D01*
X3519Y321D02*
X3554Y321D01*
X3691Y321D02*
X3725Y321D01*
X3839Y321D02*
X3850Y321D01*
X3886Y321D02*
X3897Y321D01*
X3925Y321D02*
X3983Y321D01*
X4015Y321D02*
X4068Y321D01*
X4886Y321D02*
X4926Y321D01*
X4958Y321D02*
X5011Y321D01*
X5062Y321D02*
X5074Y321D01*
X5142Y321D02*
X5166Y321D01*
X5219Y321D02*
X5269Y321D01*
X5382Y321D02*
X5440Y321D01*
X5471Y321D02*
X5523Y321D01*
X5577Y321D02*
X5588Y321D01*
X5648Y321D02*
X5697Y321D01*
X5982Y321D02*
X6040Y321D01*
X6076Y321D02*
X6126Y321D01*
X6154Y321D02*
X6165Y321D01*
X6201Y321D02*
X6212Y321D01*
X6239Y321D02*
X6280Y321D01*
X6429Y321D02*
X6469Y321D01*
X6496Y321D02*
X6555Y321D01*
X6629Y321D02*
X6640Y321D01*
X6762Y321D02*
X6812Y321D01*
X6839Y321D02*
X6875Y321D01*
X6930Y321D02*
X6983Y321D01*
X7109Y321D02*
X7143Y321D01*
X7280Y321D02*
X7314Y321D01*
X7452Y321D02*
X7486Y321D01*
X2511Y320D02*
X2522Y320D01*
X2576Y320D02*
X2611Y320D01*
X2640Y320D02*
X2695Y320D01*
X2725Y320D02*
X2782Y320D01*
X2896Y320D02*
X2954Y320D01*
X2981Y320D02*
X2992Y320D01*
X3022Y320D02*
X3040Y320D01*
X3067Y320D02*
X3078Y320D01*
X3114Y320D02*
X3125Y320D01*
X3159Y320D02*
X3170Y320D01*
X3519Y320D02*
X3554Y320D01*
X3691Y320D02*
X3725Y320D01*
X3839Y320D02*
X3850Y320D01*
X3886Y320D02*
X3897Y320D01*
X3925Y320D02*
X3983Y320D01*
X4014Y320D02*
X4068Y320D01*
X4885Y320D02*
X4926Y320D01*
X4957Y320D02*
X5011Y320D01*
X5062Y320D02*
X5074Y320D01*
X5141Y320D02*
X5166Y320D01*
X5218Y320D02*
X5269Y320D01*
X5382Y320D02*
X5440Y320D01*
X5471Y320D02*
X5524Y320D01*
X5577Y320D02*
X5589Y320D01*
X5647Y320D02*
X5697Y320D01*
X5982Y320D02*
X6040Y320D01*
X6075Y320D02*
X6126Y320D01*
X6154Y320D02*
X6165Y320D01*
X6201Y320D02*
X6212Y320D01*
X6239Y320D02*
X6281Y320D01*
X6428Y320D02*
X6469Y320D01*
X6497Y320D02*
X6555Y320D01*
X6629Y320D02*
X6640Y320D01*
X6761Y320D02*
X6812Y320D01*
X6839Y320D02*
X6876Y320D01*
X6929Y320D02*
X6983Y320D01*
X7109Y320D02*
X7143Y320D01*
X7280Y320D02*
X7314Y320D01*
X7451Y320D02*
X7486Y320D01*
X2511Y319D02*
X2522Y319D01*
X2576Y319D02*
X2611Y319D01*
X2639Y319D02*
X2696Y319D01*
X2725Y319D02*
X2782Y319D01*
X2896Y319D02*
X2954Y319D01*
X2981Y319D02*
X2992Y319D01*
X3021Y319D02*
X3040Y319D01*
X3067Y319D02*
X3078Y319D01*
X3114Y319D02*
X3125Y319D01*
X3159Y319D02*
X3170Y319D01*
X3519Y319D02*
X3554Y319D01*
X3691Y319D02*
X3725Y319D01*
X3839Y319D02*
X3850Y319D01*
X3886Y319D02*
X3897Y319D01*
X3925Y319D02*
X3983Y319D01*
X4013Y319D02*
X4068Y319D01*
X4884Y319D02*
X4925Y319D01*
X4957Y319D02*
X5011Y319D01*
X5062Y319D02*
X5074Y319D01*
X5141Y319D02*
X5167Y319D01*
X5217Y319D02*
X5269Y319D01*
X5382Y319D02*
X5440Y319D01*
X5470Y319D02*
X5525Y319D01*
X5576Y319D02*
X5589Y319D01*
X5646Y319D02*
X5697Y319D01*
X5982Y319D02*
X6040Y319D01*
X6074Y319D02*
X6126Y319D01*
X6154Y319D02*
X6165Y319D01*
X6201Y319D02*
X6212Y319D01*
X6240Y319D02*
X6281Y319D01*
X6427Y319D02*
X6468Y319D01*
X6497Y319D02*
X6555Y319D01*
X6629Y319D02*
X6640Y319D01*
X6760Y319D02*
X6812Y319D01*
X6840Y319D02*
X6877Y319D01*
X6928Y319D02*
X6983Y319D01*
X7109Y319D02*
X7143Y319D01*
X7280Y319D02*
X7314Y319D01*
X7451Y319D02*
X7486Y319D01*
X2511Y318D02*
X2522Y318D01*
X2576Y318D02*
X2610Y318D01*
X2639Y318D02*
X2696Y318D01*
X2725Y318D02*
X2782Y318D01*
X2897Y318D02*
X2954Y318D01*
X2981Y318D02*
X2992Y318D01*
X3021Y318D02*
X3040Y318D01*
X3067Y318D02*
X3078Y318D01*
X3114Y318D02*
X3125Y318D01*
X3159Y318D02*
X3170Y318D01*
X3519Y318D02*
X3553Y318D01*
X3691Y318D02*
X3725Y318D01*
X3839Y318D02*
X3850Y318D01*
X3886Y318D02*
X3897Y318D01*
X3925Y318D02*
X3983Y318D01*
X4013Y318D02*
X4068Y318D01*
X4883Y318D02*
X4925Y318D01*
X4956Y318D02*
X5011Y318D01*
X5062Y318D02*
X5075Y318D01*
X5140Y318D02*
X5167Y318D01*
X5216Y318D02*
X5269Y318D01*
X5383Y318D02*
X5440Y318D01*
X5469Y318D02*
X5525Y318D01*
X5576Y318D02*
X5589Y318D01*
X5645Y318D02*
X5697Y318D01*
X5983Y318D02*
X6040Y318D01*
X6073Y318D02*
X6126Y318D01*
X6154Y318D02*
X6165Y318D01*
X6201Y318D02*
X6212Y318D01*
X6240Y318D02*
X6282Y318D01*
X6426Y318D02*
X6468Y318D01*
X6497Y318D02*
X6555Y318D01*
X6629Y318D02*
X6640Y318D01*
X6759Y318D02*
X6812Y318D01*
X6840Y318D02*
X6878Y318D01*
X6928Y318D02*
X6983Y318D01*
X7109Y318D02*
X7143Y318D01*
X7280Y318D02*
X7314Y318D01*
X7451Y318D02*
X7486Y318D01*
X2511Y317D02*
X2522Y317D01*
X2576Y317D02*
X2609Y317D01*
X2639Y317D02*
X2696Y317D01*
X2724Y317D02*
X2781Y317D01*
X2897Y317D02*
X2954Y317D01*
X2981Y317D02*
X2992Y317D01*
X3020Y317D02*
X3040Y317D01*
X3067Y317D02*
X3078Y317D01*
X3114Y317D02*
X3125Y317D01*
X3159Y317D02*
X3170Y317D01*
X3519Y317D02*
X3553Y317D01*
X3691Y317D02*
X3724Y317D01*
X3839Y317D02*
X3850Y317D01*
X3886Y317D02*
X3897Y317D01*
X3926Y317D02*
X3983Y317D01*
X4012Y317D02*
X4068Y317D01*
X4883Y317D02*
X4924Y317D01*
X4955Y317D02*
X5011Y317D01*
X5061Y317D02*
X5075Y317D01*
X5140Y317D02*
X5168Y317D01*
X5215Y317D02*
X5269Y317D01*
X5383Y317D02*
X5440Y317D01*
X5469Y317D02*
X5525Y317D01*
X5576Y317D02*
X5589Y317D01*
X5644Y317D02*
X5697Y317D01*
X5984Y317D02*
X6040Y317D01*
X6073Y317D02*
X6126Y317D01*
X6154Y317D02*
X6165Y317D01*
X6201Y317D02*
X6212Y317D01*
X6241Y317D02*
X6283Y317D01*
X6426Y317D02*
X6467Y317D01*
X6498Y317D02*
X6555Y317D01*
X6629Y317D02*
X6640Y317D01*
X6758Y317D02*
X6812Y317D01*
X6841Y317D02*
X6879Y317D01*
X6927Y317D02*
X6983Y317D01*
X7109Y317D02*
X7143Y317D01*
X7280Y317D02*
X7314Y317D01*
X7451Y317D02*
X7486Y317D01*
X2479Y316D02*
X2484Y316D01*
X2511Y316D02*
X2522Y316D01*
X2576Y316D02*
X2608Y316D01*
X2639Y316D02*
X2697Y316D01*
X2724Y316D02*
X2780Y316D01*
X2898Y316D02*
X2954Y316D01*
X2981Y316D02*
X2992Y316D01*
X3020Y316D02*
X3040Y316D01*
X3067Y316D02*
X3078Y316D01*
X3114Y316D02*
X3125Y316D01*
X3159Y316D02*
X3170Y316D01*
X3519Y316D02*
X3551Y316D01*
X3691Y316D02*
X3723Y316D01*
X3839Y316D02*
X3850Y316D01*
X3886Y316D02*
X3897Y316D01*
X3927Y316D02*
X3983Y316D01*
X4012Y316D02*
X4068Y316D01*
X4882Y316D02*
X4923Y316D01*
X4955Y316D02*
X5011Y316D01*
X5061Y316D02*
X5075Y316D01*
X5139Y316D02*
X5168Y316D01*
X5214Y316D02*
X5269Y316D01*
X5385Y316D02*
X5440Y316D01*
X5469Y316D02*
X5526Y316D01*
X5575Y316D02*
X5590Y316D01*
X5643Y316D02*
X5697Y316D01*
X5985Y316D02*
X6040Y316D01*
X6072Y316D02*
X6126Y316D01*
X6154Y316D02*
X6165Y316D01*
X6201Y316D02*
X6212Y316D01*
X6242Y316D02*
X6283Y316D01*
X6425Y316D02*
X6466Y316D01*
X6499Y316D02*
X6555Y316D01*
X6629Y316D02*
X6640Y316D01*
X6758Y316D02*
X6812Y316D01*
X6842Y316D02*
X6879Y316D01*
X6927Y316D02*
X6983Y316D01*
X7109Y316D02*
X7143Y316D01*
X7280Y316D02*
X7314Y316D01*
X7451Y316D02*
X7486Y316D01*
X2478Y315D02*
X2485Y315D01*
X2511Y315D02*
X2522Y315D01*
X2576Y315D02*
X2606Y315D01*
X2639Y315D02*
X2697Y315D01*
X2724Y315D02*
X2778Y315D01*
X2901Y315D02*
X2954Y315D01*
X2981Y315D02*
X2992Y315D01*
X3020Y315D02*
X3040Y315D01*
X3067Y315D02*
X3078Y315D01*
X3114Y315D02*
X3125Y315D01*
X3159Y315D02*
X3170Y315D01*
X3519Y315D02*
X3549Y315D01*
X3691Y315D02*
X3721Y315D01*
X3839Y315D02*
X3850Y315D01*
X3886Y315D02*
X3897Y315D01*
X3929Y315D02*
X3983Y315D01*
X4011Y315D02*
X4068Y315D01*
X4882Y315D02*
X4921Y315D01*
X4954Y315D02*
X5011Y315D01*
X5061Y315D02*
X5076Y315D01*
X5139Y315D02*
X5169Y315D01*
X5214Y315D02*
X5269Y315D01*
X5387Y315D02*
X5440Y315D01*
X5468Y315D02*
X5526Y315D01*
X5575Y315D02*
X5590Y315D01*
X5642Y315D02*
X5697Y315D01*
X5987Y315D02*
X6040Y315D01*
X6071Y315D02*
X6126Y315D01*
X6154Y315D02*
X6165Y315D01*
X6201Y315D02*
X6212Y315D01*
X6244Y315D02*
X6284Y315D01*
X6425Y315D02*
X6464Y315D01*
X6501Y315D02*
X6555Y315D01*
X6629Y315D02*
X6640Y315D01*
X6757Y315D02*
X6812Y315D01*
X6844Y315D02*
X6880Y315D01*
X6926Y315D02*
X6983Y315D01*
X7109Y315D02*
X7143Y315D01*
X7280Y315D02*
X7314Y315D01*
X7451Y315D02*
X7486Y315D01*
X2477Y314D02*
X2486Y314D01*
X2511Y314D02*
X2522Y314D01*
X2576Y314D02*
X2587Y314D01*
X2639Y314D02*
X2650Y314D01*
X2686Y314D02*
X2697Y314D01*
X2724Y314D02*
X2735Y314D01*
X2943Y314D02*
X2954Y314D01*
X2981Y314D02*
X2992Y314D01*
X3019Y314D02*
X3040Y314D01*
X3067Y314D02*
X3078Y314D01*
X3114Y314D02*
X3125Y314D01*
X3159Y314D02*
X3170Y314D01*
X3519Y314D02*
X3530Y314D01*
X3691Y314D02*
X3702Y314D01*
X3839Y314D02*
X3850Y314D01*
X3886Y314D02*
X3897Y314D01*
X3972Y314D02*
X3983Y314D01*
X4011Y314D02*
X4024Y314D01*
X4057Y314D02*
X4068Y314D01*
X4881Y314D02*
X4894Y314D01*
X4903Y314D02*
X4914Y314D01*
X4954Y314D02*
X4967Y314D01*
X5000Y314D02*
X5011Y314D01*
X5060Y314D02*
X5076Y314D01*
X5138Y314D02*
X5151Y314D01*
X5157Y314D02*
X5169Y314D01*
X5213Y314D02*
X5229Y314D01*
X5258Y314D02*
X5269Y314D01*
X5429Y314D02*
X5440Y314D01*
X5468Y314D02*
X5480Y314D01*
X5515Y314D02*
X5526Y314D01*
X5575Y314D02*
X5590Y314D01*
X5642Y314D02*
X5658Y314D01*
X5686Y314D02*
X5697Y314D01*
X6029Y314D02*
X6040Y314D01*
X6071Y314D02*
X6086Y314D01*
X6115Y314D02*
X6126Y314D01*
X6154Y314D02*
X6165Y314D01*
X6201Y314D02*
X6212Y314D01*
X6271Y314D02*
X6284Y314D01*
X6424Y314D02*
X6438Y314D01*
X6446Y314D02*
X6457Y314D01*
X6544Y314D02*
X6555Y314D01*
X6629Y314D02*
X6640Y314D01*
X6756Y314D02*
X6772Y314D01*
X6801Y314D02*
X6812Y314D01*
X6866Y314D02*
X6881Y314D01*
X6926Y314D02*
X6939Y314D01*
X6972Y314D02*
X6983Y314D01*
X7109Y314D02*
X7119Y314D01*
X7132Y314D02*
X7143Y314D01*
X7280Y314D02*
X7291Y314D01*
X7303Y314D02*
X7314Y314D01*
X7451Y314D02*
X7462Y314D01*
X7475Y314D02*
X7486Y314D01*
X2476Y313D02*
X2487Y313D01*
X2511Y313D02*
X2522Y313D01*
X2576Y313D02*
X2587Y313D01*
X2639Y313D02*
X2650Y313D01*
X2686Y313D02*
X2697Y313D01*
X2724Y313D02*
X2735Y313D01*
X2943Y313D02*
X2954Y313D01*
X2981Y313D02*
X2992Y313D01*
X3019Y313D02*
X3040Y313D01*
X3067Y313D02*
X3078Y313D01*
X3114Y313D02*
X3125Y313D01*
X3159Y313D02*
X3170Y313D01*
X3519Y313D02*
X3530Y313D01*
X3691Y313D02*
X3702Y313D01*
X3839Y313D02*
X3850Y313D01*
X3886Y313D02*
X3897Y313D01*
X3972Y313D02*
X3983Y313D01*
X4011Y313D02*
X4023Y313D01*
X4057Y313D02*
X4068Y313D01*
X4881Y313D02*
X4893Y313D01*
X4903Y313D02*
X4914Y313D01*
X4954Y313D02*
X4966Y313D01*
X5000Y313D02*
X5011Y313D01*
X5060Y313D02*
X5076Y313D01*
X5138Y313D02*
X5150Y313D01*
X5157Y313D02*
X5170Y313D01*
X5213Y313D02*
X5227Y313D01*
X5258Y313D02*
X5269Y313D01*
X5429Y313D02*
X5440Y313D01*
X5468Y313D02*
X5479Y313D01*
X5515Y313D02*
X5526Y313D01*
X5574Y313D02*
X5591Y313D01*
X5641Y313D02*
X5656Y313D01*
X5686Y313D02*
X5697Y313D01*
X6029Y313D02*
X6040Y313D01*
X6070Y313D02*
X6084Y313D01*
X6115Y313D02*
X6126Y313D01*
X6154Y313D02*
X6165Y313D01*
X6201Y313D02*
X6212Y313D01*
X6272Y313D02*
X6284Y313D01*
X6424Y313D02*
X6437Y313D01*
X6446Y313D02*
X6457Y313D01*
X6544Y313D02*
X6555Y313D01*
X6629Y313D02*
X6640Y313D01*
X6756Y313D02*
X6770Y313D01*
X6801Y313D02*
X6812Y313D01*
X6867Y313D02*
X6882Y313D01*
X6926Y313D02*
X6938Y313D01*
X6972Y313D02*
X6983Y313D01*
X7109Y313D02*
X7119Y313D01*
X7132Y313D02*
X7143Y313D01*
X7280Y313D02*
X7291Y313D01*
X7303Y313D02*
X7314Y313D01*
X7451Y313D02*
X7462Y313D01*
X7475Y313D02*
X7486Y313D01*
X2476Y312D02*
X2487Y312D01*
X2511Y312D02*
X2522Y312D01*
X2576Y312D02*
X2587Y312D01*
X2639Y312D02*
X2650Y312D01*
X2686Y312D02*
X2697Y312D01*
X2724Y312D02*
X2735Y312D01*
X2943Y312D02*
X2954Y312D01*
X2981Y312D02*
X2992Y312D01*
X3018Y312D02*
X3040Y312D01*
X3067Y312D02*
X3078Y312D01*
X3114Y312D02*
X3125Y312D01*
X3159Y312D02*
X3170Y312D01*
X3519Y312D02*
X3530Y312D01*
X3691Y312D02*
X3702Y312D01*
X3839Y312D02*
X3850Y312D01*
X3886Y312D02*
X3897Y312D01*
X3972Y312D02*
X3983Y312D01*
X4011Y312D02*
X4022Y312D01*
X4057Y312D02*
X4068Y312D01*
X4880Y312D02*
X4893Y312D01*
X4903Y312D02*
X4914Y312D01*
X4954Y312D02*
X4965Y312D01*
X5000Y312D02*
X5011Y312D01*
X5060Y312D02*
X5076Y312D01*
X5137Y312D02*
X5150Y312D01*
X5158Y312D02*
X5170Y312D01*
X5212Y312D02*
X5226Y312D01*
X5258Y312D02*
X5269Y312D01*
X5429Y312D02*
X5440Y312D01*
X5468Y312D02*
X5479Y312D01*
X5514Y312D02*
X5526Y312D01*
X5574Y312D02*
X5591Y312D01*
X5641Y312D02*
X5654Y312D01*
X5686Y312D02*
X5697Y312D01*
X6029Y312D02*
X6040Y312D01*
X6070Y312D02*
X6083Y312D01*
X6115Y312D02*
X6126Y312D01*
X6154Y312D02*
X6165Y312D01*
X6201Y312D02*
X6212Y312D01*
X6272Y312D02*
X6285Y312D01*
X6423Y312D02*
X6436Y312D01*
X6446Y312D02*
X6457Y312D01*
X6544Y312D02*
X6555Y312D01*
X6629Y312D02*
X6640Y312D01*
X6755Y312D02*
X6769Y312D01*
X6801Y312D02*
X6812Y312D01*
X6868Y312D02*
X6882Y312D01*
X6925Y312D02*
X6937Y312D01*
X6972Y312D02*
X6983Y312D01*
X7109Y312D02*
X7119Y312D01*
X7132Y312D02*
X7143Y312D01*
X7280Y312D02*
X7291Y312D01*
X7303Y312D02*
X7314Y312D01*
X7451Y312D02*
X7462Y312D01*
X7475Y312D02*
X7486Y312D01*
X2476Y311D02*
X2487Y311D01*
X2511Y311D02*
X2522Y311D01*
X2576Y311D02*
X2587Y311D01*
X2639Y311D02*
X2650Y311D01*
X2686Y311D02*
X2697Y311D01*
X2724Y311D02*
X2735Y311D01*
X2943Y311D02*
X2954Y311D01*
X2981Y311D02*
X2992Y311D01*
X3018Y311D02*
X3040Y311D01*
X3067Y311D02*
X3078Y311D01*
X3114Y311D02*
X3125Y311D01*
X3159Y311D02*
X3170Y311D01*
X3519Y311D02*
X3530Y311D01*
X3691Y311D02*
X3702Y311D01*
X3839Y311D02*
X3850Y311D01*
X3886Y311D02*
X3897Y311D01*
X3972Y311D02*
X3983Y311D01*
X4010Y311D02*
X4022Y311D01*
X4057Y311D02*
X4068Y311D01*
X4880Y311D02*
X4892Y311D01*
X4903Y311D02*
X4914Y311D01*
X4953Y311D02*
X4965Y311D01*
X5000Y311D02*
X5011Y311D01*
X5059Y311D02*
X5077Y311D01*
X5137Y311D02*
X5149Y311D01*
X5158Y311D02*
X5171Y311D01*
X5212Y311D02*
X5225Y311D01*
X5258Y311D02*
X5269Y311D01*
X5429Y311D02*
X5440Y311D01*
X5468Y311D02*
X5479Y311D01*
X5513Y311D02*
X5526Y311D01*
X5574Y311D02*
X5591Y311D01*
X5641Y311D02*
X5653Y311D01*
X5686Y311D02*
X5697Y311D01*
X6029Y311D02*
X6040Y311D01*
X6069Y311D02*
X6082Y311D01*
X6115Y311D02*
X6126Y311D01*
X6154Y311D02*
X6165Y311D01*
X6201Y311D02*
X6212Y311D01*
X6273Y311D02*
X6285Y311D01*
X6423Y311D02*
X6435Y311D01*
X6446Y311D02*
X6457Y311D01*
X6544Y311D02*
X6555Y311D01*
X6629Y311D02*
X6640Y311D01*
X6755Y311D02*
X6768Y311D01*
X6801Y311D02*
X6812Y311D01*
X6869Y311D02*
X6883Y311D01*
X6925Y311D02*
X6937Y311D01*
X6972Y311D02*
X6983Y311D01*
X7109Y311D02*
X7119Y311D01*
X7132Y311D02*
X7143Y311D01*
X7280Y311D02*
X7291Y311D01*
X7303Y311D02*
X7314Y311D01*
X7451Y311D02*
X7462Y311D01*
X7475Y311D02*
X7486Y311D01*
X2476Y310D02*
X2487Y310D01*
X2511Y310D02*
X2522Y310D01*
X2576Y310D02*
X2587Y310D01*
X2639Y310D02*
X2650Y310D01*
X2686Y310D02*
X2697Y310D01*
X2724Y310D02*
X2735Y310D01*
X2943Y310D02*
X2954Y310D01*
X2981Y310D02*
X2992Y310D01*
X3017Y310D02*
X3040Y310D01*
X3067Y310D02*
X3078Y310D01*
X3114Y310D02*
X3125Y310D01*
X3159Y310D02*
X3170Y310D01*
X3519Y310D02*
X3530Y310D01*
X3691Y310D02*
X3702Y310D01*
X3839Y310D02*
X3850Y310D01*
X3886Y310D02*
X3897Y310D01*
X3972Y310D02*
X3983Y310D01*
X4010Y310D02*
X4021Y310D01*
X4057Y310D02*
X4068Y310D01*
X4879Y310D02*
X4892Y310D01*
X4903Y310D02*
X4914Y310D01*
X4953Y310D02*
X4964Y310D01*
X5000Y310D02*
X5011Y310D01*
X5059Y310D02*
X5077Y310D01*
X5136Y310D02*
X5149Y310D01*
X5159Y310D02*
X5171Y310D01*
X5212Y310D02*
X5224Y310D01*
X5258Y310D02*
X5269Y310D01*
X5429Y310D02*
X5440Y310D01*
X5468Y310D02*
X5479Y310D01*
X5513Y310D02*
X5525Y310D01*
X5574Y310D02*
X5591Y310D01*
X5640Y310D02*
X5653Y310D01*
X5686Y310D02*
X5697Y310D01*
X6029Y310D02*
X6040Y310D01*
X6069Y310D02*
X6081Y310D01*
X6115Y310D02*
X6126Y310D01*
X6154Y310D02*
X6165Y310D01*
X6201Y310D02*
X6212Y310D01*
X6273Y310D02*
X6286Y310D01*
X6422Y310D02*
X6435Y310D01*
X6446Y310D02*
X6457Y310D01*
X6544Y310D02*
X6555Y310D01*
X6629Y310D02*
X6640Y310D01*
X6755Y310D02*
X6767Y310D01*
X6801Y310D02*
X6812Y310D01*
X6870Y310D02*
X6884Y310D01*
X6925Y310D02*
X6936Y310D01*
X6972Y310D02*
X6983Y310D01*
X7109Y310D02*
X7119Y310D01*
X7132Y310D02*
X7143Y310D01*
X7280Y310D02*
X7291Y310D01*
X7303Y310D02*
X7314Y310D01*
X7451Y310D02*
X7462Y310D01*
X7475Y310D02*
X7486Y310D01*
X2476Y309D02*
X2487Y309D01*
X2511Y309D02*
X2522Y309D01*
X2576Y309D02*
X2587Y309D01*
X2639Y309D02*
X2650Y309D01*
X2686Y309D02*
X2697Y309D01*
X2724Y309D02*
X2735Y309D01*
X2943Y309D02*
X2954Y309D01*
X2981Y309D02*
X2992Y309D01*
X3017Y309D02*
X3040Y309D01*
X3067Y309D02*
X3078Y309D01*
X3114Y309D02*
X3125Y309D01*
X3159Y309D02*
X3170Y309D01*
X3519Y309D02*
X3530Y309D01*
X3691Y309D02*
X3702Y309D01*
X3839Y309D02*
X3850Y309D01*
X3886Y309D02*
X3897Y309D01*
X3972Y309D02*
X3983Y309D01*
X4010Y309D02*
X4021Y309D01*
X4057Y309D02*
X4068Y309D01*
X4879Y309D02*
X4891Y309D01*
X4903Y309D02*
X4914Y309D01*
X4953Y309D02*
X4964Y309D01*
X5000Y309D02*
X5011Y309D01*
X5059Y309D02*
X5077Y309D01*
X5136Y309D02*
X5148Y309D01*
X5159Y309D02*
X5172Y309D01*
X5211Y309D02*
X5223Y309D01*
X5258Y309D02*
X5269Y309D01*
X5429Y309D02*
X5440Y309D01*
X5468Y309D02*
X5478Y309D01*
X5512Y309D02*
X5525Y309D01*
X5573Y309D02*
X5592Y309D01*
X5640Y309D02*
X5652Y309D01*
X5686Y309D02*
X5697Y309D01*
X6029Y309D02*
X6040Y309D01*
X6069Y309D02*
X6081Y309D01*
X6115Y309D02*
X6126Y309D01*
X6154Y309D02*
X6165Y309D01*
X6201Y309D02*
X6212Y309D01*
X6274Y309D02*
X6286Y309D01*
X6422Y309D02*
X6434Y309D01*
X6446Y309D02*
X6457Y309D01*
X6544Y309D02*
X6555Y309D01*
X6629Y309D02*
X6640Y309D01*
X6754Y309D02*
X6766Y309D01*
X6801Y309D02*
X6812Y309D01*
X6871Y309D02*
X6885Y309D01*
X6925Y309D02*
X6936Y309D01*
X6972Y309D02*
X6983Y309D01*
X7109Y309D02*
X7119Y309D01*
X7132Y309D02*
X7143Y309D01*
X7280Y309D02*
X7291Y309D01*
X7303Y309D02*
X7314Y309D01*
X7451Y309D02*
X7462Y309D01*
X7475Y309D02*
X7486Y309D01*
X2476Y308D02*
X2487Y308D01*
X2511Y308D02*
X2522Y308D01*
X2576Y308D02*
X2587Y308D01*
X2639Y308D02*
X2650Y308D01*
X2686Y308D02*
X2697Y308D01*
X2724Y308D02*
X2735Y308D01*
X2943Y308D02*
X2954Y308D01*
X2981Y308D02*
X2992Y308D01*
X3017Y308D02*
X3040Y308D01*
X3067Y308D02*
X3078Y308D01*
X3114Y308D02*
X3125Y308D01*
X3159Y308D02*
X3170Y308D01*
X3519Y308D02*
X3530Y308D01*
X3691Y308D02*
X3702Y308D01*
X3839Y308D02*
X3850Y308D01*
X3886Y308D02*
X3897Y308D01*
X3972Y308D02*
X3983Y308D01*
X4010Y308D02*
X4021Y308D01*
X4057Y308D02*
X4068Y308D01*
X4878Y308D02*
X4891Y308D01*
X4903Y308D02*
X4914Y308D01*
X4953Y308D02*
X4964Y308D01*
X5000Y308D02*
X5011Y308D01*
X5059Y308D02*
X5078Y308D01*
X5135Y308D02*
X5148Y308D01*
X5160Y308D02*
X5172Y308D01*
X5211Y308D02*
X5223Y308D01*
X5258Y308D02*
X5269Y308D01*
X5429Y308D02*
X5440Y308D01*
X5468Y308D02*
X5478Y308D01*
X5511Y308D02*
X5525Y308D01*
X5573Y308D02*
X5592Y308D01*
X5640Y308D02*
X5651Y308D01*
X5686Y308D02*
X5697Y308D01*
X6029Y308D02*
X6040Y308D01*
X6068Y308D02*
X6080Y308D01*
X6115Y308D02*
X6126Y308D01*
X6154Y308D02*
X6165Y308D01*
X6201Y308D02*
X6212Y308D01*
X6274Y308D02*
X6287Y308D01*
X6421Y308D02*
X6434Y308D01*
X6446Y308D02*
X6457Y308D01*
X6544Y308D02*
X6555Y308D01*
X6629Y308D02*
X6640Y308D01*
X6754Y308D02*
X6766Y308D01*
X6801Y308D02*
X6812Y308D01*
X6871Y308D02*
X6886Y308D01*
X6925Y308D02*
X6936Y308D01*
X6972Y308D02*
X6983Y308D01*
X7109Y308D02*
X7119Y308D01*
X7132Y308D02*
X7143Y308D01*
X7280Y308D02*
X7291Y308D01*
X7303Y308D02*
X7314Y308D01*
X7451Y308D02*
X7462Y308D01*
X7475Y308D02*
X7486Y308D01*
X2476Y307D02*
X2487Y307D01*
X2511Y307D02*
X2522Y307D01*
X2576Y307D02*
X2587Y307D01*
X2639Y307D02*
X2650Y307D01*
X2686Y307D02*
X2697Y307D01*
X2724Y307D02*
X2735Y307D01*
X2943Y307D02*
X2954Y307D01*
X2981Y307D02*
X2992Y307D01*
X3016Y307D02*
X3040Y307D01*
X3067Y307D02*
X3078Y307D01*
X3114Y307D02*
X3125Y307D01*
X3159Y307D02*
X3170Y307D01*
X3519Y307D02*
X3530Y307D01*
X3691Y307D02*
X3702Y307D01*
X3839Y307D02*
X3850Y307D01*
X3886Y307D02*
X3897Y307D01*
X3972Y307D02*
X3983Y307D01*
X4010Y307D02*
X4021Y307D01*
X4057Y307D02*
X4068Y307D01*
X4878Y307D02*
X4890Y307D01*
X4903Y307D02*
X4914Y307D01*
X4953Y307D02*
X4964Y307D01*
X5000Y307D02*
X5011Y307D01*
X5058Y307D02*
X5078Y307D01*
X5135Y307D02*
X5147Y307D01*
X5160Y307D02*
X5173Y307D01*
X5211Y307D02*
X5222Y307D01*
X5258Y307D02*
X5269Y307D01*
X5429Y307D02*
X5440Y307D01*
X5469Y307D02*
X5477Y307D01*
X5510Y307D02*
X5524Y307D01*
X5573Y307D02*
X5592Y307D01*
X5639Y307D02*
X5651Y307D01*
X5686Y307D02*
X5697Y307D01*
X6029Y307D02*
X6040Y307D01*
X6068Y307D02*
X6080Y307D01*
X6115Y307D02*
X6126Y307D01*
X6154Y307D02*
X6165Y307D01*
X6201Y307D02*
X6212Y307D01*
X6275Y307D02*
X6287Y307D01*
X6421Y307D02*
X6433Y307D01*
X6446Y307D02*
X6457Y307D01*
X6544Y307D02*
X6555Y307D01*
X6629Y307D02*
X6640Y307D01*
X6754Y307D02*
X6765Y307D01*
X6801Y307D02*
X6812Y307D01*
X6872Y307D02*
X6886Y307D01*
X6925Y307D02*
X6936Y307D01*
X6972Y307D02*
X6983Y307D01*
X7109Y307D02*
X7119Y307D01*
X7132Y307D02*
X7143Y307D01*
X7280Y307D02*
X7291Y307D01*
X7303Y307D02*
X7314Y307D01*
X7451Y307D02*
X7462Y307D01*
X7475Y307D02*
X7486Y307D01*
X2476Y306D02*
X2487Y306D01*
X2511Y306D02*
X2522Y306D01*
X2576Y306D02*
X2587Y306D01*
X2639Y306D02*
X2650Y306D01*
X2686Y306D02*
X2697Y306D01*
X2724Y306D02*
X2735Y306D01*
X2943Y306D02*
X2954Y306D01*
X2981Y306D02*
X2992Y306D01*
X3016Y306D02*
X3040Y306D01*
X3067Y306D02*
X3078Y306D01*
X3114Y306D02*
X3125Y306D01*
X3159Y306D02*
X3170Y306D01*
X3519Y306D02*
X3530Y306D01*
X3691Y306D02*
X3702Y306D01*
X3839Y306D02*
X3850Y306D01*
X3886Y306D02*
X3897Y306D01*
X3972Y306D02*
X3983Y306D01*
X4010Y306D02*
X4021Y306D01*
X4057Y306D02*
X4068Y306D01*
X4877Y306D02*
X4890Y306D01*
X4903Y306D02*
X4914Y306D01*
X4953Y306D02*
X4964Y306D01*
X5000Y306D02*
X5011Y306D01*
X5058Y306D02*
X5078Y306D01*
X5134Y306D02*
X5147Y306D01*
X5161Y306D02*
X5173Y306D01*
X5211Y306D02*
X5222Y306D01*
X5258Y306D02*
X5269Y306D01*
X5429Y306D02*
X5440Y306D01*
X5470Y306D02*
X5476Y306D01*
X5509Y306D02*
X5524Y306D01*
X5572Y306D02*
X5593Y306D01*
X5639Y306D02*
X5651Y306D01*
X5686Y306D02*
X5697Y306D01*
X6029Y306D02*
X6040Y306D01*
X6068Y306D02*
X6079Y306D01*
X6115Y306D02*
X6126Y306D01*
X6154Y306D02*
X6165Y306D01*
X6201Y306D02*
X6212Y306D01*
X6275Y306D02*
X6288Y306D01*
X6420Y306D02*
X6433Y306D01*
X6446Y306D02*
X6457Y306D01*
X6544Y306D02*
X6555Y306D01*
X6629Y306D02*
X6640Y306D01*
X6754Y306D02*
X6765Y306D01*
X6801Y306D02*
X6812Y306D01*
X6873Y306D02*
X6887Y306D01*
X6925Y306D02*
X6936Y306D01*
X6972Y306D02*
X6983Y306D01*
X7109Y306D02*
X7119Y306D01*
X7132Y306D02*
X7143Y306D01*
X7280Y306D02*
X7291Y306D01*
X7303Y306D02*
X7314Y306D01*
X7451Y306D02*
X7462Y306D01*
X7475Y306D02*
X7486Y306D01*
X2476Y305D02*
X2487Y305D01*
X2511Y305D02*
X2522Y305D01*
X2576Y305D02*
X2587Y305D01*
X2639Y305D02*
X2650Y305D01*
X2686Y305D02*
X2697Y305D01*
X2724Y305D02*
X2735Y305D01*
X2943Y305D02*
X2954Y305D01*
X2981Y305D02*
X2992Y305D01*
X3015Y305D02*
X3040Y305D01*
X3067Y305D02*
X3078Y305D01*
X3114Y305D02*
X3125Y305D01*
X3159Y305D02*
X3170Y305D01*
X3519Y305D02*
X3530Y305D01*
X3691Y305D02*
X3702Y305D01*
X3839Y305D02*
X3850Y305D01*
X3886Y305D02*
X3897Y305D01*
X3972Y305D02*
X3983Y305D01*
X4010Y305D02*
X4021Y305D01*
X4057Y305D02*
X4068Y305D01*
X4877Y305D02*
X4889Y305D01*
X4903Y305D02*
X4914Y305D01*
X4953Y305D02*
X4964Y305D01*
X5000Y305D02*
X5011Y305D01*
X5058Y305D02*
X5079Y305D01*
X5134Y305D02*
X5146Y305D01*
X5161Y305D02*
X5174Y305D01*
X5211Y305D02*
X5222Y305D01*
X5258Y305D02*
X5269Y305D01*
X5429Y305D02*
X5440Y305D01*
X5472Y305D02*
X5474Y305D01*
X5509Y305D02*
X5523Y305D01*
X5572Y305D02*
X5593Y305D01*
X5639Y305D02*
X5650Y305D01*
X5686Y305D02*
X5697Y305D01*
X6029Y305D02*
X6040Y305D01*
X6068Y305D02*
X6079Y305D01*
X6115Y305D02*
X6126Y305D01*
X6154Y305D02*
X6165Y305D01*
X6201Y305D02*
X6212Y305D01*
X6276Y305D02*
X6288Y305D01*
X6420Y305D02*
X6432Y305D01*
X6446Y305D02*
X6457Y305D01*
X6544Y305D02*
X6555Y305D01*
X6629Y305D02*
X6640Y305D01*
X6754Y305D02*
X6765Y305D01*
X6801Y305D02*
X6812Y305D01*
X6874Y305D02*
X6888Y305D01*
X6925Y305D02*
X6936Y305D01*
X6972Y305D02*
X6983Y305D01*
X7109Y305D02*
X7119Y305D01*
X7132Y305D02*
X7143Y305D01*
X7280Y305D02*
X7291Y305D01*
X7303Y305D02*
X7314Y305D01*
X7451Y305D02*
X7462Y305D01*
X7475Y305D02*
X7486Y305D01*
X2476Y304D02*
X2487Y304D01*
X2511Y304D02*
X2522Y304D01*
X2576Y304D02*
X2587Y304D01*
X2639Y304D02*
X2650Y304D01*
X2686Y304D02*
X2697Y304D01*
X2724Y304D02*
X2735Y304D01*
X2943Y304D02*
X2954Y304D01*
X2981Y304D02*
X2992Y304D01*
X3015Y304D02*
X3027Y304D01*
X3029Y304D02*
X3040Y304D01*
X3067Y304D02*
X3078Y304D01*
X3114Y304D02*
X3125Y304D01*
X3159Y304D02*
X3170Y304D01*
X3519Y304D02*
X3530Y304D01*
X3691Y304D02*
X3702Y304D01*
X3839Y304D02*
X3850Y304D01*
X3886Y304D02*
X3897Y304D01*
X3972Y304D02*
X3983Y304D01*
X4010Y304D02*
X4021Y304D01*
X4057Y304D02*
X4068Y304D01*
X4876Y304D02*
X4889Y304D01*
X4903Y304D02*
X4914Y304D01*
X4953Y304D02*
X4964Y304D01*
X5000Y304D02*
X5011Y304D01*
X5057Y304D02*
X5079Y304D01*
X5133Y304D02*
X5146Y304D01*
X5162Y304D02*
X5174Y304D01*
X5211Y304D02*
X5222Y304D01*
X5258Y304D02*
X5269Y304D01*
X5429Y304D02*
X5440Y304D01*
X5508Y304D02*
X5522Y304D01*
X5572Y304D02*
X5593Y304D01*
X5639Y304D02*
X5650Y304D01*
X5686Y304D02*
X5697Y304D01*
X6029Y304D02*
X6040Y304D01*
X6068Y304D02*
X6079Y304D01*
X6115Y304D02*
X6126Y304D01*
X6154Y304D02*
X6165Y304D01*
X6201Y304D02*
X6212Y304D01*
X6276Y304D02*
X6289Y304D01*
X6419Y304D02*
X6432Y304D01*
X6446Y304D02*
X6457Y304D01*
X6544Y304D02*
X6555Y304D01*
X6629Y304D02*
X6640Y304D01*
X6754Y304D02*
X6765Y304D01*
X6801Y304D02*
X6812Y304D01*
X6874Y304D02*
X6889Y304D01*
X6925Y304D02*
X6936Y304D01*
X6972Y304D02*
X6983Y304D01*
X7109Y304D02*
X7119Y304D01*
X7132Y304D02*
X7143Y304D01*
X7280Y304D02*
X7291Y304D01*
X7303Y304D02*
X7314Y304D01*
X7451Y304D02*
X7462Y304D01*
X7475Y304D02*
X7486Y304D01*
X2476Y303D02*
X2487Y303D01*
X2511Y303D02*
X2522Y303D01*
X2576Y303D02*
X2587Y303D01*
X2639Y303D02*
X2650Y303D01*
X2686Y303D02*
X2697Y303D01*
X2724Y303D02*
X2735Y303D01*
X2943Y303D02*
X2954Y303D01*
X2981Y303D02*
X2992Y303D01*
X3014Y303D02*
X3026Y303D01*
X3029Y303D02*
X3040Y303D01*
X3067Y303D02*
X3078Y303D01*
X3114Y303D02*
X3125Y303D01*
X3159Y303D02*
X3170Y303D01*
X3519Y303D02*
X3530Y303D01*
X3691Y303D02*
X3702Y303D01*
X3839Y303D02*
X3850Y303D01*
X3886Y303D02*
X3897Y303D01*
X3972Y303D02*
X3983Y303D01*
X4010Y303D02*
X4021Y303D01*
X4057Y303D02*
X4068Y303D01*
X4876Y303D02*
X4888Y303D01*
X4903Y303D02*
X4914Y303D01*
X4953Y303D02*
X4964Y303D01*
X5000Y303D02*
X5011Y303D01*
X5057Y303D02*
X5079Y303D01*
X5133Y303D02*
X5145Y303D01*
X5162Y303D02*
X5175Y303D01*
X5211Y303D02*
X5221Y303D01*
X5258Y303D02*
X5269Y303D01*
X5429Y303D02*
X5440Y303D01*
X5507Y303D02*
X5521Y303D01*
X5572Y303D02*
X5594Y303D01*
X5639Y303D02*
X5650Y303D01*
X5686Y303D02*
X5697Y303D01*
X6029Y303D02*
X6040Y303D01*
X6068Y303D02*
X6079Y303D01*
X6115Y303D02*
X6126Y303D01*
X6154Y303D02*
X6165Y303D01*
X6201Y303D02*
X6212Y303D01*
X6277Y303D02*
X6289Y303D01*
X6419Y303D02*
X6431Y303D01*
X6446Y303D02*
X6457Y303D01*
X6544Y303D02*
X6555Y303D01*
X6629Y303D02*
X6640Y303D01*
X6754Y303D02*
X6765Y303D01*
X6801Y303D02*
X6812Y303D01*
X6875Y303D02*
X6889Y303D01*
X6925Y303D02*
X6936Y303D01*
X6972Y303D02*
X6983Y303D01*
X7109Y303D02*
X7119Y303D01*
X7132Y303D02*
X7143Y303D01*
X7280Y303D02*
X7291Y303D01*
X7303Y303D02*
X7314Y303D01*
X7451Y303D02*
X7462Y303D01*
X7475Y303D02*
X7486Y303D01*
X2476Y302D02*
X2487Y302D01*
X2511Y302D02*
X2522Y302D01*
X2576Y302D02*
X2587Y302D01*
X2639Y302D02*
X2650Y302D01*
X2686Y302D02*
X2697Y302D01*
X2724Y302D02*
X2735Y302D01*
X2943Y302D02*
X2954Y302D01*
X2981Y302D02*
X2992Y302D01*
X3014Y302D02*
X3026Y302D01*
X3029Y302D02*
X3040Y302D01*
X3067Y302D02*
X3078Y302D01*
X3114Y302D02*
X3125Y302D01*
X3159Y302D02*
X3170Y302D01*
X3519Y302D02*
X3530Y302D01*
X3691Y302D02*
X3702Y302D01*
X3839Y302D02*
X3850Y302D01*
X3886Y302D02*
X3897Y302D01*
X3972Y302D02*
X3983Y302D01*
X4010Y302D02*
X4021Y302D01*
X4057Y302D02*
X4068Y302D01*
X4875Y302D02*
X4888Y302D01*
X4903Y302D02*
X4914Y302D01*
X4953Y302D02*
X4964Y302D01*
X5000Y302D02*
X5011Y302D01*
X5057Y302D02*
X5079Y302D01*
X5132Y302D02*
X5145Y302D01*
X5163Y302D02*
X5175Y302D01*
X5210Y302D02*
X5221Y302D01*
X5258Y302D02*
X5269Y302D01*
X5429Y302D02*
X5440Y302D01*
X5506Y302D02*
X5521Y302D01*
X5571Y302D02*
X5594Y302D01*
X5639Y302D02*
X5650Y302D01*
X5686Y302D02*
X5697Y302D01*
X6029Y302D02*
X6040Y302D01*
X6068Y302D02*
X6079Y302D01*
X6115Y302D02*
X6126Y302D01*
X6154Y302D02*
X6165Y302D01*
X6201Y302D02*
X6212Y302D01*
X6277Y302D02*
X6290Y302D01*
X6418Y302D02*
X6431Y302D01*
X6446Y302D02*
X6457Y302D01*
X6544Y302D02*
X6555Y302D01*
X6629Y302D02*
X6640Y302D01*
X6754Y302D02*
X6765Y302D01*
X6801Y302D02*
X6812Y302D01*
X6876Y302D02*
X6890Y302D01*
X6925Y302D02*
X6936Y302D01*
X6972Y302D02*
X6983Y302D01*
X7109Y302D02*
X7119Y302D01*
X7132Y302D02*
X7143Y302D01*
X7280Y302D02*
X7291Y302D01*
X7303Y302D02*
X7314Y302D01*
X7451Y302D02*
X7462Y302D01*
X7475Y302D02*
X7486Y302D01*
X2476Y301D02*
X2487Y301D01*
X2511Y301D02*
X2522Y301D01*
X2576Y301D02*
X2587Y301D01*
X2639Y301D02*
X2650Y301D01*
X2686Y301D02*
X2697Y301D01*
X2724Y301D02*
X2735Y301D01*
X2943Y301D02*
X2954Y301D01*
X2981Y301D02*
X2992Y301D01*
X3013Y301D02*
X3026Y301D01*
X3029Y301D02*
X3040Y301D01*
X3067Y301D02*
X3078Y301D01*
X3114Y301D02*
X3125Y301D01*
X3159Y301D02*
X3170Y301D01*
X3519Y301D02*
X3530Y301D01*
X3691Y301D02*
X3702Y301D01*
X3839Y301D02*
X3850Y301D01*
X3886Y301D02*
X3897Y301D01*
X3972Y301D02*
X3983Y301D01*
X4010Y301D02*
X4021Y301D01*
X4057Y301D02*
X4068Y301D01*
X4875Y301D02*
X4887Y301D01*
X4903Y301D02*
X4914Y301D01*
X4953Y301D02*
X4965Y301D01*
X5000Y301D02*
X5011Y301D01*
X5057Y301D02*
X5080Y301D01*
X5132Y301D02*
X5144Y301D01*
X5163Y301D02*
X5176Y301D01*
X5210Y301D02*
X5221Y301D01*
X5258Y301D02*
X5269Y301D01*
X5429Y301D02*
X5440Y301D01*
X5506Y301D02*
X5520Y301D01*
X5571Y301D02*
X5594Y301D01*
X5639Y301D02*
X5650Y301D01*
X5686Y301D02*
X5697Y301D01*
X6029Y301D02*
X6040Y301D01*
X6068Y301D02*
X6079Y301D01*
X6115Y301D02*
X6126Y301D01*
X6154Y301D02*
X6165Y301D01*
X6201Y301D02*
X6212Y301D01*
X6278Y301D02*
X6290Y301D01*
X6418Y301D02*
X6430Y301D01*
X6446Y301D02*
X6457Y301D01*
X6544Y301D02*
X6555Y301D01*
X6629Y301D02*
X6640Y301D01*
X6754Y301D02*
X6765Y301D01*
X6801Y301D02*
X6812Y301D01*
X6877Y301D02*
X6891Y301D01*
X6925Y301D02*
X6936Y301D01*
X6972Y301D02*
X6983Y301D01*
X7109Y301D02*
X7119Y301D01*
X7132Y301D02*
X7143Y301D01*
X7187Y301D02*
X7191Y301D01*
X7231Y301D02*
X7236Y301D01*
X7280Y301D02*
X7291Y301D01*
X7303Y301D02*
X7314Y301D01*
X7358Y301D02*
X7363Y301D01*
X7403Y301D02*
X7407Y301D01*
X7451Y301D02*
X7462Y301D01*
X7475Y301D02*
X7486Y301D01*
X2476Y300D02*
X2487Y300D01*
X2511Y300D02*
X2522Y300D01*
X2576Y300D02*
X2587Y300D01*
X2639Y300D02*
X2650Y300D01*
X2686Y300D02*
X2697Y300D01*
X2724Y300D02*
X2735Y300D01*
X2943Y300D02*
X2954Y300D01*
X2981Y300D02*
X2992Y300D01*
X3013Y300D02*
X3025Y300D01*
X3029Y300D02*
X3040Y300D01*
X3067Y300D02*
X3078Y300D01*
X3114Y300D02*
X3125Y300D01*
X3159Y300D02*
X3170Y300D01*
X3519Y300D02*
X3530Y300D01*
X3691Y300D02*
X3702Y300D01*
X3839Y300D02*
X3850Y300D01*
X3885Y300D02*
X3897Y300D01*
X3972Y300D02*
X3983Y300D01*
X4010Y300D02*
X4022Y300D01*
X4057Y300D02*
X4068Y300D01*
X4874Y300D02*
X4887Y300D01*
X4903Y300D02*
X4914Y300D01*
X4953Y300D02*
X4965Y300D01*
X5000Y300D02*
X5011Y300D01*
X5056Y300D02*
X5080Y300D01*
X5131Y300D02*
X5144Y300D01*
X5164Y300D02*
X5176Y300D01*
X5210Y300D02*
X5221Y300D01*
X5258Y300D02*
X5269Y300D01*
X5429Y300D02*
X5440Y300D01*
X5505Y300D02*
X5519Y300D01*
X5571Y300D02*
X5594Y300D01*
X5639Y300D02*
X5650Y300D01*
X5686Y300D02*
X5697Y300D01*
X6029Y300D02*
X6040Y300D01*
X6068Y300D02*
X6079Y300D01*
X6115Y300D02*
X6126Y300D01*
X6154Y300D02*
X6165Y300D01*
X6201Y300D02*
X6212Y300D01*
X6278Y300D02*
X6291Y300D01*
X6417Y300D02*
X6430Y300D01*
X6446Y300D02*
X6457Y300D01*
X6544Y300D02*
X6555Y300D01*
X6629Y300D02*
X6640Y300D01*
X6754Y300D02*
X6765Y300D01*
X6801Y300D02*
X6812Y300D01*
X6878Y300D02*
X6892Y300D01*
X6925Y300D02*
X6937Y300D01*
X6972Y300D02*
X6983Y300D01*
X7109Y300D02*
X7119Y300D01*
X7132Y300D02*
X7143Y300D01*
X7185Y300D02*
X7193Y300D01*
X7230Y300D02*
X7237Y300D01*
X7280Y300D02*
X7291Y300D01*
X7303Y300D02*
X7314Y300D01*
X7357Y300D02*
X7364Y300D01*
X7401Y300D02*
X7409Y300D01*
X7451Y300D02*
X7462Y300D01*
X7475Y300D02*
X7486Y300D01*
X2476Y299D02*
X2487Y299D01*
X2511Y299D02*
X2522Y299D01*
X2576Y299D02*
X2587Y299D01*
X2639Y299D02*
X2650Y299D01*
X2686Y299D02*
X2697Y299D01*
X2724Y299D02*
X2735Y299D01*
X2943Y299D02*
X2954Y299D01*
X2981Y299D02*
X2992Y299D01*
X3013Y299D02*
X3025Y299D01*
X3029Y299D02*
X3040Y299D01*
X3067Y299D02*
X3078Y299D01*
X3114Y299D02*
X3125Y299D01*
X3159Y299D02*
X3170Y299D01*
X3519Y299D02*
X3530Y299D01*
X3691Y299D02*
X3702Y299D01*
X3839Y299D02*
X3851Y299D01*
X3885Y299D02*
X3897Y299D01*
X3972Y299D02*
X3983Y299D01*
X4011Y299D02*
X4023Y299D01*
X4057Y299D02*
X4068Y299D01*
X4874Y299D02*
X4886Y299D01*
X4903Y299D02*
X4914Y299D01*
X4954Y299D02*
X4966Y299D01*
X5000Y299D02*
X5011Y299D01*
X5056Y299D02*
X5080Y299D01*
X5131Y299D02*
X5143Y299D01*
X5164Y299D02*
X5177Y299D01*
X5210Y299D02*
X5221Y299D01*
X5258Y299D02*
X5269Y299D01*
X5429Y299D02*
X5440Y299D01*
X5504Y299D02*
X5518Y299D01*
X5570Y299D02*
X5595Y299D01*
X5639Y299D02*
X5650Y299D01*
X5686Y299D02*
X5697Y299D01*
X6029Y299D02*
X6040Y299D01*
X6068Y299D02*
X6079Y299D01*
X6115Y299D02*
X6126Y299D01*
X6154Y299D02*
X6165Y299D01*
X6201Y299D02*
X6212Y299D01*
X6279Y299D02*
X6291Y299D01*
X6417Y299D02*
X6429Y299D01*
X6446Y299D02*
X6457Y299D01*
X6544Y299D02*
X6555Y299D01*
X6629Y299D02*
X6640Y299D01*
X6754Y299D02*
X6765Y299D01*
X6801Y299D02*
X6812Y299D01*
X6878Y299D02*
X6893Y299D01*
X6925Y299D02*
X6937Y299D01*
X6972Y299D02*
X6983Y299D01*
X7109Y299D02*
X7119Y299D01*
X7132Y299D02*
X7143Y299D01*
X7185Y299D02*
X7194Y299D01*
X7229Y299D02*
X7238Y299D01*
X7280Y299D02*
X7291Y299D01*
X7303Y299D02*
X7314Y299D01*
X7356Y299D02*
X7365Y299D01*
X7401Y299D02*
X7410Y299D01*
X7451Y299D02*
X7462Y299D01*
X7475Y299D02*
X7486Y299D01*
X2476Y298D02*
X2487Y298D01*
X2511Y298D02*
X2522Y298D01*
X2576Y298D02*
X2587Y298D01*
X2639Y298D02*
X2650Y298D01*
X2686Y298D02*
X2697Y298D01*
X2724Y298D02*
X2735Y298D01*
X2943Y298D02*
X2954Y298D01*
X2981Y298D02*
X2992Y298D01*
X3012Y298D02*
X3024Y298D01*
X3029Y298D02*
X3040Y298D01*
X3067Y298D02*
X3078Y298D01*
X3114Y298D02*
X3125Y298D01*
X3159Y298D02*
X3170Y298D01*
X3519Y298D02*
X3530Y298D01*
X3691Y298D02*
X3702Y298D01*
X3839Y298D02*
X3851Y298D01*
X3884Y298D02*
X3896Y298D01*
X3972Y298D02*
X3983Y298D01*
X4011Y298D02*
X4024Y298D01*
X4057Y298D02*
X4068Y298D01*
X4873Y298D02*
X4886Y298D01*
X4903Y298D02*
X4914Y298D01*
X4954Y298D02*
X4967Y298D01*
X5000Y298D02*
X5011Y298D01*
X5056Y298D02*
X5067Y298D01*
X5069Y298D02*
X5081Y298D01*
X5130Y298D02*
X5143Y298D01*
X5165Y298D02*
X5177Y298D01*
X5211Y298D02*
X5221Y298D01*
X5258Y298D02*
X5269Y298D01*
X5429Y298D02*
X5440Y298D01*
X5503Y298D02*
X5518Y298D01*
X5570Y298D02*
X5595Y298D01*
X5639Y298D02*
X5650Y298D01*
X5686Y298D02*
X5697Y298D01*
X6029Y298D02*
X6040Y298D01*
X6068Y298D02*
X6079Y298D01*
X6115Y298D02*
X6126Y298D01*
X6154Y298D02*
X6165Y298D01*
X6201Y298D02*
X6212Y298D01*
X6279Y298D02*
X6292Y298D01*
X6416Y298D02*
X6429Y298D01*
X6446Y298D02*
X6457Y298D01*
X6544Y298D02*
X6555Y298D01*
X6629Y298D02*
X6640Y298D01*
X6754Y298D02*
X6765Y298D01*
X6801Y298D02*
X6812Y298D01*
X6879Y298D02*
X6893Y298D01*
X6926Y298D02*
X6938Y298D01*
X6972Y298D02*
X6983Y298D01*
X7109Y298D02*
X7119Y298D01*
X7132Y298D02*
X7143Y298D01*
X7184Y298D02*
X7194Y298D01*
X7228Y298D02*
X7239Y298D01*
X7280Y298D02*
X7291Y298D01*
X7303Y298D02*
X7314Y298D01*
X7356Y298D02*
X7366Y298D01*
X7400Y298D02*
X7410Y298D01*
X7451Y298D02*
X7462Y298D01*
X7475Y298D02*
X7486Y298D01*
X2476Y297D02*
X2487Y297D01*
X2511Y297D02*
X2522Y297D01*
X2576Y297D02*
X2587Y297D01*
X2639Y297D02*
X2650Y297D01*
X2686Y297D02*
X2697Y297D01*
X2724Y297D02*
X2735Y297D01*
X2943Y297D02*
X2954Y297D01*
X2981Y297D02*
X2992Y297D01*
X3012Y297D02*
X3024Y297D01*
X3029Y297D02*
X3040Y297D01*
X3067Y297D02*
X3078Y297D01*
X3114Y297D02*
X3125Y297D01*
X3159Y297D02*
X3170Y297D01*
X3519Y297D02*
X3530Y297D01*
X3691Y297D02*
X3702Y297D01*
X3840Y297D02*
X3852Y297D01*
X3884Y297D02*
X3896Y297D01*
X3972Y297D02*
X3983Y297D01*
X4011Y297D02*
X4025Y297D01*
X4057Y297D02*
X4068Y297D01*
X4873Y297D02*
X4885Y297D01*
X4903Y297D02*
X4914Y297D01*
X4954Y297D02*
X4968Y297D01*
X5000Y297D02*
X5011Y297D01*
X5055Y297D02*
X5067Y297D01*
X5069Y297D02*
X5081Y297D01*
X5130Y297D02*
X5142Y297D01*
X5165Y297D02*
X5178Y297D01*
X5211Y297D02*
X5222Y297D01*
X5258Y297D02*
X5269Y297D01*
X5429Y297D02*
X5440Y297D01*
X5502Y297D02*
X5517Y297D01*
X5570Y297D02*
X5581Y297D01*
X5584Y297D02*
X5595Y297D01*
X5639Y297D02*
X5650Y297D01*
X5686Y297D02*
X5697Y297D01*
X6029Y297D02*
X6040Y297D01*
X6068Y297D02*
X6079Y297D01*
X6115Y297D02*
X6126Y297D01*
X6154Y297D02*
X6165Y297D01*
X6201Y297D02*
X6212Y297D01*
X6280Y297D02*
X6292Y297D01*
X6416Y297D02*
X6428Y297D01*
X6446Y297D02*
X6457Y297D01*
X6544Y297D02*
X6555Y297D01*
X6629Y297D02*
X6640Y297D01*
X6754Y297D02*
X6765Y297D01*
X6801Y297D02*
X6812Y297D01*
X6880Y297D02*
X6894Y297D01*
X6926Y297D02*
X6940Y297D01*
X6972Y297D02*
X6983Y297D01*
X7109Y297D02*
X7119Y297D01*
X7132Y297D02*
X7143Y297D01*
X7184Y297D02*
X7195Y297D01*
X7227Y297D02*
X7239Y297D01*
X7280Y297D02*
X7291Y297D01*
X7303Y297D02*
X7314Y297D01*
X7355Y297D02*
X7367Y297D01*
X7399Y297D02*
X7411Y297D01*
X7451Y297D02*
X7462Y297D01*
X7475Y297D02*
X7486Y297D01*
X2476Y296D02*
X2487Y296D01*
X2511Y296D02*
X2522Y296D01*
X2576Y296D02*
X2587Y296D01*
X2639Y296D02*
X2650Y296D01*
X2686Y296D02*
X2697Y296D01*
X2724Y296D02*
X2735Y296D01*
X2943Y296D02*
X2954Y296D01*
X2981Y296D02*
X2992Y296D01*
X3011Y296D02*
X3023Y296D01*
X3029Y296D02*
X3040Y296D01*
X3067Y296D02*
X3078Y296D01*
X3114Y296D02*
X3125Y296D01*
X3159Y296D02*
X3170Y296D01*
X3519Y296D02*
X3530Y296D01*
X3691Y296D02*
X3702Y296D01*
X3840Y296D02*
X3852Y296D01*
X3884Y296D02*
X3896Y296D01*
X3972Y296D02*
X3983Y296D01*
X4012Y296D02*
X4068Y296D01*
X4872Y296D02*
X4885Y296D01*
X4903Y296D02*
X4914Y296D01*
X4955Y296D02*
X5011Y296D01*
X5055Y296D02*
X5067Y296D01*
X5070Y296D02*
X5081Y296D01*
X5129Y296D02*
X5142Y296D01*
X5166Y296D02*
X5178Y296D01*
X5211Y296D02*
X5222Y296D01*
X5258Y296D02*
X5269Y296D01*
X5429Y296D02*
X5440Y296D01*
X5502Y296D02*
X5516Y296D01*
X5570Y296D02*
X5581Y296D01*
X5584Y296D02*
X5596Y296D01*
X5639Y296D02*
X5650Y296D01*
X5686Y296D02*
X5697Y296D01*
X6029Y296D02*
X6040Y296D01*
X6068Y296D02*
X6079Y296D01*
X6115Y296D02*
X6126Y296D01*
X6154Y296D02*
X6165Y296D01*
X6201Y296D02*
X6212Y296D01*
X6280Y296D02*
X6293Y296D01*
X6415Y296D02*
X6428Y296D01*
X6446Y296D02*
X6457Y296D01*
X6544Y296D02*
X6555Y296D01*
X6629Y296D02*
X6640Y296D01*
X6754Y296D02*
X6765Y296D01*
X6801Y296D02*
X6812Y296D01*
X6881Y296D02*
X6895Y296D01*
X6926Y296D02*
X6983Y296D01*
X7109Y296D02*
X7119Y296D01*
X7132Y296D02*
X7143Y296D01*
X7184Y296D02*
X7196Y296D01*
X7227Y296D02*
X7239Y296D01*
X7280Y296D02*
X7291Y296D01*
X7303Y296D02*
X7314Y296D01*
X7355Y296D02*
X7368Y296D01*
X7398Y296D02*
X7411Y296D01*
X7451Y296D02*
X7462Y296D01*
X7475Y296D02*
X7486Y296D01*
X2476Y295D02*
X2487Y295D01*
X2511Y295D02*
X2522Y295D01*
X2576Y295D02*
X2587Y295D01*
X2639Y295D02*
X2650Y295D01*
X2686Y295D02*
X2697Y295D01*
X2724Y295D02*
X2735Y295D01*
X2943Y295D02*
X2954Y295D01*
X2981Y295D02*
X2992Y295D01*
X3011Y295D02*
X3023Y295D01*
X3029Y295D02*
X3040Y295D01*
X3067Y295D02*
X3078Y295D01*
X3114Y295D02*
X3125Y295D01*
X3159Y295D02*
X3170Y295D01*
X3519Y295D02*
X3530Y295D01*
X3691Y295D02*
X3702Y295D01*
X3841Y295D02*
X3852Y295D01*
X3883Y295D02*
X3895Y295D01*
X3972Y295D02*
X3983Y295D01*
X4012Y295D02*
X4068Y295D01*
X4872Y295D02*
X4884Y295D01*
X4903Y295D02*
X4914Y295D01*
X4955Y295D02*
X5011Y295D01*
X5055Y295D02*
X5066Y295D01*
X5070Y295D02*
X5081Y295D01*
X5129Y295D02*
X5141Y295D01*
X5166Y295D02*
X5179Y295D01*
X5211Y295D02*
X5222Y295D01*
X5258Y295D02*
X5269Y295D01*
X5429Y295D02*
X5440Y295D01*
X5501Y295D02*
X5515Y295D01*
X5569Y295D02*
X5581Y295D01*
X5584Y295D02*
X5596Y295D01*
X5639Y295D02*
X5651Y295D01*
X5686Y295D02*
X5697Y295D01*
X6029Y295D02*
X6040Y295D01*
X6068Y295D02*
X6079Y295D01*
X6115Y295D02*
X6126Y295D01*
X6154Y295D02*
X6165Y295D01*
X6201Y295D02*
X6212Y295D01*
X6281Y295D02*
X6293Y295D01*
X6415Y295D02*
X6427Y295D01*
X6446Y295D02*
X6457Y295D01*
X6544Y295D02*
X6555Y295D01*
X6629Y295D02*
X6640Y295D01*
X6754Y295D02*
X6765Y295D01*
X6801Y295D02*
X6812Y295D01*
X6882Y295D02*
X6895Y295D01*
X6927Y295D02*
X6983Y295D01*
X7109Y295D02*
X7119Y295D01*
X7132Y295D02*
X7143Y295D01*
X7184Y295D02*
X7197Y295D01*
X7226Y295D02*
X7239Y295D01*
X7280Y295D02*
X7291Y295D01*
X7303Y295D02*
X7314Y295D01*
X7355Y295D02*
X7368Y295D01*
X7397Y295D02*
X7411Y295D01*
X7451Y295D02*
X7462Y295D01*
X7475Y295D02*
X7486Y295D01*
X2476Y294D02*
X2487Y294D01*
X2511Y294D02*
X2522Y294D01*
X2576Y294D02*
X2587Y294D01*
X2639Y294D02*
X2650Y294D01*
X2686Y294D02*
X2697Y294D01*
X2724Y294D02*
X2735Y294D01*
X2943Y294D02*
X2954Y294D01*
X2981Y294D02*
X2992Y294D01*
X3010Y294D02*
X3023Y294D01*
X3029Y294D02*
X3040Y294D01*
X3067Y294D02*
X3078Y294D01*
X3114Y294D02*
X3125Y294D01*
X3159Y294D02*
X3170Y294D01*
X3519Y294D02*
X3530Y294D01*
X3691Y294D02*
X3702Y294D01*
X3841Y294D02*
X3853Y294D01*
X3883Y294D02*
X3895Y294D01*
X3972Y294D02*
X3983Y294D01*
X4013Y294D02*
X4068Y294D01*
X4871Y294D02*
X4884Y294D01*
X4903Y294D02*
X4914Y294D01*
X4956Y294D02*
X5011Y294D01*
X5055Y294D02*
X5066Y294D01*
X5070Y294D02*
X5082Y294D01*
X5128Y294D02*
X5141Y294D01*
X5167Y294D02*
X5179Y294D01*
X5211Y294D02*
X5222Y294D01*
X5258Y294D02*
X5269Y294D01*
X5429Y294D02*
X5440Y294D01*
X5500Y294D02*
X5514Y294D01*
X5569Y294D02*
X5580Y294D01*
X5585Y294D02*
X5596Y294D01*
X5640Y294D02*
X5651Y294D01*
X5686Y294D02*
X5697Y294D01*
X6029Y294D02*
X6040Y294D01*
X6068Y294D02*
X6080Y294D01*
X6115Y294D02*
X6126Y294D01*
X6154Y294D02*
X6165Y294D01*
X6201Y294D02*
X6212Y294D01*
X6282Y294D02*
X6294Y294D01*
X6414Y294D02*
X6427Y294D01*
X6446Y294D02*
X6457Y294D01*
X6544Y294D02*
X6555Y294D01*
X6629Y294D02*
X6640Y294D01*
X6754Y294D02*
X6766Y294D01*
X6801Y294D02*
X6812Y294D01*
X6882Y294D02*
X6896Y294D01*
X6927Y294D02*
X6983Y294D01*
X7109Y294D02*
X7119Y294D01*
X7132Y294D02*
X7143Y294D01*
X7184Y294D02*
X7198Y294D01*
X7225Y294D02*
X7239Y294D01*
X7280Y294D02*
X7291Y294D01*
X7303Y294D02*
X7314Y294D01*
X7355Y294D02*
X7369Y294D01*
X7396Y294D02*
X7410Y294D01*
X7451Y294D02*
X7462Y294D01*
X7475Y294D02*
X7486Y294D01*
X2476Y293D02*
X2487Y293D01*
X2511Y293D02*
X2522Y293D01*
X2576Y293D02*
X2587Y293D01*
X2639Y293D02*
X2650Y293D01*
X2686Y293D02*
X2697Y293D01*
X2724Y293D02*
X2735Y293D01*
X2943Y293D02*
X2954Y293D01*
X2981Y293D02*
X2992Y293D01*
X3010Y293D02*
X3022Y293D01*
X3029Y293D02*
X3040Y293D01*
X3067Y293D02*
X3078Y293D01*
X3114Y293D02*
X3125Y293D01*
X3159Y293D02*
X3170Y293D01*
X3519Y293D02*
X3530Y293D01*
X3691Y293D02*
X3702Y293D01*
X3841Y293D02*
X3853Y293D01*
X3882Y293D02*
X3894Y293D01*
X3972Y293D02*
X3983Y293D01*
X4013Y293D02*
X4068Y293D01*
X4871Y293D02*
X4883Y293D01*
X4903Y293D02*
X4914Y293D01*
X4956Y293D02*
X5011Y293D01*
X5054Y293D02*
X5066Y293D01*
X5071Y293D02*
X5082Y293D01*
X5128Y293D02*
X5140Y293D01*
X5168Y293D02*
X5180Y293D01*
X5211Y293D02*
X5223Y293D01*
X5258Y293D02*
X5269Y293D01*
X5429Y293D02*
X5440Y293D01*
X5499Y293D02*
X5514Y293D01*
X5569Y293D02*
X5580Y293D01*
X5585Y293D02*
X5596Y293D01*
X5640Y293D02*
X5652Y293D01*
X5686Y293D02*
X5697Y293D01*
X6029Y293D02*
X6040Y293D01*
X6068Y293D02*
X6080Y293D01*
X6115Y293D02*
X6126Y293D01*
X6154Y293D02*
X6165Y293D01*
X6201Y293D02*
X6212Y293D01*
X6282Y293D02*
X6294Y293D01*
X6414Y293D02*
X6426Y293D01*
X6446Y293D02*
X6457Y293D01*
X6544Y293D02*
X6555Y293D01*
X6629Y293D02*
X6640Y293D01*
X6754Y293D02*
X6766Y293D01*
X6801Y293D02*
X6812Y293D01*
X6883Y293D02*
X6896Y293D01*
X6928Y293D02*
X6983Y293D01*
X7109Y293D02*
X7119Y293D01*
X7132Y293D02*
X7143Y293D01*
X7184Y293D02*
X7199Y293D01*
X7224Y293D02*
X7238Y293D01*
X7280Y293D02*
X7291Y293D01*
X7303Y293D02*
X7314Y293D01*
X7356Y293D02*
X7370Y293D01*
X7396Y293D02*
X7410Y293D01*
X7451Y293D02*
X7462Y293D01*
X7475Y293D02*
X7486Y293D01*
X2476Y292D02*
X2487Y292D01*
X2511Y292D02*
X2522Y292D01*
X2576Y292D02*
X2587Y292D01*
X2639Y292D02*
X2650Y292D01*
X2686Y292D02*
X2697Y292D01*
X2724Y292D02*
X2735Y292D01*
X2943Y292D02*
X2954Y292D01*
X2981Y292D02*
X2992Y292D01*
X3009Y292D02*
X3022Y292D01*
X3029Y292D02*
X3040Y292D01*
X3067Y292D02*
X3078Y292D01*
X3114Y292D02*
X3125Y292D01*
X3159Y292D02*
X3170Y292D01*
X3519Y292D02*
X3530Y292D01*
X3691Y292D02*
X3702Y292D01*
X3842Y292D02*
X3854Y292D01*
X3882Y292D02*
X3894Y292D01*
X3972Y292D02*
X3983Y292D01*
X4014Y292D02*
X4068Y292D01*
X4870Y292D02*
X4883Y292D01*
X4903Y292D02*
X4914Y292D01*
X4957Y292D02*
X5011Y292D01*
X5054Y292D02*
X5065Y292D01*
X5071Y292D02*
X5082Y292D01*
X5127Y292D02*
X5140Y292D01*
X5168Y292D02*
X5180Y292D01*
X5211Y292D02*
X5224Y292D01*
X5258Y292D02*
X5269Y292D01*
X5429Y292D02*
X5440Y292D01*
X5499Y292D02*
X5513Y292D01*
X5568Y292D02*
X5580Y292D01*
X5585Y292D02*
X5597Y292D01*
X5640Y292D02*
X5652Y292D01*
X5686Y292D02*
X5697Y292D01*
X6029Y292D02*
X6040Y292D01*
X6069Y292D02*
X6081Y292D01*
X6115Y292D02*
X6126Y292D01*
X6154Y292D02*
X6165Y292D01*
X6201Y292D02*
X6212Y292D01*
X6283Y292D02*
X6295Y292D01*
X6413Y292D02*
X6426Y292D01*
X6446Y292D02*
X6457Y292D01*
X6544Y292D02*
X6555Y292D01*
X6629Y292D02*
X6640Y292D01*
X6755Y292D02*
X6767Y292D01*
X6801Y292D02*
X6812Y292D01*
X6884Y292D02*
X6896Y292D01*
X6929Y292D02*
X6983Y292D01*
X7109Y292D02*
X7119Y292D01*
X7132Y292D02*
X7143Y292D01*
X7185Y292D02*
X7199Y292D01*
X7223Y292D02*
X7238Y292D01*
X7280Y292D02*
X7291Y292D01*
X7303Y292D02*
X7314Y292D01*
X7356Y292D02*
X7371Y292D01*
X7395Y292D02*
X7409Y292D01*
X7451Y292D02*
X7462Y292D01*
X7475Y292D02*
X7486Y292D01*
X2476Y291D02*
X2487Y291D01*
X2511Y291D02*
X2522Y291D01*
X2576Y291D02*
X2587Y291D01*
X2639Y291D02*
X2650Y291D01*
X2686Y291D02*
X2697Y291D01*
X2724Y291D02*
X2735Y291D01*
X2943Y291D02*
X2954Y291D01*
X2981Y291D02*
X2992Y291D01*
X3009Y291D02*
X3021Y291D01*
X3029Y291D02*
X3040Y291D01*
X3067Y291D02*
X3078Y291D01*
X3114Y291D02*
X3125Y291D01*
X3159Y291D02*
X3170Y291D01*
X3519Y291D02*
X3530Y291D01*
X3691Y291D02*
X3702Y291D01*
X3842Y291D02*
X3854Y291D01*
X3882Y291D02*
X3894Y291D01*
X3972Y291D02*
X3983Y291D01*
X4015Y291D02*
X4068Y291D01*
X4870Y291D02*
X4882Y291D01*
X4903Y291D02*
X4914Y291D01*
X4958Y291D02*
X5011Y291D01*
X5054Y291D02*
X5065Y291D01*
X5071Y291D02*
X5083Y291D01*
X5127Y291D02*
X5139Y291D01*
X5169Y291D02*
X5181Y291D01*
X5212Y291D02*
X5224Y291D01*
X5258Y291D02*
X5269Y291D01*
X5429Y291D02*
X5440Y291D01*
X5498Y291D02*
X5512Y291D01*
X5568Y291D02*
X5580Y291D01*
X5586Y291D02*
X5597Y291D01*
X5640Y291D02*
X5653Y291D01*
X5686Y291D02*
X5697Y291D01*
X6029Y291D02*
X6040Y291D01*
X6069Y291D02*
X6082Y291D01*
X6115Y291D02*
X6126Y291D01*
X6154Y291D02*
X6165Y291D01*
X6201Y291D02*
X6212Y291D01*
X6283Y291D02*
X6295Y291D01*
X6413Y291D02*
X6425Y291D01*
X6446Y291D02*
X6457Y291D01*
X6544Y291D02*
X6555Y291D01*
X6629Y291D02*
X6640Y291D01*
X6755Y291D02*
X6767Y291D01*
X6801Y291D02*
X6812Y291D01*
X6885Y291D02*
X6897Y291D01*
X6930Y291D02*
X6983Y291D01*
X7109Y291D02*
X7119Y291D01*
X7132Y291D02*
X7143Y291D01*
X7186Y291D02*
X7200Y291D01*
X7222Y291D02*
X7237Y291D01*
X7280Y291D02*
X7291Y291D01*
X7303Y291D02*
X7314Y291D01*
X7357Y291D02*
X7372Y291D01*
X7394Y291D02*
X7409Y291D01*
X7451Y291D02*
X7462Y291D01*
X7475Y291D02*
X7486Y291D01*
X2476Y290D02*
X2487Y290D01*
X2511Y290D02*
X2522Y290D01*
X2576Y290D02*
X2587Y290D01*
X2639Y290D02*
X2650Y290D01*
X2686Y290D02*
X2697Y290D01*
X2724Y290D02*
X2735Y290D01*
X2943Y290D02*
X2954Y290D01*
X2981Y290D02*
X2992Y290D01*
X3009Y290D02*
X3021Y290D01*
X3029Y290D02*
X3040Y290D01*
X3067Y290D02*
X3078Y290D01*
X3114Y290D02*
X3125Y290D01*
X3159Y290D02*
X3170Y290D01*
X3519Y290D02*
X3530Y290D01*
X3691Y290D02*
X3702Y290D01*
X3843Y290D02*
X3854Y290D01*
X3881Y290D02*
X3893Y290D01*
X3972Y290D02*
X3983Y290D01*
X4016Y290D02*
X4068Y290D01*
X4869Y290D02*
X4881Y290D01*
X4903Y290D02*
X4914Y290D01*
X4959Y290D02*
X5011Y290D01*
X5053Y290D02*
X5065Y290D01*
X5071Y290D02*
X5083Y290D01*
X5127Y290D02*
X5139Y290D01*
X5169Y290D02*
X5181Y290D01*
X5212Y290D02*
X5225Y290D01*
X5258Y290D02*
X5269Y290D01*
X5429Y290D02*
X5440Y290D01*
X5497Y290D02*
X5511Y290D01*
X5568Y290D02*
X5579Y290D01*
X5586Y290D02*
X5597Y290D01*
X5641Y290D02*
X5654Y290D01*
X5686Y290D02*
X5697Y290D01*
X6029Y290D02*
X6040Y290D01*
X6069Y290D02*
X6083Y290D01*
X6115Y290D02*
X6126Y290D01*
X6154Y290D02*
X6165Y290D01*
X6201Y290D02*
X6212Y290D01*
X6284Y290D02*
X6296Y290D01*
X6412Y290D02*
X6425Y290D01*
X6446Y290D02*
X6457Y290D01*
X6544Y290D02*
X6555Y290D01*
X6629Y290D02*
X6640Y290D01*
X6755Y290D02*
X6768Y290D01*
X6801Y290D02*
X6812Y290D01*
X6885Y290D02*
X6897Y290D01*
X6931Y290D02*
X6983Y290D01*
X7109Y290D02*
X7119Y290D01*
X7132Y290D02*
X7143Y290D01*
X7187Y290D02*
X7201Y290D01*
X7222Y290D02*
X7236Y290D01*
X7280Y290D02*
X7291Y290D01*
X7303Y290D02*
X7314Y290D01*
X7358Y290D02*
X7373Y290D01*
X7393Y290D02*
X7408Y290D01*
X7451Y290D02*
X7462Y290D01*
X7475Y290D02*
X7486Y290D01*
X2476Y289D02*
X2487Y289D01*
X2511Y289D02*
X2522Y289D01*
X2576Y289D02*
X2587Y289D01*
X2639Y289D02*
X2650Y289D01*
X2686Y289D02*
X2697Y289D01*
X2724Y289D02*
X2735Y289D01*
X2943Y289D02*
X2954Y289D01*
X2981Y289D02*
X2992Y289D01*
X3008Y289D02*
X3020Y289D01*
X3029Y289D02*
X3040Y289D01*
X3067Y289D02*
X3078Y289D01*
X3114Y289D02*
X3125Y289D01*
X3159Y289D02*
X3170Y289D01*
X3519Y289D02*
X3530Y289D01*
X3691Y289D02*
X3702Y289D01*
X3843Y289D02*
X3855Y289D01*
X3881Y289D02*
X3893Y289D01*
X3972Y289D02*
X3983Y289D01*
X4017Y289D02*
X4068Y289D01*
X4869Y289D02*
X4881Y289D01*
X4903Y289D02*
X4914Y289D01*
X4960Y289D02*
X5011Y289D01*
X5053Y289D02*
X5065Y289D01*
X5072Y289D02*
X5083Y289D01*
X5126Y289D02*
X5138Y289D01*
X5170Y289D02*
X5181Y289D01*
X5212Y289D02*
X5226Y289D01*
X5258Y289D02*
X5269Y289D01*
X5429Y289D02*
X5440Y289D01*
X5496Y289D02*
X5511Y289D01*
X5567Y289D02*
X5579Y289D01*
X5586Y289D02*
X5598Y289D01*
X5641Y289D02*
X5655Y289D01*
X5686Y289D02*
X5697Y289D01*
X6029Y289D02*
X6040Y289D01*
X6070Y289D02*
X6084Y289D01*
X6115Y289D02*
X6126Y289D01*
X6154Y289D02*
X6165Y289D01*
X6201Y289D02*
X6212Y289D01*
X6284Y289D02*
X6296Y289D01*
X6412Y289D02*
X6424Y289D01*
X6446Y289D02*
X6457Y289D01*
X6544Y289D02*
X6555Y289D01*
X6629Y289D02*
X6640Y289D01*
X6756Y289D02*
X6770Y289D01*
X6801Y289D02*
X6812Y289D01*
X6886Y289D02*
X6897Y289D01*
X6932Y289D02*
X6983Y289D01*
X7109Y289D02*
X7119Y289D01*
X7132Y289D02*
X7143Y289D01*
X7187Y289D02*
X7202Y289D01*
X7221Y289D02*
X7235Y289D01*
X7280Y289D02*
X7291Y289D01*
X7303Y289D02*
X7314Y289D01*
X7359Y289D02*
X7373Y289D01*
X7392Y289D02*
X7407Y289D01*
X7451Y289D02*
X7462Y289D01*
X7475Y289D02*
X7486Y289D01*
X2476Y288D02*
X2487Y288D01*
X2511Y288D02*
X2522Y288D01*
X2576Y288D02*
X2587Y288D01*
X2639Y288D02*
X2650Y288D01*
X2686Y288D02*
X2697Y288D01*
X2724Y288D02*
X2735Y288D01*
X2943Y288D02*
X2954Y288D01*
X2981Y288D02*
X2992Y288D01*
X3008Y288D02*
X3020Y288D01*
X3029Y288D02*
X3040Y288D01*
X3067Y288D02*
X3078Y288D01*
X3114Y288D02*
X3125Y288D01*
X3159Y288D02*
X3170Y288D01*
X3519Y288D02*
X3530Y288D01*
X3691Y288D02*
X3702Y288D01*
X3843Y288D02*
X3855Y288D01*
X3880Y288D02*
X3892Y288D01*
X3972Y288D02*
X3983Y288D01*
X4018Y288D02*
X4068Y288D01*
X4869Y288D02*
X4880Y288D01*
X4903Y288D02*
X4914Y288D01*
X4961Y288D02*
X5011Y288D01*
X5053Y288D02*
X5064Y288D01*
X5072Y288D02*
X5084Y288D01*
X5126Y288D02*
X5138Y288D01*
X5170Y288D02*
X5182Y288D01*
X5213Y288D02*
X5228Y288D01*
X5258Y288D02*
X5269Y288D01*
X5429Y288D02*
X5440Y288D01*
X5495Y288D02*
X5510Y288D01*
X5567Y288D02*
X5579Y288D01*
X5586Y288D02*
X5598Y288D01*
X5642Y288D02*
X5657Y288D01*
X5686Y288D02*
X5697Y288D01*
X6029Y288D02*
X6040Y288D01*
X6070Y288D02*
X6085Y288D01*
X6115Y288D02*
X6126Y288D01*
X6154Y288D02*
X6165Y288D01*
X6201Y288D02*
X6212Y288D01*
X6285Y288D02*
X6296Y288D01*
X6412Y288D02*
X6424Y288D01*
X6446Y288D02*
X6457Y288D01*
X6544Y288D02*
X6555Y288D01*
X6629Y288D02*
X6640Y288D01*
X6756Y288D02*
X6771Y288D01*
X6801Y288D02*
X6812Y288D01*
X6886Y288D02*
X6897Y288D01*
X6933Y288D02*
X6983Y288D01*
X7109Y288D02*
X7119Y288D01*
X7132Y288D02*
X7143Y288D01*
X7188Y288D02*
X7203Y288D01*
X7220Y288D02*
X7235Y288D01*
X7280Y288D02*
X7291Y288D01*
X7303Y288D02*
X7314Y288D01*
X7360Y288D02*
X7374Y288D01*
X7391Y288D02*
X7406Y288D01*
X7451Y288D02*
X7462Y288D01*
X7475Y288D02*
X7486Y288D01*
X2476Y287D02*
X2487Y287D01*
X2511Y287D02*
X2522Y287D01*
X2576Y287D02*
X2587Y287D01*
X2639Y287D02*
X2650Y287D01*
X2686Y287D02*
X2697Y287D01*
X2724Y287D02*
X2735Y287D01*
X2943Y287D02*
X2954Y287D01*
X2981Y287D02*
X2992Y287D01*
X3007Y287D02*
X3019Y287D01*
X3029Y287D02*
X3040Y287D01*
X3067Y287D02*
X3078Y287D01*
X3114Y287D02*
X3125Y287D01*
X3159Y287D02*
X3170Y287D01*
X3519Y287D02*
X3530Y287D01*
X3691Y287D02*
X3702Y287D01*
X3844Y287D02*
X3856Y287D01*
X3880Y287D02*
X3892Y287D01*
X3972Y287D02*
X3983Y287D01*
X4019Y287D02*
X4068Y287D01*
X4868Y287D02*
X4880Y287D01*
X4903Y287D02*
X4914Y287D01*
X4963Y287D02*
X5011Y287D01*
X5053Y287D02*
X5064Y287D01*
X5072Y287D02*
X5084Y287D01*
X5126Y287D02*
X5137Y287D01*
X5171Y287D02*
X5182Y287D01*
X5213Y287D02*
X5231Y287D01*
X5257Y287D02*
X5269Y287D01*
X5429Y287D02*
X5440Y287D01*
X5495Y287D02*
X5509Y287D01*
X5567Y287D02*
X5578Y287D01*
X5587Y287D02*
X5598Y287D01*
X5642Y287D02*
X5659Y287D01*
X5686Y287D02*
X5697Y287D01*
X6029Y287D02*
X6040Y287D01*
X6071Y287D02*
X6088Y287D01*
X6115Y287D02*
X6126Y287D01*
X6154Y287D02*
X6165Y287D01*
X6201Y287D02*
X6212Y287D01*
X6285Y287D02*
X6297Y287D01*
X6412Y287D02*
X6423Y287D01*
X6446Y287D02*
X6457Y287D01*
X6543Y287D02*
X6555Y287D01*
X6629Y287D02*
X6640Y287D01*
X6757Y287D02*
X6774Y287D01*
X6801Y287D02*
X6812Y287D01*
X6886Y287D02*
X6897Y287D01*
X6934Y287D02*
X6983Y287D01*
X7108Y287D02*
X7120Y287D01*
X7132Y287D02*
X7143Y287D01*
X7189Y287D02*
X7204Y287D01*
X7219Y287D02*
X7234Y287D01*
X7280Y287D02*
X7291Y287D01*
X7303Y287D02*
X7314Y287D01*
X7361Y287D02*
X7375Y287D01*
X7391Y287D02*
X7405Y287D01*
X7451Y287D02*
X7462Y287D01*
X7475Y287D02*
X7486Y287D01*
X2476Y286D02*
X2487Y286D01*
X2511Y286D02*
X2522Y286D01*
X2576Y286D02*
X2587Y286D01*
X2639Y286D02*
X2650Y286D01*
X2686Y286D02*
X2697Y286D01*
X2724Y286D02*
X2774Y286D01*
X2923Y286D02*
X2954Y286D01*
X2981Y286D02*
X2992Y286D01*
X3007Y286D02*
X3019Y286D01*
X3029Y286D02*
X3040Y286D01*
X3067Y286D02*
X3078Y286D01*
X3114Y286D02*
X3125Y286D01*
X3159Y286D02*
X3170Y286D01*
X3328Y286D02*
X3379Y286D01*
X3519Y286D02*
X3530Y286D01*
X3691Y286D02*
X3702Y286D01*
X3844Y286D02*
X3856Y286D01*
X3880Y286D02*
X3892Y286D01*
X3951Y286D02*
X3983Y286D01*
X4021Y286D02*
X4068Y286D01*
X4868Y286D02*
X4880Y286D01*
X4903Y286D02*
X4914Y286D01*
X4964Y286D02*
X5011Y286D01*
X5052Y286D02*
X5064Y286D01*
X5073Y286D02*
X5084Y286D01*
X5125Y286D02*
X5137Y286D01*
X5171Y286D02*
X5182Y286D01*
X5214Y286D02*
X5269Y286D01*
X5409Y286D02*
X5440Y286D01*
X5494Y286D02*
X5508Y286D01*
X5567Y286D02*
X5578Y286D01*
X5587Y286D02*
X5598Y286D01*
X5643Y286D02*
X5697Y286D01*
X5814Y286D02*
X5865Y286D01*
X6009Y286D02*
X6040Y286D01*
X6071Y286D02*
X6126Y286D01*
X6154Y286D02*
X6165Y286D01*
X6201Y286D02*
X6212Y286D01*
X6285Y286D02*
X6297Y286D01*
X6411Y286D02*
X6423Y286D01*
X6446Y286D02*
X6457Y286D01*
X6523Y286D02*
X6555Y286D01*
X6629Y286D02*
X6640Y286D01*
X6757Y286D02*
X6812Y286D01*
X6886Y286D02*
X6897Y286D01*
X6936Y286D02*
X6983Y286D01*
X7105Y286D02*
X7147Y286D01*
X7190Y286D02*
X7204Y286D01*
X7218Y286D02*
X7233Y286D01*
X7276Y286D02*
X7318Y286D01*
X7361Y286D02*
X7376Y286D01*
X7390Y286D02*
X7404Y286D01*
X7448Y286D02*
X7490Y286D01*
X2476Y285D02*
X2487Y285D01*
X2511Y285D02*
X2522Y285D01*
X2576Y285D02*
X2587Y285D01*
X2639Y285D02*
X2650Y285D01*
X2686Y285D02*
X2697Y285D01*
X2724Y285D02*
X2776Y285D01*
X2921Y285D02*
X2954Y285D01*
X2981Y285D02*
X2992Y285D01*
X3006Y285D02*
X3019Y285D01*
X3029Y285D02*
X3040Y285D01*
X3067Y285D02*
X3078Y285D01*
X3114Y285D02*
X3125Y285D01*
X3159Y285D02*
X3170Y285D01*
X3326Y285D02*
X3381Y285D01*
X3519Y285D02*
X3530Y285D01*
X3691Y285D02*
X3702Y285D01*
X3844Y285D02*
X3856Y285D01*
X3879Y285D02*
X3891Y285D01*
X3950Y285D02*
X3983Y285D01*
X4025Y285D02*
X4068Y285D01*
X4868Y285D02*
X4879Y285D01*
X4903Y285D02*
X4914Y285D01*
X4968Y285D02*
X5011Y285D01*
X5052Y285D02*
X5063Y285D01*
X5073Y285D02*
X5084Y285D01*
X5125Y285D02*
X5136Y285D01*
X5171Y285D02*
X5182Y285D01*
X5215Y285D02*
X5269Y285D01*
X5407Y285D02*
X5440Y285D01*
X5493Y285D02*
X5507Y285D01*
X5566Y285D02*
X5578Y285D01*
X5587Y285D02*
X5599Y285D01*
X5643Y285D02*
X5697Y285D01*
X5813Y285D02*
X5867Y285D01*
X6008Y285D02*
X6040Y285D01*
X6072Y285D02*
X6126Y285D01*
X6154Y285D02*
X6165Y285D01*
X6201Y285D02*
X6212Y285D01*
X6286Y285D02*
X6297Y285D01*
X6411Y285D02*
X6422Y285D01*
X6446Y285D02*
X6457Y285D01*
X6522Y285D02*
X6555Y285D01*
X6629Y285D02*
X6640Y285D01*
X6758Y285D02*
X6812Y285D01*
X6886Y285D02*
X6897Y285D01*
X6939Y285D02*
X6983Y285D01*
X7103Y285D02*
X7149Y285D01*
X7191Y285D02*
X7205Y285D01*
X7217Y285D02*
X7232Y285D01*
X7274Y285D02*
X7320Y285D01*
X7362Y285D02*
X7377Y285D01*
X7389Y285D02*
X7404Y285D01*
X7446Y285D02*
X7492Y285D01*
X2476Y284D02*
X2487Y284D01*
X2511Y284D02*
X2522Y284D01*
X2576Y284D02*
X2587Y284D01*
X2639Y284D02*
X2650Y284D01*
X2686Y284D02*
X2697Y284D01*
X2725Y284D02*
X2778Y284D01*
X2920Y284D02*
X2954Y284D01*
X2981Y284D02*
X2992Y284D01*
X3006Y284D02*
X3018Y284D01*
X3029Y284D02*
X3040Y284D01*
X3067Y284D02*
X3078Y284D01*
X3114Y284D02*
X3125Y284D01*
X3159Y284D02*
X3170Y284D01*
X3325Y284D02*
X3381Y284D01*
X3519Y284D02*
X3530Y284D01*
X3691Y284D02*
X3702Y284D01*
X3845Y284D02*
X3857Y284D01*
X3879Y284D02*
X3891Y284D01*
X3949Y284D02*
X3983Y284D01*
X4035Y284D02*
X4048Y284D01*
X4057Y284D02*
X4068Y284D01*
X4868Y284D02*
X4879Y284D01*
X4903Y284D02*
X4914Y284D01*
X4978Y284D02*
X4991Y284D01*
X5000Y284D02*
X5011Y284D01*
X5052Y284D02*
X5063Y284D01*
X5073Y284D02*
X5085Y284D01*
X5125Y284D02*
X5136Y284D01*
X5171Y284D02*
X5183Y284D01*
X5216Y284D02*
X5269Y284D01*
X5407Y284D02*
X5440Y284D01*
X5492Y284D02*
X5507Y284D01*
X5566Y284D02*
X5578Y284D01*
X5588Y284D02*
X5599Y284D01*
X5644Y284D02*
X5697Y284D01*
X5812Y284D02*
X5868Y284D01*
X6007Y284D02*
X6040Y284D01*
X6073Y284D02*
X6126Y284D01*
X6154Y284D02*
X6165Y284D01*
X6201Y284D02*
X6212Y284D01*
X6286Y284D02*
X6297Y284D01*
X6411Y284D02*
X6422Y284D01*
X6446Y284D02*
X6457Y284D01*
X6521Y284D02*
X6555Y284D01*
X6629Y284D02*
X6640Y284D01*
X6759Y284D02*
X6812Y284D01*
X6886Y284D02*
X6897Y284D01*
X6950Y284D02*
X6963Y284D01*
X6972Y284D02*
X6983Y284D01*
X7101Y284D02*
X7150Y284D01*
X7192Y284D02*
X7206Y284D01*
X7217Y284D02*
X7231Y284D01*
X7273Y284D02*
X7322Y284D01*
X7363Y284D02*
X7378Y284D01*
X7388Y284D02*
X7403Y284D01*
X7444Y284D02*
X7493Y284D01*
X2476Y283D02*
X2487Y283D01*
X2511Y283D02*
X2522Y283D01*
X2576Y283D02*
X2587Y283D01*
X2639Y283D02*
X2650Y283D01*
X2686Y283D02*
X2697Y283D01*
X2725Y283D02*
X2779Y283D01*
X2920Y283D02*
X2954Y283D01*
X2981Y283D02*
X2992Y283D01*
X3006Y283D02*
X3018Y283D01*
X3029Y283D02*
X3040Y283D01*
X3067Y283D02*
X3078Y283D01*
X3114Y283D02*
X3125Y283D01*
X3159Y283D02*
X3170Y283D01*
X3325Y283D02*
X3382Y283D01*
X3519Y283D02*
X3530Y283D01*
X3691Y283D02*
X3702Y283D01*
X3845Y283D02*
X3857Y283D01*
X3879Y283D02*
X3890Y283D01*
X3949Y283D02*
X3983Y283D01*
X4034Y283D02*
X4047Y283D01*
X4057Y283D02*
X4068Y283D01*
X4868Y283D02*
X4879Y283D01*
X4903Y283D02*
X4914Y283D01*
X4977Y283D02*
X4990Y283D01*
X5000Y283D02*
X5011Y283D01*
X5051Y283D02*
X5063Y283D01*
X5073Y283D02*
X5085Y283D01*
X5125Y283D02*
X5136Y283D01*
X5172Y283D02*
X5183Y283D01*
X5216Y283D02*
X5269Y283D01*
X5406Y283D02*
X5440Y283D01*
X5492Y283D02*
X5506Y283D01*
X5566Y283D02*
X5577Y283D01*
X5588Y283D02*
X5599Y283D01*
X5645Y283D02*
X5697Y283D01*
X5811Y283D02*
X5868Y283D01*
X6006Y283D02*
X6040Y283D01*
X6074Y283D02*
X6126Y283D01*
X6154Y283D02*
X6165Y283D01*
X6201Y283D02*
X6212Y283D01*
X6286Y283D02*
X6297Y283D01*
X6411Y283D02*
X6422Y283D01*
X6446Y283D02*
X6457Y283D01*
X6521Y283D02*
X6555Y283D01*
X6629Y283D02*
X6640Y283D01*
X6760Y283D02*
X6812Y283D01*
X6886Y283D02*
X6897Y283D01*
X6949Y283D02*
X6962Y283D01*
X6972Y283D02*
X6983Y283D01*
X7100Y283D02*
X7151Y283D01*
X7192Y283D02*
X7207Y283D01*
X7216Y283D02*
X7230Y283D01*
X7272Y283D02*
X7323Y283D01*
X7364Y283D02*
X7378Y283D01*
X7387Y283D02*
X7402Y283D01*
X7443Y283D02*
X7494Y283D01*
X2476Y282D02*
X2487Y282D01*
X2511Y282D02*
X2522Y282D01*
X2576Y282D02*
X2587Y282D01*
X2639Y282D02*
X2650Y282D01*
X2686Y282D02*
X2697Y282D01*
X2725Y282D02*
X2780Y282D01*
X2920Y282D02*
X2954Y282D01*
X2981Y282D02*
X2992Y282D01*
X3005Y282D02*
X3017Y282D01*
X3029Y282D02*
X3040Y282D01*
X3067Y282D02*
X3078Y282D01*
X3114Y282D02*
X3125Y282D01*
X3159Y282D02*
X3170Y282D01*
X3325Y282D02*
X3382Y282D01*
X3519Y282D02*
X3530Y282D01*
X3691Y282D02*
X3702Y282D01*
X3846Y282D02*
X3858Y282D01*
X3878Y282D02*
X3890Y282D01*
X3948Y282D02*
X3983Y282D01*
X4034Y282D02*
X4047Y282D01*
X4057Y282D02*
X4068Y282D01*
X4868Y282D02*
X4879Y282D01*
X4903Y282D02*
X4914Y282D01*
X4977Y282D02*
X4990Y282D01*
X5000Y282D02*
X5011Y282D01*
X5051Y282D02*
X5063Y282D01*
X5074Y282D02*
X5085Y282D01*
X5125Y282D02*
X5136Y282D01*
X5172Y282D02*
X5183Y282D01*
X5217Y282D02*
X5269Y282D01*
X5406Y282D02*
X5440Y282D01*
X5491Y282D02*
X5505Y282D01*
X5565Y282D02*
X5577Y282D01*
X5588Y282D02*
X5600Y282D01*
X5646Y282D02*
X5697Y282D01*
X5811Y282D02*
X5869Y282D01*
X6006Y282D02*
X6040Y282D01*
X6075Y282D02*
X6126Y282D01*
X6154Y282D02*
X6165Y282D01*
X6201Y282D02*
X6212Y282D01*
X6286Y282D02*
X6297Y282D01*
X6411Y282D02*
X6422Y282D01*
X6446Y282D02*
X6457Y282D01*
X6520Y282D02*
X6555Y282D01*
X6629Y282D02*
X6640Y282D01*
X6760Y282D02*
X6812Y282D01*
X6886Y282D02*
X6897Y282D01*
X6948Y282D02*
X6961Y282D01*
X6972Y282D02*
X6983Y282D01*
X7099Y282D02*
X7152Y282D01*
X7193Y282D02*
X7208Y282D01*
X7215Y282D02*
X7230Y282D01*
X7271Y282D02*
X7324Y282D01*
X7365Y282D02*
X7379Y282D01*
X7386Y282D02*
X7401Y282D01*
X7442Y282D02*
X7495Y282D01*
X2476Y281D02*
X2487Y281D01*
X2511Y281D02*
X2522Y281D01*
X2576Y281D02*
X2587Y281D01*
X2639Y281D02*
X2650Y281D01*
X2686Y281D02*
X2697Y281D01*
X2726Y281D02*
X2780Y281D01*
X2919Y281D02*
X2954Y281D01*
X2981Y281D02*
X2992Y281D01*
X3005Y281D02*
X3017Y281D01*
X3029Y281D02*
X3040Y281D01*
X3067Y281D02*
X3078Y281D01*
X3114Y281D02*
X3125Y281D01*
X3159Y281D02*
X3170Y281D01*
X3324Y281D02*
X3382Y281D01*
X3519Y281D02*
X3530Y281D01*
X3691Y281D02*
X3702Y281D01*
X3846Y281D02*
X3858Y281D01*
X3878Y281D02*
X3890Y281D01*
X3948Y281D02*
X3983Y281D01*
X4033Y281D02*
X4046Y281D01*
X4057Y281D02*
X4068Y281D01*
X4868Y281D02*
X4879Y281D01*
X4903Y281D02*
X4914Y281D01*
X4976Y281D02*
X4989Y281D01*
X5000Y281D02*
X5011Y281D01*
X5051Y281D02*
X5062Y281D01*
X5074Y281D02*
X5086Y281D01*
X5125Y281D02*
X5136Y281D01*
X5172Y281D02*
X5183Y281D01*
X5218Y281D02*
X5269Y281D01*
X5406Y281D02*
X5440Y281D01*
X5490Y281D02*
X5504Y281D01*
X5565Y281D02*
X5577Y281D01*
X5588Y281D02*
X5600Y281D01*
X5647Y281D02*
X5697Y281D01*
X5811Y281D02*
X5869Y281D01*
X6006Y281D02*
X6040Y281D01*
X6076Y281D02*
X6126Y281D01*
X6154Y281D02*
X6165Y281D01*
X6201Y281D02*
X6212Y281D01*
X6286Y281D02*
X6297Y281D01*
X6411Y281D02*
X6422Y281D01*
X6446Y281D02*
X6457Y281D01*
X6520Y281D02*
X6555Y281D01*
X6629Y281D02*
X6640Y281D01*
X6762Y281D02*
X6812Y281D01*
X6886Y281D02*
X6897Y281D01*
X6948Y281D02*
X6961Y281D01*
X6972Y281D02*
X6983Y281D01*
X7099Y281D02*
X7153Y281D01*
X7194Y281D02*
X7209Y281D01*
X7214Y281D02*
X7229Y281D01*
X7270Y281D02*
X7324Y281D01*
X7366Y281D02*
X7380Y281D01*
X7386Y281D02*
X7400Y281D01*
X7441Y281D02*
X7496Y281D01*
X2476Y280D02*
X2487Y280D01*
X2511Y280D02*
X2522Y280D01*
X2576Y280D02*
X2587Y280D01*
X2639Y280D02*
X2650Y280D01*
X2686Y280D02*
X2697Y280D01*
X2726Y280D02*
X2781Y280D01*
X2919Y280D02*
X2954Y280D01*
X2981Y280D02*
X2992Y280D01*
X3004Y280D02*
X3016Y280D01*
X3029Y280D02*
X3040Y280D01*
X3067Y280D02*
X3078Y280D01*
X3114Y280D02*
X3125Y280D01*
X3159Y280D02*
X3170Y280D01*
X3324Y280D02*
X3382Y280D01*
X3519Y280D02*
X3530Y280D01*
X3691Y280D02*
X3702Y280D01*
X3846Y280D02*
X3858Y280D01*
X3877Y280D02*
X3889Y280D01*
X3948Y280D02*
X3983Y280D01*
X4032Y280D02*
X4045Y280D01*
X4057Y280D02*
X4068Y280D01*
X4868Y280D02*
X4879Y280D01*
X4903Y280D02*
X4914Y280D01*
X4976Y280D02*
X4989Y280D01*
X5000Y280D02*
X5011Y280D01*
X5050Y280D02*
X5062Y280D01*
X5074Y280D02*
X5086Y280D01*
X5125Y280D02*
X5136Y280D01*
X5172Y280D02*
X5183Y280D01*
X5218Y280D02*
X5269Y280D01*
X5406Y280D02*
X5440Y280D01*
X5489Y280D02*
X5504Y280D01*
X5565Y280D02*
X5576Y280D01*
X5589Y280D02*
X5600Y280D01*
X5647Y280D02*
X5697Y280D01*
X5811Y280D02*
X5869Y280D01*
X6006Y280D02*
X6040Y280D01*
X6075Y280D02*
X6126Y280D01*
X6154Y280D02*
X6165Y280D01*
X6201Y280D02*
X6212Y280D01*
X6286Y280D02*
X6297Y280D01*
X6411Y280D02*
X6422Y280D01*
X6446Y280D02*
X6457Y280D01*
X6520Y280D02*
X6555Y280D01*
X6629Y280D02*
X6640Y280D01*
X6761Y280D02*
X6812Y280D01*
X6886Y280D02*
X6897Y280D01*
X6947Y280D02*
X6960Y280D01*
X6972Y280D02*
X6983Y280D01*
X7098Y280D02*
X7153Y280D01*
X7195Y280D02*
X7209Y280D01*
X7213Y280D02*
X7228Y280D01*
X7269Y280D02*
X7325Y280D01*
X7366Y280D02*
X7381Y280D01*
X7385Y280D02*
X7399Y280D01*
X7441Y280D02*
X7496Y280D01*
X2476Y279D02*
X2487Y279D01*
X2511Y279D02*
X2522Y279D01*
X2576Y279D02*
X2587Y279D01*
X2639Y279D02*
X2650Y279D01*
X2686Y279D02*
X2697Y279D01*
X2727Y279D02*
X2782Y279D01*
X2920Y279D02*
X2954Y279D01*
X2981Y279D02*
X2992Y279D01*
X3004Y279D02*
X3016Y279D01*
X3029Y279D02*
X3040Y279D01*
X3067Y279D02*
X3078Y279D01*
X3114Y279D02*
X3125Y279D01*
X3159Y279D02*
X3170Y279D01*
X3324Y279D02*
X3382Y279D01*
X3519Y279D02*
X3530Y279D01*
X3691Y279D02*
X3702Y279D01*
X3847Y279D02*
X3859Y279D01*
X3877Y279D02*
X3889Y279D01*
X3948Y279D02*
X3983Y279D01*
X4032Y279D02*
X4045Y279D01*
X4057Y279D02*
X4068Y279D01*
X4868Y279D02*
X4879Y279D01*
X4903Y279D02*
X4914Y279D01*
X4975Y279D02*
X4988Y279D01*
X5000Y279D02*
X5011Y279D01*
X5050Y279D02*
X5062Y279D01*
X5075Y279D02*
X5086Y279D01*
X5125Y279D02*
X5136Y279D01*
X5172Y279D02*
X5183Y279D01*
X5217Y279D02*
X5269Y279D01*
X5406Y279D02*
X5440Y279D01*
X5488Y279D02*
X5503Y279D01*
X5565Y279D02*
X5576Y279D01*
X5589Y279D02*
X5601Y279D01*
X5646Y279D02*
X5697Y279D01*
X5811Y279D02*
X5869Y279D01*
X6006Y279D02*
X6040Y279D01*
X6074Y279D02*
X6126Y279D01*
X6154Y279D02*
X6165Y279D01*
X6201Y279D02*
X6212Y279D01*
X6286Y279D02*
X6297Y279D01*
X6411Y279D02*
X6422Y279D01*
X6446Y279D02*
X6457Y279D01*
X6520Y279D02*
X6555Y279D01*
X6629Y279D02*
X6640Y279D01*
X6760Y279D02*
X6812Y279D01*
X6886Y279D02*
X6897Y279D01*
X6947Y279D02*
X6960Y279D01*
X6972Y279D02*
X6983Y279D01*
X7097Y279D02*
X7154Y279D01*
X7196Y279D02*
X7210Y279D01*
X7212Y279D02*
X7227Y279D01*
X7269Y279D02*
X7325Y279D01*
X7367Y279D02*
X7382Y279D01*
X7384Y279D02*
X7399Y279D01*
X7440Y279D02*
X7497Y279D01*
X2476Y278D02*
X2487Y278D01*
X2511Y278D02*
X2522Y278D01*
X2576Y278D02*
X2587Y278D01*
X2639Y278D02*
X2650Y278D01*
X2686Y278D02*
X2697Y278D01*
X2728Y278D02*
X2782Y278D01*
X2920Y278D02*
X2954Y278D01*
X2981Y278D02*
X2992Y278D01*
X3003Y278D02*
X3016Y278D01*
X3029Y278D02*
X3040Y278D01*
X3067Y278D02*
X3078Y278D01*
X3114Y278D02*
X3125Y278D01*
X3159Y278D02*
X3170Y278D01*
X3324Y278D02*
X3382Y278D01*
X3519Y278D02*
X3530Y278D01*
X3691Y278D02*
X3702Y278D01*
X3847Y278D02*
X3859Y278D01*
X3877Y278D02*
X3889Y278D01*
X3949Y278D02*
X3983Y278D01*
X4031Y278D02*
X4044Y278D01*
X4057Y278D02*
X4068Y278D01*
X4868Y278D02*
X4879Y278D01*
X4903Y278D02*
X4914Y278D01*
X4974Y278D02*
X4987Y278D01*
X5000Y278D02*
X5011Y278D01*
X5050Y278D02*
X5061Y278D01*
X5075Y278D02*
X5086Y278D01*
X5125Y278D02*
X5136Y278D01*
X5172Y278D02*
X5183Y278D01*
X5216Y278D02*
X5269Y278D01*
X5406Y278D02*
X5440Y278D01*
X5488Y278D02*
X5502Y278D01*
X5564Y278D02*
X5576Y278D01*
X5589Y278D02*
X5601Y278D01*
X5645Y278D02*
X5697Y278D01*
X5811Y278D02*
X5869Y278D01*
X6006Y278D02*
X6040Y278D01*
X6074Y278D02*
X6126Y278D01*
X6154Y278D02*
X6165Y278D01*
X6201Y278D02*
X6212Y278D01*
X6286Y278D02*
X6297Y278D01*
X6411Y278D02*
X6422Y278D01*
X6446Y278D02*
X6457Y278D01*
X6521Y278D02*
X6555Y278D01*
X6629Y278D02*
X6640Y278D01*
X6759Y278D02*
X6812Y278D01*
X6886Y278D02*
X6897Y278D01*
X6946Y278D02*
X6959Y278D01*
X6972Y278D02*
X6983Y278D01*
X7097Y278D02*
X7154Y278D01*
X7197Y278D02*
X7226Y278D01*
X7269Y278D02*
X7326Y278D01*
X7368Y278D02*
X7398Y278D01*
X7440Y278D02*
X7497Y278D01*
X2476Y277D02*
X2487Y277D01*
X2511Y277D02*
X2522Y277D01*
X2576Y277D02*
X2587Y277D01*
X2639Y277D02*
X2650Y277D01*
X2686Y277D02*
X2697Y277D01*
X2729Y277D02*
X2782Y277D01*
X2921Y277D02*
X2954Y277D01*
X2981Y277D02*
X2992Y277D01*
X3003Y277D02*
X3015Y277D01*
X3029Y277D02*
X3040Y277D01*
X3067Y277D02*
X3078Y277D01*
X3114Y277D02*
X3125Y277D01*
X3159Y277D02*
X3170Y277D01*
X3324Y277D02*
X3382Y277D01*
X3519Y277D02*
X3530Y277D01*
X3691Y277D02*
X3702Y277D01*
X3848Y277D02*
X3860Y277D01*
X3876Y277D02*
X3888Y277D01*
X3949Y277D02*
X3983Y277D01*
X4031Y277D02*
X4044Y277D01*
X4057Y277D02*
X4068Y277D01*
X4868Y277D02*
X4879Y277D01*
X4903Y277D02*
X4914Y277D01*
X4974Y277D02*
X4987Y277D01*
X5000Y277D02*
X5011Y277D01*
X5050Y277D02*
X5061Y277D01*
X5075Y277D02*
X5087Y277D01*
X5125Y277D02*
X5136Y277D01*
X5171Y277D02*
X5183Y277D01*
X5215Y277D02*
X5269Y277D01*
X5407Y277D02*
X5440Y277D01*
X5487Y277D02*
X5501Y277D01*
X5564Y277D02*
X5575Y277D01*
X5590Y277D02*
X5601Y277D01*
X5644Y277D02*
X5697Y277D01*
X5811Y277D02*
X5869Y277D01*
X6007Y277D02*
X6040Y277D01*
X6073Y277D02*
X6126Y277D01*
X6154Y277D02*
X6165Y277D01*
X6201Y277D02*
X6212Y277D01*
X6286Y277D02*
X6297Y277D01*
X6411Y277D02*
X6422Y277D01*
X6446Y277D02*
X6457Y277D01*
X6521Y277D02*
X6555Y277D01*
X6629Y277D02*
X6640Y277D01*
X6759Y277D02*
X6812Y277D01*
X6886Y277D02*
X6897Y277D01*
X6946Y277D02*
X6959Y277D01*
X6972Y277D02*
X6983Y277D01*
X7097Y277D02*
X7154Y277D01*
X7197Y277D02*
X7225Y277D01*
X7268Y277D02*
X7326Y277D01*
X7369Y277D02*
X7397Y277D01*
X7440Y277D02*
X7497Y277D01*
X2473Y276D02*
X2522Y276D01*
X2556Y276D02*
X2560Y276D01*
X2576Y276D02*
X2587Y276D01*
X2639Y276D02*
X2650Y276D01*
X2686Y276D02*
X2697Y276D01*
X2731Y276D02*
X2782Y276D01*
X2922Y276D02*
X2954Y276D01*
X2981Y276D02*
X2992Y276D01*
X3002Y276D02*
X3015Y276D01*
X3029Y276D02*
X3040Y276D01*
X3067Y276D02*
X3078Y276D01*
X3114Y276D02*
X3125Y276D01*
X3159Y276D02*
X3170Y276D01*
X3198Y276D02*
X3202Y276D01*
X3324Y276D02*
X3382Y276D01*
X3499Y276D02*
X3503Y276D01*
X3519Y276D02*
X3530Y276D01*
X3671Y276D02*
X3675Y276D01*
X3691Y276D02*
X3702Y276D01*
X3848Y276D02*
X3860Y276D01*
X3876Y276D02*
X3888Y276D01*
X3950Y276D02*
X3983Y276D01*
X4030Y276D02*
X4043Y276D01*
X4057Y276D02*
X4068Y276D01*
X4868Y276D02*
X4879Y276D01*
X4903Y276D02*
X4914Y276D01*
X4973Y276D02*
X4986Y276D01*
X5000Y276D02*
X5011Y276D01*
X5049Y276D02*
X5061Y276D01*
X5076Y276D02*
X5087Y276D01*
X5125Y276D02*
X5137Y276D01*
X5171Y276D02*
X5182Y276D01*
X5215Y276D02*
X5269Y276D01*
X5408Y276D02*
X5440Y276D01*
X5486Y276D02*
X5500Y276D01*
X5564Y276D02*
X5575Y276D01*
X5590Y276D02*
X5601Y276D01*
X5643Y276D02*
X5697Y276D01*
X5811Y276D02*
X5869Y276D01*
X6008Y276D02*
X6040Y276D01*
X6072Y276D02*
X6126Y276D01*
X6154Y276D02*
X6165Y276D01*
X6201Y276D02*
X6212Y276D01*
X6286Y276D02*
X6297Y276D01*
X6411Y276D02*
X6423Y276D01*
X6446Y276D02*
X6457Y276D01*
X6522Y276D02*
X6555Y276D01*
X6629Y276D02*
X6640Y276D01*
X6758Y276D02*
X6812Y276D01*
X6839Y276D02*
X6865Y276D01*
X6886Y276D02*
X6897Y276D01*
X6945Y276D02*
X6958Y276D01*
X6972Y276D02*
X6983Y276D01*
X7097Y276D02*
X7155Y276D01*
X7198Y276D02*
X7225Y276D01*
X7268Y276D02*
X7326Y276D01*
X7370Y276D02*
X7396Y276D01*
X7440Y276D02*
X7497Y276D01*
X2472Y275D02*
X2522Y275D01*
X2555Y275D02*
X2562Y275D01*
X2576Y275D02*
X2587Y275D01*
X2639Y275D02*
X2650Y275D01*
X2686Y275D02*
X2697Y275D01*
X2733Y275D02*
X2782Y275D01*
X2923Y275D02*
X2954Y275D01*
X2981Y275D02*
X2992Y275D01*
X3002Y275D02*
X3014Y275D01*
X3029Y275D02*
X3040Y275D01*
X3067Y275D02*
X3078Y275D01*
X3114Y275D02*
X3125Y275D01*
X3159Y275D02*
X3170Y275D01*
X3196Y275D02*
X3203Y275D01*
X3324Y275D02*
X3382Y275D01*
X3498Y275D02*
X3505Y275D01*
X3519Y275D02*
X3530Y275D01*
X3669Y275D02*
X3676Y275D01*
X3691Y275D02*
X3702Y275D01*
X3848Y275D02*
X3860Y275D01*
X3875Y275D02*
X3887Y275D01*
X3952Y275D02*
X3983Y275D01*
X4030Y275D02*
X4043Y275D01*
X4057Y275D02*
X4068Y275D01*
X4868Y275D02*
X4880Y275D01*
X4903Y275D02*
X4914Y275D01*
X4973Y275D02*
X4986Y275D01*
X5000Y275D02*
X5011Y275D01*
X5049Y275D02*
X5060Y275D01*
X5076Y275D02*
X5087Y275D01*
X5125Y275D02*
X5137Y275D01*
X5171Y275D02*
X5182Y275D01*
X5214Y275D02*
X5269Y275D01*
X5410Y275D02*
X5440Y275D01*
X5485Y275D02*
X5500Y275D01*
X5563Y275D02*
X5575Y275D01*
X5590Y275D02*
X5602Y275D01*
X5643Y275D02*
X5697Y275D01*
X5811Y275D02*
X5869Y275D01*
X6010Y275D02*
X6040Y275D01*
X6071Y275D02*
X6126Y275D01*
X6154Y275D02*
X6165Y275D01*
X6201Y275D02*
X6212Y275D01*
X6285Y275D02*
X6297Y275D01*
X6411Y275D02*
X6423Y275D01*
X6446Y275D02*
X6457Y275D01*
X6524Y275D02*
X6555Y275D01*
X6629Y275D02*
X6640Y275D01*
X6757Y275D02*
X6812Y275D01*
X6839Y275D02*
X6866Y275D01*
X6886Y275D02*
X6897Y275D01*
X6944Y275D02*
X6957Y275D01*
X6972Y275D02*
X6983Y275D01*
X7097Y275D02*
X7155Y275D01*
X7199Y275D02*
X7224Y275D01*
X7268Y275D02*
X7326Y275D01*
X7371Y275D02*
X7395Y275D01*
X7440Y275D02*
X7498Y275D01*
X2471Y274D02*
X2522Y274D01*
X2554Y274D02*
X2563Y274D01*
X2576Y274D02*
X2587Y274D01*
X2639Y274D02*
X2650Y274D01*
X2686Y274D02*
X2697Y274D01*
X2771Y274D02*
X2782Y274D01*
X2943Y274D02*
X2954Y274D01*
X2981Y274D02*
X2992Y274D01*
X3002Y274D02*
X3014Y274D01*
X3029Y274D02*
X3040Y274D01*
X3067Y274D02*
X3078Y274D01*
X3114Y274D02*
X3125Y274D01*
X3159Y274D02*
X3170Y274D01*
X3195Y274D02*
X3204Y274D01*
X3325Y274D02*
X3382Y274D01*
X3497Y274D02*
X3506Y274D01*
X3519Y274D02*
X3530Y274D01*
X3668Y274D02*
X3677Y274D01*
X3691Y274D02*
X3702Y274D01*
X3849Y274D02*
X3861Y274D01*
X3875Y274D02*
X3887Y274D01*
X3972Y274D02*
X3983Y274D01*
X4029Y274D02*
X4042Y274D01*
X4057Y274D02*
X4068Y274D01*
X4868Y274D02*
X4880Y274D01*
X4903Y274D02*
X4914Y274D01*
X4972Y274D02*
X4985Y274D01*
X5000Y274D02*
X5011Y274D01*
X5049Y274D02*
X5060Y274D01*
X5076Y274D02*
X5088Y274D01*
X5126Y274D02*
X5137Y274D01*
X5170Y274D02*
X5182Y274D01*
X5213Y274D02*
X5229Y274D01*
X5258Y274D02*
X5269Y274D01*
X5429Y274D02*
X5440Y274D01*
X5485Y274D02*
X5499Y274D01*
X5563Y274D02*
X5575Y274D01*
X5590Y274D02*
X5602Y274D01*
X5642Y274D02*
X5658Y274D01*
X5686Y274D02*
X5697Y274D01*
X5811Y274D02*
X5868Y274D01*
X6029Y274D02*
X6040Y274D01*
X6071Y274D02*
X6087Y274D01*
X6115Y274D02*
X6126Y274D01*
X6154Y274D02*
X6165Y274D01*
X6201Y274D02*
X6212Y274D01*
X6285Y274D02*
X6297Y274D01*
X6412Y274D02*
X6423Y274D01*
X6446Y274D02*
X6457Y274D01*
X6544Y274D02*
X6555Y274D01*
X6629Y274D02*
X6640Y274D01*
X6757Y274D02*
X6773Y274D01*
X6801Y274D02*
X6812Y274D01*
X6839Y274D02*
X6867Y274D01*
X6886Y274D02*
X6897Y274D01*
X6944Y274D02*
X6957Y274D01*
X6972Y274D02*
X6983Y274D01*
X7097Y274D02*
X7108Y274D01*
X7144Y274D02*
X7155Y274D01*
X7200Y274D02*
X7223Y274D01*
X7268Y274D02*
X7279Y274D01*
X7315Y274D02*
X7326Y274D01*
X7371Y274D02*
X7394Y274D01*
X7440Y274D02*
X7451Y274D01*
X7487Y274D02*
X7498Y274D01*
X2471Y273D02*
X2522Y273D01*
X2553Y273D02*
X2563Y273D01*
X2576Y273D02*
X2587Y273D01*
X2639Y273D02*
X2650Y273D01*
X2686Y273D02*
X2697Y273D01*
X2771Y273D02*
X2782Y273D01*
X2943Y273D02*
X2954Y273D01*
X2981Y273D02*
X2992Y273D01*
X3001Y273D02*
X3013Y273D01*
X3029Y273D02*
X3040Y273D01*
X3067Y273D02*
X3078Y273D01*
X3114Y273D02*
X3125Y273D01*
X3159Y273D02*
X3170Y273D01*
X3195Y273D02*
X3205Y273D01*
X3325Y273D02*
X3382Y273D01*
X3496Y273D02*
X3506Y273D01*
X3519Y273D02*
X3530Y273D01*
X3668Y273D02*
X3678Y273D01*
X3691Y273D02*
X3702Y273D01*
X3849Y273D02*
X3861Y273D01*
X3875Y273D02*
X3887Y273D01*
X3972Y273D02*
X3983Y273D01*
X4028Y273D02*
X4041Y273D01*
X4057Y273D02*
X4068Y273D01*
X4869Y273D02*
X4881Y273D01*
X4903Y273D02*
X4914Y273D01*
X4971Y273D02*
X4984Y273D01*
X5000Y273D02*
X5011Y273D01*
X5048Y273D02*
X5060Y273D01*
X5076Y273D02*
X5088Y273D01*
X5126Y273D02*
X5138Y273D01*
X5170Y273D02*
X5182Y273D01*
X5213Y273D02*
X5227Y273D01*
X5258Y273D02*
X5269Y273D01*
X5429Y273D02*
X5440Y273D01*
X5484Y273D02*
X5498Y273D01*
X5563Y273D02*
X5574Y273D01*
X5591Y273D02*
X5602Y273D01*
X5641Y273D02*
X5656Y273D01*
X5686Y273D02*
X5697Y273D01*
X5811Y273D02*
X5868Y273D01*
X6029Y273D02*
X6040Y273D01*
X6070Y273D02*
X6085Y273D01*
X6115Y273D02*
X6126Y273D01*
X6154Y273D02*
X6165Y273D01*
X6201Y273D02*
X6212Y273D01*
X6284Y273D02*
X6296Y273D01*
X6412Y273D02*
X6424Y273D01*
X6446Y273D02*
X6457Y273D01*
X6544Y273D02*
X6555Y273D01*
X6629Y273D02*
X6640Y273D01*
X6756Y273D02*
X6771Y273D01*
X6801Y273D02*
X6812Y273D01*
X6839Y273D02*
X6868Y273D01*
X6886Y273D02*
X6897Y273D01*
X6943Y273D02*
X6956Y273D01*
X6972Y273D02*
X6983Y273D01*
X7097Y273D02*
X7108Y273D01*
X7144Y273D02*
X7155Y273D01*
X7201Y273D02*
X7222Y273D01*
X7268Y273D02*
X7279Y273D01*
X7315Y273D02*
X7326Y273D01*
X7372Y273D02*
X7394Y273D01*
X7440Y273D02*
X7451Y273D01*
X7487Y273D02*
X7498Y273D01*
X2470Y272D02*
X2522Y272D01*
X2553Y272D02*
X2564Y272D01*
X2576Y272D02*
X2587Y272D01*
X2639Y272D02*
X2650Y272D01*
X2686Y272D02*
X2697Y272D01*
X2771Y272D02*
X2782Y272D01*
X2943Y272D02*
X2954Y272D01*
X2981Y272D02*
X2992Y272D01*
X3001Y272D02*
X3013Y272D01*
X3029Y272D02*
X3040Y272D01*
X3067Y272D02*
X3078Y272D01*
X3114Y272D02*
X3125Y272D01*
X3159Y272D02*
X3170Y272D01*
X3194Y272D02*
X3205Y272D01*
X3326Y272D02*
X3381Y272D01*
X3496Y272D02*
X3507Y272D01*
X3519Y272D02*
X3530Y272D01*
X3668Y272D02*
X3678Y272D01*
X3691Y272D02*
X3702Y272D01*
X3850Y272D02*
X3861Y272D01*
X3874Y272D02*
X3886Y272D01*
X3972Y272D02*
X3983Y272D01*
X4028Y272D02*
X4041Y272D01*
X4057Y272D02*
X4068Y272D01*
X4869Y272D02*
X4881Y272D01*
X4903Y272D02*
X4914Y272D01*
X4971Y272D02*
X4984Y272D01*
X5000Y272D02*
X5011Y272D01*
X5048Y272D02*
X5060Y272D01*
X5077Y272D02*
X5088Y272D01*
X5126Y272D02*
X5138Y272D01*
X5169Y272D02*
X5181Y272D01*
X5212Y272D02*
X5226Y272D01*
X5258Y272D02*
X5269Y272D01*
X5429Y272D02*
X5440Y272D01*
X5483Y272D02*
X5497Y272D01*
X5563Y272D02*
X5574Y272D01*
X5591Y272D02*
X5603Y272D01*
X5641Y272D02*
X5655Y272D01*
X5686Y272D02*
X5697Y272D01*
X5812Y272D02*
X5867Y272D01*
X6029Y272D02*
X6040Y272D01*
X6070Y272D02*
X6083Y272D01*
X6115Y272D02*
X6126Y272D01*
X6154Y272D02*
X6165Y272D01*
X6201Y272D02*
X6212Y272D01*
X6284Y272D02*
X6296Y272D01*
X6412Y272D02*
X6424Y272D01*
X6446Y272D02*
X6457Y272D01*
X6544Y272D02*
X6555Y272D01*
X6629Y272D02*
X6640Y272D01*
X6756Y272D02*
X6769Y272D01*
X6801Y272D02*
X6812Y272D01*
X6839Y272D02*
X6868Y272D01*
X6886Y272D02*
X6897Y272D01*
X6943Y272D02*
X6956Y272D01*
X6972Y272D02*
X6983Y272D01*
X7097Y272D02*
X7108Y272D01*
X7144Y272D02*
X7155Y272D01*
X7202Y272D02*
X7221Y272D01*
X7268Y272D02*
X7279Y272D01*
X7315Y272D02*
X7326Y272D01*
X7373Y272D02*
X7393Y272D01*
X7440Y272D02*
X7451Y272D01*
X7487Y272D02*
X7498Y272D01*
X2470Y271D02*
X2522Y271D01*
X2553Y271D02*
X2564Y271D01*
X2576Y271D02*
X2587Y271D01*
X2639Y271D02*
X2650Y271D01*
X2686Y271D02*
X2697Y271D01*
X2771Y271D02*
X2782Y271D01*
X2943Y271D02*
X2954Y271D01*
X2981Y271D02*
X2992Y271D01*
X3000Y271D02*
X3012Y271D01*
X3029Y271D02*
X3040Y271D01*
X3067Y271D02*
X3078Y271D01*
X3114Y271D02*
X3125Y271D01*
X3159Y271D02*
X3170Y271D01*
X3194Y271D02*
X3205Y271D01*
X3327Y271D02*
X3380Y271D01*
X3496Y271D02*
X3507Y271D01*
X3519Y271D02*
X3530Y271D01*
X3603Y271D02*
X3618Y271D01*
X3667Y271D02*
X3678Y271D01*
X3691Y271D02*
X3702Y271D01*
X3850Y271D02*
X3862Y271D01*
X3874Y271D02*
X3886Y271D01*
X3972Y271D02*
X3983Y271D01*
X4027Y271D02*
X4040Y271D01*
X4057Y271D02*
X4068Y271D01*
X4869Y271D02*
X4882Y271D01*
X4903Y271D02*
X4914Y271D01*
X4970Y271D02*
X4983Y271D01*
X5000Y271D02*
X5011Y271D01*
X5048Y271D02*
X5059Y271D01*
X5077Y271D02*
X5088Y271D01*
X5127Y271D02*
X5139Y271D01*
X5169Y271D02*
X5181Y271D01*
X5212Y271D02*
X5225Y271D01*
X5258Y271D02*
X5269Y271D01*
X5429Y271D02*
X5440Y271D01*
X5482Y271D02*
X5497Y271D01*
X5562Y271D02*
X5574Y271D01*
X5591Y271D02*
X5603Y271D01*
X5641Y271D02*
X5654Y271D01*
X5686Y271D02*
X5697Y271D01*
X5813Y271D02*
X5867Y271D01*
X6029Y271D02*
X6040Y271D01*
X6069Y271D02*
X6082Y271D01*
X6115Y271D02*
X6126Y271D01*
X6154Y271D02*
X6165Y271D01*
X6201Y271D02*
X6212Y271D01*
X6283Y271D02*
X6296Y271D01*
X6413Y271D02*
X6425Y271D01*
X6446Y271D02*
X6457Y271D01*
X6544Y271D02*
X6555Y271D01*
X6629Y271D02*
X6640Y271D01*
X6755Y271D02*
X6768Y271D01*
X6801Y271D02*
X6812Y271D01*
X6839Y271D02*
X6868Y271D01*
X6886Y271D02*
X6897Y271D01*
X6942Y271D02*
X6955Y271D01*
X6972Y271D02*
X6983Y271D01*
X7097Y271D02*
X7108Y271D01*
X7144Y271D02*
X7155Y271D01*
X7202Y271D02*
X7220Y271D01*
X7268Y271D02*
X7279Y271D01*
X7315Y271D02*
X7326Y271D01*
X7374Y271D02*
X7392Y271D01*
X7440Y271D02*
X7451Y271D01*
X7487Y271D02*
X7498Y271D01*
X2470Y270D02*
X2522Y270D01*
X2553Y270D02*
X2564Y270D01*
X2576Y270D02*
X2587Y270D01*
X2639Y270D02*
X2650Y270D01*
X2686Y270D02*
X2697Y270D01*
X2771Y270D02*
X2782Y270D01*
X2943Y270D02*
X2954Y270D01*
X2981Y270D02*
X2992Y270D01*
X3000Y270D02*
X3012Y270D01*
X3029Y270D02*
X3040Y270D01*
X3067Y270D02*
X3078Y270D01*
X3114Y270D02*
X3125Y270D01*
X3159Y270D02*
X3170Y270D01*
X3194Y270D02*
X3205Y270D01*
X3328Y270D02*
X3379Y270D01*
X3496Y270D02*
X3507Y270D01*
X3519Y270D02*
X3530Y270D01*
X3601Y270D02*
X3620Y270D01*
X3667Y270D02*
X3678Y270D01*
X3691Y270D02*
X3702Y270D01*
X3850Y270D02*
X3862Y270D01*
X3873Y270D02*
X3885Y270D01*
X3972Y270D02*
X3983Y270D01*
X4027Y270D02*
X4040Y270D01*
X4057Y270D02*
X4068Y270D01*
X4870Y270D02*
X4882Y270D01*
X4903Y270D02*
X4914Y270D01*
X4970Y270D02*
X4983Y270D01*
X5000Y270D02*
X5011Y270D01*
X5048Y270D02*
X5059Y270D01*
X5077Y270D02*
X5089Y270D01*
X5127Y270D02*
X5139Y270D01*
X5168Y270D02*
X5181Y270D01*
X5212Y270D02*
X5224Y270D01*
X5258Y270D02*
X5269Y270D01*
X5429Y270D02*
X5440Y270D01*
X5481Y270D02*
X5496Y270D01*
X5562Y270D02*
X5573Y270D01*
X5592Y270D02*
X5603Y270D01*
X5640Y270D02*
X5653Y270D01*
X5686Y270D02*
X5697Y270D01*
X5814Y270D02*
X5865Y270D01*
X6029Y270D02*
X6040Y270D01*
X6069Y270D02*
X6081Y270D01*
X6115Y270D02*
X6126Y270D01*
X6154Y270D02*
X6165Y270D01*
X6201Y270D02*
X6212Y270D01*
X6283Y270D02*
X6295Y270D01*
X6413Y270D02*
X6425Y270D01*
X6446Y270D02*
X6457Y270D01*
X6544Y270D02*
X6555Y270D01*
X6629Y270D02*
X6640Y270D01*
X6755Y270D02*
X6767Y270D01*
X6801Y270D02*
X6812Y270D01*
X6839Y270D02*
X6868Y270D01*
X6886Y270D02*
X6897Y270D01*
X6941Y270D02*
X6954Y270D01*
X6972Y270D02*
X6983Y270D01*
X7097Y270D02*
X7108Y270D01*
X7144Y270D02*
X7155Y270D01*
X7203Y270D02*
X7220Y270D01*
X7268Y270D02*
X7279Y270D01*
X7315Y270D02*
X7326Y270D01*
X7375Y270D02*
X7391Y270D01*
X7440Y270D02*
X7451Y270D01*
X7487Y270D02*
X7498Y270D01*
X2470Y269D02*
X2522Y269D01*
X2553Y269D02*
X2564Y269D01*
X2576Y269D02*
X2587Y269D01*
X2639Y269D02*
X2650Y269D01*
X2686Y269D02*
X2697Y269D01*
X2771Y269D02*
X2782Y269D01*
X2943Y269D02*
X2954Y269D01*
X2981Y269D02*
X2992Y269D01*
X2999Y269D02*
X3012Y269D01*
X3029Y269D02*
X3040Y269D01*
X3067Y269D02*
X3078Y269D01*
X3114Y269D02*
X3125Y269D01*
X3159Y269D02*
X3170Y269D01*
X3194Y269D02*
X3205Y269D01*
X3496Y269D02*
X3507Y269D01*
X3519Y269D02*
X3530Y269D01*
X3600Y269D02*
X3621Y269D01*
X3667Y269D02*
X3678Y269D01*
X3691Y269D02*
X3702Y269D01*
X3851Y269D02*
X3863Y269D01*
X3873Y269D02*
X3885Y269D01*
X3972Y269D02*
X3983Y269D01*
X4026Y269D02*
X4039Y269D01*
X4057Y269D02*
X4068Y269D01*
X4870Y269D02*
X4883Y269D01*
X4903Y269D02*
X4914Y269D01*
X4969Y269D02*
X4982Y269D01*
X5000Y269D02*
X5011Y269D01*
X5047Y269D02*
X5059Y269D01*
X5078Y269D02*
X5089Y269D01*
X5127Y269D02*
X5140Y269D01*
X5168Y269D02*
X5180Y269D01*
X5211Y269D02*
X5223Y269D01*
X5258Y269D02*
X5269Y269D01*
X5429Y269D02*
X5440Y269D01*
X5481Y269D02*
X5495Y269D01*
X5562Y269D02*
X5573Y269D01*
X5592Y269D02*
X5603Y269D01*
X5640Y269D02*
X5652Y269D01*
X5686Y269D02*
X5697Y269D01*
X6029Y269D02*
X6040Y269D01*
X6069Y269D02*
X6081Y269D01*
X6115Y269D02*
X6126Y269D01*
X6154Y269D02*
X6165Y269D01*
X6201Y269D02*
X6212Y269D01*
X6282Y269D02*
X6295Y269D01*
X6413Y269D02*
X6426Y269D01*
X6446Y269D02*
X6457Y269D01*
X6544Y269D02*
X6555Y269D01*
X6629Y269D02*
X6640Y269D01*
X6754Y269D02*
X6766Y269D01*
X6801Y269D02*
X6812Y269D01*
X6839Y269D02*
X6868Y269D01*
X6886Y269D02*
X6897Y269D01*
X6941Y269D02*
X6954Y269D01*
X6972Y269D02*
X6983Y269D01*
X7097Y269D02*
X7108Y269D01*
X7144Y269D02*
X7155Y269D01*
X7204Y269D02*
X7219Y269D01*
X7268Y269D02*
X7279Y269D01*
X7315Y269D02*
X7326Y269D01*
X7375Y269D02*
X7390Y269D01*
X7440Y269D02*
X7451Y269D01*
X7487Y269D02*
X7498Y269D01*
X2471Y268D02*
X2522Y268D01*
X2553Y268D02*
X2564Y268D01*
X2576Y268D02*
X2587Y268D01*
X2639Y268D02*
X2650Y268D01*
X2686Y268D02*
X2697Y268D01*
X2771Y268D02*
X2782Y268D01*
X2943Y268D02*
X2954Y268D01*
X2981Y268D02*
X2992Y268D01*
X2999Y268D02*
X3011Y268D01*
X3029Y268D02*
X3040Y268D01*
X3067Y268D02*
X3078Y268D01*
X3114Y268D02*
X3125Y268D01*
X3159Y268D02*
X3170Y268D01*
X3194Y268D02*
X3205Y268D01*
X3496Y268D02*
X3507Y268D01*
X3519Y268D02*
X3530Y268D01*
X3600Y268D02*
X3622Y268D01*
X3667Y268D02*
X3678Y268D01*
X3691Y268D02*
X3702Y268D01*
X3851Y268D02*
X3863Y268D01*
X3873Y268D02*
X3885Y268D01*
X3972Y268D02*
X3983Y268D01*
X4025Y268D02*
X4038Y268D01*
X4057Y268D02*
X4068Y268D01*
X4871Y268D02*
X4883Y268D01*
X4903Y268D02*
X4914Y268D01*
X4969Y268D02*
X4981Y268D01*
X5000Y268D02*
X5011Y268D01*
X5047Y268D02*
X5058Y268D01*
X5078Y268D02*
X5089Y268D01*
X5128Y268D02*
X5140Y268D01*
X5167Y268D02*
X5180Y268D01*
X5211Y268D02*
X5223Y268D01*
X5258Y268D02*
X5269Y268D01*
X5429Y268D02*
X5440Y268D01*
X5480Y268D02*
X5494Y268D01*
X5561Y268D02*
X5573Y268D01*
X5592Y268D02*
X5604Y268D01*
X5640Y268D02*
X5651Y268D01*
X5686Y268D02*
X5697Y268D01*
X6029Y268D02*
X6040Y268D01*
X6068Y268D02*
X6080Y268D01*
X6115Y268D02*
X6126Y268D01*
X6154Y268D02*
X6165Y268D01*
X6201Y268D02*
X6212Y268D01*
X6282Y268D02*
X6294Y268D01*
X6414Y268D02*
X6426Y268D01*
X6446Y268D02*
X6457Y268D01*
X6544Y268D02*
X6555Y268D01*
X6629Y268D02*
X6640Y268D01*
X6754Y268D02*
X6766Y268D01*
X6801Y268D02*
X6812Y268D01*
X6839Y268D02*
X6867Y268D01*
X6886Y268D02*
X6897Y268D01*
X6940Y268D02*
X6953Y268D01*
X6972Y268D02*
X6983Y268D01*
X7097Y268D02*
X7108Y268D01*
X7144Y268D02*
X7155Y268D01*
X7203Y268D02*
X7219Y268D01*
X7268Y268D02*
X7279Y268D01*
X7315Y268D02*
X7326Y268D01*
X7375Y268D02*
X7391Y268D01*
X7440Y268D02*
X7451Y268D01*
X7487Y268D02*
X7498Y268D01*
X2471Y267D02*
X2522Y267D01*
X2553Y267D02*
X2564Y267D01*
X2576Y267D02*
X2587Y267D01*
X2639Y267D02*
X2650Y267D01*
X2686Y267D02*
X2697Y267D01*
X2771Y267D02*
X2782Y267D01*
X2943Y267D02*
X2954Y267D01*
X2981Y267D02*
X2992Y267D01*
X2999Y267D02*
X3011Y267D01*
X3029Y267D02*
X3040Y267D01*
X3067Y267D02*
X3078Y267D01*
X3114Y267D02*
X3125Y267D01*
X3159Y267D02*
X3170Y267D01*
X3194Y267D02*
X3205Y267D01*
X3496Y267D02*
X3507Y267D01*
X3519Y267D02*
X3530Y267D01*
X3599Y267D02*
X3622Y267D01*
X3667Y267D02*
X3678Y267D01*
X3691Y267D02*
X3702Y267D01*
X3852Y267D02*
X3863Y267D01*
X3872Y267D02*
X3884Y267D01*
X3972Y267D02*
X3983Y267D01*
X4025Y267D02*
X4038Y267D01*
X4057Y267D02*
X4068Y267D01*
X4871Y267D02*
X4884Y267D01*
X4903Y267D02*
X4914Y267D01*
X4968Y267D02*
X4981Y267D01*
X5000Y267D02*
X5011Y267D01*
X5047Y267D02*
X5058Y267D01*
X5078Y267D02*
X5090Y267D01*
X5128Y267D02*
X5141Y267D01*
X5167Y267D02*
X5179Y267D01*
X5211Y267D02*
X5222Y267D01*
X5258Y267D02*
X5269Y267D01*
X5429Y267D02*
X5440Y267D01*
X5479Y267D02*
X5494Y267D01*
X5561Y267D02*
X5573Y267D01*
X5593Y267D02*
X5604Y267D01*
X5640Y267D02*
X5651Y267D01*
X5686Y267D02*
X5697Y267D01*
X6029Y267D02*
X6040Y267D01*
X6068Y267D02*
X6080Y267D01*
X6115Y267D02*
X6126Y267D01*
X6154Y267D02*
X6165Y267D01*
X6201Y267D02*
X6212Y267D01*
X6281Y267D02*
X6294Y267D01*
X6414Y267D02*
X6427Y267D01*
X6446Y267D02*
X6457Y267D01*
X6544Y267D02*
X6555Y267D01*
X6629Y267D02*
X6640Y267D01*
X6754Y267D02*
X6765Y267D01*
X6801Y267D02*
X6812Y267D01*
X6839Y267D02*
X6867Y267D01*
X6886Y267D02*
X6897Y267D01*
X6940Y267D02*
X6953Y267D01*
X6972Y267D02*
X6983Y267D01*
X7097Y267D02*
X7108Y267D01*
X7144Y267D02*
X7155Y267D01*
X7203Y267D02*
X7220Y267D01*
X7268Y267D02*
X7279Y267D01*
X7315Y267D02*
X7326Y267D01*
X7374Y267D02*
X7392Y267D01*
X7440Y267D02*
X7451Y267D01*
X7487Y267D02*
X7498Y267D01*
X2472Y266D02*
X2522Y266D01*
X2553Y266D02*
X2564Y266D01*
X2576Y266D02*
X2587Y266D01*
X2639Y266D02*
X2650Y266D01*
X2686Y266D02*
X2697Y266D01*
X2771Y266D02*
X2782Y266D01*
X2943Y266D02*
X2954Y266D01*
X2981Y266D02*
X2992Y266D01*
X2998Y266D02*
X3010Y266D01*
X3029Y266D02*
X3040Y266D01*
X3067Y266D02*
X3078Y266D01*
X3114Y266D02*
X3125Y266D01*
X3159Y266D02*
X3170Y266D01*
X3194Y266D02*
X3205Y266D01*
X3496Y266D02*
X3507Y266D01*
X3519Y266D02*
X3530Y266D01*
X3599Y266D02*
X3622Y266D01*
X3667Y266D02*
X3678Y266D01*
X3691Y266D02*
X3702Y266D01*
X3852Y266D02*
X3864Y266D01*
X3872Y266D02*
X3884Y266D01*
X3972Y266D02*
X3983Y266D01*
X4024Y266D02*
X4037Y266D01*
X4057Y266D02*
X4068Y266D01*
X4872Y266D02*
X4884Y266D01*
X4903Y266D02*
X4914Y266D01*
X4967Y266D02*
X4980Y266D01*
X5000Y266D02*
X5011Y266D01*
X5046Y266D02*
X5090Y266D01*
X5129Y266D02*
X5141Y266D01*
X5166Y266D02*
X5179Y266D01*
X5211Y266D02*
X5222Y266D01*
X5258Y266D02*
X5269Y266D01*
X5429Y266D02*
X5440Y266D01*
X5478Y266D02*
X5493Y266D01*
X5561Y266D02*
X5604Y266D01*
X5639Y266D02*
X5651Y266D01*
X5686Y266D02*
X5697Y266D01*
X6029Y266D02*
X6040Y266D01*
X6068Y266D02*
X6079Y266D01*
X6115Y266D02*
X6126Y266D01*
X6154Y266D02*
X6165Y266D01*
X6201Y266D02*
X6212Y266D01*
X6281Y266D02*
X6293Y266D01*
X6415Y266D02*
X6427Y266D01*
X6446Y266D02*
X6457Y266D01*
X6544Y266D02*
X6555Y266D01*
X6629Y266D02*
X6640Y266D01*
X6754Y266D02*
X6765Y266D01*
X6801Y266D02*
X6812Y266D01*
X6839Y266D02*
X6866Y266D01*
X6886Y266D02*
X6897Y266D01*
X6939Y266D02*
X6952Y266D01*
X6972Y266D02*
X6983Y266D01*
X7097Y266D02*
X7108Y266D01*
X7144Y266D02*
X7155Y266D01*
X7202Y266D02*
X7221Y266D01*
X7268Y266D02*
X7279Y266D01*
X7315Y266D02*
X7326Y266D01*
X7373Y266D02*
X7393Y266D01*
X7440Y266D02*
X7451Y266D01*
X7487Y266D02*
X7498Y266D01*
X2474Y265D02*
X2522Y265D01*
X2553Y265D02*
X2564Y265D01*
X2576Y265D02*
X2587Y265D01*
X2639Y265D02*
X2650Y265D01*
X2686Y265D02*
X2697Y265D01*
X2771Y265D02*
X2782Y265D01*
X2943Y265D02*
X2954Y265D01*
X2981Y265D02*
X2992Y265D01*
X2998Y265D02*
X3010Y265D01*
X3029Y265D02*
X3040Y265D01*
X3067Y265D02*
X3078Y265D01*
X3114Y265D02*
X3125Y265D01*
X3159Y265D02*
X3170Y265D01*
X3194Y265D02*
X3205Y265D01*
X3496Y265D02*
X3507Y265D01*
X3519Y265D02*
X3530Y265D01*
X3599Y265D02*
X3622Y265D01*
X3667Y265D02*
X3678Y265D01*
X3691Y265D02*
X3702Y265D01*
X3852Y265D02*
X3864Y265D01*
X3871Y265D02*
X3883Y265D01*
X3972Y265D02*
X3983Y265D01*
X4024Y265D02*
X4037Y265D01*
X4057Y265D02*
X4068Y265D01*
X4872Y265D02*
X4885Y265D01*
X4903Y265D02*
X4914Y265D01*
X4967Y265D02*
X4980Y265D01*
X5000Y265D02*
X5011Y265D01*
X5046Y265D02*
X5090Y265D01*
X5129Y265D02*
X5142Y265D01*
X5166Y265D02*
X5178Y265D01*
X5211Y265D02*
X5222Y265D01*
X5258Y265D02*
X5269Y265D01*
X5429Y265D02*
X5440Y265D01*
X5478Y265D02*
X5492Y265D01*
X5560Y265D02*
X5605Y265D01*
X5639Y265D02*
X5650Y265D01*
X5686Y265D02*
X5697Y265D01*
X6029Y265D02*
X6040Y265D01*
X6068Y265D02*
X6079Y265D01*
X6115Y265D02*
X6126Y265D01*
X6154Y265D02*
X6165Y265D01*
X6201Y265D02*
X6212Y265D01*
X6280Y265D02*
X6293Y265D01*
X6415Y265D02*
X6428Y265D01*
X6446Y265D02*
X6457Y265D01*
X6544Y265D02*
X6555Y265D01*
X6629Y265D02*
X6640Y265D01*
X6754Y265D02*
X6765Y265D01*
X6801Y265D02*
X6812Y265D01*
X6839Y265D02*
X6864Y265D01*
X6886Y265D02*
X6897Y265D01*
X6939Y265D02*
X6952Y265D01*
X6972Y265D02*
X6983Y265D01*
X7097Y265D02*
X7108Y265D01*
X7144Y265D02*
X7155Y265D01*
X7201Y265D02*
X7222Y265D01*
X7268Y265D02*
X7279Y265D01*
X7315Y265D02*
X7326Y265D01*
X7372Y265D02*
X7393Y265D01*
X7440Y265D02*
X7451Y265D01*
X7487Y265D02*
X7498Y265D01*
X2476Y264D02*
X2487Y264D01*
X2553Y264D02*
X2564Y264D01*
X2576Y264D02*
X2587Y264D01*
X2639Y264D02*
X2650Y264D01*
X2686Y264D02*
X2697Y264D01*
X2771Y264D02*
X2782Y264D01*
X2943Y264D02*
X2954Y264D01*
X2981Y264D02*
X2992Y264D01*
X2997Y264D02*
X3009Y264D01*
X3029Y264D02*
X3040Y264D01*
X3067Y264D02*
X3078Y264D01*
X3114Y264D02*
X3125Y264D01*
X3159Y264D02*
X3170Y264D01*
X3194Y264D02*
X3205Y264D01*
X3496Y264D02*
X3507Y264D01*
X3519Y264D02*
X3530Y264D01*
X3599Y264D02*
X3622Y264D01*
X3667Y264D02*
X3678Y264D01*
X3691Y264D02*
X3702Y264D01*
X3853Y264D02*
X3865Y264D01*
X3871Y264D02*
X3883Y264D01*
X3972Y264D02*
X3983Y264D01*
X4023Y264D02*
X4036Y264D01*
X4057Y264D02*
X4068Y264D01*
X4873Y264D02*
X4885Y264D01*
X4903Y264D02*
X4914Y264D01*
X4966Y264D02*
X4979Y264D01*
X5000Y264D02*
X5011Y264D01*
X5046Y264D02*
X5091Y264D01*
X5130Y264D02*
X5142Y264D01*
X5165Y264D02*
X5178Y264D01*
X5211Y264D02*
X5222Y264D01*
X5258Y264D02*
X5269Y264D01*
X5429Y264D02*
X5440Y264D01*
X5477Y264D02*
X5491Y264D01*
X5560Y264D02*
X5605Y264D01*
X5639Y264D02*
X5650Y264D01*
X5686Y264D02*
X5697Y264D01*
X6029Y264D02*
X6040Y264D01*
X6068Y264D02*
X6079Y264D01*
X6115Y264D02*
X6126Y264D01*
X6154Y264D02*
X6165Y264D01*
X6201Y264D02*
X6212Y264D01*
X6280Y264D02*
X6292Y264D01*
X6416Y264D02*
X6428Y264D01*
X6446Y264D02*
X6457Y264D01*
X6544Y264D02*
X6555Y264D01*
X6629Y264D02*
X6640Y264D01*
X6754Y264D02*
X6765Y264D01*
X6801Y264D02*
X6812Y264D01*
X6839Y264D02*
X6850Y264D01*
X6886Y264D02*
X6897Y264D01*
X6938Y264D02*
X6951Y264D01*
X6972Y264D02*
X6983Y264D01*
X7097Y264D02*
X7108Y264D01*
X7144Y264D02*
X7155Y264D01*
X7200Y264D02*
X7223Y264D01*
X7268Y264D02*
X7279Y264D01*
X7315Y264D02*
X7326Y264D01*
X7372Y264D02*
X7394Y264D01*
X7440Y264D02*
X7451Y264D01*
X7487Y264D02*
X7498Y264D01*
X2476Y263D02*
X2487Y263D01*
X2553Y263D02*
X2564Y263D01*
X2576Y263D02*
X2587Y263D01*
X2639Y263D02*
X2650Y263D01*
X2686Y263D02*
X2697Y263D01*
X2771Y263D02*
X2782Y263D01*
X2943Y263D02*
X2954Y263D01*
X2981Y263D02*
X2992Y263D01*
X2997Y263D02*
X3009Y263D01*
X3029Y263D02*
X3040Y263D01*
X3067Y263D02*
X3078Y263D01*
X3114Y263D02*
X3125Y263D01*
X3159Y263D02*
X3170Y263D01*
X3194Y263D02*
X3205Y263D01*
X3496Y263D02*
X3507Y263D01*
X3519Y263D02*
X3530Y263D01*
X3599Y263D02*
X3622Y263D01*
X3667Y263D02*
X3678Y263D01*
X3691Y263D02*
X3702Y263D01*
X3853Y263D02*
X3865Y263D01*
X3871Y263D02*
X3883Y263D01*
X3972Y263D02*
X3983Y263D01*
X4023Y263D02*
X4036Y263D01*
X4057Y263D02*
X4068Y263D01*
X4873Y263D02*
X4886Y263D01*
X4903Y263D02*
X4914Y263D01*
X4966Y263D02*
X4979Y263D01*
X5000Y263D02*
X5011Y263D01*
X5046Y263D02*
X5091Y263D01*
X5130Y263D02*
X5143Y263D01*
X5165Y263D02*
X5177Y263D01*
X5211Y263D02*
X5221Y263D01*
X5258Y263D02*
X5269Y263D01*
X5429Y263D02*
X5440Y263D01*
X5476Y263D02*
X5490Y263D01*
X5560Y263D02*
X5605Y263D01*
X5639Y263D02*
X5650Y263D01*
X5686Y263D02*
X5697Y263D01*
X6029Y263D02*
X6040Y263D01*
X6068Y263D02*
X6079Y263D01*
X6115Y263D02*
X6126Y263D01*
X6154Y263D02*
X6165Y263D01*
X6201Y263D02*
X6212Y263D01*
X6279Y263D02*
X6292Y263D01*
X6416Y263D02*
X6429Y263D01*
X6446Y263D02*
X6457Y263D01*
X6544Y263D02*
X6555Y263D01*
X6629Y263D02*
X6640Y263D01*
X6754Y263D02*
X6765Y263D01*
X6801Y263D02*
X6812Y263D01*
X6839Y263D02*
X6850Y263D01*
X6886Y263D02*
X6897Y263D01*
X6937Y263D02*
X6950Y263D01*
X6972Y263D02*
X6983Y263D01*
X7097Y263D02*
X7108Y263D01*
X7144Y263D02*
X7155Y263D01*
X7199Y263D02*
X7224Y263D01*
X7268Y263D02*
X7279Y263D01*
X7315Y263D02*
X7326Y263D01*
X7371Y263D02*
X7395Y263D01*
X7440Y263D02*
X7451Y263D01*
X7487Y263D02*
X7498Y263D01*
X2476Y262D02*
X2487Y262D01*
X2553Y262D02*
X2564Y262D01*
X2576Y262D02*
X2587Y262D01*
X2639Y262D02*
X2650Y262D01*
X2686Y262D02*
X2697Y262D01*
X2771Y262D02*
X2782Y262D01*
X2943Y262D02*
X2954Y262D01*
X2981Y262D02*
X2992Y262D01*
X2996Y262D02*
X3009Y262D01*
X3029Y262D02*
X3040Y262D01*
X3067Y262D02*
X3078Y262D01*
X3114Y262D02*
X3125Y262D01*
X3159Y262D02*
X3170Y262D01*
X3194Y262D02*
X3205Y262D01*
X3496Y262D02*
X3507Y262D01*
X3519Y262D02*
X3530Y262D01*
X3599Y262D02*
X3622Y262D01*
X3667Y262D02*
X3678Y262D01*
X3691Y262D02*
X3702Y262D01*
X3853Y262D02*
X3865Y262D01*
X3870Y262D02*
X3882Y262D01*
X3972Y262D02*
X3983Y262D01*
X4022Y262D02*
X4035Y262D01*
X4057Y262D02*
X4068Y262D01*
X4874Y262D02*
X4886Y262D01*
X4903Y262D02*
X4914Y262D01*
X4965Y262D02*
X4978Y262D01*
X5000Y262D02*
X5011Y262D01*
X5045Y262D02*
X5091Y262D01*
X5131Y262D02*
X5143Y262D01*
X5164Y262D02*
X5177Y262D01*
X5210Y262D02*
X5221Y262D01*
X5258Y262D02*
X5269Y262D01*
X5429Y262D02*
X5440Y262D01*
X5475Y262D02*
X5490Y262D01*
X5560Y262D02*
X5606Y262D01*
X5639Y262D02*
X5650Y262D01*
X5686Y262D02*
X5697Y262D01*
X6029Y262D02*
X6040Y262D01*
X6068Y262D02*
X6079Y262D01*
X6115Y262D02*
X6126Y262D01*
X6154Y262D02*
X6165Y262D01*
X6201Y262D02*
X6212Y262D01*
X6279Y262D02*
X6291Y262D01*
X6417Y262D02*
X6429Y262D01*
X6446Y262D02*
X6457Y262D01*
X6544Y262D02*
X6555Y262D01*
X6629Y262D02*
X6640Y262D01*
X6754Y262D02*
X6765Y262D01*
X6801Y262D02*
X6812Y262D01*
X6839Y262D02*
X6850Y262D01*
X6886Y262D02*
X6897Y262D01*
X6937Y262D02*
X6950Y262D01*
X6972Y262D02*
X6983Y262D01*
X7097Y262D02*
X7108Y262D01*
X7144Y262D02*
X7155Y262D01*
X7198Y262D02*
X7224Y262D01*
X7268Y262D02*
X7279Y262D01*
X7315Y262D02*
X7326Y262D01*
X7370Y262D02*
X7396Y262D01*
X7440Y262D02*
X7451Y262D01*
X7487Y262D02*
X7498Y262D01*
X2476Y261D02*
X2487Y261D01*
X2553Y261D02*
X2564Y261D01*
X2576Y261D02*
X2587Y261D01*
X2639Y261D02*
X2650Y261D01*
X2686Y261D02*
X2697Y261D01*
X2771Y261D02*
X2782Y261D01*
X2943Y261D02*
X2954Y261D01*
X2981Y261D02*
X2992Y261D01*
X2996Y261D02*
X3008Y261D01*
X3029Y261D02*
X3040Y261D01*
X3067Y261D02*
X3078Y261D01*
X3114Y261D02*
X3125Y261D01*
X3159Y261D02*
X3170Y261D01*
X3194Y261D02*
X3205Y261D01*
X3496Y261D02*
X3507Y261D01*
X3519Y261D02*
X3530Y261D01*
X3599Y261D02*
X3622Y261D01*
X3667Y261D02*
X3678Y261D01*
X3691Y261D02*
X3702Y261D01*
X3854Y261D02*
X3866Y261D01*
X3870Y261D02*
X3882Y261D01*
X3972Y261D02*
X3983Y261D01*
X4021Y261D02*
X4034Y261D01*
X4057Y261D02*
X4068Y261D01*
X4874Y261D02*
X4887Y261D01*
X4903Y261D02*
X4914Y261D01*
X4964Y261D02*
X4977Y261D01*
X5000Y261D02*
X5011Y261D01*
X5045Y261D02*
X5091Y261D01*
X5131Y261D02*
X5144Y261D01*
X5164Y261D02*
X5176Y261D01*
X5210Y261D02*
X5221Y261D01*
X5258Y261D02*
X5269Y261D01*
X5429Y261D02*
X5440Y261D01*
X5474Y261D02*
X5489Y261D01*
X5559Y261D02*
X5606Y261D01*
X5639Y261D02*
X5650Y261D01*
X5686Y261D02*
X5697Y261D01*
X6029Y261D02*
X6040Y261D01*
X6068Y261D02*
X6079Y261D01*
X6115Y261D02*
X6126Y261D01*
X6154Y261D02*
X6165Y261D01*
X6201Y261D02*
X6212Y261D01*
X6278Y261D02*
X6291Y261D01*
X6417Y261D02*
X6430Y261D01*
X6446Y261D02*
X6457Y261D01*
X6544Y261D02*
X6555Y261D01*
X6629Y261D02*
X6640Y261D01*
X6754Y261D02*
X6765Y261D01*
X6801Y261D02*
X6812Y261D01*
X6839Y261D02*
X6850Y261D01*
X6886Y261D02*
X6897Y261D01*
X6936Y261D02*
X6949Y261D01*
X6972Y261D02*
X6983Y261D01*
X7097Y261D02*
X7108Y261D01*
X7144Y261D02*
X7155Y261D01*
X7198Y261D02*
X7225Y261D01*
X7268Y261D02*
X7279Y261D01*
X7315Y261D02*
X7326Y261D01*
X7369Y261D02*
X7397Y261D01*
X7440Y261D02*
X7451Y261D01*
X7487Y261D02*
X7498Y261D01*
X2476Y260D02*
X2487Y260D01*
X2553Y260D02*
X2564Y260D01*
X2576Y260D02*
X2587Y260D01*
X2639Y260D02*
X2650Y260D01*
X2686Y260D02*
X2697Y260D01*
X2771Y260D02*
X2782Y260D01*
X2943Y260D02*
X2954Y260D01*
X2981Y260D02*
X2992Y260D01*
X2995Y260D02*
X3008Y260D01*
X3029Y260D02*
X3040Y260D01*
X3067Y260D02*
X3078Y260D01*
X3114Y260D02*
X3125Y260D01*
X3159Y260D02*
X3170Y260D01*
X3194Y260D02*
X3205Y260D01*
X3496Y260D02*
X3507Y260D01*
X3519Y260D02*
X3530Y260D01*
X3599Y260D02*
X3622Y260D01*
X3667Y260D02*
X3678Y260D01*
X3691Y260D02*
X3702Y260D01*
X3854Y260D02*
X3866Y260D01*
X3870Y260D02*
X3882Y260D01*
X3972Y260D02*
X3983Y260D01*
X4021Y260D02*
X4034Y260D01*
X4057Y260D02*
X4068Y260D01*
X4875Y260D02*
X4887Y260D01*
X4903Y260D02*
X4914Y260D01*
X4964Y260D02*
X4977Y260D01*
X5000Y260D02*
X5011Y260D01*
X5045Y260D02*
X5092Y260D01*
X5132Y260D02*
X5144Y260D01*
X5163Y260D02*
X5176Y260D01*
X5210Y260D02*
X5221Y260D01*
X5258Y260D02*
X5269Y260D01*
X5429Y260D02*
X5440Y260D01*
X5474Y260D02*
X5488Y260D01*
X5559Y260D02*
X5606Y260D01*
X5639Y260D02*
X5650Y260D01*
X5686Y260D02*
X5697Y260D01*
X6029Y260D02*
X6040Y260D01*
X6068Y260D02*
X6079Y260D01*
X6115Y260D02*
X6126Y260D01*
X6154Y260D02*
X6165Y260D01*
X6201Y260D02*
X6212Y260D01*
X6278Y260D02*
X6290Y260D01*
X6418Y260D02*
X6430Y260D01*
X6446Y260D02*
X6457Y260D01*
X6544Y260D02*
X6555Y260D01*
X6629Y260D02*
X6640Y260D01*
X6754Y260D02*
X6765Y260D01*
X6801Y260D02*
X6812Y260D01*
X6839Y260D02*
X6850Y260D01*
X6886Y260D02*
X6897Y260D01*
X6936Y260D02*
X6949Y260D01*
X6972Y260D02*
X6983Y260D01*
X7097Y260D02*
X7108Y260D01*
X7144Y260D02*
X7155Y260D01*
X7197Y260D02*
X7226Y260D01*
X7268Y260D02*
X7279Y260D01*
X7315Y260D02*
X7326Y260D01*
X7368Y260D02*
X7398Y260D01*
X7440Y260D02*
X7451Y260D01*
X7487Y260D02*
X7498Y260D01*
X2476Y259D02*
X2487Y259D01*
X2553Y259D02*
X2564Y259D01*
X2576Y259D02*
X2587Y259D01*
X2639Y259D02*
X2650Y259D01*
X2686Y259D02*
X2697Y259D01*
X2771Y259D02*
X2782Y259D01*
X2943Y259D02*
X2954Y259D01*
X2981Y259D02*
X2992Y259D01*
X2995Y259D02*
X3007Y259D01*
X3029Y259D02*
X3040Y259D01*
X3067Y259D02*
X3078Y259D01*
X3114Y259D02*
X3125Y259D01*
X3159Y259D02*
X3170Y259D01*
X3194Y259D02*
X3205Y259D01*
X3496Y259D02*
X3507Y259D01*
X3519Y259D02*
X3530Y259D01*
X3599Y259D02*
X3622Y259D01*
X3667Y259D02*
X3678Y259D01*
X3691Y259D02*
X3702Y259D01*
X3855Y259D02*
X3867Y259D01*
X3869Y259D02*
X3881Y259D01*
X3972Y259D02*
X3983Y259D01*
X4020Y259D02*
X4033Y259D01*
X4057Y259D02*
X4068Y259D01*
X4875Y259D02*
X4888Y259D01*
X4903Y259D02*
X4914Y259D01*
X4963Y259D02*
X4976Y259D01*
X5000Y259D02*
X5011Y259D01*
X5044Y259D02*
X5092Y259D01*
X5132Y259D02*
X5145Y259D01*
X5163Y259D02*
X5175Y259D01*
X5210Y259D02*
X5221Y259D01*
X5258Y259D02*
X5269Y259D01*
X5429Y259D02*
X5440Y259D01*
X5473Y259D02*
X5487Y259D01*
X5559Y259D02*
X5606Y259D01*
X5639Y259D02*
X5650Y259D01*
X5686Y259D02*
X5697Y259D01*
X6029Y259D02*
X6040Y259D01*
X6068Y259D02*
X6079Y259D01*
X6115Y259D02*
X6126Y259D01*
X6154Y259D02*
X6165Y259D01*
X6201Y259D02*
X6212Y259D01*
X6277Y259D02*
X6290Y259D01*
X6418Y259D02*
X6431Y259D01*
X6446Y259D02*
X6457Y259D01*
X6544Y259D02*
X6555Y259D01*
X6629Y259D02*
X6640Y259D01*
X6754Y259D02*
X6765Y259D01*
X6801Y259D02*
X6812Y259D01*
X6839Y259D02*
X6850Y259D01*
X6886Y259D02*
X6897Y259D01*
X6935Y259D02*
X6948Y259D01*
X6972Y259D02*
X6983Y259D01*
X7097Y259D02*
X7108Y259D01*
X7144Y259D02*
X7155Y259D01*
X7196Y259D02*
X7227Y259D01*
X7268Y259D02*
X7279Y259D01*
X7315Y259D02*
X7326Y259D01*
X7367Y259D02*
X7382Y259D01*
X7384Y259D02*
X7398Y259D01*
X7440Y259D02*
X7451Y259D01*
X7487Y259D02*
X7498Y259D01*
X2476Y258D02*
X2487Y258D01*
X2553Y258D02*
X2564Y258D01*
X2576Y258D02*
X2587Y258D01*
X2639Y258D02*
X2650Y258D01*
X2686Y258D02*
X2697Y258D01*
X2771Y258D02*
X2782Y258D01*
X2943Y258D02*
X2954Y258D01*
X2981Y258D02*
X2992Y258D01*
X2995Y258D02*
X3007Y258D01*
X3029Y258D02*
X3040Y258D01*
X3067Y258D02*
X3078Y258D01*
X3114Y258D02*
X3125Y258D01*
X3159Y258D02*
X3170Y258D01*
X3194Y258D02*
X3205Y258D01*
X3496Y258D02*
X3507Y258D01*
X3519Y258D02*
X3530Y258D01*
X3599Y258D02*
X3622Y258D01*
X3667Y258D02*
X3678Y258D01*
X3691Y258D02*
X3702Y258D01*
X3855Y258D02*
X3867Y258D01*
X3869Y258D02*
X3881Y258D01*
X3972Y258D02*
X3983Y258D01*
X4020Y258D02*
X4033Y258D01*
X4057Y258D02*
X4068Y258D01*
X4876Y258D02*
X4888Y258D01*
X4903Y258D02*
X4914Y258D01*
X4963Y258D02*
X4976Y258D01*
X5000Y258D02*
X5011Y258D01*
X5044Y258D02*
X5092Y258D01*
X5133Y258D02*
X5145Y258D01*
X5162Y258D02*
X5175Y258D01*
X5211Y258D02*
X5221Y258D01*
X5258Y258D02*
X5269Y258D01*
X5429Y258D02*
X5440Y258D01*
X5472Y258D02*
X5487Y258D01*
X5558Y258D02*
X5607Y258D01*
X5639Y258D02*
X5650Y258D01*
X5686Y258D02*
X5697Y258D01*
X6029Y258D02*
X6040Y258D01*
X6068Y258D02*
X6079Y258D01*
X6115Y258D02*
X6126Y258D01*
X6154Y258D02*
X6165Y258D01*
X6201Y258D02*
X6212Y258D01*
X6277Y258D02*
X6289Y258D01*
X6419Y258D02*
X6431Y258D01*
X6446Y258D02*
X6457Y258D01*
X6544Y258D02*
X6555Y258D01*
X6629Y258D02*
X6640Y258D01*
X6754Y258D02*
X6765Y258D01*
X6801Y258D02*
X6812Y258D01*
X6839Y258D02*
X6850Y258D01*
X6886Y258D02*
X6897Y258D01*
X6934Y258D02*
X6947Y258D01*
X6972Y258D02*
X6983Y258D01*
X7097Y258D02*
X7108Y258D01*
X7144Y258D02*
X7155Y258D01*
X7195Y258D02*
X7210Y258D01*
X7213Y258D02*
X7228Y258D01*
X7268Y258D02*
X7279Y258D01*
X7315Y258D02*
X7326Y258D01*
X7367Y258D02*
X7381Y258D01*
X7384Y258D02*
X7399Y258D01*
X7440Y258D02*
X7451Y258D01*
X7487Y258D02*
X7498Y258D01*
X2476Y257D02*
X2487Y257D01*
X2553Y257D02*
X2564Y257D01*
X2576Y257D02*
X2587Y257D01*
X2639Y257D02*
X2650Y257D01*
X2686Y257D02*
X2697Y257D01*
X2771Y257D02*
X2782Y257D01*
X2943Y257D02*
X2954Y257D01*
X2981Y257D02*
X2992Y257D01*
X2994Y257D02*
X3006Y257D01*
X3029Y257D02*
X3040Y257D01*
X3067Y257D02*
X3078Y257D01*
X3114Y257D02*
X3125Y257D01*
X3159Y257D02*
X3170Y257D01*
X3194Y257D02*
X3205Y257D01*
X3496Y257D02*
X3507Y257D01*
X3519Y257D02*
X3530Y257D01*
X3599Y257D02*
X3622Y257D01*
X3667Y257D02*
X3678Y257D01*
X3691Y257D02*
X3702Y257D01*
X3855Y257D02*
X3880Y257D01*
X3972Y257D02*
X3983Y257D01*
X4019Y257D02*
X4032Y257D01*
X4057Y257D02*
X4068Y257D01*
X4876Y257D02*
X4889Y257D01*
X4903Y257D02*
X4914Y257D01*
X4962Y257D02*
X4975Y257D01*
X5000Y257D02*
X5011Y257D01*
X5044Y257D02*
X5093Y257D01*
X5133Y257D02*
X5146Y257D01*
X5162Y257D02*
X5174Y257D01*
X5211Y257D02*
X5222Y257D01*
X5258Y257D02*
X5269Y257D01*
X5429Y257D02*
X5440Y257D01*
X5471Y257D02*
X5486Y257D01*
X5558Y257D02*
X5607Y257D01*
X5639Y257D02*
X5650Y257D01*
X5686Y257D02*
X5697Y257D01*
X6029Y257D02*
X6040Y257D01*
X6068Y257D02*
X6079Y257D01*
X6115Y257D02*
X6126Y257D01*
X6154Y257D02*
X6165Y257D01*
X6201Y257D02*
X6212Y257D01*
X6276Y257D02*
X6289Y257D01*
X6419Y257D02*
X6432Y257D01*
X6446Y257D02*
X6457Y257D01*
X6544Y257D02*
X6555Y257D01*
X6629Y257D02*
X6640Y257D01*
X6754Y257D02*
X6765Y257D01*
X6801Y257D02*
X6812Y257D01*
X6839Y257D02*
X6850Y257D01*
X6886Y257D02*
X6897Y257D01*
X6934Y257D02*
X6947Y257D01*
X6972Y257D02*
X6983Y257D01*
X7097Y257D02*
X7108Y257D01*
X7144Y257D02*
X7155Y257D01*
X7194Y257D02*
X7209Y257D01*
X7214Y257D02*
X7229Y257D01*
X7268Y257D02*
X7279Y257D01*
X7315Y257D02*
X7326Y257D01*
X7366Y257D02*
X7380Y257D01*
X7385Y257D02*
X7400Y257D01*
X7440Y257D02*
X7451Y257D01*
X7487Y257D02*
X7498Y257D01*
X2476Y256D02*
X2487Y256D01*
X2553Y256D02*
X2564Y256D01*
X2576Y256D02*
X2587Y256D01*
X2639Y256D02*
X2650Y256D01*
X2686Y256D02*
X2697Y256D01*
X2771Y256D02*
X2782Y256D01*
X2943Y256D02*
X2954Y256D01*
X2981Y256D02*
X3006Y256D01*
X3029Y256D02*
X3040Y256D01*
X3067Y256D02*
X3078Y256D01*
X3114Y256D02*
X3125Y256D01*
X3159Y256D02*
X3170Y256D01*
X3194Y256D02*
X3205Y256D01*
X3496Y256D02*
X3507Y256D01*
X3519Y256D02*
X3530Y256D01*
X3599Y256D02*
X3622Y256D01*
X3667Y256D02*
X3678Y256D01*
X3691Y256D02*
X3702Y256D01*
X3856Y256D02*
X3880Y256D01*
X3972Y256D02*
X3983Y256D01*
X4018Y256D02*
X4031Y256D01*
X4057Y256D02*
X4068Y256D01*
X4877Y256D02*
X4889Y256D01*
X4903Y256D02*
X4914Y256D01*
X4962Y256D02*
X4974Y256D01*
X5000Y256D02*
X5011Y256D01*
X5043Y256D02*
X5093Y256D01*
X5134Y256D02*
X5146Y256D01*
X5161Y256D02*
X5174Y256D01*
X5211Y256D02*
X5222Y256D01*
X5258Y256D02*
X5269Y256D01*
X5429Y256D02*
X5440Y256D01*
X5471Y256D02*
X5485Y256D01*
X5519Y256D02*
X5522Y256D01*
X5558Y256D02*
X5607Y256D01*
X5639Y256D02*
X5650Y256D01*
X5686Y256D02*
X5697Y256D01*
X6029Y256D02*
X6040Y256D01*
X6068Y256D02*
X6079Y256D01*
X6115Y256D02*
X6126Y256D01*
X6154Y256D02*
X6165Y256D01*
X6201Y256D02*
X6212Y256D01*
X6276Y256D02*
X6288Y256D01*
X6420Y256D02*
X6432Y256D01*
X6446Y256D02*
X6457Y256D01*
X6544Y256D02*
X6555Y256D01*
X6629Y256D02*
X6640Y256D01*
X6754Y256D02*
X6765Y256D01*
X6801Y256D02*
X6812Y256D01*
X6839Y256D02*
X6850Y256D01*
X6886Y256D02*
X6897Y256D01*
X6933Y256D02*
X6946Y256D01*
X6972Y256D02*
X6983Y256D01*
X7097Y256D02*
X7108Y256D01*
X7144Y256D02*
X7155Y256D01*
X7193Y256D02*
X7208Y256D01*
X7215Y256D02*
X7229Y256D01*
X7268Y256D02*
X7279Y256D01*
X7315Y256D02*
X7326Y256D01*
X7365Y256D02*
X7380Y256D01*
X7386Y256D02*
X7401Y256D01*
X7440Y256D02*
X7451Y256D01*
X7487Y256D02*
X7498Y256D01*
X2476Y255D02*
X2487Y255D01*
X2553Y255D02*
X2564Y255D01*
X2576Y255D02*
X2587Y255D01*
X2639Y255D02*
X2650Y255D01*
X2686Y255D02*
X2697Y255D01*
X2771Y255D02*
X2782Y255D01*
X2943Y255D02*
X2954Y255D01*
X2981Y255D02*
X3005Y255D01*
X3029Y255D02*
X3040Y255D01*
X3067Y255D02*
X3078Y255D01*
X3114Y255D02*
X3125Y255D01*
X3159Y255D02*
X3170Y255D01*
X3194Y255D02*
X3205Y255D01*
X3496Y255D02*
X3507Y255D01*
X3519Y255D02*
X3530Y255D01*
X3599Y255D02*
X3622Y255D01*
X3667Y255D02*
X3678Y255D01*
X3691Y255D02*
X3702Y255D01*
X3856Y255D02*
X3880Y255D01*
X3972Y255D02*
X3983Y255D01*
X4018Y255D02*
X4031Y255D01*
X4057Y255D02*
X4068Y255D01*
X4877Y255D02*
X4890Y255D01*
X4903Y255D02*
X4914Y255D01*
X4961Y255D02*
X4974Y255D01*
X5000Y255D02*
X5011Y255D01*
X5043Y255D02*
X5093Y255D01*
X5134Y255D02*
X5147Y255D01*
X5161Y255D02*
X5173Y255D01*
X5211Y255D02*
X5222Y255D01*
X5258Y255D02*
X5269Y255D01*
X5429Y255D02*
X5440Y255D01*
X5470Y255D02*
X5484Y255D01*
X5517Y255D02*
X5524Y255D01*
X5558Y255D02*
X5608Y255D01*
X5639Y255D02*
X5651Y255D01*
X5686Y255D02*
X5697Y255D01*
X6029Y255D02*
X6040Y255D01*
X6068Y255D02*
X6079Y255D01*
X6115Y255D02*
X6126Y255D01*
X6154Y255D02*
X6165Y255D01*
X6201Y255D02*
X6212Y255D01*
X6275Y255D02*
X6288Y255D01*
X6420Y255D02*
X6433Y255D01*
X6446Y255D02*
X6457Y255D01*
X6544Y255D02*
X6555Y255D01*
X6629Y255D02*
X6640Y255D01*
X6754Y255D02*
X6765Y255D01*
X6801Y255D02*
X6812Y255D01*
X6839Y255D02*
X6850Y255D01*
X6886Y255D02*
X6897Y255D01*
X6933Y255D02*
X6946Y255D01*
X6972Y255D02*
X6983Y255D01*
X7097Y255D02*
X7108Y255D01*
X7144Y255D02*
X7155Y255D01*
X7193Y255D02*
X7207Y255D01*
X7215Y255D02*
X7230Y255D01*
X7268Y255D02*
X7279Y255D01*
X7315Y255D02*
X7326Y255D01*
X7364Y255D02*
X7379Y255D01*
X7387Y255D02*
X7402Y255D01*
X7440Y255D02*
X7451Y255D01*
X7487Y255D02*
X7498Y255D01*
X2476Y254D02*
X2487Y254D01*
X2553Y254D02*
X2564Y254D01*
X2576Y254D02*
X2587Y254D01*
X2639Y254D02*
X2650Y254D01*
X2686Y254D02*
X2697Y254D01*
X2771Y254D02*
X2782Y254D01*
X2943Y254D02*
X2954Y254D01*
X2981Y254D02*
X3005Y254D01*
X3029Y254D02*
X3040Y254D01*
X3067Y254D02*
X3078Y254D01*
X3114Y254D02*
X3125Y254D01*
X3159Y254D02*
X3170Y254D01*
X3194Y254D02*
X3205Y254D01*
X3496Y254D02*
X3507Y254D01*
X3519Y254D02*
X3530Y254D01*
X3599Y254D02*
X3622Y254D01*
X3667Y254D02*
X3678Y254D01*
X3691Y254D02*
X3702Y254D01*
X3857Y254D02*
X3879Y254D01*
X3972Y254D02*
X3983Y254D01*
X4017Y254D02*
X4030Y254D01*
X4057Y254D02*
X4068Y254D01*
X4878Y254D02*
X4890Y254D01*
X4903Y254D02*
X4914Y254D01*
X4960Y254D02*
X4973Y254D01*
X5000Y254D02*
X5011Y254D01*
X5043Y254D02*
X5054Y254D01*
X5082Y254D02*
X5093Y254D01*
X5135Y254D02*
X5147Y254D01*
X5160Y254D02*
X5173Y254D01*
X5211Y254D02*
X5222Y254D01*
X5258Y254D02*
X5269Y254D01*
X5429Y254D02*
X5440Y254D01*
X5469Y254D02*
X5483Y254D01*
X5516Y254D02*
X5525Y254D01*
X5557Y254D02*
X5569Y254D01*
X5596Y254D02*
X5608Y254D01*
X5640Y254D02*
X5651Y254D01*
X5686Y254D02*
X5697Y254D01*
X6029Y254D02*
X6040Y254D01*
X6068Y254D02*
X6080Y254D01*
X6115Y254D02*
X6126Y254D01*
X6154Y254D02*
X6165Y254D01*
X6201Y254D02*
X6212Y254D01*
X6275Y254D02*
X6287Y254D01*
X6421Y254D02*
X6433Y254D01*
X6446Y254D02*
X6457Y254D01*
X6544Y254D02*
X6555Y254D01*
X6629Y254D02*
X6640Y254D01*
X6754Y254D02*
X6765Y254D01*
X6801Y254D02*
X6812Y254D01*
X6839Y254D02*
X6850Y254D01*
X6886Y254D02*
X6897Y254D01*
X6932Y254D02*
X6945Y254D01*
X6972Y254D02*
X6983Y254D01*
X7097Y254D02*
X7108Y254D01*
X7144Y254D02*
X7155Y254D01*
X7192Y254D02*
X7206Y254D01*
X7216Y254D02*
X7231Y254D01*
X7268Y254D02*
X7279Y254D01*
X7315Y254D02*
X7326Y254D01*
X7363Y254D02*
X7378Y254D01*
X7388Y254D02*
X7402Y254D01*
X7440Y254D02*
X7451Y254D01*
X7487Y254D02*
X7498Y254D01*
X2476Y253D02*
X2487Y253D01*
X2553Y253D02*
X2564Y253D01*
X2576Y253D02*
X2587Y253D01*
X2639Y253D02*
X2650Y253D01*
X2686Y253D02*
X2697Y253D01*
X2771Y253D02*
X2782Y253D01*
X2943Y253D02*
X2954Y253D01*
X2981Y253D02*
X3005Y253D01*
X3029Y253D02*
X3040Y253D01*
X3067Y253D02*
X3078Y253D01*
X3114Y253D02*
X3125Y253D01*
X3159Y253D02*
X3170Y253D01*
X3194Y253D02*
X3205Y253D01*
X3496Y253D02*
X3507Y253D01*
X3519Y253D02*
X3530Y253D01*
X3600Y253D02*
X3622Y253D01*
X3667Y253D02*
X3678Y253D01*
X3691Y253D02*
X3702Y253D01*
X3857Y253D02*
X3879Y253D01*
X3972Y253D02*
X3983Y253D01*
X4017Y253D02*
X4030Y253D01*
X4057Y253D02*
X4068Y253D01*
X4878Y253D02*
X4891Y253D01*
X4903Y253D02*
X4914Y253D01*
X4960Y253D02*
X4973Y253D01*
X5000Y253D02*
X5011Y253D01*
X5043Y253D02*
X5054Y253D01*
X5082Y253D02*
X5094Y253D01*
X5135Y253D02*
X5148Y253D01*
X5160Y253D02*
X5172Y253D01*
X5211Y253D02*
X5223Y253D01*
X5258Y253D02*
X5269Y253D01*
X5429Y253D02*
X5440Y253D01*
X5469Y253D02*
X5483Y253D01*
X5515Y253D02*
X5525Y253D01*
X5557Y253D02*
X5568Y253D01*
X5597Y253D02*
X5608Y253D01*
X5640Y253D02*
X5651Y253D01*
X5686Y253D02*
X5697Y253D01*
X6029Y253D02*
X6040Y253D01*
X6068Y253D02*
X6080Y253D01*
X6115Y253D02*
X6126Y253D01*
X6154Y253D02*
X6165Y253D01*
X6201Y253D02*
X6212Y253D01*
X6274Y253D02*
X6287Y253D01*
X6421Y253D02*
X6434Y253D01*
X6446Y253D02*
X6457Y253D01*
X6544Y253D02*
X6555Y253D01*
X6629Y253D02*
X6640Y253D01*
X6754Y253D02*
X6766Y253D01*
X6801Y253D02*
X6812Y253D01*
X6839Y253D02*
X6850Y253D01*
X6886Y253D02*
X6897Y253D01*
X6932Y253D02*
X6945Y253D01*
X6972Y253D02*
X6983Y253D01*
X7097Y253D02*
X7108Y253D01*
X7144Y253D02*
X7155Y253D01*
X7191Y253D02*
X7206Y253D01*
X7217Y253D02*
X7232Y253D01*
X7268Y253D02*
X7279Y253D01*
X7315Y253D02*
X7326Y253D01*
X7362Y253D02*
X7377Y253D01*
X7389Y253D02*
X7403Y253D01*
X7440Y253D02*
X7451Y253D01*
X7487Y253D02*
X7498Y253D01*
X2476Y252D02*
X2487Y252D01*
X2553Y252D02*
X2564Y252D01*
X2576Y252D02*
X2587Y252D01*
X2639Y252D02*
X2650Y252D01*
X2686Y252D02*
X2697Y252D01*
X2771Y252D02*
X2782Y252D01*
X2943Y252D02*
X2954Y252D01*
X2981Y252D02*
X3004Y252D01*
X3029Y252D02*
X3040Y252D01*
X3067Y252D02*
X3078Y252D01*
X3114Y252D02*
X3125Y252D01*
X3159Y252D02*
X3170Y252D01*
X3194Y252D02*
X3205Y252D01*
X3496Y252D02*
X3507Y252D01*
X3519Y252D02*
X3530Y252D01*
X3600Y252D02*
X3621Y252D01*
X3667Y252D02*
X3678Y252D01*
X3691Y252D02*
X3702Y252D01*
X3857Y252D02*
X3878Y252D01*
X3972Y252D02*
X3983Y252D01*
X4016Y252D02*
X4029Y252D01*
X4057Y252D02*
X4068Y252D01*
X4879Y252D02*
X4891Y252D01*
X4903Y252D02*
X4914Y252D01*
X4959Y252D02*
X4972Y252D01*
X5000Y252D02*
X5011Y252D01*
X5042Y252D02*
X5054Y252D01*
X5083Y252D02*
X5094Y252D01*
X5136Y252D02*
X5148Y252D01*
X5159Y252D02*
X5172Y252D01*
X5211Y252D02*
X5223Y252D01*
X5258Y252D02*
X5269Y252D01*
X5429Y252D02*
X5440Y252D01*
X5468Y252D02*
X5482Y252D01*
X5515Y252D02*
X5526Y252D01*
X5557Y252D02*
X5568Y252D01*
X5597Y252D02*
X5608Y252D01*
X5640Y252D02*
X5652Y252D01*
X5686Y252D02*
X5697Y252D01*
X6029Y252D02*
X6040Y252D01*
X6069Y252D02*
X6081Y252D01*
X6115Y252D02*
X6126Y252D01*
X6154Y252D02*
X6165Y252D01*
X6201Y252D02*
X6212Y252D01*
X6274Y252D02*
X6286Y252D01*
X6422Y252D02*
X6434Y252D01*
X6446Y252D02*
X6457Y252D01*
X6544Y252D02*
X6555Y252D01*
X6629Y252D02*
X6640Y252D01*
X6754Y252D02*
X6767Y252D01*
X6801Y252D02*
X6812Y252D01*
X6839Y252D02*
X6850Y252D01*
X6886Y252D02*
X6897Y252D01*
X6931Y252D02*
X6944Y252D01*
X6972Y252D02*
X6983Y252D01*
X7097Y252D02*
X7108Y252D01*
X7144Y252D02*
X7155Y252D01*
X7190Y252D02*
X7205Y252D01*
X7218Y252D02*
X7233Y252D01*
X7268Y252D02*
X7279Y252D01*
X7315Y252D02*
X7326Y252D01*
X7362Y252D02*
X7376Y252D01*
X7389Y252D02*
X7404Y252D01*
X7440Y252D02*
X7451Y252D01*
X7487Y252D02*
X7498Y252D01*
X2476Y251D02*
X2487Y251D01*
X2553Y251D02*
X2564Y251D01*
X2576Y251D02*
X2587Y251D01*
X2639Y251D02*
X2650Y251D01*
X2686Y251D02*
X2697Y251D01*
X2771Y251D02*
X2782Y251D01*
X2943Y251D02*
X2954Y251D01*
X2981Y251D02*
X3004Y251D01*
X3029Y251D02*
X3040Y251D01*
X3067Y251D02*
X3078Y251D01*
X3114Y251D02*
X3125Y251D01*
X3159Y251D02*
X3170Y251D01*
X3194Y251D02*
X3205Y251D01*
X3496Y251D02*
X3507Y251D01*
X3519Y251D02*
X3530Y251D01*
X3601Y251D02*
X3620Y251D01*
X3667Y251D02*
X3678Y251D01*
X3691Y251D02*
X3702Y251D01*
X3858Y251D02*
X3878Y251D01*
X3972Y251D02*
X3983Y251D01*
X4016Y251D02*
X4029Y251D01*
X4057Y251D02*
X4068Y251D01*
X4879Y251D02*
X4892Y251D01*
X4903Y251D02*
X4914Y251D01*
X4959Y251D02*
X4972Y251D01*
X5000Y251D02*
X5011Y251D01*
X5042Y251D02*
X5053Y251D01*
X5083Y251D02*
X5094Y251D01*
X5136Y251D02*
X5149Y251D01*
X5159Y251D02*
X5171Y251D01*
X5212Y251D02*
X5224Y251D01*
X5258Y251D02*
X5269Y251D01*
X5429Y251D02*
X5440Y251D01*
X5468Y251D02*
X5481Y251D01*
X5515Y251D02*
X5526Y251D01*
X5556Y251D02*
X5568Y251D01*
X5597Y251D02*
X5609Y251D01*
X5640Y251D02*
X5653Y251D01*
X5686Y251D02*
X5697Y251D01*
X6029Y251D02*
X6040Y251D01*
X6069Y251D02*
X6081Y251D01*
X6115Y251D02*
X6126Y251D01*
X6154Y251D02*
X6165Y251D01*
X6200Y251D02*
X6212Y251D01*
X6273Y251D02*
X6286Y251D01*
X6422Y251D02*
X6435Y251D01*
X6446Y251D02*
X6457Y251D01*
X6544Y251D02*
X6555Y251D01*
X6629Y251D02*
X6640Y251D01*
X6755Y251D02*
X6767Y251D01*
X6801Y251D02*
X6812Y251D01*
X6839Y251D02*
X6851Y251D01*
X6886Y251D02*
X6897Y251D01*
X6930Y251D02*
X6943Y251D01*
X6972Y251D02*
X6983Y251D01*
X7097Y251D02*
X7108Y251D01*
X7144Y251D02*
X7155Y251D01*
X7189Y251D02*
X7204Y251D01*
X7219Y251D02*
X7234Y251D01*
X7268Y251D02*
X7279Y251D01*
X7315Y251D02*
X7326Y251D01*
X7361Y251D02*
X7375Y251D01*
X7390Y251D02*
X7405Y251D01*
X7440Y251D02*
X7451Y251D01*
X7487Y251D02*
X7498Y251D01*
X2476Y250D02*
X2487Y250D01*
X2553Y250D02*
X2564Y250D01*
X2576Y250D02*
X2587Y250D01*
X2639Y250D02*
X2650Y250D01*
X2686Y250D02*
X2697Y250D01*
X2771Y250D02*
X2782Y250D01*
X2943Y250D02*
X2954Y250D01*
X2981Y250D02*
X3003Y250D01*
X3029Y250D02*
X3040Y250D01*
X3067Y250D02*
X3079Y250D01*
X3114Y250D02*
X3125Y250D01*
X3159Y250D02*
X3170Y250D01*
X3194Y250D02*
X3205Y250D01*
X3496Y250D02*
X3507Y250D01*
X3519Y250D02*
X3530Y250D01*
X3603Y250D02*
X3619Y250D01*
X3667Y250D02*
X3678Y250D01*
X3691Y250D02*
X3702Y250D01*
X3858Y250D02*
X3878Y250D01*
X3972Y250D02*
X3983Y250D01*
X4015Y250D02*
X4028Y250D01*
X4057Y250D02*
X4068Y250D01*
X4880Y250D02*
X4892Y250D01*
X4903Y250D02*
X4914Y250D01*
X4958Y250D02*
X4971Y250D01*
X5000Y250D02*
X5011Y250D01*
X5042Y250D02*
X5053Y250D01*
X5083Y250D02*
X5095Y250D01*
X5137Y250D02*
X5149Y250D01*
X5158Y250D02*
X5171Y250D01*
X5212Y250D02*
X5225Y250D01*
X5258Y250D02*
X5269Y250D01*
X5429Y250D02*
X5440Y250D01*
X5468Y250D02*
X5480Y250D01*
X5515Y250D02*
X5526Y250D01*
X5556Y250D02*
X5567Y250D01*
X5598Y250D02*
X5609Y250D01*
X5641Y250D02*
X5654Y250D01*
X5686Y250D02*
X5697Y250D01*
X6029Y250D02*
X6040Y250D01*
X6069Y250D02*
X6082Y250D01*
X6115Y250D02*
X6126Y250D01*
X6154Y250D02*
X6165Y250D01*
X6200Y250D02*
X6211Y250D01*
X6273Y250D02*
X6285Y250D01*
X6423Y250D02*
X6435Y250D01*
X6446Y250D02*
X6457Y250D01*
X6544Y250D02*
X6555Y250D01*
X6629Y250D02*
X6640Y250D01*
X6755Y250D02*
X6768Y250D01*
X6801Y250D02*
X6812Y250D01*
X6840Y250D02*
X6851Y250D01*
X6886Y250D02*
X6897Y250D01*
X6930Y250D02*
X6943Y250D01*
X6972Y250D02*
X6983Y250D01*
X7097Y250D02*
X7108Y250D01*
X7144Y250D02*
X7155Y250D01*
X7188Y250D02*
X7203Y250D01*
X7220Y250D02*
X7234Y250D01*
X7268Y250D02*
X7279Y250D01*
X7315Y250D02*
X7326Y250D01*
X7360Y250D02*
X7375Y250D01*
X7391Y250D02*
X7406Y250D01*
X7440Y250D02*
X7451Y250D01*
X7487Y250D02*
X7498Y250D01*
X2476Y249D02*
X2487Y249D01*
X2553Y249D02*
X2564Y249D01*
X2576Y249D02*
X2587Y249D01*
X2639Y249D02*
X2650Y249D01*
X2686Y249D02*
X2697Y249D01*
X2771Y249D02*
X2782Y249D01*
X2943Y249D02*
X2954Y249D01*
X2981Y249D02*
X3003Y249D01*
X3029Y249D02*
X3040Y249D01*
X3068Y249D02*
X3079Y249D01*
X3113Y249D02*
X3125Y249D01*
X3159Y249D02*
X3171Y249D01*
X3193Y249D02*
X3205Y249D01*
X3496Y249D02*
X3507Y249D01*
X3519Y249D02*
X3530Y249D01*
X3667Y249D02*
X3678Y249D01*
X3691Y249D02*
X3702Y249D01*
X3859Y249D02*
X3877Y249D01*
X3972Y249D02*
X3983Y249D01*
X4014Y249D02*
X4027Y249D01*
X4057Y249D02*
X4068Y249D01*
X4880Y249D02*
X4893Y249D01*
X4903Y249D02*
X4914Y249D01*
X4957Y249D02*
X4970Y249D01*
X5000Y249D02*
X5011Y249D01*
X5041Y249D02*
X5053Y249D01*
X5083Y249D02*
X5095Y249D01*
X5137Y249D02*
X5150Y249D01*
X5158Y249D02*
X5170Y249D01*
X5212Y249D02*
X5226Y249D01*
X5258Y249D02*
X5269Y249D01*
X5429Y249D02*
X5440Y249D01*
X5468Y249D02*
X5480Y249D01*
X5515Y249D02*
X5526Y249D01*
X5556Y249D02*
X5567Y249D01*
X5598Y249D02*
X5609Y249D01*
X5641Y249D02*
X5655Y249D01*
X5686Y249D02*
X5697Y249D01*
X6029Y249D02*
X6040Y249D01*
X6070Y249D02*
X6083Y249D01*
X6115Y249D02*
X6126Y249D01*
X6154Y249D02*
X6166Y249D01*
X6200Y249D02*
X6211Y249D01*
X6272Y249D02*
X6285Y249D01*
X6423Y249D02*
X6436Y249D01*
X6446Y249D02*
X6457Y249D01*
X6544Y249D02*
X6555Y249D01*
X6629Y249D02*
X6640Y249D01*
X6756Y249D02*
X6769Y249D01*
X6801Y249D02*
X6812Y249D01*
X6840Y249D02*
X6851Y249D01*
X6885Y249D02*
X6897Y249D01*
X6929Y249D02*
X6942Y249D01*
X6972Y249D02*
X6983Y249D01*
X7097Y249D02*
X7108Y249D01*
X7144Y249D02*
X7155Y249D01*
X7188Y249D02*
X7202Y249D01*
X7220Y249D02*
X7235Y249D01*
X7268Y249D02*
X7279Y249D01*
X7315Y249D02*
X7326Y249D01*
X7359Y249D02*
X7374Y249D01*
X7392Y249D02*
X7407Y249D01*
X7440Y249D02*
X7451Y249D01*
X7487Y249D02*
X7498Y249D01*
X2476Y248D02*
X2487Y248D01*
X2553Y248D02*
X2564Y248D01*
X2576Y248D02*
X2587Y248D01*
X2639Y248D02*
X2650Y248D01*
X2686Y248D02*
X2697Y248D01*
X2771Y248D02*
X2782Y248D01*
X2943Y248D02*
X2954Y248D01*
X2981Y248D02*
X3002Y248D01*
X3029Y248D02*
X3040Y248D01*
X3068Y248D02*
X3080Y248D01*
X3112Y248D02*
X3125Y248D01*
X3159Y248D02*
X3172Y248D01*
X3192Y248D02*
X3205Y248D01*
X3496Y248D02*
X3507Y248D01*
X3519Y248D02*
X3530Y248D01*
X3667Y248D02*
X3678Y248D01*
X3691Y248D02*
X3702Y248D01*
X3859Y248D02*
X3877Y248D01*
X3972Y248D02*
X3983Y248D01*
X4014Y248D02*
X4027Y248D01*
X4057Y248D02*
X4068Y248D01*
X4881Y248D02*
X4894Y248D01*
X4903Y248D02*
X4914Y248D01*
X4957Y248D02*
X4970Y248D01*
X5000Y248D02*
X5011Y248D01*
X5041Y248D02*
X5053Y248D01*
X5084Y248D02*
X5095Y248D01*
X5138Y248D02*
X5150Y248D01*
X5157Y248D02*
X5170Y248D01*
X5213Y248D02*
X5227Y248D01*
X5258Y248D02*
X5269Y248D01*
X5429Y248D02*
X5440Y248D01*
X5468Y248D02*
X5479Y248D01*
X5514Y248D02*
X5526Y248D01*
X5556Y248D02*
X5567Y248D01*
X5598Y248D02*
X5610Y248D01*
X5642Y248D02*
X5656Y248D01*
X5686Y248D02*
X5697Y248D01*
X6029Y248D02*
X6040Y248D01*
X6070Y248D02*
X6085Y248D01*
X6115Y248D02*
X6126Y248D01*
X6154Y248D02*
X6166Y248D01*
X6199Y248D02*
X6211Y248D01*
X6271Y248D02*
X6284Y248D01*
X6424Y248D02*
X6437Y248D01*
X6446Y248D02*
X6457Y248D01*
X6544Y248D02*
X6555Y248D01*
X6629Y248D02*
X6640Y248D01*
X6756Y248D02*
X6771Y248D01*
X6801Y248D02*
X6812Y248D01*
X6840Y248D02*
X6852Y248D01*
X6885Y248D02*
X6897Y248D01*
X6929Y248D02*
X6942Y248D01*
X6972Y248D02*
X6983Y248D01*
X7097Y248D02*
X7108Y248D01*
X7144Y248D02*
X7155Y248D01*
X7187Y248D02*
X7201Y248D01*
X7221Y248D02*
X7236Y248D01*
X7268Y248D02*
X7279Y248D01*
X7315Y248D02*
X7326Y248D01*
X7358Y248D02*
X7373Y248D01*
X7393Y248D02*
X7407Y248D01*
X7440Y248D02*
X7451Y248D01*
X7487Y248D02*
X7498Y248D01*
X2476Y247D02*
X2487Y247D01*
X2553Y247D02*
X2564Y247D01*
X2576Y247D02*
X2587Y247D01*
X2639Y247D02*
X2650Y247D01*
X2686Y247D02*
X2697Y247D01*
X2771Y247D02*
X2782Y247D01*
X2943Y247D02*
X2954Y247D01*
X2981Y247D02*
X3002Y247D01*
X3029Y247D02*
X3040Y247D01*
X3068Y247D02*
X3082Y247D01*
X3111Y247D02*
X3125Y247D01*
X3160Y247D02*
X3173Y247D01*
X3191Y247D02*
X3204Y247D01*
X3496Y247D02*
X3507Y247D01*
X3519Y247D02*
X3530Y247D01*
X3667Y247D02*
X3678Y247D01*
X3691Y247D02*
X3702Y247D01*
X3859Y247D02*
X3876Y247D01*
X3972Y247D02*
X3983Y247D01*
X4013Y247D02*
X4026Y247D01*
X4057Y247D02*
X4068Y247D01*
X4881Y247D02*
X4895Y247D01*
X4903Y247D02*
X4914Y247D01*
X4956Y247D02*
X4969Y247D01*
X5000Y247D02*
X5011Y247D01*
X5041Y247D02*
X5052Y247D01*
X5084Y247D02*
X5096Y247D01*
X5138Y247D02*
X5151Y247D01*
X5156Y247D02*
X5169Y247D01*
X5213Y247D02*
X5230Y247D01*
X5258Y247D02*
X5269Y247D01*
X5429Y247D02*
X5440Y247D01*
X5468Y247D02*
X5479Y247D01*
X5513Y247D02*
X5525Y247D01*
X5555Y247D02*
X5567Y247D01*
X5598Y247D02*
X5610Y247D01*
X5642Y247D02*
X5658Y247D01*
X5686Y247D02*
X5697Y247D01*
X6029Y247D02*
X6040Y247D01*
X6071Y247D02*
X6087Y247D01*
X6115Y247D02*
X6126Y247D01*
X6154Y247D02*
X6168Y247D01*
X6197Y247D02*
X6211Y247D01*
X6270Y247D02*
X6284Y247D01*
X6424Y247D02*
X6438Y247D01*
X6446Y247D02*
X6457Y247D01*
X6544Y247D02*
X6555Y247D01*
X6629Y247D02*
X6640Y247D01*
X6757Y247D02*
X6773Y247D01*
X6801Y247D02*
X6812Y247D01*
X6840Y247D02*
X6854Y247D01*
X6883Y247D02*
X6897Y247D01*
X6928Y247D02*
X6941Y247D01*
X6972Y247D02*
X6983Y247D01*
X7097Y247D02*
X7108Y247D01*
X7144Y247D02*
X7155Y247D01*
X7186Y247D02*
X7201Y247D01*
X7222Y247D02*
X7237Y247D01*
X7268Y247D02*
X7279Y247D01*
X7315Y247D02*
X7326Y247D01*
X7357Y247D02*
X7372Y247D01*
X7394Y247D02*
X7408Y247D01*
X7440Y247D02*
X7451Y247D01*
X7487Y247D02*
X7498Y247D01*
X2476Y246D02*
X2487Y246D01*
X2553Y246D02*
X2607Y246D01*
X2639Y246D02*
X2697Y246D01*
X2728Y246D02*
X2782Y246D01*
X2900Y246D02*
X2954Y246D01*
X2981Y246D02*
X3001Y246D01*
X3029Y246D02*
X3040Y246D01*
X3068Y246D02*
X3124Y246D01*
X3160Y246D02*
X3204Y246D01*
X3496Y246D02*
X3550Y246D01*
X3667Y246D02*
X3721Y246D01*
X3860Y246D02*
X3876Y246D01*
X3929Y246D02*
X3983Y246D01*
X4013Y246D02*
X4026Y246D01*
X4057Y246D02*
X4068Y246D01*
X4882Y246D02*
X4922Y246D01*
X4956Y246D02*
X4969Y246D01*
X5000Y246D02*
X5011Y246D01*
X5041Y246D02*
X5052Y246D01*
X5084Y246D02*
X5096Y246D01*
X5139Y246D02*
X5169Y246D01*
X5214Y246D02*
X5269Y246D01*
X5386Y246D02*
X5440Y246D01*
X5468Y246D02*
X5525Y246D01*
X5555Y246D02*
X5566Y246D01*
X5599Y246D02*
X5610Y246D01*
X5643Y246D02*
X5697Y246D01*
X5986Y246D02*
X6040Y246D01*
X6071Y246D02*
X6126Y246D01*
X6155Y246D02*
X6211Y246D01*
X6243Y246D02*
X6283Y246D01*
X6425Y246D02*
X6465Y246D01*
X6501Y246D02*
X6555Y246D01*
X6586Y246D02*
X6640Y246D01*
X6757Y246D02*
X6812Y246D01*
X6841Y246D02*
X6896Y246D01*
X6927Y246D02*
X6940Y246D01*
X6972Y246D02*
X6983Y246D01*
X7097Y246D02*
X7155Y246D01*
X7185Y246D02*
X7200Y246D01*
X7223Y246D02*
X7238Y246D01*
X7268Y246D02*
X7326Y246D01*
X7357Y246D02*
X7371Y246D01*
X7394Y246D02*
X7409Y246D01*
X7440Y246D02*
X7498Y246D01*
X2476Y245D02*
X2487Y245D01*
X2553Y245D02*
X2609Y245D01*
X2639Y245D02*
X2697Y245D01*
X2727Y245D02*
X2782Y245D01*
X2898Y245D02*
X2954Y245D01*
X2981Y245D02*
X3001Y245D01*
X3029Y245D02*
X3040Y245D01*
X3069Y245D02*
X3124Y245D01*
X3160Y245D02*
X3204Y245D01*
X3496Y245D02*
X3552Y245D01*
X3667Y245D02*
X3723Y245D01*
X3860Y245D02*
X3876Y245D01*
X3927Y245D02*
X3983Y245D01*
X4012Y245D02*
X4025Y245D01*
X4057Y245D02*
X4068Y245D01*
X4882Y245D02*
X4923Y245D01*
X4955Y245D02*
X4968Y245D01*
X5000Y245D02*
X5011Y245D01*
X5040Y245D02*
X5052Y245D01*
X5085Y245D02*
X5096Y245D01*
X5139Y245D02*
X5168Y245D01*
X5215Y245D02*
X5269Y245D01*
X5384Y245D02*
X5440Y245D01*
X5468Y245D02*
X5525Y245D01*
X5555Y245D02*
X5566Y245D01*
X5599Y245D02*
X5610Y245D01*
X5643Y245D02*
X5697Y245D01*
X5984Y245D02*
X6040Y245D01*
X6072Y245D02*
X6126Y245D01*
X6155Y245D02*
X6210Y245D01*
X6242Y245D02*
X6283Y245D01*
X6425Y245D02*
X6467Y245D01*
X6499Y245D02*
X6555Y245D01*
X6584Y245D02*
X6640Y245D01*
X6758Y245D02*
X6812Y245D01*
X6841Y245D02*
X6896Y245D01*
X6927Y245D02*
X6940Y245D01*
X6972Y245D02*
X6983Y245D01*
X7097Y245D02*
X7155Y245D01*
X7184Y245D02*
X7199Y245D01*
X7224Y245D02*
X7239Y245D01*
X7268Y245D02*
X7326Y245D01*
X7356Y245D02*
X7370Y245D01*
X7395Y245D02*
X7410Y245D01*
X7440Y245D02*
X7497Y245D01*
X2476Y244D02*
X2487Y244D01*
X2553Y244D02*
X2610Y244D01*
X2639Y244D02*
X2696Y244D01*
X2726Y244D02*
X2782Y244D01*
X2897Y244D02*
X2954Y244D01*
X2981Y244D02*
X3001Y244D01*
X3029Y244D02*
X3040Y244D01*
X3069Y244D02*
X3123Y244D01*
X3161Y244D02*
X3203Y244D01*
X3496Y244D02*
X3553Y244D01*
X3667Y244D02*
X3724Y244D01*
X3860Y244D02*
X3875Y244D01*
X3926Y244D02*
X3983Y244D01*
X4011Y244D02*
X4024Y244D01*
X4057Y244D02*
X4068Y244D01*
X4883Y244D02*
X4924Y244D01*
X4955Y244D02*
X4967Y244D01*
X5000Y244D02*
X5011Y244D01*
X5040Y244D02*
X5051Y244D01*
X5085Y244D02*
X5096Y244D01*
X5140Y244D02*
X5168Y244D01*
X5215Y244D02*
X5269Y244D01*
X5383Y244D02*
X5440Y244D01*
X5468Y244D02*
X5524Y244D01*
X5554Y244D02*
X5566Y244D01*
X5599Y244D02*
X5611Y244D01*
X5644Y244D02*
X5697Y244D01*
X5983Y244D02*
X6040Y244D01*
X6073Y244D02*
X6126Y244D01*
X6156Y244D02*
X6210Y244D01*
X6241Y244D02*
X6282Y244D01*
X6426Y244D02*
X6468Y244D01*
X6498Y244D02*
X6555Y244D01*
X6583Y244D02*
X6640Y244D01*
X6759Y244D02*
X6812Y244D01*
X6841Y244D02*
X6895Y244D01*
X6926Y244D02*
X6939Y244D01*
X6972Y244D02*
X6983Y244D01*
X7097Y244D02*
X7154Y244D01*
X7183Y244D02*
X7198Y244D01*
X7225Y244D02*
X7239Y244D01*
X7268Y244D02*
X7326Y244D01*
X7355Y244D02*
X7370Y244D01*
X7396Y244D02*
X7411Y244D01*
X7440Y244D02*
X7497Y244D01*
X2476Y243D02*
X2487Y243D01*
X2553Y243D02*
X2610Y243D01*
X2639Y243D02*
X2696Y243D01*
X2725Y243D02*
X2782Y243D01*
X2896Y243D02*
X2954Y243D01*
X2981Y243D02*
X3000Y243D01*
X3029Y243D02*
X3040Y243D01*
X3070Y243D02*
X3123Y243D01*
X3161Y243D02*
X3203Y243D01*
X3496Y243D02*
X3553Y243D01*
X3667Y243D02*
X3725Y243D01*
X3861Y243D02*
X3875Y243D01*
X3925Y243D02*
X3983Y243D01*
X4011Y243D02*
X4024Y243D01*
X4057Y243D02*
X4068Y243D01*
X4883Y243D02*
X4925Y243D01*
X4954Y243D02*
X4967Y243D01*
X5000Y243D02*
X5011Y243D01*
X5040Y243D02*
X5051Y243D01*
X5085Y243D02*
X5097Y243D01*
X5140Y243D02*
X5167Y243D01*
X5216Y243D02*
X5269Y243D01*
X5383Y243D02*
X5440Y243D01*
X5469Y243D02*
X5524Y243D01*
X5554Y243D02*
X5565Y243D01*
X5600Y243D02*
X5611Y243D01*
X5645Y243D02*
X5697Y243D01*
X5983Y243D02*
X6040Y243D01*
X6074Y243D02*
X6126Y243D01*
X6156Y243D02*
X6209Y243D01*
X6240Y243D02*
X6282Y243D01*
X6426Y243D02*
X6468Y243D01*
X6497Y243D02*
X6555Y243D01*
X6583Y243D02*
X6640Y243D01*
X6759Y243D02*
X6812Y243D01*
X6842Y243D02*
X6895Y243D01*
X6926Y243D02*
X6939Y243D01*
X6972Y243D02*
X6983Y243D01*
X7097Y243D02*
X7154Y243D01*
X7183Y243D02*
X7197Y243D01*
X7225Y243D02*
X7240Y243D01*
X7269Y243D02*
X7326Y243D01*
X7354Y243D02*
X7369Y243D01*
X7397Y243D02*
X7411Y243D01*
X7440Y243D02*
X7497Y243D01*
X2476Y242D02*
X2487Y242D01*
X2553Y242D02*
X2611Y242D01*
X2639Y242D02*
X2696Y242D01*
X2725Y242D02*
X2782Y242D01*
X2896Y242D02*
X2954Y242D01*
X2981Y242D02*
X3000Y242D01*
X3029Y242D02*
X3040Y242D01*
X3071Y242D02*
X3122Y242D01*
X3162Y242D02*
X3202Y242D01*
X3496Y242D02*
X3554Y242D01*
X3667Y242D02*
X3725Y242D01*
X3861Y242D02*
X3875Y242D01*
X3925Y242D02*
X3983Y242D01*
X4011Y242D02*
X4023Y242D01*
X4057Y242D02*
X4068Y242D01*
X4884Y242D02*
X4925Y242D01*
X4954Y242D02*
X4966Y242D01*
X5000Y242D02*
X5011Y242D01*
X5039Y242D02*
X5051Y242D01*
X5085Y242D02*
X5097Y242D01*
X5141Y242D02*
X5167Y242D01*
X5217Y242D02*
X5269Y242D01*
X5382Y242D02*
X5440Y242D01*
X5469Y242D02*
X5523Y242D01*
X5554Y242D02*
X5565Y242D01*
X5600Y242D02*
X5611Y242D01*
X5646Y242D02*
X5697Y242D01*
X5982Y242D02*
X6040Y242D01*
X6074Y242D02*
X6126Y242D01*
X6157Y242D02*
X6208Y242D01*
X6240Y242D02*
X6281Y242D01*
X6427Y242D02*
X6469Y242D01*
X6497Y242D02*
X6555Y242D01*
X6582Y242D02*
X6640Y242D01*
X6760Y242D02*
X6812Y242D01*
X6843Y242D02*
X6894Y242D01*
X6925Y242D02*
X6938Y242D01*
X6972Y242D02*
X6983Y242D01*
X7097Y242D02*
X7154Y242D01*
X7183Y242D02*
X7197Y242D01*
X7226Y242D02*
X7240Y242D01*
X7269Y242D02*
X7325Y242D01*
X7354Y242D02*
X7368Y242D01*
X7398Y242D02*
X7412Y242D01*
X7440Y242D02*
X7497Y242D01*
X2476Y241D02*
X2487Y241D01*
X2553Y241D02*
X2611Y241D01*
X2640Y241D02*
X2695Y241D01*
X2724Y241D02*
X2782Y241D01*
X2896Y241D02*
X2954Y241D01*
X2981Y241D02*
X2999Y241D01*
X3029Y241D02*
X3040Y241D01*
X3071Y241D02*
X3121Y241D01*
X3163Y241D02*
X3201Y241D01*
X3496Y241D02*
X3554Y241D01*
X3667Y241D02*
X3725Y241D01*
X3862Y241D02*
X3874Y241D01*
X3925Y241D02*
X3983Y241D01*
X4010Y241D02*
X4023Y241D01*
X4057Y241D02*
X4068Y241D01*
X4884Y241D02*
X4926Y241D01*
X4953Y241D02*
X4966Y241D01*
X5000Y241D02*
X5011Y241D01*
X5039Y241D02*
X5050Y241D01*
X5086Y241D02*
X5097Y241D01*
X5142Y241D02*
X5166Y241D01*
X5218Y241D02*
X5269Y241D01*
X5382Y241D02*
X5440Y241D01*
X5470Y241D02*
X5523Y241D01*
X5553Y241D02*
X5565Y241D01*
X5600Y241D02*
X5612Y241D01*
X5647Y241D02*
X5697Y241D01*
X5982Y241D02*
X6040Y241D01*
X6075Y241D02*
X6126Y241D01*
X6158Y241D02*
X6208Y241D01*
X6239Y241D02*
X6280Y241D01*
X6428Y241D02*
X6469Y241D01*
X6496Y241D02*
X6555Y241D01*
X6582Y241D02*
X6640Y241D01*
X6761Y241D02*
X6812Y241D01*
X6844Y241D02*
X6893Y241D01*
X6925Y241D02*
X6938Y241D01*
X6972Y241D02*
X6983Y241D01*
X7098Y241D02*
X7153Y241D01*
X7182Y241D02*
X7196Y241D01*
X7227Y241D02*
X7240Y241D01*
X7269Y241D02*
X7325Y241D01*
X7354Y241D02*
X7367Y241D01*
X7399Y241D02*
X7412Y241D01*
X7441Y241D02*
X7496Y241D01*
X2476Y240D02*
X2487Y240D01*
X2553Y240D02*
X2611Y240D01*
X2640Y240D02*
X2695Y240D01*
X2724Y240D02*
X2782Y240D01*
X2896Y240D02*
X2954Y240D01*
X2981Y240D02*
X2999Y240D01*
X3029Y240D02*
X3040Y240D01*
X3072Y240D02*
X3120Y240D01*
X3164Y240D02*
X3200Y240D01*
X3496Y240D02*
X3554Y240D01*
X3667Y240D02*
X3725Y240D01*
X3862Y240D02*
X3874Y240D01*
X3925Y240D02*
X3983Y240D01*
X4010Y240D02*
X4022Y240D01*
X4057Y240D02*
X4068Y240D01*
X4885Y240D02*
X4926Y240D01*
X4953Y240D02*
X4965Y240D01*
X5000Y240D02*
X5011Y240D01*
X5039Y240D02*
X5050Y240D01*
X5086Y240D02*
X5097Y240D01*
X5142Y240D02*
X5165Y240D01*
X5219Y240D02*
X5269Y240D01*
X5382Y240D02*
X5440Y240D01*
X5470Y240D02*
X5522Y240D01*
X5553Y240D02*
X5565Y240D01*
X5600Y240D02*
X5612Y240D01*
X5648Y240D02*
X5697Y240D01*
X5982Y240D02*
X6040Y240D01*
X6077Y240D02*
X6126Y240D01*
X6159Y240D02*
X6207Y240D01*
X6239Y240D02*
X6279Y240D01*
X6428Y240D02*
X6469Y240D01*
X6496Y240D02*
X6555Y240D01*
X6582Y240D02*
X6640Y240D01*
X6762Y240D02*
X6812Y240D01*
X6844Y240D02*
X6893Y240D01*
X6925Y240D02*
X6937Y240D01*
X6972Y240D02*
X6983Y240D01*
X7098Y240D02*
X7153Y240D01*
X7182Y240D02*
X7195Y240D01*
X7228Y240D02*
X7240Y240D01*
X7270Y240D02*
X7324Y240D01*
X7354Y240D02*
X7366Y240D01*
X7399Y240D02*
X7412Y240D01*
X7441Y240D02*
X7496Y240D01*
X2476Y239D02*
X2487Y239D01*
X2553Y239D02*
X2611Y239D01*
X2641Y239D02*
X2694Y239D01*
X2724Y239D02*
X2782Y239D01*
X2896Y239D02*
X2954Y239D01*
X2981Y239D02*
X2998Y239D01*
X3029Y239D02*
X3039Y239D01*
X3073Y239D02*
X3119Y239D01*
X3165Y239D02*
X3199Y239D01*
X3496Y239D02*
X3554Y239D01*
X3667Y239D02*
X3725Y239D01*
X3862Y239D02*
X3873Y239D01*
X3925Y239D02*
X3983Y239D01*
X4010Y239D02*
X4022Y239D01*
X4057Y239D02*
X4068Y239D01*
X4886Y239D02*
X4925Y239D01*
X4953Y239D02*
X4965Y239D01*
X5001Y239D02*
X5011Y239D01*
X5039Y239D02*
X5050Y239D01*
X5086Y239D02*
X5097Y239D01*
X5143Y239D02*
X5164Y239D01*
X5220Y239D02*
X5269Y239D01*
X5382Y239D02*
X5440Y239D01*
X5471Y239D02*
X5521Y239D01*
X5553Y239D02*
X5564Y239D01*
X5601Y239D02*
X5612Y239D01*
X5649Y239D02*
X5697Y239D01*
X5982Y239D02*
X6040Y239D01*
X6078Y239D02*
X6126Y239D01*
X6160Y239D02*
X6206Y239D01*
X6239Y239D02*
X6278Y239D01*
X6430Y239D02*
X6469Y239D01*
X6497Y239D02*
X6555Y239D01*
X6582Y239D02*
X6640Y239D01*
X6764Y239D02*
X6812Y239D01*
X6845Y239D02*
X6892Y239D01*
X6925Y239D02*
X6936Y239D01*
X6972Y239D02*
X6983Y239D01*
X7099Y239D02*
X7152Y239D01*
X7182Y239D02*
X7194Y239D01*
X7229Y239D02*
X7240Y239D01*
X7271Y239D02*
X7324Y239D01*
X7354Y239D02*
X7366Y239D01*
X7400Y239D02*
X7412Y239D01*
X7442Y239D02*
X7495Y239D01*
X2476Y238D02*
X2486Y238D01*
X2553Y238D02*
X2610Y238D01*
X2642Y238D02*
X2693Y238D01*
X2725Y238D02*
X2782Y238D01*
X2896Y238D02*
X2954Y238D01*
X2981Y238D02*
X2998Y238D01*
X3029Y238D02*
X3039Y238D01*
X3074Y238D02*
X3118Y238D01*
X3166Y238D02*
X3198Y238D01*
X3496Y238D02*
X3553Y238D01*
X3668Y238D02*
X3725Y238D01*
X3863Y238D02*
X3873Y238D01*
X3925Y238D02*
X3983Y238D01*
X4011Y238D02*
X4021Y238D01*
X4058Y238D02*
X4068Y238D01*
X4888Y238D02*
X4925Y238D01*
X4954Y238D02*
X4964Y238D01*
X5001Y238D02*
X5011Y238D01*
X5039Y238D02*
X5050Y238D01*
X5087Y238D02*
X5097Y238D01*
X5144Y238D02*
X5163Y238D01*
X5222Y238D02*
X5269Y238D01*
X5382Y238D02*
X5440Y238D01*
X5472Y238D02*
X5520Y238D01*
X5554Y238D02*
X5564Y238D01*
X5601Y238D02*
X5611Y238D01*
X5651Y238D02*
X5697Y238D01*
X5983Y238D02*
X6040Y238D01*
X6079Y238D02*
X6126Y238D01*
X6161Y238D02*
X6204Y238D01*
X6240Y238D02*
X6277Y238D01*
X6431Y238D02*
X6468Y238D01*
X6497Y238D02*
X6555Y238D01*
X6583Y238D02*
X6640Y238D01*
X6765Y238D02*
X6812Y238D01*
X6847Y238D02*
X6890Y238D01*
X6926Y238D02*
X6936Y238D01*
X6973Y238D02*
X6983Y238D01*
X7100Y238D02*
X7151Y238D01*
X7183Y238D02*
X7193Y238D01*
X7230Y238D02*
X7240Y238D01*
X7272Y238D02*
X7323Y238D01*
X7354Y238D02*
X7365Y238D01*
X7401Y238D02*
X7411Y238D01*
X7443Y238D02*
X7494Y238D01*
X2477Y237D02*
X2486Y237D01*
X2554Y237D02*
X2610Y237D01*
X2643Y237D02*
X2692Y237D01*
X2725Y237D02*
X2782Y237D01*
X2897Y237D02*
X2954Y237D01*
X2981Y237D02*
X2998Y237D01*
X3030Y237D02*
X3039Y237D01*
X3076Y237D02*
X3117Y237D01*
X3168Y237D02*
X3197Y237D01*
X3497Y237D02*
X3553Y237D01*
X3668Y237D02*
X3724Y237D01*
X3863Y237D02*
X3872Y237D01*
X3926Y237D02*
X3983Y237D01*
X4011Y237D02*
X4020Y237D01*
X4058Y237D02*
X4067Y237D01*
X4889Y237D02*
X4925Y237D01*
X4954Y237D02*
X4963Y237D01*
X5001Y237D02*
X5010Y237D01*
X5040Y237D02*
X5049Y237D01*
X5087Y237D02*
X5096Y237D01*
X5146Y237D02*
X5162Y237D01*
X5224Y237D02*
X5269Y237D01*
X5383Y237D02*
X5440Y237D01*
X5473Y237D02*
X5518Y237D01*
X5554Y237D02*
X5563Y237D01*
X5602Y237D02*
X5611Y237D01*
X5652Y237D02*
X5697Y237D01*
X5983Y237D02*
X6040Y237D01*
X6081Y237D02*
X6126Y237D01*
X6162Y237D02*
X6203Y237D01*
X6240Y237D02*
X6276Y237D01*
X6432Y237D02*
X6468Y237D01*
X6498Y237D02*
X6555Y237D01*
X6583Y237D02*
X6640Y237D01*
X6767Y237D02*
X6812Y237D01*
X6848Y237D02*
X6889Y237D01*
X6926Y237D02*
X6935Y237D01*
X6973Y237D02*
X6982Y237D01*
X7101Y237D02*
X7150Y237D01*
X7183Y237D02*
X7192Y237D01*
X7230Y237D02*
X7239Y237D01*
X7273Y237D02*
X7322Y237D01*
X7355Y237D02*
X7364Y237D01*
X7402Y237D02*
X7411Y237D01*
X7444Y237D02*
X7493Y237D01*
X2478Y236D02*
X2485Y236D01*
X2555Y236D02*
X2609Y236D01*
X2645Y236D02*
X2691Y236D01*
X2726Y236D02*
X2782Y236D01*
X2898Y236D02*
X2954Y236D01*
X2981Y236D02*
X2997Y236D01*
X3031Y236D02*
X3038Y236D01*
X3078Y236D02*
X3115Y236D01*
X3169Y236D02*
X3195Y236D01*
X3498Y236D02*
X3552Y236D01*
X3669Y236D02*
X3724Y236D01*
X3864Y236D02*
X3872Y236D01*
X3926Y236D02*
X3983Y236D01*
X4012Y236D02*
X4019Y236D01*
X4059Y236D02*
X4066Y236D01*
X4891Y236D02*
X4924Y236D01*
X4955Y236D02*
X4963Y236D01*
X5002Y236D02*
X5009Y236D01*
X5041Y236D02*
X5048Y236D01*
X5088Y236D02*
X5095Y236D01*
X5147Y236D02*
X5160Y236D01*
X5226Y236D02*
X5269Y236D01*
X5384Y236D02*
X5440Y236D01*
X5475Y236D02*
X5517Y236D01*
X5555Y236D02*
X5563Y236D01*
X5603Y236D02*
X5610Y236D01*
X5654Y236D02*
X5697Y236D01*
X5984Y236D02*
X6040Y236D01*
X6083Y236D02*
X6126Y236D01*
X6164Y236D02*
X6201Y236D01*
X6241Y236D02*
X6274Y236D01*
X6434Y236D02*
X6467Y236D01*
X6498Y236D02*
X6555Y236D01*
X6584Y236D02*
X6640Y236D01*
X6769Y236D02*
X6812Y236D01*
X6850Y236D02*
X6887Y236D01*
X6927Y236D02*
X6934Y236D01*
X6974Y236D02*
X6981Y236D01*
X7103Y236D02*
X7149Y236D01*
X7184Y236D02*
X7192Y236D01*
X7231Y236D02*
X7238Y236D01*
X7274Y236D02*
X7320Y236D01*
X7356Y236D02*
X7363Y236D01*
X7403Y236D02*
X7410Y236D01*
X7446Y236D02*
X7492Y236D01*
X2479Y235D02*
X2484Y235D01*
X2556Y235D02*
X2608Y235D01*
X2647Y235D02*
X2689Y235D01*
X2728Y235D02*
X2782Y235D01*
X2899Y235D02*
X2954Y235D01*
X2981Y235D02*
X2997Y235D01*
X3032Y235D02*
X3036Y235D01*
X3080Y235D02*
X3112Y235D01*
X3172Y235D02*
X3192Y235D01*
X3499Y235D02*
X3551Y235D01*
X3671Y235D02*
X3722Y235D01*
X3865Y235D02*
X3870Y235D01*
X3928Y235D02*
X3983Y235D01*
X4014Y235D02*
X4018Y235D01*
X4061Y235D02*
X4065Y235D01*
X4894Y235D02*
X4922Y235D01*
X4957Y235D02*
X4961Y235D01*
X5004Y235D02*
X5008Y235D01*
X5042Y235D02*
X5047Y235D01*
X5090Y235D02*
X5094Y235D01*
X5150Y235D02*
X5158Y235D01*
X5229Y235D02*
X5269Y235D01*
X5385Y235D02*
X5440Y235D01*
X5477Y235D02*
X5514Y235D01*
X5557Y235D02*
X5561Y235D01*
X5604Y235D02*
X5608Y235D01*
X5658Y235D02*
X5697Y235D01*
X5985Y235D02*
X6040Y235D01*
X6086Y235D02*
X6126Y235D01*
X6167Y235D02*
X6199Y235D01*
X6243Y235D02*
X6271Y235D01*
X6437Y235D02*
X6466Y235D01*
X6500Y235D02*
X6555Y235D01*
X6586Y235D02*
X6640Y235D01*
X6772Y235D02*
X6812Y235D01*
X6853Y235D02*
X6884Y235D01*
X6928Y235D02*
X6933Y235D01*
X6976Y235D02*
X6980Y235D01*
X7105Y235D02*
X7147Y235D01*
X7186Y235D02*
X7190Y235D01*
X7233Y235D02*
X7237Y235D01*
X7276Y235D02*
X7318Y235D01*
X7357Y235D02*
X7362Y235D01*
X7404Y235D02*
X7409Y235D01*
X7448Y235D02*
X7490Y235D01*
D02*
G04 End of Copper0*
M02*