G75*
%MOIN*%
%OFA0B0*%
%FSLAX24Y24*%
%IPPOS*%
%LPD*%
%AMOC8*
5,1,8,0,0,1.08239X$1,22.5*
%
%ADD10C,0.0000*%
%ADD11C,0.0030*%
%ADD12C,0.0080*%
%ADD13C,0.0020*%
%ADD14C,0.0060*%
%ADD15C,0.0010*%
%ADD16C,0.0050*%
D10*
X000150Y000150D02*
X000150Y019646D01*
X039770Y019646D01*
X039770Y000150D01*
X000150Y000150D01*
X001020Y001650D02*
X001022Y001700D01*
X001028Y001750D01*
X001038Y001799D01*
X001052Y001847D01*
X001069Y001894D01*
X001090Y001939D01*
X001115Y001983D01*
X001143Y002024D01*
X001175Y002063D01*
X001209Y002100D01*
X001246Y002134D01*
X001286Y002164D01*
X001328Y002191D01*
X001372Y002215D01*
X001418Y002236D01*
X001465Y002252D01*
X001513Y002265D01*
X001563Y002274D01*
X001612Y002279D01*
X001663Y002280D01*
X001713Y002277D01*
X001762Y002270D01*
X001811Y002259D01*
X001859Y002244D01*
X001905Y002226D01*
X001950Y002204D01*
X001993Y002178D01*
X002034Y002149D01*
X002073Y002117D01*
X002109Y002082D01*
X002141Y002044D01*
X002171Y002004D01*
X002198Y001961D01*
X002221Y001917D01*
X002240Y001871D01*
X002256Y001823D01*
X002268Y001774D01*
X002276Y001725D01*
X002280Y001675D01*
X002280Y001625D01*
X002276Y001575D01*
X002268Y001526D01*
X002256Y001477D01*
X002240Y001429D01*
X002221Y001383D01*
X002198Y001339D01*
X002171Y001296D01*
X002141Y001256D01*
X002109Y001218D01*
X002073Y001183D01*
X002034Y001151D01*
X001993Y001122D01*
X001950Y001096D01*
X001905Y001074D01*
X001859Y001056D01*
X001811Y001041D01*
X001762Y001030D01*
X001713Y001023D01*
X001663Y001020D01*
X001612Y001021D01*
X001563Y001026D01*
X001513Y001035D01*
X001465Y001048D01*
X001418Y001064D01*
X001372Y001085D01*
X001328Y001109D01*
X001286Y001136D01*
X001246Y001166D01*
X001209Y001200D01*
X001175Y001237D01*
X001143Y001276D01*
X001115Y001317D01*
X001090Y001361D01*
X001069Y001406D01*
X001052Y001453D01*
X001038Y001501D01*
X001028Y001550D01*
X001022Y001600D01*
X001020Y001650D01*
X001020Y018150D02*
X001022Y018200D01*
X001028Y018250D01*
X001038Y018299D01*
X001052Y018347D01*
X001069Y018394D01*
X001090Y018439D01*
X001115Y018483D01*
X001143Y018524D01*
X001175Y018563D01*
X001209Y018600D01*
X001246Y018634D01*
X001286Y018664D01*
X001328Y018691D01*
X001372Y018715D01*
X001418Y018736D01*
X001465Y018752D01*
X001513Y018765D01*
X001563Y018774D01*
X001612Y018779D01*
X001663Y018780D01*
X001713Y018777D01*
X001762Y018770D01*
X001811Y018759D01*
X001859Y018744D01*
X001905Y018726D01*
X001950Y018704D01*
X001993Y018678D01*
X002034Y018649D01*
X002073Y018617D01*
X002109Y018582D01*
X002141Y018544D01*
X002171Y018504D01*
X002198Y018461D01*
X002221Y018417D01*
X002240Y018371D01*
X002256Y018323D01*
X002268Y018274D01*
X002276Y018225D01*
X002280Y018175D01*
X002280Y018125D01*
X002276Y018075D01*
X002268Y018026D01*
X002256Y017977D01*
X002240Y017929D01*
X002221Y017883D01*
X002198Y017839D01*
X002171Y017796D01*
X002141Y017756D01*
X002109Y017718D01*
X002073Y017683D01*
X002034Y017651D01*
X001993Y017622D01*
X001950Y017596D01*
X001905Y017574D01*
X001859Y017556D01*
X001811Y017541D01*
X001762Y017530D01*
X001713Y017523D01*
X001663Y017520D01*
X001612Y017521D01*
X001563Y017526D01*
X001513Y017535D01*
X001465Y017548D01*
X001418Y017564D01*
X001372Y017585D01*
X001328Y017609D01*
X001286Y017636D01*
X001246Y017666D01*
X001209Y017700D01*
X001175Y017737D01*
X001143Y017776D01*
X001115Y017817D01*
X001090Y017861D01*
X001069Y017906D01*
X001052Y017953D01*
X001038Y018001D01*
X001028Y018050D01*
X001022Y018100D01*
X001020Y018150D01*
X037520Y018150D02*
X037522Y018200D01*
X037528Y018250D01*
X037538Y018299D01*
X037552Y018347D01*
X037569Y018394D01*
X037590Y018439D01*
X037615Y018483D01*
X037643Y018524D01*
X037675Y018563D01*
X037709Y018600D01*
X037746Y018634D01*
X037786Y018664D01*
X037828Y018691D01*
X037872Y018715D01*
X037918Y018736D01*
X037965Y018752D01*
X038013Y018765D01*
X038063Y018774D01*
X038112Y018779D01*
X038163Y018780D01*
X038213Y018777D01*
X038262Y018770D01*
X038311Y018759D01*
X038359Y018744D01*
X038405Y018726D01*
X038450Y018704D01*
X038493Y018678D01*
X038534Y018649D01*
X038573Y018617D01*
X038609Y018582D01*
X038641Y018544D01*
X038671Y018504D01*
X038698Y018461D01*
X038721Y018417D01*
X038740Y018371D01*
X038756Y018323D01*
X038768Y018274D01*
X038776Y018225D01*
X038780Y018175D01*
X038780Y018125D01*
X038776Y018075D01*
X038768Y018026D01*
X038756Y017977D01*
X038740Y017929D01*
X038721Y017883D01*
X038698Y017839D01*
X038671Y017796D01*
X038641Y017756D01*
X038609Y017718D01*
X038573Y017683D01*
X038534Y017651D01*
X038493Y017622D01*
X038450Y017596D01*
X038405Y017574D01*
X038359Y017556D01*
X038311Y017541D01*
X038262Y017530D01*
X038213Y017523D01*
X038163Y017520D01*
X038112Y017521D01*
X038063Y017526D01*
X038013Y017535D01*
X037965Y017548D01*
X037918Y017564D01*
X037872Y017585D01*
X037828Y017609D01*
X037786Y017636D01*
X037746Y017666D01*
X037709Y017700D01*
X037675Y017737D01*
X037643Y017776D01*
X037615Y017817D01*
X037590Y017861D01*
X037569Y017906D01*
X037552Y017953D01*
X037538Y018001D01*
X037528Y018050D01*
X037522Y018100D01*
X037520Y018150D01*
X037520Y001650D02*
X037522Y001700D01*
X037528Y001750D01*
X037538Y001799D01*
X037552Y001847D01*
X037569Y001894D01*
X037590Y001939D01*
X037615Y001983D01*
X037643Y002024D01*
X037675Y002063D01*
X037709Y002100D01*
X037746Y002134D01*
X037786Y002164D01*
X037828Y002191D01*
X037872Y002215D01*
X037918Y002236D01*
X037965Y002252D01*
X038013Y002265D01*
X038063Y002274D01*
X038112Y002279D01*
X038163Y002280D01*
X038213Y002277D01*
X038262Y002270D01*
X038311Y002259D01*
X038359Y002244D01*
X038405Y002226D01*
X038450Y002204D01*
X038493Y002178D01*
X038534Y002149D01*
X038573Y002117D01*
X038609Y002082D01*
X038641Y002044D01*
X038671Y002004D01*
X038698Y001961D01*
X038721Y001917D01*
X038740Y001871D01*
X038756Y001823D01*
X038768Y001774D01*
X038776Y001725D01*
X038780Y001675D01*
X038780Y001625D01*
X038776Y001575D01*
X038768Y001526D01*
X038756Y001477D01*
X038740Y001429D01*
X038721Y001383D01*
X038698Y001339D01*
X038671Y001296D01*
X038641Y001256D01*
X038609Y001218D01*
X038573Y001183D01*
X038534Y001151D01*
X038493Y001122D01*
X038450Y001096D01*
X038405Y001074D01*
X038359Y001056D01*
X038311Y001041D01*
X038262Y001030D01*
X038213Y001023D01*
X038163Y001020D01*
X038112Y001021D01*
X038063Y001026D01*
X038013Y001035D01*
X037965Y001048D01*
X037918Y001064D01*
X037872Y001085D01*
X037828Y001109D01*
X037786Y001136D01*
X037746Y001166D01*
X037709Y001200D01*
X037675Y001237D01*
X037643Y001276D01*
X037615Y001317D01*
X037590Y001361D01*
X037569Y001406D01*
X037552Y001453D01*
X037538Y001501D01*
X037528Y001550D01*
X037522Y001600D01*
X037520Y001650D01*
D11*
X037037Y001108D02*
X036940Y001205D01*
X036844Y001108D01*
X036844Y000915D01*
X036844Y001060D02*
X037037Y001060D01*
X037037Y001108D02*
X037037Y000915D01*
X036448Y001012D02*
X036448Y001205D01*
X036448Y001012D02*
X036351Y000915D01*
X036254Y001012D01*
X036254Y001205D01*
X036153Y001205D02*
X035960Y001205D01*
X035960Y000915D01*
X036153Y000915D01*
X036056Y001060D02*
X035960Y001060D01*
X035858Y001060D02*
X035810Y001012D01*
X035665Y001012D01*
X035762Y001012D02*
X035858Y000915D01*
X035858Y001060D02*
X035858Y001157D01*
X035810Y001205D01*
X035665Y001205D01*
X035665Y000915D01*
X026617Y003685D02*
X026303Y003999D01*
X026460Y003999D02*
X026460Y003685D01*
X026303Y003685D02*
X026617Y003999D01*
X026617Y003842D02*
X026303Y003842D01*
X015617Y003842D02*
X015303Y003842D01*
X015303Y003999D02*
X015617Y003685D01*
X015460Y003685D02*
X015460Y003999D01*
X015617Y003999D02*
X015303Y003685D01*
X004617Y003685D02*
X004303Y003999D01*
X004460Y003999D02*
X004460Y003685D01*
X004303Y003685D02*
X004617Y003999D01*
X004617Y003842D02*
X004303Y003842D01*
X004303Y013685D02*
X004617Y013999D01*
X004617Y013842D02*
X004303Y013842D01*
X004303Y013999D02*
X004617Y013685D01*
X004460Y013685D02*
X004460Y013999D01*
X004393Y018665D02*
X004270Y018788D01*
X004270Y019035D01*
X004149Y019035D02*
X003902Y019035D01*
X003902Y018665D01*
X004149Y018665D01*
X004025Y018850D02*
X003902Y018850D01*
X003780Y019035D02*
X003533Y019035D01*
X003657Y019035D02*
X003657Y018665D01*
X003412Y018727D02*
X003350Y018665D01*
X003227Y018665D01*
X003165Y018727D01*
X003227Y018850D02*
X003165Y018912D01*
X003165Y018974D01*
X003227Y019035D01*
X003350Y019035D01*
X003412Y018974D01*
X003350Y018850D02*
X003412Y018788D01*
X003412Y018727D01*
X003350Y018850D02*
X003227Y018850D01*
X004393Y018665D02*
X004517Y018788D01*
X004517Y019035D01*
X004638Y019035D02*
X004638Y018665D01*
X004885Y018665D01*
X004762Y018850D02*
X004638Y018850D01*
X004638Y019035D02*
X004885Y019035D01*
X005375Y019035D02*
X005498Y018912D01*
X005622Y019035D01*
X005622Y018665D01*
X005743Y018665D02*
X005743Y018912D01*
X005867Y019035D01*
X005990Y018912D01*
X005990Y018665D01*
X006112Y018665D02*
X006112Y019035D01*
X006358Y018665D01*
X006358Y019035D01*
X006480Y019035D02*
X006480Y018665D01*
X006727Y018665D01*
X006848Y018665D02*
X007095Y018665D01*
X006972Y018850D02*
X006848Y018850D01*
X006848Y019035D02*
X006848Y018665D01*
X007216Y018974D02*
X007340Y018850D01*
X007340Y018665D01*
X007340Y018850D02*
X007463Y018974D01*
X007463Y019035D01*
X007216Y019035D02*
X007216Y018974D01*
X007095Y019035D02*
X006848Y019035D01*
X005990Y018850D02*
X005743Y018850D01*
X005375Y018665D02*
X005375Y019035D01*
X007953Y018850D02*
X008200Y018850D01*
X008690Y018727D02*
X008751Y018665D01*
X008875Y018665D01*
X008937Y018727D01*
X008937Y018788D01*
X008875Y018850D01*
X008813Y018850D01*
X008875Y018850D02*
X008937Y018912D01*
X008937Y018974D01*
X008875Y019035D01*
X008751Y019035D01*
X008690Y018974D01*
X009058Y019035D02*
X009058Y018665D01*
X009243Y018665D01*
X009305Y018727D01*
X009305Y018974D01*
X009243Y019035D01*
X009058Y019035D01*
X009795Y018974D02*
X009795Y018912D01*
X009856Y018850D01*
X009980Y018850D01*
X010042Y018788D01*
X010042Y018727D01*
X009980Y018665D01*
X009856Y018665D01*
X009795Y018727D01*
X009795Y018788D01*
X009856Y018850D01*
X009980Y018850D02*
X010042Y018912D01*
X010042Y018974D01*
X009980Y019035D01*
X009856Y019035D01*
X009795Y018974D01*
X010163Y018912D02*
X010410Y018665D01*
X010531Y018727D02*
X010531Y018788D01*
X010593Y018850D01*
X010716Y018850D01*
X010778Y018788D01*
X010778Y018727D01*
X010716Y018665D01*
X010593Y018665D01*
X010531Y018727D01*
X010593Y018850D02*
X010531Y018912D01*
X010531Y018974D01*
X010593Y019035D01*
X010716Y019035D01*
X010778Y018974D01*
X010778Y018912D01*
X010716Y018850D01*
X010900Y018912D02*
X011146Y018665D01*
X011268Y018727D02*
X011268Y018788D01*
X011330Y018850D01*
X011453Y018850D01*
X011515Y018788D01*
X011515Y018727D01*
X011453Y018665D01*
X011330Y018665D01*
X011268Y018727D01*
X011330Y018850D02*
X011268Y018912D01*
X011268Y018974D01*
X011330Y019035D01*
X011453Y019035D01*
X011515Y018974D01*
X011515Y018912D01*
X011453Y018850D01*
X011146Y018912D02*
X010900Y018665D01*
X010410Y018912D02*
X010163Y018665D01*
X012005Y018665D02*
X012005Y019035D01*
X012190Y019035D01*
X012251Y018974D01*
X012251Y018850D01*
X012190Y018788D01*
X012005Y018788D01*
X012128Y018788D02*
X012251Y018665D01*
X012373Y018727D02*
X012373Y018974D01*
X012435Y019035D01*
X012558Y019035D01*
X012620Y018974D01*
X012620Y018850D02*
X012496Y018850D01*
X012620Y018850D02*
X012620Y018727D01*
X012558Y018665D01*
X012435Y018665D01*
X012373Y018727D01*
X012741Y018665D02*
X012926Y018665D01*
X012988Y018727D01*
X012988Y018788D01*
X012926Y018850D01*
X012741Y018850D01*
X012741Y018665D02*
X012741Y019035D01*
X012926Y019035D01*
X012988Y018974D01*
X012988Y018912D01*
X012926Y018850D01*
X013478Y018665D02*
X013725Y018665D01*
X013846Y018665D02*
X014093Y018665D01*
X014214Y018665D02*
X014400Y018665D01*
X014461Y018727D01*
X014461Y018974D01*
X014400Y019035D01*
X014214Y019035D01*
X014214Y018665D01*
X013970Y018850D02*
X013846Y018850D01*
X013846Y019035D02*
X013846Y018665D01*
X013478Y018665D02*
X013478Y019035D01*
X013846Y019035D02*
X014093Y019035D01*
X014951Y018974D02*
X014951Y018727D01*
X015013Y018665D01*
X015136Y018665D01*
X015198Y018727D01*
X015319Y018727D02*
X015381Y018665D01*
X015505Y018665D01*
X015566Y018727D01*
X015566Y019035D01*
X015688Y019035D02*
X015873Y019035D01*
X015935Y018974D01*
X015935Y018912D01*
X015873Y018850D01*
X015688Y018850D01*
X015873Y018850D02*
X015935Y018788D01*
X015935Y018727D01*
X015873Y018665D01*
X015688Y018665D01*
X015688Y019035D01*
X016056Y019035D02*
X016056Y018665D01*
X016303Y018665D01*
X016179Y018850D02*
X016056Y018850D01*
X016056Y019035D02*
X016303Y019035D01*
X016793Y018850D02*
X017040Y018850D01*
X017529Y018912D02*
X017591Y018850D01*
X017714Y018850D01*
X017776Y018788D01*
X017776Y018727D01*
X017714Y018665D01*
X017591Y018665D01*
X017529Y018727D01*
X017529Y018912D02*
X017529Y018974D01*
X017591Y019035D01*
X017714Y019035D01*
X017776Y018974D01*
X017898Y019035D02*
X017898Y018665D01*
X017898Y018850D02*
X018144Y018850D01*
X018144Y019035D02*
X018144Y018665D01*
X018266Y018665D02*
X018389Y018665D01*
X018328Y018665D02*
X018328Y019035D01*
X018389Y019035D02*
X018266Y019035D01*
X018511Y019035D02*
X018758Y019035D01*
X018880Y019035D02*
X019127Y019035D01*
X019003Y019035D02*
X019003Y018665D01*
X018635Y018850D02*
X018511Y018850D01*
X018511Y018665D02*
X018511Y019035D01*
X019616Y019035D02*
X019616Y018665D01*
X019616Y018788D02*
X019802Y018788D01*
X019863Y018850D01*
X019863Y018974D01*
X019802Y019035D01*
X019616Y019035D01*
X019985Y019035D02*
X019985Y018665D01*
X020232Y018665D01*
X020353Y018727D02*
X020353Y018974D01*
X020415Y019035D01*
X020538Y019035D01*
X020600Y018974D01*
X020600Y018850D02*
X020476Y018850D01*
X020600Y018850D02*
X020600Y018727D01*
X020538Y018665D01*
X020415Y018665D01*
X020353Y018727D01*
X020108Y018850D02*
X019985Y018850D01*
X019985Y019035D02*
X020232Y019035D01*
X020721Y019035D02*
X020845Y019035D01*
X020783Y019035D02*
X020783Y018665D01*
X020721Y018665D02*
X020845Y018665D01*
X020967Y018727D02*
X021029Y018665D01*
X021152Y018665D01*
X021214Y018727D01*
X021214Y018788D01*
X021152Y018850D01*
X021029Y018850D01*
X020967Y018912D01*
X020967Y018974D01*
X021029Y019035D01*
X021152Y019035D01*
X021214Y018974D01*
X021335Y019035D02*
X021582Y019035D01*
X021703Y019035D02*
X021703Y018665D01*
X021950Y018665D01*
X022072Y018665D02*
X022072Y019035D01*
X022257Y019035D01*
X022319Y018974D01*
X022319Y018850D01*
X022257Y018788D01*
X022072Y018788D01*
X022195Y018788D02*
X022319Y018665D01*
X021827Y018850D02*
X021703Y018850D01*
X021703Y019035D02*
X021950Y019035D01*
X021459Y019035D02*
X021459Y018665D01*
X022808Y018665D02*
X022994Y018665D01*
X023055Y018727D01*
X023055Y018788D01*
X022994Y018850D01*
X022808Y018850D01*
X022808Y018665D02*
X022808Y019035D01*
X022994Y019035D01*
X023055Y018974D01*
X023055Y018912D01*
X022994Y018850D01*
X023177Y018727D02*
X023238Y018665D01*
X023362Y018665D01*
X023424Y018727D01*
X023424Y018974D01*
X023362Y019035D01*
X023238Y019035D01*
X023177Y018974D01*
X023177Y018727D01*
X023545Y018665D02*
X023545Y018912D01*
X023669Y019035D01*
X023792Y018912D01*
X023792Y018665D01*
X023913Y018665D02*
X023913Y019035D01*
X024099Y019035D01*
X024160Y018974D01*
X024160Y018850D01*
X024099Y018788D01*
X023913Y018788D01*
X024037Y018788D02*
X024160Y018665D01*
X024282Y018665D02*
X024467Y018665D01*
X024529Y018727D01*
X024529Y018974D01*
X024467Y019035D01*
X024282Y019035D01*
X024282Y018665D01*
X023792Y018850D02*
X023545Y018850D01*
X019863Y018665D02*
X019740Y018788D01*
X015319Y018727D02*
X015319Y019035D01*
X015198Y018974D02*
X015136Y019035D01*
X015013Y019035D01*
X014951Y018974D01*
X015303Y013999D02*
X015617Y013685D01*
X015617Y013842D02*
X015303Y013842D01*
X015303Y013685D02*
X015617Y013999D01*
X015460Y013999D02*
X015460Y013685D01*
X026303Y013685D02*
X026617Y013999D01*
X026617Y013842D02*
X026303Y013842D01*
X026303Y013999D02*
X026617Y013685D01*
X026460Y013685D02*
X026460Y013999D01*
D12*
X024610Y014420D02*
X024610Y014667D01*
X024610Y014543D02*
X023869Y014543D01*
X023869Y014420D02*
X023869Y014667D01*
X023993Y014923D02*
X023869Y015047D01*
X023869Y015294D01*
X023993Y015417D01*
X024487Y015417D02*
X024610Y015294D01*
X024610Y015047D01*
X024487Y014923D01*
X023993Y014923D01*
X023869Y015678D02*
X024240Y015678D01*
X024116Y015925D01*
X024116Y016049D01*
X024240Y016172D01*
X024487Y016172D01*
X024610Y016049D01*
X024610Y015802D01*
X024487Y015678D01*
X023869Y015678D02*
X023869Y016172D01*
X025650Y015400D02*
X025650Y017400D01*
X026650Y017400D01*
X026650Y015400D01*
X025650Y015400D01*
X025900Y016400D02*
X026400Y016400D01*
X026650Y017600D02*
X026650Y017900D01*
X026550Y017900D01*
X026650Y017900D02*
X026650Y018200D01*
X028650Y018200D01*
X028650Y017900D01*
X028750Y017900D01*
X028650Y017900D02*
X028650Y017600D01*
X026650Y017600D01*
X034869Y016172D02*
X034993Y015925D01*
X035240Y015678D01*
X035240Y016049D01*
X035363Y016172D01*
X035487Y016172D01*
X035610Y016049D01*
X035610Y015802D01*
X035487Y015678D01*
X035240Y015678D01*
X035487Y015417D02*
X035610Y015294D01*
X035610Y015047D01*
X035487Y014923D01*
X034993Y014923D01*
X034869Y015047D01*
X034869Y015294D01*
X034993Y015417D01*
X034869Y014667D02*
X034869Y014420D01*
X034869Y014543D02*
X035610Y014543D01*
X035610Y014420D02*
X035610Y014667D01*
X037400Y016400D02*
X037900Y016400D01*
X037900Y012400D02*
X037400Y012400D01*
X037400Y011900D02*
X037900Y011900D01*
X037900Y007900D02*
X037400Y007900D01*
X037400Y007400D02*
X037900Y007400D01*
X035610Y006172D02*
X035610Y005678D01*
X035610Y005925D02*
X034869Y005925D01*
X035116Y005678D01*
X034993Y005417D02*
X034869Y005294D01*
X034869Y005047D01*
X034993Y004923D01*
X035487Y004923D01*
X035610Y005047D01*
X035610Y005294D01*
X035487Y005417D01*
X035610Y004667D02*
X035610Y004420D01*
X035610Y004543D02*
X034869Y004543D01*
X034869Y004420D02*
X034869Y004667D01*
X037400Y003400D02*
X037900Y003400D01*
X028750Y007900D02*
X028650Y007900D01*
X028650Y007600D01*
X026650Y007600D01*
X026650Y007900D01*
X026550Y007900D01*
X026650Y007900D02*
X026650Y008200D01*
X028650Y008200D01*
X028650Y007900D01*
X026650Y007400D02*
X025650Y007400D01*
X025650Y005400D01*
X026650Y005400D01*
X026650Y007400D01*
X026400Y006400D02*
X025900Y006400D01*
X024610Y006172D02*
X024610Y005678D01*
X024116Y006172D01*
X023993Y006172D01*
X023869Y006049D01*
X023869Y005802D01*
X023993Y005678D01*
X023993Y005417D02*
X023869Y005294D01*
X023869Y005047D01*
X023993Y004923D01*
X024487Y004923D01*
X024610Y005047D01*
X024610Y005294D01*
X024487Y005417D01*
X024610Y004667D02*
X024610Y004420D01*
X024610Y004543D02*
X023869Y004543D01*
X023869Y004420D02*
X023869Y004667D01*
X017650Y007600D02*
X017650Y007900D01*
X017750Y007900D01*
X017650Y007900D02*
X017650Y008200D01*
X015650Y008200D01*
X015650Y007900D01*
X015550Y007900D01*
X015650Y007900D02*
X015650Y007600D01*
X017650Y007600D01*
X015650Y007400D02*
X014650Y007400D01*
X014650Y005400D01*
X015650Y005400D01*
X015650Y007400D01*
X015400Y006400D02*
X014900Y006400D01*
X013610Y006049D02*
X013610Y005802D01*
X013487Y005678D01*
X013487Y005417D02*
X013610Y005294D01*
X013610Y005047D01*
X013487Y004923D01*
X012993Y004923D01*
X012869Y005047D01*
X012869Y005294D01*
X012993Y005417D01*
X012993Y005678D02*
X012869Y005802D01*
X012869Y006049D01*
X012993Y006172D01*
X013116Y006172D01*
X013240Y006049D01*
X013363Y006172D01*
X013487Y006172D01*
X013610Y006049D01*
X013240Y006049D02*
X013240Y005925D01*
X013610Y004667D02*
X013610Y004420D01*
X013610Y004543D02*
X012869Y004543D01*
X012869Y004420D02*
X012869Y004667D01*
X006650Y007600D02*
X006650Y007900D01*
X006750Y007900D01*
X006650Y007900D02*
X006650Y008200D01*
X004650Y008200D01*
X004650Y007900D01*
X004550Y007900D01*
X004650Y007900D02*
X004650Y007600D01*
X006650Y007600D01*
X004650Y007400D02*
X003650Y007400D01*
X003650Y005400D01*
X004650Y005400D01*
X004650Y007400D01*
X004400Y006400D02*
X003900Y006400D01*
X012869Y014420D02*
X012869Y014667D01*
X012869Y014543D02*
X013610Y014543D01*
X013610Y014420D02*
X013610Y014667D01*
X013487Y014923D02*
X013610Y015047D01*
X013610Y015294D01*
X013487Y015417D01*
X012993Y015417D02*
X012869Y015294D01*
X012869Y015047D01*
X012993Y014923D01*
X013487Y014923D01*
X014650Y015400D02*
X014650Y017400D01*
X015650Y017400D01*
X015650Y015400D01*
X014650Y015400D01*
X013240Y015678D02*
X013240Y016172D01*
X013610Y016049D02*
X012869Y016049D01*
X013240Y015678D01*
X014900Y016400D02*
X015400Y016400D01*
X015650Y017600D02*
X015650Y017900D01*
X015550Y017900D01*
X015650Y017900D02*
X015650Y018200D01*
X017650Y018200D01*
X017650Y017900D01*
X017750Y017900D01*
X017650Y017900D02*
X017650Y017600D01*
X015650Y017600D01*
X006750Y017900D02*
X006650Y017900D01*
X006650Y017600D01*
X004650Y017600D01*
X004650Y017900D01*
X004550Y017900D01*
X004650Y017900D02*
X004650Y018200D01*
X006650Y018200D01*
X006650Y017900D01*
X004650Y017400D02*
X003650Y017400D01*
X003650Y015400D01*
X004650Y015400D01*
X004650Y017400D01*
X004400Y016400D02*
X003900Y016400D01*
D13*
X003390Y016947D02*
X003390Y017020D01*
X003353Y017057D01*
X003280Y017131D02*
X003280Y017278D01*
X003390Y017241D02*
X003170Y017241D01*
X003280Y017131D01*
X003207Y017057D02*
X003170Y017020D01*
X003170Y016947D01*
X003207Y016910D01*
X003353Y016910D01*
X003390Y016947D01*
X014170Y016947D02*
X014207Y016910D01*
X014353Y016910D01*
X014390Y016947D01*
X014390Y017020D01*
X014353Y017057D01*
X014353Y017131D02*
X014390Y017168D01*
X014390Y017241D01*
X014353Y017278D01*
X014280Y017278D01*
X014243Y017241D01*
X014243Y017204D01*
X014280Y017131D01*
X014170Y017131D01*
X014170Y017278D01*
X014207Y017057D02*
X014170Y017020D01*
X014170Y016947D01*
X025170Y016947D02*
X025207Y016910D01*
X025353Y016910D01*
X025390Y016947D01*
X025390Y017020D01*
X025353Y017057D01*
X025353Y017131D02*
X025390Y017168D01*
X025390Y017241D01*
X025353Y017278D01*
X025317Y017278D01*
X025280Y017241D01*
X025280Y017131D01*
X025353Y017131D01*
X025280Y017131D02*
X025207Y017204D01*
X025170Y017278D01*
X025207Y017057D02*
X025170Y017020D01*
X025170Y016947D01*
X025390Y007278D02*
X025390Y007131D01*
X025390Y007204D02*
X025170Y007204D01*
X025243Y007131D01*
X025207Y007057D02*
X025170Y007020D01*
X025170Y006947D01*
X025207Y006910D01*
X025353Y006910D01*
X025390Y006947D01*
X025390Y007020D01*
X025353Y007057D01*
X014390Y007020D02*
X014353Y007057D01*
X014390Y007020D02*
X014390Y006947D01*
X014353Y006910D01*
X014207Y006910D01*
X014170Y006947D01*
X014170Y007020D01*
X014207Y007057D01*
X014207Y007131D02*
X014170Y007168D01*
X014170Y007241D01*
X014207Y007278D01*
X014243Y007278D01*
X014390Y007131D01*
X014390Y007278D01*
X003390Y007241D02*
X003390Y007168D01*
X003353Y007131D01*
X003353Y007057D02*
X003390Y007020D01*
X003390Y006947D01*
X003353Y006910D01*
X003207Y006910D01*
X003170Y006947D01*
X003170Y007020D01*
X003207Y007057D01*
X003207Y007131D02*
X003170Y007168D01*
X003170Y007241D01*
X003207Y007278D01*
X003243Y007278D01*
X003280Y007241D01*
X003317Y007278D01*
X003353Y007278D01*
X003390Y007241D01*
X003280Y007241D02*
X003280Y007204D01*
D14*
X004770Y006550D02*
X004770Y005520D01*
X004770Y005280D01*
X004770Y004420D01*
X004770Y005280D02*
X004791Y005282D01*
X004811Y005287D01*
X004830Y005296D01*
X004847Y005308D01*
X004862Y005323D01*
X004874Y005340D01*
X004883Y005359D01*
X004888Y005379D01*
X004890Y005400D01*
X004888Y005421D01*
X004883Y005441D01*
X004874Y005460D01*
X004862Y005477D01*
X004847Y005492D01*
X004830Y005504D01*
X004811Y005513D01*
X004791Y005518D01*
X004770Y005520D01*
X004880Y007780D02*
X005107Y007780D01*
X004993Y007780D02*
X004993Y008120D01*
X004880Y008007D01*
X005248Y008120D02*
X005248Y007780D01*
X005248Y007893D02*
X005475Y008120D01*
X005305Y007950D02*
X005475Y007780D01*
X012530Y006550D02*
X012530Y004250D01*
X015770Y004420D02*
X015770Y005280D01*
X015770Y005520D01*
X015770Y006550D01*
X015770Y005520D02*
X015791Y005518D01*
X015811Y005513D01*
X015830Y005504D01*
X015847Y005492D01*
X015862Y005477D01*
X015874Y005460D01*
X015883Y005441D01*
X015888Y005421D01*
X015890Y005400D01*
X015888Y005379D01*
X015883Y005359D01*
X015874Y005340D01*
X015862Y005323D01*
X015847Y005308D01*
X015830Y005296D01*
X015811Y005287D01*
X015791Y005282D01*
X015770Y005280D01*
X015880Y007780D02*
X016107Y007780D01*
X015993Y007780D02*
X015993Y008120D01*
X015880Y008007D01*
X016248Y008120D02*
X016248Y007780D01*
X016248Y007893D02*
X016475Y008120D01*
X016305Y007950D02*
X016475Y007780D01*
X023530Y006550D02*
X023530Y004250D01*
X026770Y004420D02*
X026770Y005280D01*
X026770Y005520D01*
X026770Y006550D01*
X026770Y005520D02*
X026791Y005518D01*
X026811Y005513D01*
X026830Y005504D01*
X026847Y005492D01*
X026862Y005477D01*
X026874Y005460D01*
X026883Y005441D01*
X026888Y005421D01*
X026890Y005400D01*
X026888Y005379D01*
X026883Y005359D01*
X026874Y005340D01*
X026862Y005323D01*
X026847Y005308D01*
X026830Y005296D01*
X026811Y005287D01*
X026791Y005282D01*
X026770Y005280D01*
X026880Y007780D02*
X027107Y007780D01*
X026993Y007780D02*
X026993Y008120D01*
X026880Y008007D01*
X027248Y008120D02*
X027248Y007780D01*
X027248Y007893D02*
X027475Y008120D01*
X027305Y007950D02*
X027475Y007780D01*
X034530Y006550D02*
X034530Y004250D01*
X034530Y014250D02*
X034530Y016550D01*
X027475Y017780D02*
X027305Y017950D01*
X027248Y017893D02*
X027475Y018120D01*
X027248Y018120D02*
X027248Y017780D01*
X027107Y017780D02*
X026880Y017780D01*
X026993Y017780D02*
X026993Y018120D01*
X026880Y018007D01*
X026770Y016550D02*
X026770Y015520D01*
X026770Y015280D01*
X026770Y014420D01*
X026770Y015280D02*
X026791Y015282D01*
X026811Y015287D01*
X026830Y015296D01*
X026847Y015308D01*
X026862Y015323D01*
X026874Y015340D01*
X026883Y015359D01*
X026888Y015379D01*
X026890Y015400D01*
X026888Y015421D01*
X026883Y015441D01*
X026874Y015460D01*
X026862Y015477D01*
X026847Y015492D01*
X026830Y015504D01*
X026811Y015513D01*
X026791Y015518D01*
X026770Y015520D01*
X023530Y016550D02*
X023530Y014250D01*
X016475Y017780D02*
X016305Y017950D01*
X016248Y017893D02*
X016475Y018120D01*
X016248Y018120D02*
X016248Y017780D01*
X016107Y017780D02*
X015880Y017780D01*
X015993Y017780D02*
X015993Y018120D01*
X015880Y018007D01*
X015770Y016550D02*
X015770Y015520D01*
X015770Y015280D01*
X015770Y014420D01*
X015770Y015280D02*
X015791Y015282D01*
X015811Y015287D01*
X015830Y015296D01*
X015847Y015308D01*
X015862Y015323D01*
X015874Y015340D01*
X015883Y015359D01*
X015888Y015379D01*
X015890Y015400D01*
X015888Y015421D01*
X015883Y015441D01*
X015874Y015460D01*
X015862Y015477D01*
X015847Y015492D01*
X015830Y015504D01*
X015811Y015513D01*
X015791Y015518D01*
X015770Y015520D01*
X012530Y016550D02*
X012530Y014250D01*
X005475Y017780D02*
X005305Y017950D01*
X005248Y017893D02*
X005475Y018120D01*
X005248Y018120D02*
X005248Y017780D01*
X005107Y017780D02*
X004880Y017780D01*
X004993Y017780D02*
X004993Y018120D01*
X004880Y018007D01*
X004770Y016550D02*
X004770Y015520D01*
X004770Y015280D01*
X004770Y014420D01*
X004770Y015280D02*
X004791Y015282D01*
X004811Y015287D01*
X004830Y015296D01*
X004847Y015308D01*
X004862Y015323D01*
X004874Y015340D01*
X004883Y015359D01*
X004888Y015379D01*
X004890Y015400D01*
X004888Y015421D01*
X004883Y015441D01*
X004874Y015460D01*
X004862Y015477D01*
X004847Y015492D01*
X004830Y015504D01*
X004811Y015513D01*
X004791Y015518D01*
X004770Y015520D01*
D15*
X004755Y018405D02*
X004705Y018455D01*
X004730Y018455D02*
X004655Y018455D01*
X004655Y018405D02*
X004655Y018555D01*
X004730Y018555D01*
X004755Y018530D01*
X004755Y018480D01*
X004730Y018455D01*
X004802Y018480D02*
X004902Y018480D01*
X004877Y018405D02*
X004877Y018555D01*
X004802Y018480D01*
X015655Y018455D02*
X015730Y018455D01*
X015755Y018480D01*
X015755Y018530D01*
X015730Y018555D01*
X015655Y018555D01*
X015655Y018405D01*
X015705Y018455D02*
X015755Y018405D01*
X015802Y018430D02*
X015827Y018405D01*
X015877Y018405D01*
X015902Y018430D01*
X015902Y018480D01*
X015877Y018505D01*
X015852Y018505D01*
X015802Y018480D01*
X015802Y018555D01*
X015902Y018555D01*
X026655Y018555D02*
X026655Y018405D01*
X026655Y018455D02*
X026730Y018455D01*
X026755Y018480D01*
X026755Y018530D01*
X026730Y018555D01*
X026655Y018555D01*
X026705Y018455D02*
X026755Y018405D01*
X026802Y018430D02*
X026827Y018405D01*
X026877Y018405D01*
X026902Y018430D01*
X026902Y018455D01*
X026877Y018480D01*
X026802Y018480D01*
X026802Y018430D01*
X026802Y018480D02*
X026852Y018530D01*
X026902Y018555D01*
X026852Y008555D02*
X026852Y008405D01*
X026802Y008405D02*
X026902Y008405D01*
X026802Y008505D02*
X026852Y008555D01*
X026755Y008530D02*
X026755Y008480D01*
X026730Y008455D01*
X026655Y008455D01*
X026655Y008405D02*
X026655Y008555D01*
X026730Y008555D01*
X026755Y008530D01*
X026705Y008455D02*
X026755Y008405D01*
X015902Y008405D02*
X015802Y008405D01*
X015902Y008505D01*
X015902Y008530D01*
X015877Y008555D01*
X015827Y008555D01*
X015802Y008530D01*
X015755Y008530D02*
X015755Y008480D01*
X015730Y008455D01*
X015655Y008455D01*
X015655Y008405D02*
X015655Y008555D01*
X015730Y008555D01*
X015755Y008530D01*
X015705Y008455D02*
X015755Y008405D01*
X004902Y008430D02*
X004877Y008405D01*
X004827Y008405D01*
X004802Y008430D01*
X004755Y008405D02*
X004705Y008455D01*
X004730Y008455D02*
X004655Y008455D01*
X004655Y008405D02*
X004655Y008555D01*
X004730Y008555D01*
X004755Y008530D01*
X004755Y008480D01*
X004730Y008455D01*
X004802Y008530D02*
X004827Y008555D01*
X004877Y008555D01*
X004902Y008530D01*
X004902Y008505D01*
X004877Y008480D01*
X004902Y008455D01*
X004902Y008430D01*
X004877Y008480D02*
X004852Y008480D01*
D16*
X036205Y008355D02*
X036205Y008581D01*
X036280Y008656D01*
X036430Y008656D01*
X036505Y008581D01*
X036505Y008355D01*
X036655Y008355D02*
X036205Y008355D01*
X036205Y008195D02*
X036205Y008045D01*
X036205Y008120D02*
X036580Y008120D01*
X036655Y008045D01*
X036655Y007970D01*
X036580Y007895D01*
X036655Y008816D02*
X036355Y009116D01*
X036280Y009116D01*
X036205Y009041D01*
X036205Y008891D01*
X036280Y008816D01*
X036655Y008816D02*
X036655Y009116D01*
X036580Y012395D02*
X036655Y012470D01*
X036655Y012545D01*
X036580Y012620D01*
X036205Y012620D01*
X036205Y012545D02*
X036205Y012695D01*
X036205Y012855D02*
X036205Y013081D01*
X036280Y013156D01*
X036430Y013156D01*
X036505Y013081D01*
X036505Y012855D01*
X036655Y012855D02*
X036205Y012855D01*
X036280Y013316D02*
X036205Y013391D01*
X036205Y013541D01*
X036280Y013616D01*
X036355Y013616D01*
X036430Y013541D01*
X036505Y013616D01*
X036580Y013616D01*
X036655Y013541D01*
X036655Y013391D01*
X036580Y013316D01*
X036430Y013466D02*
X036430Y013541D01*
X036655Y004616D02*
X036655Y004316D01*
X036655Y004466D02*
X036205Y004466D01*
X036355Y004316D01*
X036280Y004156D02*
X036430Y004156D01*
X036505Y004081D01*
X036505Y003855D01*
X036655Y003855D02*
X036205Y003855D01*
X036205Y004081D01*
X036280Y004156D01*
X036205Y003695D02*
X036205Y003545D01*
X036205Y003620D02*
X036580Y003620D01*
X036655Y003545D01*
X036655Y003470D01*
X036580Y003395D01*
M02*
