G75*
%MOIN*%
%OFA0B0*%
%FSLAX24Y24*%
%IPPOS*%
%LPD*%
%AMOC8*
5,1,8,0,0,1.08239X$1,22.5*
%
%ADD10C,0.1340*%
%ADD11C,0.0730*%
%ADD12R,0.0740X0.0740*%
%ADD13C,0.0740*%
%ADD14C,0.0820*%
%ADD15C,0.0600*%
%ADD16C,0.0820*%
%ADD17C,0.0480*%
D10*
X001650Y001650D03*
X001650Y018150D03*
X038150Y018150D03*
X038150Y001650D03*
D11*
X026150Y005900D03*
X026150Y006900D03*
X015150Y006900D03*
X015150Y005900D03*
X004150Y005900D03*
X004150Y006900D03*
X004150Y015900D03*
X004150Y016900D03*
X015150Y016900D03*
X015150Y015900D03*
X026150Y015900D03*
X026150Y016900D03*
D12*
X027150Y013900D03*
X016150Y013900D03*
X005150Y013900D03*
X005150Y003900D03*
X016150Y003900D03*
X027150Y003900D03*
D13*
X028150Y003900D03*
X029150Y003900D03*
X030150Y003900D03*
X031150Y003900D03*
X032150Y003900D03*
X033150Y003900D03*
X034150Y003900D03*
X034150Y006900D03*
X033150Y006900D03*
X032150Y006900D03*
X031150Y006900D03*
X030150Y006900D03*
X029150Y006900D03*
X028150Y006900D03*
X027150Y006900D03*
X023150Y006900D03*
X022150Y006900D03*
X021150Y006900D03*
X020150Y006900D03*
X019150Y006900D03*
X018150Y006900D03*
X017150Y006900D03*
X016150Y006900D03*
X012150Y006900D03*
X011150Y006900D03*
X010150Y006900D03*
X009150Y006900D03*
X008150Y006900D03*
X007150Y006900D03*
X006150Y006900D03*
X005150Y006900D03*
X006150Y003900D03*
X007150Y003900D03*
X008150Y003900D03*
X009150Y003900D03*
X010150Y003900D03*
X011150Y003900D03*
X012150Y003900D03*
X017150Y003900D03*
X018150Y003900D03*
X019150Y003900D03*
X020150Y003900D03*
X021150Y003900D03*
X022150Y003900D03*
X023150Y003900D03*
X023150Y013900D03*
X022150Y013900D03*
X021150Y013900D03*
X020150Y013900D03*
X019150Y013900D03*
X018150Y013900D03*
X017150Y013900D03*
X012150Y013900D03*
X011150Y013900D03*
X010150Y013900D03*
X009150Y013900D03*
X008150Y013900D03*
X007150Y013900D03*
X006150Y013900D03*
X006150Y016900D03*
X007150Y016900D03*
X008150Y016900D03*
X009150Y016900D03*
X010150Y016900D03*
X011150Y016900D03*
X012150Y016900D03*
X016150Y016900D03*
X017150Y016900D03*
X018150Y016900D03*
X019150Y016900D03*
X020150Y016900D03*
X021150Y016900D03*
X022150Y016900D03*
X023150Y016900D03*
X027150Y016900D03*
X028150Y016900D03*
X029150Y016900D03*
X030150Y016900D03*
X031150Y016900D03*
X032150Y016900D03*
X033150Y016900D03*
X034150Y016900D03*
X034150Y013900D03*
X033150Y013900D03*
X032150Y013900D03*
X031150Y013900D03*
X030150Y013900D03*
X029150Y013900D03*
X028150Y013900D03*
X005150Y016900D03*
D14*
X004150Y017900D03*
X007150Y017900D03*
X015150Y017900D03*
X018150Y017900D03*
X026150Y017900D03*
X029150Y017900D03*
X029150Y007900D03*
X026150Y007900D03*
X018150Y007900D03*
X015150Y007900D03*
X007150Y007900D03*
X004150Y007900D03*
D15*
X008150Y011640D02*
X008150Y012160D01*
X009150Y012160D02*
X009150Y011640D01*
X010150Y011640D02*
X010150Y012160D01*
X011150Y012160D02*
X011150Y011640D01*
X012150Y011640D02*
X012150Y012160D01*
X013150Y012160D02*
X013150Y011640D01*
X014150Y011640D02*
X014150Y012160D01*
X015150Y012160D02*
X015150Y011640D01*
X017150Y011640D02*
X017150Y012160D01*
X018150Y012160D02*
X018150Y011640D01*
X019150Y011640D02*
X019150Y012160D01*
X020150Y012160D02*
X020150Y011640D01*
X021150Y011640D02*
X021150Y012160D01*
X022150Y012160D02*
X022150Y011640D01*
X023150Y011640D02*
X023150Y012160D01*
X024150Y012160D02*
X024150Y011640D01*
X026150Y011640D02*
X026150Y012160D01*
X027150Y012160D02*
X027150Y011640D01*
X028150Y011640D02*
X028150Y012160D01*
X029150Y012160D02*
X029150Y011640D01*
X030150Y011640D02*
X030150Y012160D01*
X031150Y012160D02*
X031150Y011640D01*
X032150Y011640D02*
X032150Y012160D01*
X033150Y012160D02*
X033150Y011640D01*
X033150Y002160D02*
X033150Y001640D01*
X032150Y001640D02*
X032150Y002160D01*
X031150Y002160D02*
X031150Y001640D01*
X030150Y001640D02*
X030150Y002160D01*
X029150Y002160D02*
X029150Y001640D01*
X028150Y001640D02*
X028150Y002160D01*
X027150Y002160D02*
X027150Y001640D01*
X026150Y001640D02*
X026150Y002160D01*
X024150Y002160D02*
X024150Y001640D01*
X023150Y001640D02*
X023150Y002160D01*
X022150Y002160D02*
X022150Y001640D01*
X021150Y001640D02*
X021150Y002160D01*
X020150Y002160D02*
X020150Y001640D01*
X019150Y001640D02*
X019150Y002160D01*
X018150Y002160D02*
X018150Y001640D01*
X017150Y001640D02*
X017150Y002160D01*
X015150Y002160D02*
X015150Y001640D01*
X014150Y001640D02*
X014150Y002160D01*
X013150Y002160D02*
X013150Y001640D01*
X012150Y001640D02*
X012150Y002160D01*
X011150Y002160D02*
X011150Y001640D01*
X010150Y001640D02*
X010150Y002160D01*
X009150Y002160D02*
X009150Y001640D01*
X008150Y001640D02*
X008150Y002160D01*
D16*
X037280Y003900D02*
X038020Y003900D01*
X038020Y004900D02*
X037280Y004900D01*
X037280Y005900D02*
X038020Y005900D01*
X038020Y006900D02*
X037280Y006900D01*
X037280Y008400D02*
X038020Y008400D01*
X038020Y009400D02*
X037280Y009400D01*
X037280Y010400D02*
X038020Y010400D01*
X038020Y011400D02*
X037280Y011400D01*
X037280Y012900D02*
X038020Y012900D01*
X038020Y013900D02*
X037280Y013900D01*
X037280Y014900D02*
X038020Y014900D01*
X038020Y015900D02*
X037280Y015900D01*
D17*
X038963Y015150D03*
X036088Y014400D03*
X035775Y013900D03*
X034838Y013838D03*
X035213Y014463D03*
X035588Y014900D03*
X034838Y015400D03*
X033525Y016213D03*
X031525Y017650D03*
X031525Y018150D03*
X030775Y017713D03*
X029713Y016338D03*
X030088Y015963D03*
X030463Y015588D03*
X029900Y015150D03*
X029213Y014963D03*
X027400Y015150D03*
X026338Y015213D03*
X026775Y014588D03*
X026088Y014463D03*
X025400Y015150D03*
X024463Y015400D03*
X023775Y015900D03*
X024275Y016275D03*
X022838Y015713D03*
X022338Y016213D03*
X020338Y014963D03*
X019713Y015400D03*
X019525Y014588D03*
X017525Y014963D03*
X015775Y014775D03*
X014650Y014588D03*
X014088Y015088D03*
X012713Y015463D03*
X011775Y015900D03*
X011775Y014463D03*
X009650Y014650D03*
X010400Y012838D03*
X009650Y012463D03*
X007275Y012025D03*
X007150Y011400D03*
X006650Y011400D03*
X006463Y010400D03*
X007650Y010400D03*
X008150Y010400D03*
X004650Y011400D03*
X004650Y012713D03*
X004338Y009775D03*
X008525Y007463D03*
X010463Y008400D03*
X011150Y007713D03*
X008650Y006213D03*
X009025Y005588D03*
X010525Y005838D03*
X011650Y005838D03*
X012525Y006025D03*
X012900Y005650D03*
X011650Y005088D03*
X012838Y004025D03*
X013775Y004400D03*
X015275Y004713D03*
X015338Y005213D03*
X015900Y005650D03*
X015588Y006400D03*
X018088Y004963D03*
X016525Y004588D03*
X015650Y003213D03*
X015650Y002650D03*
X016650Y002588D03*
X017838Y002713D03*
X021400Y004525D03*
X021963Y004588D03*
X023213Y005338D03*
X024650Y005275D03*
X024650Y004775D03*
X024150Y004400D03*
X024525Y004025D03*
X023775Y003588D03*
X022713Y003338D03*
X022338Y002713D03*
X024650Y002588D03*
X025650Y002588D03*
X027463Y002838D03*
X028213Y002775D03*
X031275Y003025D03*
X032775Y002650D03*
X034025Y001088D03*
X034525Y001088D03*
X028963Y001025D03*
X027775Y001150D03*
X025650Y000900D03*
X020525Y004775D03*
X021275Y006150D03*
X023650Y007463D03*
X022775Y007900D03*
X023775Y008213D03*
X024650Y007838D03*
X025650Y008400D03*
X025650Y009463D03*
X025650Y010025D03*
X026025Y010400D03*
X024650Y009963D03*
X024338Y010400D03*
X021525Y009900D03*
X021025Y008338D03*
X016025Y009963D03*
X015400Y010400D03*
X014588Y009650D03*
X015088Y009400D03*
X015650Y008400D03*
X014400Y008400D03*
X013400Y010400D03*
X012650Y012463D03*
X013400Y012838D03*
X015213Y013525D03*
X016650Y012838D03*
X017150Y012838D03*
X015650Y012463D03*
X019338Y012900D03*
X019900Y013275D03*
X019650Y012463D03*
X022713Y012838D03*
X024150Y012838D03*
X024650Y012838D03*
X026463Y013400D03*
X026963Y013213D03*
X023775Y014150D03*
X027650Y016400D03*
X026650Y017400D03*
X028275Y018088D03*
X025338Y018338D03*
X020713Y018338D03*
X019525Y017588D03*
X018775Y018275D03*
X015588Y016400D03*
X016463Y016213D03*
X014400Y016150D03*
X010338Y018400D03*
X009588Y018338D03*
X009588Y017525D03*
X028650Y010150D03*
X029400Y010150D03*
X029213Y009650D03*
X029713Y009463D03*
X028588Y008400D03*
X032588Y006150D03*
X032650Y005650D03*
X031525Y005400D03*
X030650Y005400D03*
X027525Y004963D03*
X027150Y005463D03*
X026775Y005838D03*
X033650Y004650D03*
X034650Y004650D03*
X035025Y004275D03*
X036400Y005463D03*
X034650Y005650D03*
X036150Y007838D03*
X035400Y008213D03*
X034650Y007963D03*
X034275Y009400D03*
X033713Y010025D03*
X034088Y010400D03*
X032963Y010400D03*
X034463Y011400D03*
X034838Y011775D03*
X035213Y012150D03*
X036150Y012150D03*
X036588Y011400D03*
X036525Y010400D03*
X031525Y013213D03*
X036588Y013338D03*
X036463Y018025D03*
X038713Y006338D03*
X013775Y002838D03*
X013275Y002775D03*
X010650Y003213D03*
X009588Y003150D03*
X008275Y002775D03*
X007775Y004588D03*
X007275Y004588D03*
X006463Y005400D03*
X005838Y005588D03*
X006463Y006213D03*
X007150Y006088D03*
X004775Y004588D03*
M02*
