G75*
%MOIN*%
%OFA0B0*%
%FSLAX24Y24*%
%IPPOS*%
%LPD*%
%AMOC8*
5,1,8,0,0,1.08239X$1,22.5*
%
%ADD10C,0.0000*%
%ADD11C,0.0060*%
%ADD12C,0.0050*%
D10*
X000150Y000150D02*
X000150Y019646D01*
X039770Y019646D01*
X039770Y000150D01*
X000150Y000150D01*
X001020Y001650D02*
X001022Y001700D01*
X001028Y001750D01*
X001038Y001799D01*
X001052Y001847D01*
X001069Y001894D01*
X001090Y001939D01*
X001115Y001983D01*
X001143Y002024D01*
X001175Y002063D01*
X001209Y002100D01*
X001246Y002134D01*
X001286Y002164D01*
X001328Y002191D01*
X001372Y002215D01*
X001418Y002236D01*
X001465Y002252D01*
X001513Y002265D01*
X001563Y002274D01*
X001612Y002279D01*
X001663Y002280D01*
X001713Y002277D01*
X001762Y002270D01*
X001811Y002259D01*
X001859Y002244D01*
X001905Y002226D01*
X001950Y002204D01*
X001993Y002178D01*
X002034Y002149D01*
X002073Y002117D01*
X002109Y002082D01*
X002141Y002044D01*
X002171Y002004D01*
X002198Y001961D01*
X002221Y001917D01*
X002240Y001871D01*
X002256Y001823D01*
X002268Y001774D01*
X002276Y001725D01*
X002280Y001675D01*
X002280Y001625D01*
X002276Y001575D01*
X002268Y001526D01*
X002256Y001477D01*
X002240Y001429D01*
X002221Y001383D01*
X002198Y001339D01*
X002171Y001296D01*
X002141Y001256D01*
X002109Y001218D01*
X002073Y001183D01*
X002034Y001151D01*
X001993Y001122D01*
X001950Y001096D01*
X001905Y001074D01*
X001859Y001056D01*
X001811Y001041D01*
X001762Y001030D01*
X001713Y001023D01*
X001663Y001020D01*
X001612Y001021D01*
X001563Y001026D01*
X001513Y001035D01*
X001465Y001048D01*
X001418Y001064D01*
X001372Y001085D01*
X001328Y001109D01*
X001286Y001136D01*
X001246Y001166D01*
X001209Y001200D01*
X001175Y001237D01*
X001143Y001276D01*
X001115Y001317D01*
X001090Y001361D01*
X001069Y001406D01*
X001052Y001453D01*
X001038Y001501D01*
X001028Y001550D01*
X001022Y001600D01*
X001020Y001650D01*
X001020Y018150D02*
X001022Y018200D01*
X001028Y018250D01*
X001038Y018299D01*
X001052Y018347D01*
X001069Y018394D01*
X001090Y018439D01*
X001115Y018483D01*
X001143Y018524D01*
X001175Y018563D01*
X001209Y018600D01*
X001246Y018634D01*
X001286Y018664D01*
X001328Y018691D01*
X001372Y018715D01*
X001418Y018736D01*
X001465Y018752D01*
X001513Y018765D01*
X001563Y018774D01*
X001612Y018779D01*
X001663Y018780D01*
X001713Y018777D01*
X001762Y018770D01*
X001811Y018759D01*
X001859Y018744D01*
X001905Y018726D01*
X001950Y018704D01*
X001993Y018678D01*
X002034Y018649D01*
X002073Y018617D01*
X002109Y018582D01*
X002141Y018544D01*
X002171Y018504D01*
X002198Y018461D01*
X002221Y018417D01*
X002240Y018371D01*
X002256Y018323D01*
X002268Y018274D01*
X002276Y018225D01*
X002280Y018175D01*
X002280Y018125D01*
X002276Y018075D01*
X002268Y018026D01*
X002256Y017977D01*
X002240Y017929D01*
X002221Y017883D01*
X002198Y017839D01*
X002171Y017796D01*
X002141Y017756D01*
X002109Y017718D01*
X002073Y017683D01*
X002034Y017651D01*
X001993Y017622D01*
X001950Y017596D01*
X001905Y017574D01*
X001859Y017556D01*
X001811Y017541D01*
X001762Y017530D01*
X001713Y017523D01*
X001663Y017520D01*
X001612Y017521D01*
X001563Y017526D01*
X001513Y017535D01*
X001465Y017548D01*
X001418Y017564D01*
X001372Y017585D01*
X001328Y017609D01*
X001286Y017636D01*
X001246Y017666D01*
X001209Y017700D01*
X001175Y017737D01*
X001143Y017776D01*
X001115Y017817D01*
X001090Y017861D01*
X001069Y017906D01*
X001052Y017953D01*
X001038Y018001D01*
X001028Y018050D01*
X001022Y018100D01*
X001020Y018150D01*
X037520Y018150D02*
X037522Y018200D01*
X037528Y018250D01*
X037538Y018299D01*
X037552Y018347D01*
X037569Y018394D01*
X037590Y018439D01*
X037615Y018483D01*
X037643Y018524D01*
X037675Y018563D01*
X037709Y018600D01*
X037746Y018634D01*
X037786Y018664D01*
X037828Y018691D01*
X037872Y018715D01*
X037918Y018736D01*
X037965Y018752D01*
X038013Y018765D01*
X038063Y018774D01*
X038112Y018779D01*
X038163Y018780D01*
X038213Y018777D01*
X038262Y018770D01*
X038311Y018759D01*
X038359Y018744D01*
X038405Y018726D01*
X038450Y018704D01*
X038493Y018678D01*
X038534Y018649D01*
X038573Y018617D01*
X038609Y018582D01*
X038641Y018544D01*
X038671Y018504D01*
X038698Y018461D01*
X038721Y018417D01*
X038740Y018371D01*
X038756Y018323D01*
X038768Y018274D01*
X038776Y018225D01*
X038780Y018175D01*
X038780Y018125D01*
X038776Y018075D01*
X038768Y018026D01*
X038756Y017977D01*
X038740Y017929D01*
X038721Y017883D01*
X038698Y017839D01*
X038671Y017796D01*
X038641Y017756D01*
X038609Y017718D01*
X038573Y017683D01*
X038534Y017651D01*
X038493Y017622D01*
X038450Y017596D01*
X038405Y017574D01*
X038359Y017556D01*
X038311Y017541D01*
X038262Y017530D01*
X038213Y017523D01*
X038163Y017520D01*
X038112Y017521D01*
X038063Y017526D01*
X038013Y017535D01*
X037965Y017548D01*
X037918Y017564D01*
X037872Y017585D01*
X037828Y017609D01*
X037786Y017636D01*
X037746Y017666D01*
X037709Y017700D01*
X037675Y017737D01*
X037643Y017776D01*
X037615Y017817D01*
X037590Y017861D01*
X037569Y017906D01*
X037552Y017953D01*
X037538Y018001D01*
X037528Y018050D01*
X037522Y018100D01*
X037520Y018150D01*
X037520Y001650D02*
X037522Y001700D01*
X037528Y001750D01*
X037538Y001799D01*
X037552Y001847D01*
X037569Y001894D01*
X037590Y001939D01*
X037615Y001983D01*
X037643Y002024D01*
X037675Y002063D01*
X037709Y002100D01*
X037746Y002134D01*
X037786Y002164D01*
X037828Y002191D01*
X037872Y002215D01*
X037918Y002236D01*
X037965Y002252D01*
X038013Y002265D01*
X038063Y002274D01*
X038112Y002279D01*
X038163Y002280D01*
X038213Y002277D01*
X038262Y002270D01*
X038311Y002259D01*
X038359Y002244D01*
X038405Y002226D01*
X038450Y002204D01*
X038493Y002178D01*
X038534Y002149D01*
X038573Y002117D01*
X038609Y002082D01*
X038641Y002044D01*
X038671Y002004D01*
X038698Y001961D01*
X038721Y001917D01*
X038740Y001871D01*
X038756Y001823D01*
X038768Y001774D01*
X038776Y001725D01*
X038780Y001675D01*
X038780Y001625D01*
X038776Y001575D01*
X038768Y001526D01*
X038756Y001477D01*
X038740Y001429D01*
X038721Y001383D01*
X038698Y001339D01*
X038671Y001296D01*
X038641Y001256D01*
X038609Y001218D01*
X038573Y001183D01*
X038534Y001151D01*
X038493Y001122D01*
X038450Y001096D01*
X038405Y001074D01*
X038359Y001056D01*
X038311Y001041D01*
X038262Y001030D01*
X038213Y001023D01*
X038163Y001020D01*
X038112Y001021D01*
X038063Y001026D01*
X038013Y001035D01*
X037965Y001048D01*
X037918Y001064D01*
X037872Y001085D01*
X037828Y001109D01*
X037786Y001136D01*
X037746Y001166D01*
X037709Y001200D01*
X037675Y001237D01*
X037643Y001276D01*
X037615Y001317D01*
X037590Y001361D01*
X037569Y001406D01*
X037552Y001453D01*
X037538Y001501D01*
X037528Y001550D01*
X037522Y001600D01*
X037520Y001650D01*
D11*
X033650Y001400D02*
X032750Y001400D01*
X032650Y001500D01*
X032550Y001400D01*
X031750Y001400D01*
X031650Y001500D01*
X031550Y001400D01*
X030750Y001400D01*
X030650Y001500D01*
X030550Y001400D01*
X029750Y001400D01*
X029650Y001500D01*
X029550Y001400D01*
X028750Y001400D01*
X028650Y001500D01*
X028550Y001400D01*
X027750Y001400D01*
X027650Y001500D01*
X027550Y001400D01*
X026750Y001400D01*
X026650Y001500D01*
X026550Y001400D01*
X025650Y001400D01*
X025650Y002400D01*
X026550Y002400D01*
X026650Y002300D01*
X026750Y002400D01*
X027550Y002400D01*
X027650Y002300D01*
X027750Y002400D01*
X028550Y002400D01*
X028650Y002300D01*
X028750Y002400D01*
X029550Y002400D01*
X029650Y002300D01*
X029750Y002400D01*
X030550Y002400D01*
X030650Y002300D01*
X030750Y002400D01*
X031550Y002400D01*
X031650Y002300D01*
X031750Y002400D01*
X032550Y002400D01*
X032650Y002300D01*
X032750Y002400D01*
X033650Y002400D01*
X033650Y001400D01*
X024650Y001400D02*
X023750Y001400D01*
X023650Y001500D01*
X023550Y001400D01*
X022750Y001400D01*
X022650Y001500D01*
X022550Y001400D01*
X021750Y001400D01*
X021650Y001500D01*
X021550Y001400D01*
X020750Y001400D01*
X020650Y001500D01*
X020550Y001400D01*
X019750Y001400D01*
X019650Y001500D01*
X019550Y001400D01*
X018750Y001400D01*
X018650Y001500D01*
X018550Y001400D01*
X017750Y001400D01*
X017650Y001500D01*
X017550Y001400D01*
X016650Y001400D01*
X016650Y002400D01*
X017550Y002400D01*
X017650Y002300D01*
X017750Y002400D01*
X018550Y002400D01*
X018650Y002300D01*
X018750Y002400D01*
X019550Y002400D01*
X019650Y002300D01*
X019750Y002400D01*
X020550Y002400D01*
X020650Y002300D01*
X020750Y002400D01*
X021550Y002400D01*
X021650Y002300D01*
X021750Y002400D01*
X022550Y002400D01*
X022650Y002300D01*
X022750Y002400D01*
X023550Y002400D01*
X023650Y002300D01*
X023750Y002400D01*
X024650Y002400D01*
X024650Y001400D01*
X015650Y001400D02*
X014750Y001400D01*
X014650Y001500D01*
X014550Y001400D01*
X013750Y001400D01*
X013650Y001500D01*
X013550Y001400D01*
X012750Y001400D01*
X012650Y001500D01*
X012550Y001400D01*
X011750Y001400D01*
X011650Y001500D01*
X011550Y001400D01*
X010750Y001400D01*
X010650Y001500D01*
X010550Y001400D01*
X009750Y001400D01*
X009650Y001500D01*
X009550Y001400D01*
X008750Y001400D01*
X008650Y001500D01*
X008550Y001400D01*
X007650Y001400D01*
X007650Y002400D01*
X008550Y002400D01*
X008650Y002300D01*
X008750Y002400D01*
X009550Y002400D01*
X009650Y002300D01*
X009750Y002400D01*
X010550Y002400D01*
X010650Y002300D01*
X010750Y002400D01*
X011550Y002400D01*
X011650Y002300D01*
X011750Y002400D01*
X012550Y002400D01*
X012650Y002300D01*
X012750Y002400D01*
X013550Y002400D01*
X013650Y002300D01*
X013750Y002400D01*
X014550Y002400D01*
X014650Y002300D01*
X014750Y002400D01*
X015650Y002400D01*
X015650Y001400D01*
X015650Y011400D02*
X014750Y011400D01*
X014650Y011500D01*
X014550Y011400D01*
X013750Y011400D01*
X013650Y011500D01*
X013550Y011400D01*
X012750Y011400D01*
X012650Y011500D01*
X012550Y011400D01*
X011750Y011400D01*
X011650Y011500D01*
X011550Y011400D01*
X010750Y011400D01*
X010650Y011500D01*
X010550Y011400D01*
X009750Y011400D01*
X009650Y011500D01*
X009550Y011400D01*
X008750Y011400D01*
X008650Y011500D01*
X008550Y011400D01*
X007650Y011400D01*
X007650Y012400D01*
X008550Y012400D01*
X008650Y012300D01*
X008750Y012400D01*
X009550Y012400D01*
X009650Y012300D01*
X009750Y012400D01*
X010550Y012400D01*
X010650Y012300D01*
X010750Y012400D01*
X011550Y012400D01*
X011650Y012300D01*
X011750Y012400D01*
X012550Y012400D01*
X012650Y012300D01*
X012750Y012400D01*
X013550Y012400D01*
X013650Y012300D01*
X013750Y012400D01*
X014550Y012400D01*
X014650Y012300D01*
X014750Y012400D01*
X015650Y012400D01*
X015650Y011400D01*
X016650Y011400D02*
X017550Y011400D01*
X017650Y011500D01*
X017750Y011400D01*
X018550Y011400D01*
X018650Y011500D01*
X018750Y011400D01*
X019550Y011400D01*
X019650Y011500D01*
X019750Y011400D01*
X020550Y011400D01*
X020650Y011500D01*
X020750Y011400D01*
X021550Y011400D01*
X021650Y011500D01*
X021750Y011400D01*
X022550Y011400D01*
X022650Y011500D01*
X022750Y011400D01*
X023550Y011400D01*
X023650Y011500D01*
X023750Y011400D01*
X024650Y011400D01*
X024650Y012400D01*
X023750Y012400D01*
X023650Y012300D01*
X023550Y012400D01*
X022750Y012400D01*
X022650Y012300D01*
X022550Y012400D01*
X021750Y012400D01*
X021650Y012300D01*
X021550Y012400D01*
X020750Y012400D01*
X020650Y012300D01*
X020550Y012400D01*
X019750Y012400D01*
X019650Y012300D01*
X019550Y012400D01*
X018750Y012400D01*
X018650Y012300D01*
X018550Y012400D01*
X017750Y012400D01*
X017650Y012300D01*
X017550Y012400D01*
X016650Y012400D01*
X016650Y011400D01*
X025650Y011400D02*
X026550Y011400D01*
X026650Y011500D01*
X026750Y011400D01*
X027550Y011400D01*
X027650Y011500D01*
X027750Y011400D01*
X028550Y011400D01*
X028650Y011500D01*
X028750Y011400D01*
X029550Y011400D01*
X029650Y011500D01*
X029750Y011400D01*
X030550Y011400D01*
X030650Y011500D01*
X030750Y011400D01*
X031550Y011400D01*
X031650Y011500D01*
X031750Y011400D01*
X032550Y011400D01*
X032650Y011500D01*
X032750Y011400D01*
X033650Y011400D01*
X033650Y012400D01*
X032750Y012400D01*
X032650Y012300D01*
X032550Y012400D01*
X031750Y012400D01*
X031650Y012300D01*
X031550Y012400D01*
X030750Y012400D01*
X030650Y012300D01*
X030550Y012400D01*
X029750Y012400D01*
X029650Y012300D01*
X029550Y012400D01*
X028750Y012400D01*
X028650Y012300D01*
X028550Y012400D01*
X027750Y012400D01*
X027650Y012300D01*
X027550Y012400D01*
X026750Y012400D01*
X026650Y012300D01*
X026550Y012400D01*
X025650Y012400D01*
X025650Y011400D01*
D12*
X026100Y012525D02*
X026250Y012525D01*
X026325Y012600D01*
X026325Y012675D01*
X026250Y012750D01*
X026100Y012750D01*
X026025Y012675D01*
X026025Y012600D01*
X026100Y012525D01*
X026100Y012750D02*
X026025Y012825D01*
X026025Y012900D01*
X026100Y012975D01*
X026250Y012975D01*
X026325Y012900D01*
X026325Y012825D01*
X026250Y012750D01*
X024325Y012825D02*
X024175Y012975D01*
X024175Y012525D01*
X024325Y012525D02*
X024025Y012525D01*
X021375Y012650D02*
X021300Y012575D01*
X021150Y012575D01*
X021075Y012650D01*
X020915Y012650D02*
X020840Y012575D01*
X020689Y012575D01*
X020614Y012650D01*
X020614Y012950D01*
X020689Y013025D01*
X020840Y013025D01*
X020915Y012950D01*
X020915Y012650D01*
X021375Y012650D02*
X021375Y012950D01*
X021300Y013025D01*
X021150Y013025D01*
X021075Y012950D01*
X020454Y013025D02*
X020154Y012575D01*
X020154Y013025D01*
X019994Y013025D02*
X019994Y012800D01*
X019844Y012875D01*
X019769Y012875D01*
X019694Y012800D01*
X019694Y012650D01*
X019769Y012575D01*
X019919Y012575D01*
X019994Y012650D01*
X020454Y012575D02*
X020454Y013025D01*
X019994Y013025D02*
X019694Y013025D01*
X017325Y012900D02*
X017325Y012825D01*
X017250Y012750D01*
X017100Y012750D01*
X017025Y012675D01*
X017025Y012600D01*
X017100Y012525D01*
X017250Y012525D01*
X017325Y012600D01*
X017325Y012675D01*
X017250Y012750D01*
X017100Y012750D02*
X017025Y012825D01*
X017025Y012900D01*
X017100Y012975D01*
X017250Y012975D01*
X017325Y012900D01*
X015325Y012825D02*
X015175Y012975D01*
X015175Y012525D01*
X015325Y012525D02*
X015025Y012525D01*
X012375Y012650D02*
X012300Y012575D01*
X012150Y012575D01*
X012075Y012650D01*
X011915Y012650D02*
X011840Y012575D01*
X011689Y012575D01*
X011614Y012650D01*
X011614Y012950D01*
X011689Y013025D01*
X011840Y013025D01*
X011915Y012950D01*
X011915Y012650D01*
X011454Y012575D02*
X011454Y013025D01*
X011154Y012575D01*
X011154Y013025D01*
X010994Y012800D02*
X010844Y012950D01*
X010694Y013025D01*
X010769Y012800D02*
X010694Y012725D01*
X010694Y012650D01*
X010769Y012575D01*
X010919Y012575D01*
X010994Y012650D01*
X010994Y012800D01*
X010769Y012800D01*
X012075Y012950D02*
X012150Y013025D01*
X012300Y013025D01*
X012375Y012950D01*
X012375Y012650D01*
X008325Y012600D02*
X008325Y012675D01*
X008250Y012750D01*
X008100Y012750D01*
X008025Y012675D01*
X008025Y012600D01*
X008100Y012525D01*
X008250Y012525D01*
X008325Y012600D01*
X008250Y012750D02*
X008325Y012825D01*
X008325Y012900D01*
X008250Y012975D01*
X008100Y012975D01*
X008025Y012900D01*
X008025Y012825D01*
X008100Y012750D01*
X008100Y002975D02*
X008025Y002900D01*
X008025Y002825D01*
X008100Y002750D01*
X008250Y002750D01*
X008325Y002825D01*
X008325Y002900D01*
X008250Y002975D01*
X008100Y002975D01*
X008100Y002750D02*
X008025Y002675D01*
X008025Y002600D01*
X008100Y002525D01*
X008250Y002525D01*
X008325Y002600D01*
X008325Y002675D01*
X008250Y002750D01*
X010694Y002725D02*
X010694Y002650D01*
X010769Y002575D01*
X010919Y002575D01*
X010994Y002650D01*
X011154Y002575D02*
X011154Y003025D01*
X010994Y002950D02*
X010919Y003025D01*
X010769Y003025D01*
X010694Y002950D01*
X010694Y002875D01*
X010769Y002800D01*
X010694Y002725D01*
X010769Y002800D02*
X010844Y002800D01*
X011154Y002575D02*
X011454Y003025D01*
X011454Y002575D01*
X011614Y002650D02*
X011614Y002950D01*
X011689Y003025D01*
X011840Y003025D01*
X011915Y002950D01*
X011915Y002650D01*
X011840Y002575D01*
X011689Y002575D01*
X011614Y002650D01*
X012075Y002650D02*
X012150Y002575D01*
X012300Y002575D01*
X012375Y002650D01*
X012375Y002950D01*
X012300Y003025D01*
X012150Y003025D01*
X012075Y002950D01*
X015025Y002525D02*
X015325Y002525D01*
X015175Y002525D02*
X015175Y002975D01*
X015325Y002825D01*
X017025Y002825D02*
X017100Y002750D01*
X017250Y002750D01*
X017325Y002825D01*
X017325Y002900D01*
X017250Y002975D01*
X017100Y002975D01*
X017025Y002900D01*
X017025Y002825D01*
X017100Y002750D02*
X017025Y002675D01*
X017025Y002600D01*
X017100Y002525D01*
X017250Y002525D01*
X017325Y002600D01*
X017325Y002675D01*
X017250Y002750D01*
X019694Y002875D02*
X019694Y002950D01*
X019769Y003025D01*
X019919Y003025D01*
X019994Y002950D01*
X020154Y003025D02*
X020154Y002575D01*
X020454Y003025D01*
X020454Y002575D01*
X020614Y002650D02*
X020614Y002950D01*
X020689Y003025D01*
X020840Y003025D01*
X020915Y002950D01*
X020915Y002650D01*
X020840Y002575D01*
X020689Y002575D01*
X020614Y002650D01*
X021075Y002650D02*
X021150Y002575D01*
X021300Y002575D01*
X021375Y002650D01*
X021375Y002950D01*
X021300Y003025D01*
X021150Y003025D01*
X021075Y002950D01*
X019994Y002575D02*
X019694Y002875D01*
X019694Y002575D02*
X019994Y002575D01*
X024025Y002525D02*
X024325Y002525D01*
X024175Y002525D02*
X024175Y002975D01*
X024325Y002825D01*
X026025Y002825D02*
X026100Y002750D01*
X026250Y002750D01*
X026325Y002825D01*
X026325Y002900D01*
X026250Y002975D01*
X026100Y002975D01*
X026025Y002900D01*
X026025Y002825D01*
X026100Y002750D02*
X026025Y002675D01*
X026025Y002600D01*
X026100Y002525D01*
X026250Y002525D01*
X026325Y002600D01*
X026325Y002675D01*
X026250Y002750D01*
X028694Y002575D02*
X028994Y002575D01*
X028844Y002575D02*
X028844Y003025D01*
X028994Y002875D01*
X029154Y003025D02*
X029154Y002575D01*
X029454Y003025D01*
X029454Y002575D01*
X029614Y002650D02*
X029614Y002950D01*
X029689Y003025D01*
X029840Y003025D01*
X029915Y002950D01*
X029915Y002650D01*
X029840Y002575D01*
X029689Y002575D01*
X029614Y002650D01*
X030075Y002650D02*
X030150Y002575D01*
X030300Y002575D01*
X030375Y002650D01*
X030375Y002950D01*
X030300Y003025D01*
X030150Y003025D01*
X030075Y002950D01*
X033025Y002525D02*
X033325Y002525D01*
X033175Y002525D02*
X033175Y002975D01*
X033325Y002825D01*
X033325Y012525D02*
X033025Y012525D01*
X033175Y012525D02*
X033175Y012975D01*
X033325Y012825D01*
X030375Y012950D02*
X030375Y012650D01*
X030300Y012575D01*
X030150Y012575D01*
X030075Y012650D01*
X029915Y012650D02*
X029840Y012575D01*
X029689Y012575D01*
X029614Y012650D01*
X029614Y012950D01*
X029689Y013025D01*
X029840Y013025D01*
X029915Y012950D01*
X029915Y012650D01*
X030075Y012950D02*
X030150Y013025D01*
X030300Y013025D01*
X030375Y012950D01*
X029454Y013025D02*
X029154Y012575D01*
X029154Y013025D01*
X028994Y012800D02*
X028694Y012800D01*
X028769Y012575D02*
X028769Y013025D01*
X028994Y012800D01*
X029454Y012575D02*
X029454Y013025D01*
M02*
