%
M48
M72
T01C0.0240
T02C0.0276
T03C0.0320
T04C0.0354
T05C0.0440
T06C0.1260
%
T01
X8275Y2775
X9588Y3150
X10650Y3213
X12838Y4025
X13775Y4400
X15275Y4713
X15338Y5213
X15900Y5650
X15588Y6400
X12900Y5650
X12525Y6025
X11650Y5838
X10525Y5838
X11650Y5088
X9025Y5588
X8650Y6213
X7150Y6088
X6463Y6213
X5838Y5588
X6463Y5400
X7275Y4588
X7775Y4588
X4775Y4588
X8525Y7463
X10463Y8400
X11150Y7713
X14400Y8400
X15650Y8400
X15088Y9400
X14588Y9650
X15400Y10400
X16025Y9963
X13400Y10400
X12650Y12463
X13400Y12838
X15213Y13525
X16650Y12838
X17150Y12838
X15650Y12463
X19338Y12900
X19900Y13275
X19650Y12463
X22713Y12838
X24150Y12838
X24650Y12838
X26463Y13400
X26963Y13213
X26775Y14588
X26088Y14463
X26338Y15213
X27400Y15150
X29213Y14963
X29900Y15150
X30463Y15588
X30088Y15963
X29713Y16338
X27650Y16400
X26650Y17400
X28275Y18088
X30775Y17713
X31525Y17650
X31525Y18150
X33525Y16213
X34838Y15400
X35588Y14900
X35213Y14463
X36088Y14400
X35775Y13900
X34838Y13838
X36588Y13338
X36150Y12150
X35213Y12150
X34838Y11775
X34463Y11400
X34088Y10400
X33713Y10025
X32963Y10400
X34275Y9400
X35400Y8213
X34650Y7963
X36150Y7838
X38713Y6338
X36400Y5463
X34650Y5650
X34650Y4650
X35025Y4275
X33650Y4650
X32650Y5650
X31525Y5400
X30650Y5400
X32588Y6150
X28588Y8400
X29713Y9463
X29213Y9650
X29400Y10150
X28650Y10150
X26025Y10400
X25650Y10025
X25650Y9463
X24650Y9963
X24338Y10400
X21525Y9900
X21025Y8338
X22775Y7900
X23650Y7463
X24650Y7838
X23775Y8213
X25650Y8400
X21275Y6150
X23213Y5338
X24650Y5275
X24650Y4775
X24150Y4400
X24525Y4025
X23775Y3588
X22713Y3338
X22338Y2713
X24650Y2588
X25650Y2588
X27463Y2838
X28213Y2775
X31275Y3025
X32775Y2650
X34025Y1088
X34525Y1088
X28963Y1025
X27775Y1150
X25650Y900
X21400Y4525
X21963Y4588
X20525Y4775
X18088Y4963
X16525Y4588
X15650Y3213
X15650Y2650
X16650Y2588
X17838Y2713
X13775Y2838
X13275Y2775
X26775Y5838
X27150Y5463
X27525Y4963
X36525Y10400
X36588Y11400
X31525Y13213
X25400Y15150
X24463Y15400
X23775Y15900
X24275Y16275
X22838Y15713
X22338Y16213
X20338Y14963
X19713Y15400
X19525Y14588
X17525Y14963
X15775Y14775
X14650Y14588
X14088Y15088
X12713Y15463
X11775Y15900
X11775Y14463
X9650Y14650
X10400Y12838
X9650Y12463
X7275Y12025
X7150Y11400
X6650Y11400
X6463Y10400
X7650Y10400
X8150Y10400
X4650Y11400
X4650Y12713
X4338Y9775
X14400Y16150
X15588Y16400
X16463Y16213
X19525Y17588
X18775Y18275
X20713Y18338
X25338Y18338
X23775Y14150
X36463Y18025
X38963Y15150
X10338Y18400
X9588Y18338
X9588Y17525
T02
X15150Y16900
X15150Y15900
X4150Y15900
X4150Y16900
X4150Y6900
X4150Y5900
X15150Y5900
X15150Y6900
X26150Y6900
X26150Y5900
X26150Y15900
X26150Y16900
T03
X26150Y11900
X27150Y11900
X28150Y11900
X29150Y11900
X30150Y11900
X31150Y11900
X32150Y11900
X33150Y11900
X24150Y11900
X23150Y11900
X22150Y11900
X21150Y11900
X20150Y11900
X19150Y11900
X18150Y11900
X17150Y11900
X15150Y11900
X14150Y11900
X13150Y11900
X12150Y11900
X11150Y11900
X10150Y11900
X9150Y11900
X8150Y11900
X8150Y1900
X9150Y1900
X10150Y1900
X11150Y1900
X12150Y1900
X13150Y1900
X14150Y1900
X15150Y1900
X17150Y1900
X18150Y1900
X19150Y1900
X20150Y1900
X21150Y1900
X22150Y1900
X23150Y1900
X24150Y1900
X26150Y1900
X27150Y1900
X28150Y1900
X29150Y1900
X30150Y1900
X31150Y1900
X32150Y1900
X33150Y1900
T04
X29150Y7900
X26150Y7900
X18150Y7900
X15150Y7900
X7150Y7900
X4150Y7900
X4150Y17900
X7150Y17900
X15150Y17900
X18150Y17900
X26150Y17900
X29150Y17900
T05
X29150Y16900
X30150Y16900
X31150Y16900
X32150Y16900
X33150Y16900
X34150Y16900
X37650Y15900
X37650Y14900
X37650Y13900
X37650Y12900
X37650Y11400
X37650Y10400
X37650Y9400
X37650Y8400
X37650Y6900
X37650Y5900
X37650Y4900
X37650Y3900
X34150Y3900
X33150Y3900
X32150Y3900
X31150Y3900
X30150Y3900
X29150Y3900
X28150Y3900
X27150Y3900
X23150Y3900
X22150Y3900
X21150Y3900
X20150Y3900
X19150Y3900
X18150Y3900
X17150Y3900
X16150Y3900
X12150Y3900
X11150Y3900
X10150Y3900
X9150Y3900
X8150Y3900
X7150Y3900
X6150Y3900
X5150Y3900
X5150Y6900
X6150Y6900
X7150Y6900
X8150Y6900
X9150Y6900
X10150Y6900
X11150Y6900
X12150Y6900
X16150Y6900
X17150Y6900
X18150Y6900
X19150Y6900
X20150Y6900
X21150Y6900
X22150Y6900
X23150Y6900
X27150Y6900
X28150Y6900
X29150Y6900
X30150Y6900
X31150Y6900
X32150Y6900
X33150Y6900
X34150Y6900
X34150Y13900
X33150Y13900
X32150Y13900
X31150Y13900
X30150Y13900
X29150Y13900
X28150Y13900
X27150Y13900
X23150Y13900
X22150Y13900
X21150Y13900
X20150Y13900
X19150Y13900
X18150Y13900
X17150Y13900
X16150Y13900
X12150Y13900
X11150Y13900
X10150Y13900
X9150Y13900
X8150Y13900
X7150Y13900
X6150Y13900
X5150Y13900
X5150Y16900
X6150Y16900
X7150Y16900
X8150Y16900
X9150Y16900
X10150Y16900
X11150Y16900
X12150Y16900
X16150Y16900
X17150Y16900
X18150Y16900
X19150Y16900
X20150Y16900
X21150Y16900
X22150Y16900
X23150Y16900
X27150Y16900
X28150Y16900
T06
X1650Y1650
X1650Y18150
X38150Y18150
X38150Y1650
M30
