M48
INCH,LZ
;FILE_FORMAT=2:4
;TYPE=PLATED
;Layer: PTH_Through_Via
;EasyEDA v6.5.46, 2026-05-09 11:29:15
;568695e0a8b244a196cd7557b316e252,86b453e9c0f046cc872bd768bb4bcadc,10
;Gerber Generator version 0.2
;Holesize 1 = 0.0120 inch
T01C0.0120
%
G05
G90
T01
X015784Y034600
X050500Y076290
X008550Y050850
X006450Y050850
X026350Y078800
X026350Y078250
X027100Y078500
X027450Y076650
X027100Y075950
X026750Y076650
X025700Y078550
X027100Y076350
X026350Y025850
X017350Y027500
X026350Y027400
X035350Y025900
X017350Y067350
X026350Y065950
X026350Y067350
X035350Y065850
X017350Y047450
X026350Y045900
X026350Y047400
X035350Y045950
X017350Y045900
X035350Y067350
X017350Y025900
X035350Y047400
X035350Y027400
X017350Y005900
X017600Y069750
X025750Y070200
X034650Y070200
X016850Y069650
X034600Y068750
X025700Y068750
X017600Y063850
X026200Y063600
X035200Y063600
X017100Y063400
X016850Y064700
X025850Y064250
X025562Y063300
X034600Y064250
X033150Y063300
X023200Y062900
X032600Y062900
X016650Y063000
X017600Y044000
X035400Y043800
X026450Y043800
X017100Y043650
X034850Y043350
X025850Y043350
X016600Y043250
X024900Y042850
X034250Y042850
X016850Y044600
X034650Y044300
X025650Y044300
X017600Y024000
X026150Y023550
X035300Y023550
X017100Y023500
X034600Y023100
X025400Y023100
X016600Y023150
X032200Y022650
X023400Y022650
X016850Y024750
X025550Y024350
X034350Y024350
X016600Y003400
X024700Y003250
X033500Y003250
X016850Y003800
X025100Y003600
X033850Y003600
X017150Y004150
X025600Y003900
X034400Y003900
X017500Y004600
X035050Y004200
X026400Y004200
X026350Y005950
X017350Y007350
X026350Y007350
X035350Y005950
X017600Y049750
X025735Y050200
X034550Y050200
X016850Y049700
X025700Y048700
X034650Y048700
X017600Y029500
X026600Y029900
X035600Y029900
X016850Y029650
X025850Y028600
X034850Y028600
X017600Y009650
X035400Y009950
X026299Y009950
X016850Y009850
X034800Y008750
X025650Y008750
X048000Y023500
X048000Y044600
X045650Y046950
X047950Y058750
X050800Y006150
X046200Y006100
X043500Y063250
X042350Y023500
X011400Y062250
X015000Y063400
X012500Y063250
X011400Y042750
X014000Y044600
X011950Y044600
X014400Y043650
X012500Y043650
X011400Y023150
X014300Y023500
X012500Y023500
X013650Y025150
X011950Y025400
X027750Y073450
X036400Y073450
X045100Y073500
X049250Y061100
X001400Y072750
X018650Y073350
X020050Y072900
X009350Y073250
X018400Y058950
X017350Y065850
X031950Y043350
X031850Y023100
X035350Y007350
X038200Y007350
X028200Y018600
X015074Y014000
X031000Y063600
X053050Y040850
X040300Y064250
X032724Y054000
X045150Y052250
X031950Y036450
X043000Y029350
X007274Y008004
X006400Y008677
X046500Y008750
X008250Y012300
X050850Y011450
X048650Y030950
X049100Y009750
X052500Y013100
X040300Y010450
X041500Y076550
X032500Y076600
X023500Y076600
X014500Y076000
X005500Y076290
X005500Y066100
X005500Y066550
X005500Y075775
X014500Y076550
X023550Y076000
X032500Y076100
X041500Y076000
X050500Y075900
X050500Y065900
X050500Y066290
X004900Y050850
X034150Y068300
X034100Y048350
X034000Y008350
X025150Y008350
X015940Y008350
X015950Y028100
X024842Y028100
X033200Y028100
X015876Y048350
X024685Y048350
X015798Y068300
X024844Y068300
X005850Y022950
X035350Y017950
X037000Y016500
X026350Y018500
X027950Y016900
X017700Y017700
X019250Y016300
X036700Y036500
X035150Y038150
X018000Y058000
X019600Y056150
X026750Y058100
X028400Y056350
X035550Y058050
X037200Y056250
X044300Y011750
X049100Y021200
X045450Y024350
X045450Y030400
X010071Y032550
X040300Y033050
X001900Y061900
X010050Y033750
X041250Y033400
X016850Y007050
X016850Y006250
X019150Y006250
X019150Y007050
X018000Y006650
X025850Y007050
X025850Y006250
X028150Y006250
X028150Y007050
X027000Y006650
X034850Y007050
X034850Y006250
X036000Y006650
X037150Y006250
X037150Y007050
X016850Y027050
X016850Y026250
X019150Y026250
X019150Y027050
X018000Y026650
X025850Y027050
X025850Y026250
X028150Y026250
X028150Y027050
X027000Y026650
X034850Y027050
X034850Y026250
X036000Y026650
X037150Y027050
X037150Y026250
X016850Y047050
X016850Y046250
X019150Y046250
X019150Y047050
X018000Y046650
X025850Y047050
X025850Y046250
X027000Y046650
X028150Y046250
X028150Y047050
X034850Y047050
X034850Y046250
X037150Y046250
X037150Y047050
X036000Y046650
X034850Y067050
X034850Y066250
X037150Y066250
X037150Y067050
X036000Y066650
X025850Y067050
X028150Y067050
X028150Y066250
X025850Y066250
X027000Y066650
X016850Y067050
X016850Y066250
X019150Y067050
X019150Y066250
X018000Y066650
X003300Y073300
X002400Y073300
X011785Y073640
X020850Y073350
X038500Y073524
X047292Y073840
X002966Y062874
X029870Y073524
X029120Y078480
X029120Y080970
X050623Y062024
X046373Y004927
X051700Y005200
X017216Y054290
X026018Y054490
X020950Y058100
X030000Y058150
X038850Y058050
X034381Y054340
X033400Y035800
X038350Y038400
X045800Y026950
X016970Y014340
X025950Y014674
X020797Y018150
X030650Y018600
X034617Y014340
X038579Y018300
X008000Y046700
X003750Y053600
X002950Y051900
X003100Y048900
X003600Y046700
X003650Y043000
X019250Y034600
X039650Y034000
X042500Y035750
X010200Y020150
X050850Y013600
X039700Y005750
X009350Y014150
X004550Y010708
X006100Y014100
X009750Y005100
X006150Y052400
X006400Y048400
X005850Y020728
X017100Y069150
X034650Y069350
X025800Y069350
X017100Y049150
X025900Y049250
X034850Y049250
X017100Y029000
X025800Y029250
X034850Y029250
X017100Y009450
X034900Y009250
X025700Y009250
X046850Y046650
X045250Y048200
X046850Y061150
X044050Y064000
X042950Y024050
X046850Y024050
X031500Y038250
X031600Y030550
X031600Y029250
M30
