M48
INCH,LZ
;FILE_FORMAT=2:4
;TYPE=PLATED
;Layer: PTH_Through
;EasyEDA v6.5.46, 2026-05-09 11:29:15
;568695e0a8b244a196cd7557b316e252,86b453e9c0f046cc872bd768bb4bcadc,10
;Gerber Generator version 0.2
;Holesize 1 = 0.0120 inch
T01C0.0120
;Holesize 2 = 0.0350 inch
T02C0.0350
;Holesize 3 = 0.0430 inch
T03C0.0430
;Holesize 4 = 0.0470 inch
T04C0.0470
%
G05
G90
T01
X015784Y034600
X050500Y076290
X008550Y050850
X006450Y050850
X026350Y078800
X026350Y078250
X027100Y078500
X027450Y076650
X027100Y075950
X026750Y076650
X025700Y078550
X027100Y076350
X026350Y025850
X017350Y027500
X026350Y027400
X035350Y025900
X017350Y067350
X026350Y065950
X026350Y067350
X035350Y065850
X017350Y047450
X026350Y045900
X026350Y047400
X035350Y045950
X017350Y045900
X035350Y067350
X017350Y025900
X035350Y047400
X035350Y027400
X017350Y005900
X017600Y069750
X025750Y070200
X034650Y070200
X016850Y069650
X034600Y068750
X025700Y068750
X017600Y063850
X026200Y063600
X035200Y063600
X017100Y063400
X016850Y064700
X025850Y064250
X025562Y063300
X034600Y064250
X033150Y063300
X023200Y062900
X032600Y062900
X016650Y063000
X017600Y044000
X035400Y043800
X026450Y043800
X017100Y043650
X034850Y043350
X025850Y043350
X016600Y043250
X024900Y042850
X034250Y042850
X016850Y044600
X034650Y044300
X025650Y044300
X017600Y024000
X026150Y023550
X035300Y023550
X017100Y023500
X034600Y023100
X025400Y023100
X016600Y023150
X032200Y022650
X023400Y022650
X016850Y024750
X025550Y024350
X034350Y024350
X016600Y003400
X024700Y003250
X033500Y003250
X016850Y003800
X025100Y003600
X033850Y003600
X017150Y004150
X025600Y003900
X034400Y003900
X017500Y004600
X035050Y004200
X026400Y004200
X026350Y005950
X017350Y007350
X026350Y007350
X035350Y005950
X017600Y049750
X025735Y050200
X034550Y050200
X016850Y049700
X025700Y048700
X034650Y048700
X017600Y029500
X026600Y029900
X035600Y029900
X016850Y029650
X025850Y028600
X034850Y028600
X017600Y009650
X035400Y009950
X026299Y009950
X016850Y009850
X034800Y008750
X025650Y008750
X048000Y023500
X048000Y044600
X045650Y046950
X047950Y058750
X050800Y006150
X046200Y006100
X043500Y063250
X042350Y023500
X011400Y062250
X015000Y063400
X012500Y063250
X011400Y042750
X014000Y044600
X011950Y044600
X014400Y043650
X012500Y043650
X011400Y023150
X014300Y023500
X012500Y023500
X013650Y025150
X011950Y025400
X027750Y073450
X036400Y073450
X045100Y073500
X049250Y061100
X001400Y072750
X018650Y073350
X020050Y072900
X009350Y073250
X018400Y058950
X017350Y065850
X031950Y043350
X031850Y023100
X035350Y007350
X038200Y007350
X028200Y018600
X015074Y014000
X031000Y063600
X053050Y040850
X040300Y064250
X032724Y054000
X045150Y052250
X031950Y036450
X043000Y029350
X007274Y008004
X006400Y008677
X046500Y008750
X008250Y012300
X050850Y011450
X048650Y030950
X049100Y009750
X052500Y013100
X040300Y010450
X041500Y076550
X032500Y076600
X023500Y076600
X014500Y076000
X005500Y076290
X005500Y066100
X005500Y066550
X005500Y075775
X014500Y076550
X023550Y076000
X032500Y076100
X041500Y076000
X050500Y075900
X050500Y065900
X050500Y066290
X004900Y050850
X034150Y068300
X034100Y048350
X034000Y008350
X025150Y008350
X015940Y008350
X015950Y028100
X024842Y028100
X033200Y028100
X015876Y048350
X024685Y048350
X015798Y068300
X024844Y068300
X005850Y022950
X035350Y017950
X037000Y016500
X026350Y018500
X027950Y016900
X017700Y017700
X019250Y016300
X036700Y036500
X035150Y038150
X018000Y058000
X019600Y056150
X026750Y058100
X028400Y056350
X035550Y058050
X037200Y056250
X044300Y011750
X049100Y021200
X045450Y024350
X045450Y030400
X010071Y032550
X040300Y033050
X001900Y061900
X010050Y033750
X041250Y033400
X016850Y007050
X016850Y006250
X019150Y006250
X019150Y007050
X018000Y006650
X025850Y007050
X025850Y006250
X028150Y006250
X028150Y007050
X027000Y006650
X034850Y007050
X034850Y006250
X036000Y006650
X037150Y006250
X037150Y007050
X016850Y027050
X016850Y026250
X019150Y026250
X019150Y027050
X018000Y026650
X025850Y027050
X025850Y026250
X028150Y026250
X028150Y027050
X027000Y026650
X034850Y027050
X034850Y026250
X036000Y026650
X037150Y027050
X037150Y026250
X016850Y047050
X016850Y046250
X019150Y046250
X019150Y047050
X018000Y046650
X025850Y047050
X025850Y046250
X027000Y046650
X028150Y046250
X028150Y047050
X034850Y047050
X034850Y046250
X037150Y046250
X037150Y047050
X036000Y046650
X034850Y067050
X034850Y066250
X037150Y066250
X037150Y067050
X036000Y066650
X025850Y067050
X028150Y067050
X028150Y066250
X025850Y066250
X027000Y066650
X016850Y067050
X016850Y066250
X019150Y067050
X019150Y066250
X018000Y066650
X003300Y073300
X002400Y073300
X011785Y073640
X020850Y073350
X038500Y073524
X047292Y073840
X002966Y062874
X029870Y073524
X029120Y078480
X029120Y080970
X050623Y062024
X046373Y004927
X051700Y005200
X017216Y054290
X026018Y054490
X020950Y058100
X030000Y058150
X038850Y058050
X034381Y054340
X033400Y035800
X038350Y038400
X045800Y026950
X016970Y014340
X025950Y014674
X020797Y018150
X030650Y018600
X034617Y014340
X038579Y018300
X008000Y046700
X003750Y053600
X002950Y051900
X003100Y048900
X003600Y046700
X003650Y043000
X019250Y034600
X039650Y034000
X042500Y035750
X010200Y020150
X050850Y013600
X039700Y005750
X009350Y014150
X004550Y010708
X006100Y014100
X009750Y005100
X006150Y052400
X006400Y048400
X005850Y020728
X017100Y069150
X034650Y069350
X025800Y069350
X017100Y049150
X025900Y049250
X034850Y049250
X017100Y029000
X025800Y029250
X034850Y029250
X017100Y009450
X034900Y009250
X025700Y009250
X046850Y046650
X045250Y048200
X046850Y061150
X044050Y064000
X042950Y024050
X046850Y024050
X031500Y038250
X031600Y030550
X031600Y029250
T02
X014500Y061500
X015500Y061500
X016500Y061500
X017500Y061500
X018500Y061500
X019500Y061500
X020500Y061500
X021500Y061500
X014500Y071500
X015500Y071500
X016500Y071500
X017500Y071500
X018500Y071500
X019500Y071500
X020500Y071500
X021500Y071500
X023500Y061500
X024500Y061500
X025500Y061500
X026500Y061500
X027500Y061500
X028500Y061500
X029500Y061500
X030500Y061500
X023500Y071500
X024500Y071500
X025500Y071500
X026500Y071500
X027500Y071500
X028500Y071500
X029500Y071500
X030500Y071500
X032500Y061500
X033500Y061500
X034500Y061500
X035500Y061500
X036500Y061500
X037500Y061500
X038500Y061500
X039500Y061500
X032500Y071500
X033500Y071500
X034500Y071500
X035500Y071500
X036500Y071500
X037500Y071500
X038500Y071500
X039500Y071500
X014500Y041500
X015500Y041500
X016500Y041500
X017500Y041500
X018500Y041500
X019500Y041500
X020500Y041500
X021500Y041500
X014500Y051500
X015500Y051500
X016500Y051500
X017500Y051500
X018500Y051500
X019500Y051500
X020500Y051500
X021500Y051500
X023500Y041500
X024500Y041500
X025500Y041500
X026500Y041500
X027500Y041500
X028500Y041500
X029500Y041500
X030500Y041500
X023500Y051500
X024500Y051500
X025500Y051500
X026500Y051500
X027500Y051500
X028500Y051500
X029500Y051500
X030500Y051500
X032500Y041500
X033500Y041500
X034500Y041500
X035500Y041500
X036500Y041500
X037500Y041500
X038500Y041500
X039500Y041500
X032500Y051500
X033500Y051500
X034500Y051500
X035500Y051500
X036500Y051500
X037500Y051500
X038500Y051500
X039500Y051500
X014500Y021500
X015500Y021500
X016500Y021500
X017500Y021500
X018500Y021500
X019500Y021500
X020500Y021500
X021500Y021500
X014500Y031500
X015500Y031500
X016500Y031500
X017500Y031500
X018500Y031500
X019500Y031500
X020500Y031500
X021500Y031500
X023500Y021500
X024500Y021500
X025500Y021500
X026500Y021500
X027500Y021500
X028500Y021500
X029500Y021500
X030500Y021500
X023500Y031500
X024500Y031500
X025500Y031500
X026500Y031500
X027500Y031500
X028500Y031500
X029500Y031500
X030500Y031500
X032500Y021500
X033500Y021500
X034500Y021500
X035500Y021500
X036500Y021500
X037500Y021500
X038500Y021500
X039500Y021500
X032500Y031500
X033500Y031500
X034500Y031500
X035500Y031500
X036500Y031500
X037500Y031500
X038500Y031500
X039500Y031500
X014500Y001500
X015500Y001500
X016500Y001500
X017500Y001500
X018500Y001500
X019500Y001500
X020500Y001500
X021500Y001500
X014500Y011500
X015500Y011500
X016500Y011500
X017500Y011500
X018500Y011500
X019500Y011500
X020500Y011500
X021500Y011500
X023500Y001500
X024500Y001500
X025500Y001500
X026500Y001500
X027500Y001500
X028500Y001500
X029500Y001500
X030500Y001500
X023500Y011500
X024500Y011500
X025500Y011500
X026500Y011500
X027500Y011500
X028500Y011500
X029500Y011500
X030500Y011500
X032500Y001500
X033500Y001500
X034500Y001500
X035500Y001500
X036500Y001500
X037500Y001500
X038500Y001500
X039500Y001500
X032500Y011500
X033500Y011500
X034500Y011500
X035500Y011500
X036500Y011500
X037500Y011500
X038500Y011500
X039500Y011500
T03
X017350Y038850
X018350Y038850
X017350Y037850
X018350Y037850
X017350Y036850
X018350Y036850
X017350Y035850
X018350Y035850
T04
X004400Y007050
X005400Y007050
X006400Y007050
X007400Y007050
X008400Y007050
X009400Y007050
X001400Y002500
X002400Y002500
X003400Y002500
X004400Y002500
X005400Y002500
X006400Y002500
X007400Y002500
X008400Y002500
X009400Y002500
X010400Y002500
X011400Y002500
X012400Y002500
X041650Y002450
X042650Y002450
X043650Y002450
X044650Y002450
X045650Y002450
X046650Y002450
X047650Y002450
X048650Y002450
X049650Y002450
X050650Y002450
X051650Y002450
X052650Y002450
X044250Y027000
X044250Y028000
X044250Y029000
X044250Y030000
X044250Y031000
X044250Y032000
X044250Y033000
X044250Y034000
X044250Y035000
X044250Y036000
X044250Y037000
X044250Y038000
X044250Y039000
X044250Y040000
X044250Y041000
X044250Y042000
X044250Y043000
X044250Y044000
X044250Y045000
X044250Y046000
X049750Y027000
X049750Y028000
X049750Y029000
X049750Y030000
X049750Y031000
X049750Y032000
X049750Y033000
X049750Y034000
X049750Y035000
X049750Y036000
X049750Y037000
X049750Y038000
X049750Y039000
X049750Y040000
X049750Y041000
X049750Y042000
X049750Y043000
X049750Y044000
X049750Y045000
X049750Y046000
X003850Y017200
X004850Y017200
X005850Y017200
X006850Y017200
X045000Y006800
X046000Y006800
X047000Y006800
X048000Y006800
X049000Y006800
X050000Y006800
M30
