G04 Layer: TopLayer*
G04 EasyEDA v6.5.46, 2026-05-09 11:29:15*
G04 568695e0a8b244a196cd7557b316e252,86b453e9c0f046cc872bd768bb4bcadc,10*
G04 Gerber Generator version 0.2*
G04 Scale: 100 percent, Rotated: No, Reflected: No *
G04 Dimensions in inches *
G04 leading zeros omitted , absolute positions ,3 integer and 6 decimal *
%FSLAX36Y36*%
%MOIN*%

%ADD10C,0.0100*%
%ADD11C,0.0079*%
%ADD12C,0.0300*%
%ADD13C,0.0080*%
%ADD14C,0.1000*%
%ADD15R,0.0394X0.0433*%
%ADD16R,0.0475X0.0475*%
%ADD17R,0.4130X0.3299*%
%ADD18R,0.0116X0.3299*%
%ADD19R,0.0591X0.1380*%
%ADD20R,0.0433X0.0394*%
%ADD21R,0.0256X0.0236*%
%ADD22R,0.0236X0.0256*%
%ADD23R,0.0457X0.0571*%
%ADD24R,0.0276X0.0492*%
%ADD25R,0.2441X0.0984*%
%ADD26O,0.015747999999999998X0.059054999999999996*%
%ADD27R,0.0217X0.0394*%
%ADD28R,0.0748X0.0472*%
%ADD29R,0.0415X0.0325*%
%ADD30R,0.0240X0.0110*%
%ADD31R,0.0110X0.0240*%
%ADD32R,0.0390X0.0430*%
%ADD33R,0.0115X0.0205*%
%ADD34R,0.0591X0.1181*%
%ADD35C,0.0709*%
%ADD36R,0.0709X0.0709*%
%ADD37R,0.0630X0.0630*%
%ADD38C,0.0630*%
%ADD39R,0.0620X0.0620*%
%ADD40C,0.0620*%
%ADD41C,0.0240*%

%LPD*%
D10*
X2610500Y783060D02*
G01*
X2610500Y884499D01*
X2570000Y925000D01*
X2585100Y783099D02*
G01*
X2585000Y855000D01*
X2565000Y875000D01*
X1710500Y4783099D02*
G01*
X1710000Y4915000D01*
X2610500Y4783060D02*
G01*
X2610500Y4904499D01*
X2590000Y4925000D01*
X3510500Y4783060D02*
G01*
X3510500Y4899499D01*
X3485000Y4925000D01*
X3510500Y6783060D02*
G01*
X3510500Y6889499D01*
X3465000Y6935000D01*
X1710500Y783099D02*
G01*
X1710000Y945000D01*
X4685000Y6115000D02*
G01*
X4685000Y6120000D01*
X4405000Y6400000D01*
X2610399Y6783099D02*
G01*
X2610000Y6905000D01*
X2580000Y6935000D01*
X3160000Y3055000D02*
G01*
X3160000Y2925000D01*
X3717399Y3840000D02*
G01*
X3717399Y3887600D01*
X3690000Y3915000D01*
X3205000Y3915000D01*
X3150000Y3860000D01*
X3150000Y3825000D01*
X3630000Y3794198D02*
G01*
X3630000Y3815000D01*
X3655000Y3840000D01*
X3717440Y3840000D01*
D11*
X4295000Y2405000D02*
G01*
X4685000Y2405000D01*
D10*
X4685000Y4665000D02*
G01*
X4530000Y4820000D01*
X4525000Y4820000D01*
X3510448Y783110D02*
G01*
X3510448Y904551D01*
X3490000Y925000D01*
X3510450Y2783110D02*
G01*
X3510450Y2899549D01*
X3485000Y2925000D01*
X2610450Y2783110D02*
G01*
X2610450Y2894549D01*
X2580000Y2925000D01*
X1710399Y2783099D02*
G01*
X1710000Y2900000D01*
X1710448Y6783110D02*
G01*
X1710448Y6915000D01*
X1710000Y6915000D01*
D12*
X935000Y1612561D02*
G01*
X935000Y1415000D01*
X1020000Y2015000D02*
G01*
X1000000Y2015000D01*
X935000Y2080000D01*
X935000Y2080000D01*
X935000Y1415000D02*
G01*
X935000Y1331493D01*
X720000Y4730000D02*
G01*
X717078Y4732925D01*
X620000Y4732925D01*
X453998Y5415000D02*
G01*
X573539Y5415000D01*
X577597Y5419061D01*
D11*
X604499Y4802597D02*
G01*
X620000Y4787100D01*
D10*
X604499Y4802597D02*
G01*
X620000Y4787100D01*
X620000Y4732925D01*
D12*
X620000Y4732925D02*
G01*
X620000Y4710000D01*
X655749Y4674247D01*
X655749Y4555000D01*
X445000Y4360000D02*
G01*
X635000Y4360000D01*
X655749Y4380752D01*
X655749Y4555000D01*
X655749Y4555000D02*
G01*
X655749Y3644250D01*
X840000Y3460000D01*
X1578405Y3460000D01*
X453998Y5415000D02*
G01*
X543998Y5505000D01*
X880000Y5505000D01*
X940000Y5445000D01*
X945000Y4670000D01*
X830000Y4555000D01*
X655749Y4555000D01*
X840000Y3460000D02*
G01*
X840000Y2992559D01*
X1796201Y3460000D02*
G01*
X1772560Y3460000D01*
X1925000Y3460000D01*
X1578405Y3460000D02*
G01*
X1717439Y3460000D01*
X585000Y2295000D02*
G01*
X585000Y3370000D01*
X210000Y3745000D01*
X210000Y5025000D01*
X265000Y5080000D01*
X485000Y5080000D01*
X490000Y5085000D01*
D11*
X550000Y7628960D02*
G01*
X550000Y7535000D01*
X540000Y7525000D01*
X477559Y7525000D01*
X4977560Y7515000D02*
G01*
X5015000Y7515000D01*
X5049989Y7549989D01*
X5049989Y7628971D01*
X5050000Y6590000D02*
G01*
X5050000Y6628998D01*
X4982597Y6530000D02*
G01*
X5030000Y6530000D01*
X5050000Y6550000D01*
X5050000Y6590000D01*
D12*
X782559Y5085000D02*
G01*
X855000Y5085000D01*
X645000Y5085000D02*
G01*
X727440Y5085000D01*
D10*
X1665000Y6300000D02*
G01*
X1410000Y6300000D01*
X1335000Y6225000D01*
X1140000Y6225000D01*
D11*
X4235000Y2350000D02*
G01*
X4800000Y2350000D01*
D10*
X4800000Y4460000D02*
G01*
X4565000Y4695000D01*
X1685050Y4783110D02*
G01*
X1685050Y4864949D01*
X1655000Y4895000D01*
X1655000Y4940000D01*
X1685000Y4970000D01*
D11*
X738000Y413699D02*
G01*
X886300Y413699D01*
X940000Y360000D01*
X940000Y250000D01*
D10*
X2713100Y6546900D02*
G01*
X2715000Y6545000D01*
X2715000Y6340000D01*
X2640000Y6265000D01*
X2530000Y6265000D01*
X2450000Y6185000D01*
X2450000Y6150000D01*
X2738800Y6546900D02*
G01*
X2738800Y6308699D01*
X2670100Y6240000D01*
X2600000Y6240000D01*
X2550000Y6190000D01*
X2550000Y6150000D01*
X2687500Y6546900D02*
G01*
X2687500Y6377500D01*
X2605000Y6295000D01*
X2445000Y6295000D01*
X2350000Y6200000D01*
X2350000Y6150000D01*
X2764399Y6546900D02*
G01*
X2764399Y6279400D01*
X2700000Y6215000D01*
X2665000Y6215000D01*
X2650000Y6200000D01*
X2650000Y6150000D01*
X1710749Y6546889D02*
G01*
X1710749Y6494250D01*
X1725000Y6480000D01*
X1725000Y6355000D01*
X1710000Y6340000D01*
X1659549Y6546889D02*
G01*
X1659549Y6504549D01*
X1645000Y6490000D01*
X1645000Y6320000D01*
X1665000Y6300000D01*
X1659549Y6305450D02*
G01*
X1665000Y6300000D01*
D11*
X5275000Y255000D02*
G01*
X5275000Y329998D01*
X5144058Y460940D01*
X4803018Y460940D01*
X4803018Y476689D02*
G01*
X4895000Y476689D01*
X5000000Y581689D01*
X5000000Y680000D01*
D10*
X825000Y1230000D02*
G01*
X825000Y1300000D01*
X856500Y1331500D01*
X935000Y1331500D01*
X935000Y1148499D02*
G01*
X935000Y1268503D01*
X5085000Y1013510D02*
G01*
X5085000Y913499D01*
X640000Y4840000D02*
G01*
X604499Y4840000D01*
X604499Y4877399D01*
X565500Y4802600D02*
G01*
X565500Y4840000D01*
X640000Y4840000D01*
X615000Y5300949D02*
G01*
X615000Y5240000D01*
X2534049Y2546889D02*
G01*
X2534049Y2665000D01*
D13*
X1045000Y505000D02*
G01*
X1040000Y510000D01*
X975000Y510000D01*
D10*
X517600Y1070799D02*
G01*
X455000Y1070799D01*
X653299Y1410000D02*
G01*
X610000Y1410000D01*
X4025000Y627440D02*
G01*
X4025000Y590000D01*
X4010000Y575000D01*
X3970000Y575000D01*
D12*
X5085000Y1262559D02*
G01*
X5085000Y1360000D01*
D13*
X4250000Y3575000D02*
G01*
X4250000Y4060000D01*
X4290000Y4100000D01*
X4425000Y4100000D01*
X3195000Y3645000D02*
G01*
X3195000Y3750000D01*
X3207500Y3750000D01*
X365000Y4360000D02*
G01*
X365000Y4300000D01*
X363510Y4725000D02*
G01*
X360000Y4721489D01*
X360000Y4670000D01*
X310000Y4970000D02*
G01*
X310000Y4890000D01*
X366001Y5185000D02*
G01*
X361001Y5190000D01*
X295000Y5190000D01*
X375999Y5415000D02*
G01*
X375000Y5414000D01*
X375000Y5360000D01*
X800000Y4730000D02*
G01*
X800000Y4670000D01*
X3807560Y1830000D02*
G01*
X3857888Y1830000D01*
D10*
X3461706Y1433998D02*
G01*
X3510000Y1433998D01*
D13*
X2992560Y1860000D02*
G01*
X3065000Y1860000D01*
X2022560Y1815000D02*
G01*
X2085000Y1815000D01*
D11*
X2595000Y1467440D02*
G01*
X2530000Y1467440D01*
D10*
X1697017Y1433998D02*
G01*
X1740000Y1433998D01*
D13*
X3772560Y3840000D02*
G01*
X3835000Y3840000D01*
D10*
X3340000Y3580000D02*
G01*
X3396000Y3580000D01*
X3400000Y3583998D01*
D13*
X3434049Y6546889D02*
G01*
X3432758Y6548182D01*
X3432758Y6665000D01*
D10*
X3438046Y5433998D02*
G01*
X3490000Y5433998D01*
D13*
X3812560Y5805000D02*
G01*
X3885000Y5805000D01*
X2942560Y5815000D02*
G01*
X3000000Y5815000D01*
X2042560Y5810000D02*
G01*
X2095000Y5810000D01*
D10*
X2601792Y5448998D02*
G01*
X2640000Y5448998D01*
X1721649Y5428998D02*
G01*
X1765000Y5428998D01*
D13*
X5112560Y520000D02*
G01*
X5170000Y520000D01*
D11*
X4637307Y492692D02*
G01*
X4625000Y505000D01*
X4585000Y505000D01*
X4567399Y522600D01*
X4567399Y550000D01*
D10*
X5062340Y6202440D02*
G01*
X5005000Y6202440D01*
X5105000Y6203998D02*
G01*
X5103441Y6202440D01*
X5062340Y6202440D01*
X5105000Y6256001D02*
G01*
X5103450Y6257550D01*
X5005000Y6257550D01*
X4925000Y6257561D02*
G01*
X4925011Y6257550D01*
X5005000Y6257550D01*
D11*
X2987015Y7352440D02*
G01*
X2935000Y7352440D01*
X296642Y6287440D02*
G01*
X230000Y6287440D01*
X4729156Y7383998D02*
G01*
X4780000Y7383998D01*
X3850000Y7352440D02*
G01*
X3790000Y7352440D01*
X2084499Y7374000D02*
G01*
X2085000Y7335000D01*
X1178535Y7363998D02*
G01*
X1220000Y7363998D01*
D10*
X240000Y7372440D02*
G01*
X240000Y7330000D01*
X330000Y7369000D02*
G01*
X330000Y7330000D01*
X135000Y6287399D02*
G01*
X135000Y6265000D01*
X190000Y6210000D01*
X190000Y6190000D01*
X4545000Y2432500D02*
G01*
X4545000Y3037500D01*
X4425000Y3300000D02*
G01*
X4290000Y3300000D01*
X4170000Y3180000D01*
X4170000Y2360000D01*
X4285000Y2245000D01*
X4780000Y2245000D01*
X4910000Y2120000D01*
X3717399Y5670799D02*
G01*
X3720000Y5668200D01*
X3720000Y5625000D01*
X3555000Y5737559D02*
G01*
X3555000Y5805000D01*
X2837399Y5680799D02*
G01*
X2840000Y5678200D01*
X2840000Y5635000D01*
X2675000Y5742550D02*
G01*
X2675000Y5810000D01*
X1957399Y5660799D02*
G01*
X1960000Y5658200D01*
X1960000Y5615000D01*
X1800000Y5717559D02*
G01*
X1800000Y5800000D01*
X3667399Y3695799D02*
G01*
X3670000Y3693200D01*
X3670000Y3650000D01*
X3515000Y3752559D02*
G01*
X3515000Y3815000D01*
X1922399Y1675799D02*
G01*
X1925000Y1673200D01*
X1925000Y1630000D01*
X1770000Y1707559D02*
G01*
X1770000Y1770000D01*
X1885000Y1774200D02*
G01*
X1885000Y1860000D01*
X1865000Y1880000D01*
X1595000Y1880000D01*
X1350000Y1635000D01*
X1350000Y1095000D01*
X1460000Y985000D01*
X1685000Y985000D01*
X2797399Y1730799D02*
G01*
X2795000Y1728400D01*
X2795000Y1690000D01*
X2635000Y1797550D02*
G01*
X2635000Y1850000D01*
X3697399Y1690799D02*
G01*
X3700000Y1688200D01*
X3700000Y1650000D01*
X3535000Y1747559D02*
G01*
X3535000Y1795000D01*
X2484350Y6830000D02*
G01*
X2515000Y6830000D01*
X2533800Y6811199D01*
X2533800Y6783099D01*
X1579819Y6830000D02*
G01*
X1620000Y6830000D01*
X1633800Y6816199D01*
X1633800Y6783099D01*
X2468517Y4835000D02*
G01*
X2520000Y4835000D01*
X2533800Y4821199D01*
X2533800Y4783099D01*
X1587564Y4835000D02*
G01*
X1605000Y4835000D01*
X1633800Y4806199D01*
X1633800Y4783099D01*
X3320000Y2810000D02*
G01*
X3320000Y2810000D01*
X3337100Y2827100D01*
X3427899Y2827100D01*
X3320000Y2772600D02*
G01*
X3320000Y2810000D01*
X3427899Y2827100D02*
G01*
X3433800Y2821199D01*
X3433800Y2783099D01*
X2484227Y2810000D02*
G01*
X2525000Y2810000D01*
X2533800Y2801199D01*
X2533800Y2783099D01*
X1595000Y2810000D02*
G01*
X1630000Y2810000D01*
X1633798Y2806201D01*
X1633798Y2783101D01*
X1594035Y835000D02*
G01*
X1570000Y835000D01*
X1550000Y815000D01*
X1550000Y777500D01*
X3400000Y835000D02*
G01*
X3425000Y835000D01*
X3433750Y826250D01*
X3433750Y783110D01*
X3410000Y4835000D02*
G01*
X3433798Y4811201D01*
X3433798Y4783101D01*
X474299Y4555000D02*
G01*
X474299Y4644200D01*
X585500Y4755400D01*
X585500Y4802600D01*
D12*
X535824Y5185000D02*
G01*
X489394Y5139175D01*
X489394Y4970000D01*
X444000Y5185000D02*
G01*
X635000Y5185000D01*
X652399Y5202399D01*
X652399Y5301001D01*
X577600Y5300952D02*
G01*
X575109Y5298456D01*
X575109Y5185000D01*
D10*
X390000Y4970000D02*
G01*
X540000Y4970000D01*
X545500Y4802597D02*
G01*
X517597Y4802597D01*
X505000Y4790000D01*
X505000Y4740000D01*
X490000Y4725000D01*
X426498Y4725000D01*
D12*
X620000Y4970000D02*
G01*
X765000Y4970000D01*
X800000Y4935000D01*
X800000Y4730000D01*
D11*
X540000Y4970000D02*
G01*
X545500Y4964502D01*
X545500Y4877402D01*
X620000Y4970000D02*
G01*
X604499Y4954502D01*
X604499Y4877402D01*
X585500Y4877402D02*
G01*
X545500Y4877402D01*
D10*
X2820000Y1860000D02*
G01*
X2937439Y1860000D01*
X5057439Y520000D02*
G01*
X5014139Y476700D01*
X4981289Y476700D01*
D13*
X1040000Y572600D02*
G01*
X977399Y572600D01*
X940000Y610000D01*
X940000Y705000D01*
D11*
X3250000Y7610000D02*
G01*
X3250000Y7660000D01*
D10*
X425000Y6320000D02*
G01*
X422440Y6322559D01*
X422440Y6520000D01*
D11*
X135000Y6342561D02*
G01*
X135010Y6342550D01*
X230000Y6342550D01*
X345000Y6293998D02*
G01*
X338440Y6287440D01*
X296642Y6287440D01*
X345000Y6346001D02*
G01*
X341549Y6342550D01*
X230000Y6342550D01*
D10*
X350000Y6628899D02*
G01*
X350000Y6540000D01*
X370000Y6520000D01*
X422399Y6520000D01*
X477600Y6520000D02*
G01*
X525000Y6520000D01*
X550000Y6545000D01*
X550000Y6628899D01*
X4030000Y1045000D02*
G01*
X4030000Y740970D01*
X4009515Y720484D01*
X4975000Y3700000D02*
G01*
X5075000Y3700000D01*
X5250000Y3525000D01*
X5250000Y1310000D01*
X4800000Y680000D02*
G01*
X4800000Y865000D01*
X4910000Y975000D01*
X4865000Y3095000D02*
G01*
X4865000Y3160000D01*
X4825000Y3200000D01*
X4425000Y3200000D01*
X935000Y1081498D02*
G01*
X1075000Y1081498D01*
X1075000Y3305000D01*
X1145000Y3375000D01*
X3940000Y3375000D01*
X3965000Y3400000D01*
X4650000Y875000D02*
G01*
X4675000Y875000D01*
X4700000Y850000D01*
X4700000Y680000D01*
X640000Y867663D02*
G01*
X640000Y705000D01*
D11*
X840000Y705000D02*
G01*
X845000Y710000D01*
X845000Y1005000D01*
X921498Y1081498D01*
X935000Y1081498D01*
D10*
X727399Y800439D02*
G01*
X727399Y717600D01*
X740000Y705000D01*
X576700Y980000D02*
G01*
X614936Y980000D01*
X640000Y954936D01*
X543299Y980000D02*
G01*
X530000Y980000D01*
X517600Y992399D01*
X517600Y1070799D01*
X686700Y1410000D02*
G01*
X707860Y1410000D01*
X727399Y1390461D01*
X653299Y1410000D02*
G01*
X652600Y1475799D01*
X585000Y1918299D02*
G01*
X585000Y1720000D01*
X592399Y1070799D02*
G01*
X592399Y1042600D01*
X640000Y995000D01*
X640000Y867663D01*
X555000Y1169200D02*
G01*
X555000Y1600000D01*
X585000Y1630000D01*
X585000Y1720000D01*
X727399Y1475799D02*
G01*
X727399Y800439D01*
X690000Y1574200D02*
G01*
X690000Y1715000D01*
X685000Y1720000D01*
X3262559Y3750000D02*
G01*
X3270000Y3742559D01*
X3270000Y3637550D01*
X3270000Y3637548D02*
G01*
X3270000Y3622002D01*
X3283998Y3635999D01*
X3400000Y3635999D01*
X3270000Y3582438D02*
G01*
X3272439Y3580000D01*
X3340000Y3580000D01*
X3480000Y3610000D02*
G01*
X3505000Y3610000D01*
X3552600Y3562399D01*
X3590000Y3562399D01*
X3590000Y3617561D02*
G01*
X3592597Y3620160D01*
X3592597Y3695801D01*
X3515000Y3697438D02*
G01*
X3516640Y3695801D01*
X3592597Y3695801D01*
X4515000Y5225000D02*
G01*
X4850000Y4890000D01*
X4850000Y3545000D01*
X4895000Y3500000D01*
X4975000Y3500000D01*
X3222399Y5490000D02*
G01*
X3222399Y5422600D01*
X3245000Y5400000D01*
X3272399Y5400000D01*
X3680000Y5769200D02*
G01*
X3680000Y5910000D01*
X3730000Y5960000D01*
X4075000Y5960000D01*
X4175000Y6060000D01*
X4175000Y6280000D01*
X4030000Y6425000D01*
X2407449Y5510000D02*
G01*
X2407449Y5422550D01*
X2485000Y5345000D01*
X5240000Y5345000D01*
X5305000Y5280000D01*
X5305000Y4085000D01*
X2800000Y5779200D02*
G01*
X2800000Y5905000D01*
X2865000Y5970000D01*
X3105000Y5970000D01*
X3155000Y6020000D01*
X3155000Y6305000D01*
X3100000Y6360000D01*
X1492399Y1490000D02*
G01*
X1475000Y1490000D01*
X1475000Y1420000D01*
X1495000Y1400000D01*
X1507399Y1400000D01*
X1885000Y1774198D02*
G01*
X1885000Y1800000D01*
X1900000Y1815000D01*
X1967440Y1815000D01*
X1770000Y1652438D02*
G01*
X1770000Y1610000D01*
X1782437Y1597561D01*
X1850000Y1597561D01*
X1850000Y1597561D02*
G01*
X1847597Y1599960D01*
X1847597Y1675801D01*
X1820000Y1460000D02*
G01*
X1840000Y1460000D01*
X1850000Y1470000D01*
X1850000Y1542438D01*
X1547560Y1490000D02*
G01*
X1549998Y1487561D01*
X1640000Y1487561D01*
X1640000Y1432440D02*
G01*
X1641558Y1433998D01*
X1697017Y1433998D01*
X1640000Y1487559D02*
G01*
X1641558Y1486001D01*
X1740000Y1486001D01*
X2760000Y1829198D02*
G01*
X2790801Y1860000D01*
X2820000Y1860000D01*
X2377500Y1520000D02*
G01*
X2320000Y1520000D01*
X2245000Y1595000D01*
X2245000Y3230000D01*
X2320000Y3305000D01*
X3960000Y3305000D01*
X4075000Y3420000D01*
X4075000Y4110000D01*
X4160000Y4195000D01*
X4420000Y4195000D01*
X4425000Y4200000D01*
X3947597Y735000D02*
G01*
X3995000Y735000D01*
X4025000Y705000D01*
X4025000Y682559D01*
X3820000Y735000D02*
G01*
X3892439Y735000D01*
X3536049Y783110D02*
G01*
X3535000Y782060D01*
X3535000Y735000D01*
X4975000Y3800000D02*
G01*
X5140000Y3800000D01*
X5195000Y3855000D01*
X5195000Y5240000D01*
X5135000Y5300000D01*
X1595000Y5300000D01*
X1522439Y5372559D01*
X1522439Y5495000D01*
X3660000Y1789200D02*
G01*
X3660000Y1880000D01*
X3605000Y1935000D01*
X3195000Y1935000D01*
X3150000Y1980000D01*
X3150000Y2275000D01*
X3185000Y2310000D01*
X3237399Y1490000D02*
G01*
X3237399Y1382600D01*
X3310000Y1310000D01*
X4975000Y1310000D01*
X5130000Y1465000D01*
X5130000Y3550000D01*
X5080000Y3600000D01*
X4975000Y3600000D01*
X3660000Y1789198D02*
G01*
X3660000Y1810000D01*
X3680000Y1830000D01*
X3752440Y1830000D01*
X3535000Y1692438D02*
G01*
X3536640Y1690801D01*
X3622597Y1690801D01*
X3620000Y1602561D02*
G01*
X3622597Y1605160D01*
X3622597Y1690801D01*
X3590000Y1460000D02*
G01*
X3600000Y1460000D01*
X3620000Y1480000D01*
X3620000Y1547438D01*
X3292559Y1490000D02*
G01*
X3294998Y1487559D01*
X3400000Y1487559D01*
X3400000Y1432440D02*
G01*
X3401558Y1433998D01*
X3461706Y1433998D01*
X3400000Y1487559D02*
G01*
X3401558Y1486001D01*
X3510000Y1486001D01*
X2635000Y1742438D02*
G01*
X2646640Y1730801D01*
X2722597Y1730801D01*
X2725000Y1642548D02*
G01*
X2722597Y1644951D01*
X2722597Y1730801D01*
D11*
X2725000Y1490000D02*
G01*
X2725000Y1587438D01*
X2432559Y1520000D02*
G01*
X2435109Y1522550D01*
X2530000Y1522550D01*
X2530000Y1522550D02*
G01*
X2536549Y1516001D01*
X2645000Y1516001D01*
X2645000Y1463998D02*
G01*
X2641558Y1467440D01*
X2595000Y1467440D01*
D10*
X1736350Y6546889D02*
G01*
X1736350Y6583649D01*
X1735000Y6585000D01*
X1920000Y5759198D02*
G01*
X1920000Y5835000D01*
X1860000Y5895000D01*
X1840000Y5895000D01*
X1920000Y5759198D02*
G01*
X1920000Y5785000D01*
X1945000Y5810000D01*
X1987440Y5810000D01*
X1800000Y5662438D02*
G01*
X1801640Y5660801D01*
X1882597Y5660801D01*
X1880000Y5587561D02*
G01*
X1882597Y5590160D01*
X1882597Y5660801D01*
X1845000Y5455000D02*
G01*
X1865000Y5455000D01*
X1880000Y5470000D01*
X1880000Y5532438D01*
X1577559Y5495000D02*
G01*
X1579998Y5492559D01*
X1660000Y5492559D01*
X1660000Y5492559D02*
G01*
X1671558Y5481001D01*
X1765000Y5481001D01*
X1660000Y5437440D02*
G01*
X1668441Y5428998D01*
X1721649Y5428998D01*
X3555000Y5682438D02*
G01*
X3555000Y5615000D01*
X3582437Y5587561D01*
X3640000Y5587561D01*
X3680000Y5769198D02*
G01*
X3680000Y5785000D01*
X3700000Y5805000D01*
X3757440Y5805000D01*
X3640000Y5587561D02*
G01*
X3642597Y5590160D01*
X3642597Y5670801D01*
X3570000Y5460000D02*
G01*
X3615000Y5460000D01*
X3640000Y5485000D01*
X3640000Y5532438D01*
X3277559Y5490000D02*
G01*
X3279998Y5487559D01*
X3365000Y5487559D01*
X3365000Y5432440D02*
G01*
X3366558Y5433998D01*
X3438046Y5433998D01*
X3365000Y5487559D02*
G01*
X3366558Y5486001D01*
X3490000Y5486001D01*
X2462559Y5510000D02*
G01*
X2465009Y5507550D01*
X2550000Y5507550D01*
X2550000Y5452440D02*
G01*
X2553441Y5448998D01*
X2601792Y5448998D01*
X2550000Y5507550D02*
G01*
X2556549Y5501001D01*
X2640000Y5501001D01*
D11*
X2760000Y5602561D02*
G01*
X2762597Y5605160D01*
X2762597Y5680801D01*
X2720000Y5475000D02*
G01*
X2760000Y5515000D01*
X2760000Y5547438D01*
X2675000Y5687438D02*
G01*
X2681640Y5680801D01*
X2762597Y5680801D01*
X2800000Y5779198D02*
G01*
X2835801Y5815000D01*
X2887440Y5815000D01*
D10*
X935000Y7325000D02*
G01*
X937449Y7327449D01*
X937449Y7420000D01*
X1865000Y7335000D02*
G01*
X1867449Y7337449D01*
X1867449Y7435000D01*
X140000Y7275000D02*
G01*
X140000Y7372440D01*
X4925000Y6110000D02*
G01*
X4925000Y6202440D01*
X4510000Y7350000D02*
G01*
X4510000Y7440000D01*
X4512500Y7440000D01*
X3640000Y7345000D02*
G01*
X3640000Y7415000D01*
X3642500Y7415000D01*
X2775000Y7345000D02*
G01*
X2775000Y7410000D01*
X2782500Y7410000D01*
X1365000Y2515000D02*
G01*
X1220000Y2515000D01*
X1195000Y2540000D01*
X1430000Y2350000D02*
G01*
X1250000Y2350000D01*
X1660000Y2315000D02*
G01*
X1140000Y2315000D01*
X1440000Y4365000D02*
G01*
X1250000Y4365000D01*
X1400000Y4460000D02*
G01*
X1195000Y4460000D01*
X1660000Y4325000D02*
G01*
X1190000Y4325000D01*
X1140000Y4275000D01*
X1500000Y6340000D02*
G01*
X1265000Y6340000D01*
X1250000Y6325000D01*
X1455000Y2783000D02*
G01*
X1455000Y2810000D01*
X1500000Y2855000D01*
X1625000Y2855000D01*
X1659399Y2820599D01*
X1659399Y2783099D01*
X1455000Y2716999D02*
G01*
X1455000Y2690000D01*
X1480000Y2665000D01*
X1800000Y2665000D01*
X1550000Y2717399D02*
G01*
X1550000Y2690000D01*
X1575000Y2665000D01*
X1800000Y2665000D01*
X1550000Y2772500D02*
G01*
X1550000Y2795000D01*
X1565000Y2810000D01*
X1595000Y2810000D01*
D13*
X4771469Y508040D02*
G01*
X4771469Y526466D01*
X4785000Y540000D01*
X4870000Y540000D01*
X4900000Y570000D01*
X4900000Y680000D01*
D11*
X4676981Y460668D02*
G01*
X4594331Y460668D01*
X4580000Y475000D01*
X4556698Y475000D01*
X4676999Y476500D02*
G01*
X4653500Y476500D01*
X4637307Y492692D01*
X4523301Y475000D02*
G01*
X4523301Y505859D01*
X4567440Y550000D01*
X4500000Y680000D02*
G01*
X4500000Y649998D01*
X4567440Y582561D01*
X4567440Y550000D01*
X4708339Y508081D02*
G01*
X4666421Y550000D01*
X4622559Y550000D01*
X4900000Y780000D02*
G01*
X4900000Y680000D01*
X5080000Y615000D02*
G01*
X5300000Y615000D01*
X5320000Y595000D01*
X5320000Y551700D01*
X5320000Y518299D02*
G01*
X5320000Y495000D01*
X5301700Y476700D01*
X4895000Y476700D01*
X4724092Y508081D02*
G01*
X4724092Y560911D01*
X4675000Y610000D01*
X4620000Y610000D01*
X4620000Y610000D02*
G01*
X4600000Y630000D01*
X4600000Y680000D01*
X4739839Y508081D02*
G01*
X4739839Y580160D01*
X4700000Y620000D01*
X4700000Y680000D01*
X4755591Y508081D02*
G01*
X4755591Y540590D01*
X4800000Y585000D01*
X4800000Y680000D01*
X4740298Y381898D02*
G01*
X4740298Y335300D01*
X4675000Y270000D01*
X4675000Y255000D01*
X4724600Y381898D02*
G01*
X4724600Y354600D01*
X4710000Y340000D01*
X4635000Y340000D01*
X4575000Y280000D01*
X4575000Y255000D01*
X4775000Y255000D02*
G01*
X4775000Y325000D01*
X4756010Y343989D01*
X4756010Y381941D01*
X4875000Y255000D02*
G01*
X4875000Y330001D01*
X4823062Y381941D01*
X4771709Y381941D01*
X4475000Y255000D02*
G01*
X4475000Y275000D01*
X4581918Y381918D01*
X4708921Y381918D01*
X4975000Y255000D02*
G01*
X4975000Y320000D01*
X4881298Y413701D01*
X4803018Y413701D01*
X5075000Y255000D02*
G01*
X5075000Y325001D01*
X4970551Y429450D01*
X4803018Y429450D01*
X5175000Y255000D02*
G01*
X5175000Y325000D01*
X5054799Y445199D01*
X4803018Y445199D01*
X4375000Y255000D02*
G01*
X4375000Y270001D01*
X4518418Y413420D01*
X4676981Y413420D01*
X4275000Y255000D02*
G01*
X4275000Y270000D01*
X4434170Y429169D01*
X4676981Y429169D01*
X4175000Y255000D02*
G01*
X4175000Y269998D01*
X4349921Y444918D01*
X4676981Y444918D01*
X5085000Y846500D02*
G01*
X4966499Y846500D01*
X4900000Y780000D01*
X738020Y476689D02*
G01*
X826689Y476689D01*
X940000Y590000D01*
X940000Y705000D01*
X473301Y475000D02*
G01*
X473301Y510859D01*
X512438Y550000D01*
X611979Y460668D02*
G01*
X521030Y460668D01*
X506698Y475000D01*
X440000Y705000D02*
G01*
X440000Y622462D01*
X512438Y550000D02*
G01*
X482438Y580000D01*
X460000Y580000D01*
X440000Y600000D01*
X440000Y622462D01*
X480835Y622462D01*
X483301Y620000D01*
X612008Y476509D02*
G01*
X588521Y500000D01*
X525000Y500000D01*
X512438Y512561D01*
X512438Y550000D01*
X516698Y620000D02*
G01*
X526698Y610000D01*
X580000Y610000D01*
X567600Y550000D02*
G01*
X630000Y550000D01*
X643301Y536698D01*
X643301Y508101D01*
X674839Y508081D02*
G01*
X674839Y590160D01*
X640000Y625000D01*
X640000Y705000D01*
X690590Y508081D02*
G01*
X690590Y540590D01*
X740000Y590000D01*
X740000Y705000D01*
X706500Y508000D02*
G01*
X743000Y508000D01*
X840000Y605000D01*
X840000Y705000D01*
X659099Y508101D02*
G01*
X659099Y570900D01*
X620000Y610000D01*
X580000Y610000D01*
X540000Y650000D01*
X540000Y705000D01*
X675320Y381941D02*
G01*
X675320Y310000D01*
X640000Y274679D01*
X640000Y250000D01*
X565000Y325000D02*
G01*
X555000Y325000D01*
X540000Y310000D01*
X540000Y250000D01*
X659600Y381898D02*
G01*
X659600Y349600D01*
X635000Y325000D01*
X565000Y325000D01*
X659600Y381898D02*
G01*
X659600Y374600D01*
X691001Y381898D02*
G01*
X691001Y363998D01*
X740000Y315000D01*
X740000Y250000D01*
X706709Y381941D02*
G01*
X808058Y381941D01*
X840000Y350000D01*
X840000Y250000D01*
X643921Y381918D02*
G01*
X461918Y381918D01*
X440000Y360000D01*
X440000Y250000D01*
X611979Y413420D02*
G01*
X408420Y413420D01*
X340000Y345000D01*
X340000Y250000D01*
X611979Y429169D02*
G01*
X329169Y429169D01*
X240000Y340000D01*
X240000Y250000D01*
X738020Y429450D02*
G01*
X955551Y429450D01*
X1040000Y345001D01*
X1040000Y250000D01*
X738020Y445199D02*
G01*
X1029799Y445199D01*
X1140000Y335000D01*
X1140000Y250000D01*
X738020Y460940D02*
G01*
X1104062Y460940D01*
X1240000Y325001D01*
X1240000Y250000D01*
X140000Y250000D02*
G01*
X140000Y325000D01*
X259918Y444918D01*
X611979Y444918D01*
X5185000Y6230000D02*
G01*
X5185000Y6390000D01*
X5135000Y6440000D01*
X4975000Y6440000D01*
X4927399Y6487600D01*
X4927399Y6530000D01*
D10*
X4795000Y5875000D02*
G01*
X4795000Y5880000D01*
X4350000Y6325000D01*
D11*
X4927399Y6530000D02*
G01*
X4865000Y6530000D01*
X4850000Y6545000D01*
X4850000Y6629000D01*
X992560Y7420000D02*
G01*
X1005011Y7407548D01*
X1125000Y7407548D01*
X4860000Y7410000D02*
G01*
X4910000Y7410000D01*
X4922439Y7422440D01*
X4922439Y7515000D01*
X4567559Y7440000D02*
G01*
X4570009Y7437550D01*
X4665000Y7437550D01*
X4665000Y7382440D02*
G01*
X4666558Y7383998D01*
X4729156Y7383998D01*
X4780000Y7436001D02*
G01*
X4670902Y7436001D01*
X4669354Y7437550D01*
X4665000Y7437550D01*
X4922439Y7515000D02*
G01*
X4880000Y7515000D01*
X4849989Y7545010D01*
X4849989Y7628971D01*
X3697559Y7415000D02*
G01*
X3705009Y7407550D01*
X3790000Y7407550D01*
X3980000Y7380000D02*
G01*
X4010000Y7380000D01*
X4027399Y7397399D01*
X4027399Y7520000D01*
X3900000Y7353998D02*
G01*
X3898441Y7352440D01*
X3850000Y7352440D01*
X3790000Y7407550D02*
G01*
X3791549Y7406001D01*
X3900000Y7406001D01*
X4027399Y7520000D02*
G01*
X3975000Y7520000D01*
X3950000Y7545000D01*
X3950000Y7629000D01*
X4082597Y7520000D02*
G01*
X4130000Y7520000D01*
X4150000Y7540000D01*
X4150000Y7655000D01*
X2935000Y7407550D02*
G01*
X2932550Y7410000D01*
X2837559Y7410000D01*
X3030000Y7353998D02*
G01*
X3028441Y7352440D01*
X2987015Y7352440D01*
X2935000Y7407550D02*
G01*
X2936549Y7406001D01*
X3030000Y7406001D01*
X3122399Y7530000D02*
G01*
X3065000Y7530000D01*
X3050000Y7545000D01*
X3050000Y7629000D01*
X3177597Y7530000D02*
G01*
X3235000Y7530000D01*
X3250000Y7545000D01*
X3250000Y7610000D01*
X1922560Y7435000D02*
G01*
X1930000Y7427559D01*
X2035000Y7427559D01*
X2035000Y7372440D02*
G01*
X2036559Y7374000D01*
X2120000Y7374000D01*
X2035000Y7427559D02*
G01*
X2036559Y7425999D01*
X2120000Y7425999D01*
X2200000Y7400000D02*
G01*
X2222439Y7422440D01*
X2222439Y7540000D01*
X2222399Y7540000D02*
G01*
X2160000Y7540000D01*
X2150000Y7550000D01*
X2150000Y7629000D01*
X2277597Y7540000D02*
G01*
X2340000Y7540000D01*
X2350000Y7550000D01*
X2350000Y7660000D01*
X1300000Y7390000D02*
G01*
X1327439Y7417440D01*
X1327439Y7510000D01*
X1125000Y7352438D02*
G01*
X1136562Y7363998D01*
X1178535Y7363998D01*
X1125000Y7407561D02*
G01*
X1133437Y7416001D01*
X1220000Y7416001D01*
X1327399Y7510000D02*
G01*
X1280000Y7510000D01*
X1250000Y7540000D01*
X1250000Y7629000D01*
X1382597Y7510000D02*
G01*
X1415000Y7510000D01*
X1450000Y7545000D01*
X1450000Y7600000D01*
X140000Y7427559D02*
G01*
X140010Y7427548D01*
X240000Y7427548D01*
X330000Y7421001D02*
G01*
X323451Y7427550D01*
X240000Y7427550D01*
X410000Y7395000D02*
G01*
X422438Y7407438D01*
X422438Y7525000D01*
X350000Y7628960D02*
G01*
X350000Y7580000D01*
X405000Y7525000D01*
X422440Y7525000D01*
X685000Y1720000D02*
G01*
X690000Y1725000D01*
X690000Y1918299D01*
D10*
X3485000Y783099D02*
G01*
X3485000Y875000D01*
X3480000Y875000D01*
X1685000Y783101D02*
G01*
X1685000Y985000D01*
X2661649Y783110D02*
G01*
X2661649Y968350D01*
X2635000Y995000D01*
X3561649Y783110D02*
G01*
X3561649Y973350D01*
X3540000Y995000D01*
X1761649Y783110D02*
G01*
X1760000Y784760D01*
X1760000Y965000D01*
X1838299Y783099D02*
G01*
X1838299Y1036700D01*
X1800000Y1075000D01*
X1675000Y1075000D01*
X1650000Y1100000D01*
X1650000Y1150000D01*
X1863999Y783099D02*
G01*
X1863999Y1050999D01*
X1815000Y1100000D01*
X1770000Y1100000D01*
X1750000Y1120000D01*
X1750000Y1150000D01*
X2738299Y783099D02*
G01*
X2738299Y1036700D01*
X2695000Y1080000D01*
X2570000Y1080000D01*
X2550000Y1100000D01*
X2550000Y1150000D01*
X2763999Y783099D02*
G01*
X2763999Y1050999D01*
X2715000Y1100000D01*
X2665000Y1100000D01*
X2650000Y1115000D01*
X2650000Y1150000D01*
X3587299Y783099D02*
G01*
X3587299Y1002699D01*
X3560000Y1030000D01*
X3315000Y1030000D01*
X3250000Y1095000D01*
X3250000Y1150000D01*
X3612899Y783099D02*
G01*
X3612899Y1027100D01*
X3585000Y1055000D01*
X3400000Y1055000D01*
X3350000Y1105000D01*
X3350000Y1150000D01*
X3638299Y783099D02*
G01*
X3638299Y1046700D01*
X3605000Y1080000D01*
X3475000Y1080000D01*
X3450000Y1105000D01*
X3450000Y1150000D01*
X3663999Y783099D02*
G01*
X3663999Y1055999D01*
X3620000Y1100000D01*
X3565000Y1100000D01*
X3550000Y1115000D01*
X3550000Y1150000D01*
X3766000Y783099D02*
G01*
X3766000Y915999D01*
X3950000Y1100000D01*
X3950000Y1150000D01*
X3485000Y2783099D02*
G01*
X3485000Y2860000D01*
X2585000Y2783099D02*
G01*
X2585000Y2860000D01*
X1685000Y2783101D02*
G01*
X1685000Y2965000D01*
X3561649Y2783110D02*
G01*
X3560000Y2784760D01*
X3560000Y2990000D01*
X2661649Y2783110D02*
G01*
X2660000Y2784760D01*
X2660000Y2990000D01*
X1761649Y2783110D02*
G01*
X1760000Y2784760D01*
X1760000Y2950000D01*
X3587299Y2783099D02*
G01*
X3587299Y2997700D01*
X3560000Y3025000D01*
X3325000Y3025000D01*
X3250000Y3100000D01*
X3250000Y3150000D01*
X3612899Y2783099D02*
G01*
X3612899Y3017100D01*
X3580000Y3050000D01*
X3400000Y3050000D01*
X3350000Y3100000D01*
X3350000Y3150000D01*
X3638299Y2783099D02*
G01*
X3638299Y3031700D01*
X3595000Y3075000D01*
X3480000Y3075000D01*
X3450000Y3105000D01*
X3450000Y3150000D01*
X3663999Y2783099D02*
G01*
X3663999Y3050999D01*
X3615000Y3100000D01*
X3560000Y3100000D01*
X3550000Y3110000D01*
X3550000Y3150000D01*
X2687299Y2783099D02*
G01*
X2687299Y2997700D01*
X2655000Y3030000D01*
X2420000Y3030000D01*
X2350000Y3100000D01*
X2350000Y3150000D01*
X2712899Y2783099D02*
G01*
X2712899Y3022100D01*
X2680000Y3055000D01*
X2500000Y3055000D01*
X2450000Y3105000D01*
X2450000Y3150000D01*
X2738299Y2783099D02*
G01*
X2738299Y3046700D01*
X2705000Y3080000D01*
X2570000Y3080000D01*
X2550000Y3100000D01*
X2550000Y3150000D01*
X2763999Y2783099D02*
G01*
X2763999Y3055999D01*
X2720000Y3100000D01*
X2660000Y3100000D01*
X2650000Y3110000D01*
X2650000Y3150000D01*
X1787299Y2783099D02*
G01*
X1787299Y2997700D01*
X1755000Y3030000D01*
X1520000Y3030000D01*
X1450000Y3100000D01*
X1450000Y3150000D01*
X1812899Y2783099D02*
G01*
X1812899Y3027100D01*
X1785000Y3055000D01*
X1595000Y3055000D01*
X1550000Y3100000D01*
X1550000Y3150000D01*
X1838299Y2783099D02*
G01*
X1838299Y3056700D01*
X1815000Y3080000D01*
X1670000Y3080000D01*
X1650000Y3100000D01*
X1650000Y3150000D01*
X1863999Y2783099D02*
G01*
X1863999Y3070999D01*
X1835000Y3100000D01*
X1785000Y3100000D01*
X1750000Y3135000D01*
X1750000Y3150000D01*
X3485048Y4783110D02*
G01*
X3485048Y4849951D01*
X3465000Y4870000D01*
X2585048Y4783110D02*
G01*
X2585048Y4854951D01*
X2570000Y4870000D01*
X2661700Y4783099D02*
G01*
X2661700Y4931799D01*
X2573500Y5020000D01*
X3561649Y4783110D02*
G01*
X3561649Y4913350D01*
X3455000Y5020000D01*
X1761649Y4783110D02*
G01*
X1760000Y4784760D01*
X1760000Y4975000D01*
X3536347Y546889D02*
G01*
X3535000Y548236D01*
X3535000Y595000D01*
X2636049Y783110D02*
G01*
X2635000Y782060D01*
X2635000Y735000D01*
X1736049Y783110D02*
G01*
X1735000Y782060D01*
X1735000Y735000D01*
X2636347Y546889D02*
G01*
X2635000Y548236D01*
X2635000Y595000D01*
X2661949Y546889D02*
G01*
X2661949Y441950D01*
X2640000Y420000D01*
X3561949Y546889D02*
G01*
X3561949Y476950D01*
X3505000Y420000D01*
X1761949Y546889D02*
G01*
X1761949Y471950D01*
X1750000Y460000D01*
X3510749Y546889D02*
G01*
X3510749Y460749D01*
X3440000Y390000D01*
X2610749Y546889D02*
G01*
X2610749Y440749D01*
X2560000Y390000D01*
X1710749Y546889D02*
G01*
X1715000Y542640D01*
X1715000Y415000D01*
X3485200Y546900D02*
G01*
X3485200Y475100D01*
X3385000Y375000D01*
X3385000Y360000D01*
X2585200Y546900D02*
G01*
X2585200Y465100D01*
X2510000Y390000D01*
X2510000Y360000D01*
X1685150Y546889D02*
G01*
X1685000Y546738D01*
X1685000Y380000D01*
X3459600Y546900D02*
G01*
X3459600Y494600D01*
X3350000Y385000D01*
X3350000Y325000D01*
X2559600Y546900D02*
G01*
X2559600Y489600D01*
X2470000Y400000D01*
X2470000Y325000D01*
X2687500Y546900D02*
G01*
X2687500Y317500D01*
X2660000Y290000D01*
X2495000Y290000D01*
X2355000Y150000D01*
X2350000Y150000D01*
X2713100Y546900D02*
G01*
X2713100Y298099D01*
X2680000Y265000D01*
X2565000Y265000D01*
X2450000Y150000D01*
X2738800Y546900D02*
G01*
X2738800Y278699D01*
X2705000Y245000D01*
X2645000Y245000D01*
X2550000Y150000D01*
X2764399Y546900D02*
G01*
X2764399Y269400D01*
X2715000Y220000D01*
X2670000Y220000D01*
X2650000Y200000D01*
X2650000Y150000D01*
X1659600Y546900D02*
G01*
X1660000Y340000D01*
X1813100Y546900D02*
G01*
X1813100Y288099D01*
X1780000Y255000D01*
X1655000Y255000D01*
X1550000Y150000D01*
X1838800Y546900D02*
G01*
X1838800Y273699D01*
X1790000Y225000D01*
X1680000Y225000D01*
X1650000Y195000D01*
X1650000Y150000D01*
X1864399Y546900D02*
G01*
X1864399Y254400D01*
X1810000Y200000D01*
X1765000Y200000D01*
X1750000Y185000D01*
X1750000Y150000D01*
X3485150Y2546889D02*
G01*
X3485150Y2485149D01*
X3435000Y2435000D01*
X2585150Y2546889D02*
G01*
X2585150Y2465149D01*
X2555000Y2435000D01*
X1685200Y2546900D02*
G01*
X1685000Y2475000D01*
X3459549Y2546889D02*
G01*
X3459549Y2504549D01*
X3220000Y2265000D01*
X2559600Y2546900D02*
G01*
X2559600Y2484600D01*
X2340000Y2265000D01*
X1659600Y2546898D02*
G01*
X1660000Y2546498D01*
X1660000Y2315000D01*
X2610799Y2546900D02*
G01*
X2610799Y2440799D01*
X2540000Y2370000D01*
X2540000Y2310000D01*
X3510799Y2546900D02*
G01*
X3510799Y2450799D01*
X3460000Y2400000D01*
X3460000Y2310000D01*
X1710801Y2546898D02*
G01*
X1710000Y2546098D01*
X1710000Y2350000D01*
X3561948Y2546889D02*
G01*
X3561948Y2386948D01*
X3530000Y2355000D01*
X2661948Y2546889D02*
G01*
X2661948Y2401948D01*
X2615000Y2355000D01*
X1761948Y2546889D02*
G01*
X1760000Y2544940D01*
X1760000Y2400000D01*
X3587500Y2546900D02*
G01*
X3587500Y2307500D01*
X3555000Y2275000D01*
X3320000Y2275000D01*
X3250000Y2205000D01*
X3250000Y2150000D01*
X3613100Y2546900D02*
G01*
X3613100Y2288099D01*
X3575000Y2250000D01*
X3400000Y2250000D01*
X3350000Y2200000D01*
X3350000Y2150000D01*
X3638800Y2546900D02*
G01*
X3638800Y2273699D01*
X3590000Y2225000D01*
X3490000Y2225000D01*
X3450000Y2185000D01*
X3450000Y2150000D01*
X3664399Y2546900D02*
G01*
X3664399Y2249400D01*
X3615000Y2200000D01*
X3560000Y2200000D01*
X3550000Y2190000D01*
X3550000Y2150000D01*
X2687500Y2546900D02*
G01*
X2687500Y2322500D01*
X2640000Y2275000D01*
X2435000Y2275000D01*
X2350000Y2190000D01*
X2350000Y2150000D01*
X2713100Y2546900D02*
G01*
X2713100Y2298099D01*
X2665000Y2250000D01*
X2515000Y2250000D01*
X2450000Y2185000D01*
X2450000Y2150000D01*
X2738800Y2546900D02*
G01*
X2738800Y2273699D01*
X2690000Y2225000D01*
X2585000Y2225000D01*
X2550000Y2190000D01*
X2550000Y2150000D01*
X2764399Y2546900D02*
G01*
X2764399Y2259400D01*
X2705000Y2200000D01*
X2675000Y2200000D01*
X2650000Y2175000D01*
X2650000Y2150000D01*
X1787500Y2546900D02*
G01*
X1787500Y2302500D01*
X1765000Y2280000D01*
X1535000Y2280000D01*
X1450000Y2195000D01*
X1450000Y2150000D01*
X1813100Y2546900D02*
G01*
X1813100Y2283099D01*
X1780000Y2250000D01*
X1610000Y2250000D01*
X1550000Y2190000D01*
X1550000Y2150000D01*
X1838800Y2546900D02*
G01*
X1838800Y2268699D01*
X1795000Y2225000D01*
X1690000Y2225000D01*
X1650000Y2185000D01*
X1650000Y2150000D01*
X1864399Y2546900D02*
G01*
X1864399Y2254400D01*
X1810000Y2200000D01*
X1765000Y2200000D01*
X1750000Y2185000D01*
X1750000Y2150000D01*
X2585150Y4546889D02*
G01*
X2585150Y4450151D01*
X2565000Y4430000D01*
X3485150Y4546889D02*
G01*
X3485150Y4450149D01*
X3465000Y4430000D01*
X1685200Y4546900D02*
G01*
X1685000Y4460000D01*
X3459549Y4546889D02*
G01*
X3459549Y4464549D01*
X3425000Y4430000D01*
X3425000Y4285000D01*
X2559600Y4546900D02*
G01*
X2559600Y4474600D01*
X2490000Y4405000D01*
X2490000Y4285000D01*
X1659600Y4546900D02*
G01*
X1660000Y4325000D01*
X2610799Y4546900D02*
G01*
X2610799Y4420799D01*
X2585000Y4395000D01*
X2585000Y4335000D01*
X3485000Y4335000D02*
G01*
X3485000Y4415000D01*
X3510799Y4440700D01*
X3510799Y4546900D01*
X1710752Y4546889D02*
G01*
X1710000Y4546138D01*
X1710000Y4365000D01*
X2661899Y4546900D02*
G01*
X2661899Y4396900D01*
X2645000Y4380000D01*
X3561949Y4546889D02*
G01*
X3561949Y4401950D01*
X3540000Y4380000D01*
X1761948Y4546889D02*
G01*
X1760000Y4544940D01*
X1760000Y4400000D01*
X3587500Y4546900D02*
G01*
X3587500Y4362500D01*
X3475000Y4250000D01*
X3295000Y4250000D01*
X3250000Y4205000D01*
X3250000Y4150000D01*
X3613100Y4546900D02*
G01*
X3613100Y4348099D01*
X3490000Y4225000D01*
X3380000Y4225000D01*
X3350000Y4195000D01*
X3350000Y4150000D01*
X3638800Y4546900D02*
G01*
X3638800Y4333699D01*
X3505000Y4200000D01*
X3465000Y4200000D01*
X3450000Y4185000D01*
X3450000Y4150000D01*
X2687500Y4546900D02*
G01*
X2687500Y4372500D01*
X2570000Y4255000D01*
X2410000Y4255000D01*
X2350000Y4195000D01*
X2350000Y4150000D01*
X2713100Y4546900D02*
G01*
X2713100Y4353099D01*
X2580000Y4220000D01*
X2520000Y4220000D01*
X2450000Y4150000D01*
X2738800Y4546900D02*
G01*
X2738800Y4333800D01*
X2605000Y4200000D01*
X2580000Y4200000D01*
X2550000Y4170000D01*
X2550000Y4150000D01*
X1787500Y4546900D02*
G01*
X1787500Y4362500D01*
X1690000Y4265000D01*
X1565000Y4265000D01*
X1450000Y4150000D01*
X1813100Y4546900D02*
G01*
X1813100Y4343099D01*
X1705000Y4235000D01*
X1635000Y4235000D01*
X1550000Y4150000D01*
X1838800Y4546900D02*
G01*
X1838800Y4323699D01*
X1725000Y4210000D01*
X1665000Y4210000D01*
X1650000Y4195000D01*
X1650000Y4150000D01*
X3459600Y6546900D02*
G01*
X3459600Y6499600D01*
X3385000Y6425000D01*
X3290000Y6425000D01*
X3260000Y6395000D01*
X3260000Y6290000D01*
X2559600Y6546900D02*
G01*
X2559600Y6499600D01*
X2445000Y6385000D01*
X2375000Y6385000D01*
X2320000Y6330000D01*
X2320000Y6290000D01*
X3315000Y6330000D02*
G01*
X3375000Y6390000D01*
X3490000Y6390000D01*
X3510749Y6410749D01*
X3510749Y6546889D01*
X3460000Y6425000D02*
G01*
X3485150Y6450149D01*
X3485150Y6546889D01*
X2610799Y6546900D02*
G01*
X2610799Y6400799D01*
X2556199Y6346199D01*
X2556199Y6330000D01*
X2585200Y6546900D02*
G01*
X2585000Y6425000D01*
X3561949Y6546889D02*
G01*
X3561949Y6401950D01*
X3520000Y6360000D01*
X2661949Y6546889D02*
G01*
X2661949Y6401950D01*
X2620000Y6360000D01*
X1685150Y6546889D02*
G01*
X1685000Y6546738D01*
X1685000Y6470000D01*
X1736350Y6546889D02*
G01*
X1735000Y6545540D01*
X1761948Y6546889D02*
G01*
X1760000Y6544940D01*
X1760000Y6385000D01*
X3587500Y6546900D02*
G01*
X3587500Y6372500D01*
X3545000Y6330000D01*
X3380000Y6330000D01*
X3250000Y6200000D01*
X3250000Y6150000D01*
X3613100Y6546900D02*
G01*
X3613100Y6333099D01*
X3580000Y6300000D01*
X3450000Y6300000D01*
X3350000Y6200000D01*
X3350000Y6150000D01*
X3638800Y6546900D02*
G01*
X3638800Y6298699D01*
X3610000Y6270000D01*
X3520000Y6270000D01*
X3450000Y6200000D01*
X3450000Y6150000D01*
X3664399Y6546900D02*
G01*
X3664399Y6274400D01*
X3630000Y6240000D01*
X3585000Y6240000D01*
X3550000Y6205000D01*
X3550000Y6150000D01*
X1812899Y6783099D02*
G01*
X1812899Y7017100D01*
X1760000Y7070000D01*
X1580000Y7070000D01*
X1550000Y7100000D01*
X1550000Y7150000D01*
X2790000Y6546900D02*
G01*
X2790000Y6265000D01*
X2750000Y6225000D01*
X2750000Y6150000D01*
X2815600Y6546900D02*
G01*
X2815600Y6469499D01*
X2850000Y6435000D01*
X2850000Y6150000D01*
X2841000Y6546900D02*
G01*
X2841000Y6484000D01*
X2950000Y6375000D01*
X2950000Y6150000D01*
X2866300Y6546900D02*
G01*
X2866300Y6503699D01*
X3050000Y6320000D01*
X3050000Y6150000D01*
X1966300Y6546900D02*
G01*
X1966300Y6503699D01*
X2150000Y6320000D01*
X2150000Y6150000D01*
X1787500Y6546900D02*
G01*
X1787500Y6352500D01*
X1700000Y6265000D01*
X1510000Y6265000D01*
X1450000Y6205000D01*
X1450000Y6150000D01*
X1813100Y6546900D02*
G01*
X1813100Y6333099D01*
X1715000Y6235000D01*
X1590000Y6235000D01*
X1550000Y6195000D01*
X1550000Y6150000D01*
X1838800Y6546900D02*
G01*
X1838800Y6318800D01*
X1730000Y6210000D01*
X1670000Y6210000D01*
X1650000Y6190000D01*
X1650000Y6150000D01*
X1865000Y6546900D02*
G01*
X1865000Y6270000D01*
X1825000Y6230000D01*
X1800000Y6230000D01*
X1750000Y6180000D01*
X1750000Y6150000D01*
X3485048Y6783110D02*
G01*
X3485048Y6849951D01*
X3460000Y6875000D01*
X2585050Y6783110D02*
G01*
X2585050Y6859949D01*
X2570000Y6875000D01*
X1685000Y6783101D02*
G01*
X1685000Y6965000D01*
X3561649Y6783110D02*
G01*
X3561649Y6923350D01*
X3465000Y7020000D01*
X2661649Y6783110D02*
G01*
X2661649Y6933350D01*
X2575000Y7020000D01*
X3561700Y6783099D02*
G01*
X3560000Y6784800D01*
X2661649Y6783110D02*
G01*
X2660000Y6784760D01*
X1761649Y6783110D02*
G01*
X1760000Y6784760D01*
X1760000Y6975000D01*
X3587299Y6783099D02*
G01*
X3587299Y6937700D01*
X3480000Y7045000D01*
X3295000Y7045000D01*
X3250000Y7090000D01*
X3250000Y7150000D01*
X3612899Y6783099D02*
G01*
X3612899Y6957100D01*
X3495000Y7075000D01*
X3370000Y7075000D01*
X3350000Y7095000D01*
X3350000Y7150000D01*
X3638299Y6783099D02*
G01*
X3638299Y6971700D01*
X3510000Y7100000D01*
X3475000Y7100000D01*
X3450000Y7125000D01*
X3450000Y7150000D01*
X2687299Y6783099D02*
G01*
X2687299Y6952700D01*
X2595000Y7045000D01*
X2390000Y7045000D01*
X2350000Y7085000D01*
X2350000Y7150000D01*
X2712899Y6783099D02*
G01*
X2712899Y6972100D01*
X2610000Y7075000D01*
X2500000Y7075000D01*
X2450000Y7125000D01*
X2450000Y7150000D01*
X2738299Y6783099D02*
G01*
X2738299Y6996700D01*
X2635000Y7100000D01*
X2580000Y7100000D01*
X2550000Y7130000D01*
X2550000Y7150000D01*
X1787299Y6783099D02*
G01*
X1787299Y6997700D01*
X1740000Y7045000D01*
X1550000Y7045000D01*
X1450000Y7145000D01*
X1450000Y7150000D01*
X1450000Y7150000D02*
G01*
X1475000Y7150000D01*
X1838299Y6783099D02*
G01*
X1838299Y7026700D01*
X1770000Y7095000D01*
X1660000Y7095000D01*
X1650000Y7105000D01*
X1650000Y7150000D01*
X1863999Y6783099D02*
G01*
X1863999Y7035999D01*
X1750000Y7150000D01*
X2636049Y4783110D02*
G01*
X2635000Y4784160D01*
X3587299Y4783099D02*
G01*
X3587299Y4927700D01*
X3455000Y5060000D01*
X3305000Y5060000D01*
X3250000Y5115000D01*
X3250000Y5150000D01*
X3612899Y4783099D02*
G01*
X3612899Y4947100D01*
X3465000Y5095000D01*
X3380000Y5095000D01*
X3350000Y5125000D01*
X3350000Y5150000D01*
X3638299Y4783099D02*
G01*
X3638299Y4971700D01*
X3460000Y5150000D01*
X3450000Y5150000D01*
X2687299Y4783099D02*
G01*
X2687299Y4967700D01*
X2600000Y5055000D01*
X2450000Y5055000D01*
X2355000Y5150000D01*
X2350000Y5150000D01*
X2712899Y4783099D02*
G01*
X2712899Y4987100D01*
X2620000Y5080000D01*
X2490000Y5080000D01*
X2450000Y5120000D01*
X2450000Y5150000D01*
X2738299Y4783099D02*
G01*
X2738299Y5006700D01*
X2645000Y5100000D01*
X2585000Y5100000D01*
X2550000Y5135000D01*
X2550000Y5150000D01*
X1787299Y4783099D02*
G01*
X1787299Y4997700D01*
X1735000Y5050000D01*
X1530000Y5050000D01*
X1450000Y5130000D01*
X1450000Y5150000D01*
X1812899Y4783099D02*
G01*
X1812899Y5007100D01*
X1745000Y5075000D01*
X1585000Y5075000D01*
X1550000Y5110000D01*
X1550000Y5150000D01*
X1838299Y4783099D02*
G01*
X1838299Y5021700D01*
X1760000Y5100000D01*
X1660000Y5100000D01*
X1650000Y5110000D01*
X1650000Y5150000D01*
X1966000Y783099D02*
G01*
X1966000Y915999D01*
X2150000Y1100000D01*
X2150000Y1150000D01*
X1940799Y783099D02*
G01*
X1940799Y995799D01*
X2050000Y1105000D01*
X2050000Y1150000D01*
X1915200Y783099D02*
G01*
X1915200Y1065199D01*
X1950000Y1100000D01*
X1950000Y1150000D01*
X1850000Y1150000D02*
G01*
X1850000Y1100000D01*
X1889600Y1060399D01*
X1889600Y783099D01*
X1812899Y783099D02*
G01*
X1812899Y1022100D01*
X1785000Y1050000D01*
X1605000Y1050000D01*
X1550000Y1105000D01*
X1550000Y1150000D01*
X1787299Y783099D02*
G01*
X1787299Y997699D01*
X1765000Y1020000D01*
X1530000Y1020000D01*
X1450000Y1100000D01*
X1450000Y1150000D01*
X1633800Y783099D02*
G01*
X1633800Y816199D01*
X1615000Y835000D01*
X1594035Y835000D01*
X1659350Y783110D02*
G01*
X1659350Y840648D01*
X1610000Y890000D01*
X1516999Y890000D01*
X1465000Y838000D01*
X1465000Y771999D02*
G01*
X1465000Y685000D01*
X1485000Y665000D01*
X1800000Y665000D01*
X1550000Y722440D02*
G01*
X1550000Y682860D01*
X1567861Y665000D01*
X2150000Y150000D02*
G01*
X2150000Y200000D01*
X1966300Y383699D01*
X1966300Y546900D01*
X1941000Y546900D02*
G01*
X1941000Y339000D01*
X2050000Y230000D01*
X2050000Y150000D01*
X1915500Y546900D02*
G01*
X1915500Y299499D01*
X1950000Y265000D01*
X1950000Y150000D01*
X1890000Y546900D02*
G01*
X1890000Y240000D01*
X1850000Y200000D01*
X1850000Y150000D01*
X1787500Y546900D02*
G01*
X1787500Y312500D01*
X1755000Y280000D01*
X1545000Y280000D01*
X1450000Y185000D01*
X1450000Y150000D01*
X1634049Y546889D02*
G01*
X1634049Y665000D01*
X2534049Y546889D02*
G01*
X2534049Y665000D01*
X2700000Y665000D01*
X2533999Y665000D02*
G01*
X2475000Y665000D01*
X2435000Y705000D01*
X2435000Y722440D01*
X2350000Y726999D02*
G01*
X2350000Y695000D01*
X2380000Y665000D01*
X2470000Y665000D01*
X2470000Y670000D01*
X2435000Y777500D02*
G01*
X2435000Y820000D01*
X2450000Y835000D01*
X2515000Y835000D01*
X2525000Y825000D01*
X2533798Y816201D01*
X2533798Y783101D01*
X2350000Y793000D02*
G01*
X2350000Y805000D01*
X2410000Y865000D01*
X2520000Y865000D01*
X2559399Y825599D01*
X2559399Y783099D01*
X2866000Y783099D02*
G01*
X2866000Y915999D01*
X3050000Y1100000D01*
X3050000Y1150000D01*
X2840799Y783099D02*
G01*
X2840799Y1000799D01*
X2950000Y1110000D01*
X2950000Y1150000D01*
X2815200Y783099D02*
G01*
X2815200Y1065199D01*
X2850000Y1100000D01*
X2850000Y1150000D01*
X2789600Y783099D02*
G01*
X2789600Y1065399D01*
X2750000Y1105000D01*
X2750000Y1150000D01*
X2712899Y783099D02*
G01*
X2712899Y1022100D01*
X2680000Y1055000D01*
X2500000Y1055000D01*
X2450000Y1105000D01*
X2450000Y1150000D01*
X2350000Y1150000D02*
G01*
X2350000Y1105000D01*
X2425000Y1030000D01*
X2670000Y1030000D01*
X2687299Y1012699D01*
X2687299Y783099D01*
X3740799Y783099D02*
G01*
X3740799Y995799D01*
X3850000Y1105000D01*
X3850000Y1150000D01*
X3715200Y783099D02*
G01*
X3715200Y1065199D01*
X3750000Y1100000D01*
X3750000Y1150000D01*
X3689600Y783099D02*
G01*
X3689600Y1065399D01*
X3650000Y1105000D01*
X3650000Y1150000D01*
X3434049Y546889D02*
G01*
X3434049Y665000D01*
X3600000Y665000D01*
X3330000Y732440D02*
G01*
X3397439Y665000D01*
X3600000Y665000D01*
X3210000Y736999D02*
G01*
X3210000Y730000D01*
X3275000Y665000D01*
X3600000Y665000D01*
X3330000Y787548D02*
G01*
X3330000Y830000D01*
X3335000Y835000D01*
X3400000Y835000D01*
X3210000Y803000D02*
G01*
X3210000Y830000D01*
X3270000Y890000D01*
X3425000Y890000D01*
X3459399Y854400D01*
X3459399Y783099D01*
X2866300Y546900D02*
G01*
X2866300Y378699D01*
X3050000Y195000D01*
X3050000Y150000D01*
X2841000Y546900D02*
G01*
X2841000Y334000D01*
X2950000Y225000D01*
X2950000Y150000D01*
X2815600Y546900D02*
G01*
X2815600Y259499D01*
X2850000Y225000D01*
X2850000Y150000D01*
X2790000Y546900D02*
G01*
X2790000Y255000D01*
X2750000Y215000D01*
X2750000Y150000D01*
X3766250Y546889D02*
G01*
X3950000Y363139D01*
X3950000Y150000D01*
X3741049Y546889D02*
G01*
X3741049Y488949D01*
X3850000Y380000D01*
X3850000Y150000D01*
X3715550Y546889D02*
G01*
X3715550Y379450D01*
X3750000Y345000D01*
X3750000Y150000D01*
X3689949Y546889D02*
G01*
X3689949Y279949D01*
X3650000Y240000D01*
X3650000Y150000D01*
X3664350Y546889D02*
G01*
X3664350Y349349D01*
X3550000Y235000D01*
X3550000Y150000D01*
X3638750Y546889D02*
G01*
X3638750Y403750D01*
X3450000Y215000D01*
X3450000Y150000D01*
X3613100Y546900D02*
G01*
X3613100Y443099D01*
X3350000Y180000D01*
X3350000Y150000D01*
X1966300Y2546900D02*
G01*
X1966300Y2483699D01*
X2150000Y2300000D01*
X2150000Y2150000D01*
X1941000Y2546900D02*
G01*
X1941000Y2449000D01*
X2050000Y2340000D01*
X2050000Y2150000D01*
X1915600Y2546900D02*
G01*
X1915600Y2419499D01*
X1950000Y2385000D01*
X1950000Y2150000D01*
X1890000Y2546900D02*
G01*
X1890000Y2240000D01*
X1850000Y2200000D01*
X1850000Y2150000D01*
X1966000Y2783099D02*
G01*
X1966000Y2920999D01*
X2150000Y3105000D01*
X2150000Y3150000D01*
X1940799Y2783099D02*
G01*
X1940799Y2995799D01*
X2050000Y3105000D01*
X2050000Y3150000D01*
X1915200Y2783099D02*
G01*
X1915200Y3065200D01*
X1950000Y3100000D01*
X1950000Y3150000D01*
X1889549Y2783110D02*
G01*
X1889549Y3110450D01*
X1850000Y3150000D01*
X2866300Y2546900D02*
G01*
X2866300Y2473699D01*
X3050000Y2290000D01*
X3050000Y2150000D01*
X2841000Y2546900D02*
G01*
X2841000Y2449000D01*
X2950000Y2340000D01*
X2950000Y2150000D01*
X2815600Y2546900D02*
G01*
X2815600Y2424400D01*
X2850000Y2390000D01*
X2850000Y2150000D01*
X2790000Y2546900D02*
G01*
X2790000Y2235000D01*
X2750000Y2195000D01*
X2750000Y2150000D01*
X2866000Y2783099D02*
G01*
X2866000Y2915999D01*
X3050000Y3100000D01*
X3050000Y3150000D01*
X2840799Y2783099D02*
G01*
X2840799Y2995799D01*
X2950000Y3105000D01*
X2950000Y3150000D01*
X2815200Y2783099D02*
G01*
X2815200Y3065200D01*
X2850000Y3100000D01*
X2850000Y3150000D01*
X2789600Y2783099D02*
G01*
X2789600Y3065399D01*
X2750000Y3105000D01*
X2750000Y3150000D01*
X3766000Y2783099D02*
G01*
X3766000Y2915999D01*
X3950000Y3100000D01*
X3950000Y3150000D01*
X3850000Y3150000D02*
G01*
X3850000Y3100000D01*
X3740799Y2990799D01*
X3740799Y2783099D01*
X3715200Y2783099D02*
G01*
X3715200Y3070200D01*
X3750000Y3105000D01*
X3750000Y3150000D01*
X3689600Y2783099D02*
G01*
X3689600Y3060399D01*
X3650000Y3100000D01*
X3650000Y3150000D01*
X3766250Y2546889D02*
G01*
X3950000Y2363139D01*
X3950000Y2150000D01*
X3741049Y2546889D02*
G01*
X3741049Y2498950D01*
X3850000Y2390000D01*
X3850000Y2150000D01*
X3715550Y2546889D02*
G01*
X3715550Y2429450D01*
X3750000Y2395000D01*
X3750000Y2150000D01*
X3690000Y2546900D02*
G01*
X3690000Y2240000D01*
X3650000Y2200000D01*
X3650000Y2150000D01*
X3320000Y2717399D02*
G01*
X3320000Y2695000D01*
X3350000Y2665000D01*
X3600000Y2665000D01*
X3433999Y2546900D02*
G01*
X3433599Y2665000D01*
X3215000Y2711999D02*
G01*
X3261999Y2665000D01*
X3372439Y2665000D01*
X3215000Y2778000D02*
G01*
X3321999Y2885000D01*
X3425000Y2885000D01*
X3459399Y2849400D01*
X3459399Y2783099D01*
X1633999Y2546900D02*
G01*
X1633699Y2665000D01*
X2420000Y2772500D02*
G01*
X2420000Y2800000D01*
X2430000Y2810000D01*
X2484227Y2810000D01*
X2320000Y2808000D02*
G01*
X2381999Y2870000D01*
X2540000Y2870000D01*
X2559350Y2850650D01*
X2559350Y2783110D01*
X2420000Y2717440D02*
G01*
X2420000Y2690000D01*
X2445000Y2665000D01*
X2700000Y2665000D01*
X2320000Y2741999D02*
G01*
X2320000Y2705000D01*
X2360000Y2665000D01*
X2487399Y2665000D01*
X3766250Y4546889D02*
G01*
X3950000Y4363139D01*
X3950000Y4150000D01*
X3741049Y4546889D02*
G01*
X3741049Y4493950D01*
X3850000Y4385000D01*
X3850000Y4150000D01*
X3715600Y4546900D02*
G01*
X3715600Y4464499D01*
X3750000Y4430000D01*
X3750000Y4150000D01*
X3690000Y4546900D02*
G01*
X3690000Y4245000D01*
X3650000Y4205000D01*
X3650000Y4150000D01*
X3664399Y4546900D02*
G01*
X3664399Y4309400D01*
X3550000Y4195000D01*
X3550000Y4150000D01*
X3766049Y4783110D02*
G01*
X3950000Y4967060D01*
X3950000Y5150000D01*
X3740799Y4783099D02*
G01*
X3740799Y4835799D01*
X3850000Y4945000D01*
X3850000Y5150000D01*
X3715249Y4783110D02*
G01*
X3715249Y4880250D01*
X3750000Y4915000D01*
X3750000Y5150000D01*
X3689549Y4783110D02*
G01*
X3689549Y5035450D01*
X3650000Y5075000D01*
X3650000Y5150000D01*
X3663999Y4783099D02*
G01*
X3663999Y4995999D01*
X3550000Y5110000D01*
X3550000Y5150000D01*
X3450000Y5130000D02*
G01*
X3450000Y5150000D01*
X3350000Y5125000D02*
G01*
X3350000Y5150000D01*
X3270000Y5150000D02*
G01*
X3250000Y5150000D01*
X2866300Y4546900D02*
G01*
X2866300Y4503699D01*
X3050000Y4320000D01*
X3050000Y4150000D01*
X2841000Y4546900D02*
G01*
X2841000Y4484000D01*
X2950000Y4375000D01*
X2950000Y4150000D01*
X2815600Y4546900D02*
G01*
X2815600Y4459499D01*
X2850000Y4425000D01*
X2850000Y4150000D01*
X2790000Y4546900D02*
G01*
X2790000Y4250000D01*
X2750000Y4210000D01*
X2750000Y4150000D01*
X2764399Y4546900D02*
G01*
X2764399Y4309400D01*
X2650000Y4195000D01*
X2650000Y4150000D01*
X2866049Y4783110D02*
G01*
X3050000Y4967060D01*
X3050000Y5150000D01*
X2840799Y4783099D02*
G01*
X2840799Y4830799D01*
X2950000Y4940000D01*
X2950000Y5150000D01*
X2815249Y4783110D02*
G01*
X2815249Y4925250D01*
X2850000Y4960000D01*
X2850000Y5150000D01*
X2789549Y4783110D02*
G01*
X2789549Y5045450D01*
X2750000Y5085000D01*
X2750000Y5150000D01*
X2763999Y4783099D02*
G01*
X2763999Y5025999D01*
X2650000Y5140000D01*
X2650000Y5150000D01*
X2555000Y5150000D02*
G01*
X2550000Y5150000D01*
X2470000Y5150000D02*
G01*
X2450000Y5150000D01*
X2380000Y5150000D02*
G01*
X2350000Y5150000D01*
X1525000Y4767600D02*
G01*
X1525000Y4795000D01*
X1565000Y4835000D01*
X1587564Y4835000D01*
X1525000Y4712440D02*
G01*
X1572439Y4665000D01*
X1800000Y4665000D01*
X1410000Y4788000D02*
G01*
X1410000Y4810000D01*
X1470000Y4870000D01*
X1620000Y4870000D01*
X1659399Y4830599D01*
X1659399Y4783099D01*
X1410000Y4721999D02*
G01*
X1410000Y4700000D01*
X1445000Y4665000D01*
X1586199Y4665000D01*
X1633999Y4546900D02*
G01*
X1634200Y4665000D01*
X1966049Y4783110D02*
G01*
X2150000Y4967060D01*
X2150000Y5150000D01*
X1940850Y4783110D02*
G01*
X1940850Y4835850D01*
X2050000Y4945000D01*
X2050000Y5150000D01*
X1915249Y4783110D02*
G01*
X1915249Y4915250D01*
X1950000Y4950000D01*
X1950000Y5150000D01*
X1889600Y4783099D02*
G01*
X1889600Y5075400D01*
X1850000Y5115000D01*
X1850000Y5150000D01*
X1863999Y4783099D02*
G01*
X1863999Y5035999D01*
X1750000Y5150000D01*
X1550000Y5145000D02*
G01*
X1550000Y5150000D01*
X1966300Y4546900D02*
G01*
X1966300Y4488699D01*
X2150000Y4305000D01*
X2150000Y4150000D01*
X1941000Y4546900D02*
G01*
X1941000Y4469000D01*
X2050000Y4360000D01*
X2050000Y4150000D01*
X1915600Y4546900D02*
G01*
X1915600Y4464499D01*
X1950000Y4430000D01*
X1950000Y4150000D01*
X1890000Y4546900D02*
G01*
X1890000Y4250000D01*
X1850000Y4210000D01*
X1850000Y4150000D01*
X1864399Y4546900D02*
G01*
X1864399Y4309400D01*
X1750000Y4195000D01*
X1750000Y4150000D01*
X2395000Y4777500D02*
G01*
X2395000Y4815000D01*
X2415000Y4835000D01*
X2468517Y4835000D01*
X2395000Y4722399D02*
G01*
X2395000Y4695000D01*
X2425000Y4665000D01*
X2700000Y4665000D01*
X2533999Y4546900D02*
G01*
X2533199Y4665000D01*
X2315000Y4798000D02*
G01*
X2315000Y4830000D01*
X2350000Y4865000D01*
X2525000Y4865000D01*
X2559399Y4830599D01*
X2559399Y4783099D01*
X2315000Y4731999D02*
G01*
X2315000Y4695000D01*
X2345000Y4665000D01*
X2452399Y4665000D01*
X3433999Y4546900D02*
G01*
X3435000Y4665000D01*
X3600000Y4665000D01*
X3305000Y4787500D02*
G01*
X3305000Y4820000D01*
X3320000Y4835000D01*
X3410000Y4835000D01*
X3305000Y4732399D02*
G01*
X3305000Y4695000D01*
X3335000Y4665000D01*
X3435000Y4665000D01*
X3195000Y4823000D02*
G01*
X3195000Y4855000D01*
X3230000Y4890000D01*
X3405000Y4890000D01*
X3459399Y4835599D01*
X3459399Y4783099D01*
X3195000Y4756999D02*
G01*
X3195000Y4720000D01*
X3250000Y4665000D01*
X3335000Y4665000D01*
X3766300Y6546900D02*
G01*
X3766300Y6488699D01*
X3950000Y6305000D01*
X3950000Y6150000D01*
X3741000Y6546900D02*
G01*
X3741000Y6469000D01*
X3850000Y6360000D01*
X3850000Y6150000D01*
X3715600Y6546900D02*
G01*
X3715600Y6449499D01*
X3750000Y6415000D01*
X3750000Y6150000D01*
X3690000Y6546900D02*
G01*
X3690000Y6250000D01*
X3650000Y6210000D01*
X3650000Y6150000D01*
X3766049Y6783110D02*
G01*
X3950000Y6967060D01*
X3950000Y7150000D01*
X3740799Y6783099D02*
G01*
X3740799Y6850799D01*
X3850000Y6960000D01*
X3850000Y7150000D01*
X3715200Y6783099D02*
G01*
X3715200Y6880200D01*
X3750000Y6915000D01*
X3750000Y7150000D01*
X3689549Y6783110D02*
G01*
X3689549Y7030450D01*
X3650000Y7070000D01*
X3650000Y7150000D01*
X3663999Y6783099D02*
G01*
X3663999Y6985999D01*
X3550000Y7100000D01*
X3550000Y7150000D01*
X3255000Y7150000D02*
G01*
X3250000Y7150000D01*
X2866049Y6783110D02*
G01*
X3050000Y6967060D01*
X3050000Y7150000D01*
X2840850Y6783110D02*
G01*
X2840850Y6835850D01*
X2950000Y6945000D01*
X2950000Y7150000D01*
X2815249Y6783110D02*
G01*
X2815249Y6890250D01*
X2850000Y6925000D01*
X2850000Y7150000D01*
X2789600Y6783099D02*
G01*
X2789600Y7035400D01*
X2750000Y7075000D01*
X2750000Y7150000D01*
X2763999Y6783099D02*
G01*
X2763999Y7010999D01*
X2650000Y7125000D01*
X2650000Y7150000D01*
X2550000Y7125000D02*
G01*
X2550000Y7150000D01*
X2360000Y7150000D02*
G01*
X2350000Y7150000D01*
X2430000Y6777600D02*
G01*
X2430000Y6810000D01*
X2450000Y6830000D01*
X2484350Y6830000D01*
X2430000Y6722399D02*
G01*
X2430000Y6680000D01*
X2445000Y6665000D01*
X2700000Y6665000D01*
X2533999Y6546900D02*
G01*
X2533999Y6665000D01*
X2531800Y6665000D01*
X2310000Y6803000D02*
G01*
X2371999Y6865000D01*
X2520000Y6865000D01*
X2559399Y6825599D01*
X2559399Y6783099D01*
X2310000Y6736999D02*
G01*
X2310000Y6695000D01*
X2340000Y6665000D01*
X2465000Y6665000D01*
X1510000Y6717399D02*
G01*
X1510000Y6675000D01*
X1520000Y6665000D01*
X1800000Y6665000D01*
X1633999Y6546900D02*
G01*
X1634600Y6665000D01*
X1510000Y6772600D02*
G01*
X1510000Y6810000D01*
X1530000Y6830000D01*
X1579819Y6830000D01*
X1395000Y6803000D02*
G01*
X1395000Y6840000D01*
X1420000Y6865000D01*
X1630000Y6865000D01*
X1659399Y6835599D01*
X1659399Y6783099D01*
X1395000Y6736999D02*
G01*
X1395000Y6685000D01*
X1415000Y6665000D01*
X1552399Y6665000D01*
X1941000Y6546900D02*
G01*
X1941000Y6489000D01*
X2050000Y6380000D01*
X2050000Y6150000D01*
X1915600Y6546900D02*
G01*
X1915600Y6479400D01*
X1950000Y6445000D01*
X1950000Y6150000D01*
X1890000Y6546900D02*
G01*
X1890000Y6255000D01*
X1850000Y6215000D01*
X1850000Y6150000D01*
X1966049Y6783110D02*
G01*
X2150000Y6967060D01*
X2150000Y7150000D01*
X1940799Y6783099D02*
G01*
X1940799Y6835799D01*
X2050000Y6945000D01*
X2050000Y7150000D01*
X1915200Y6783099D02*
G01*
X1915200Y6860200D01*
X1950000Y6895000D01*
X1950000Y7150000D01*
X1889600Y6783099D02*
G01*
X1889600Y7055400D01*
X1850000Y7095000D01*
X1850000Y7150000D01*
X1550000Y7140000D02*
G01*
X1550000Y7150000D01*
X1736350Y546889D02*
G01*
X1735000Y545540D01*
X2661649Y783110D02*
G01*
X2660000Y784760D01*
X3587500Y546900D02*
G01*
X3587500Y462500D01*
X3350000Y225000D01*
X3260000Y225000D01*
X3250000Y215000D01*
X3250000Y150000D01*
X2636350Y2546889D02*
G01*
X2635000Y2548240D01*
X2635000Y2585000D01*
X1735000Y2750000D02*
G01*
X1736049Y2751050D01*
X1736049Y2783110D01*
X2636049Y2783110D02*
G01*
X2635000Y2782060D01*
X2635000Y2740000D01*
X3536350Y2546889D02*
G01*
X3535000Y2548240D01*
X3535000Y2590000D01*
X1736049Y6783110D02*
G01*
X1735000Y6782060D01*
X1735000Y6735000D01*
X2636350Y6546889D02*
G01*
X2635000Y6548240D01*
X2635000Y6595000D01*
X2636049Y6783110D02*
G01*
X2635000Y6782060D01*
X2635000Y6735000D01*
X3535000Y6585000D02*
G01*
X3536350Y6583649D01*
X3536350Y6546889D01*
X3315000Y6712440D02*
G01*
X3362439Y6665000D01*
X3600000Y6665000D01*
X3315000Y6767600D02*
G01*
X3315000Y6815000D01*
X3330000Y6830000D01*
X3415000Y6830000D01*
X3433800Y6811199D01*
X3433800Y6783099D01*
X3230000Y6716999D02*
G01*
X3230000Y6685000D01*
X3250000Y6665000D01*
X3362399Y6665000D01*
X3230000Y6783000D02*
G01*
X3230000Y6810000D01*
X3275000Y6855000D01*
X3430000Y6855000D01*
X3459399Y6825599D01*
X3459399Y6783099D01*
X1736049Y4783110D02*
G01*
X1735000Y4782060D01*
X1735000Y4745000D01*
X2636350Y4546889D02*
G01*
X2635000Y4548240D01*
X2635000Y4590000D01*
X2636049Y4783110D02*
G01*
X2635000Y4782060D01*
X2635000Y4740000D01*
X3536350Y4546889D02*
G01*
X3535000Y4548240D01*
X3535000Y4595000D01*
X1736347Y4546889D02*
G01*
X1735000Y4548236D01*
X1735000Y4590000D01*
X3536049Y6783110D02*
G01*
X3535000Y6782060D01*
X3535000Y6735000D01*
X1736347Y2546889D02*
G01*
X1735000Y2548236D01*
X1735000Y2590000D01*
X3536049Y4783110D02*
G01*
X3535000Y4782060D01*
X3535000Y4740000D01*
X3536049Y2783110D02*
G01*
X3535000Y2782060D01*
X3535000Y2740000D01*
X1735000Y590000D02*
G01*
X1736350Y588649D01*
X1736350Y546889D01*
D12*
X585000Y2207561D02*
G01*
X585000Y2295000D01*
X585000Y2152440D02*
G01*
X585000Y2072827D01*
D10*
X585000Y1951700D02*
G01*
X690000Y1951700D01*
X585000Y1951700D02*
G01*
X540000Y1951700D01*
X485000Y1896700D01*
X485000Y1720000D01*
D12*
X585000Y2072827D02*
G01*
X585000Y1951698D01*
X935000Y1612600D02*
G01*
X935000Y2080000D01*
X840000Y2175000D01*
X840000Y2937399D01*
D11*
X3110000Y7380000D02*
G01*
X3122439Y7392440D01*
X3122439Y7530000D01*
D12*
X5085000Y1265000D02*
G01*
X5085000Y1145000D01*
D14*
X2703000Y7855000D02*
G01*
X2570000Y7855000D01*
X2710000Y7635000D02*
G01*
X2710000Y7635000D01*
X2710000Y7721999D01*
D11*
X5016999Y846500D02*
G01*
X4975000Y888499D01*
X4975000Y1100000D01*
X4900000Y1175000D01*
X4430000Y1175000D01*
D12*
X5085000Y1076498D02*
G01*
X5085000Y1145000D01*
X4967440Y2700000D02*
G01*
X4830000Y2700000D01*
X4726499Y2700000D01*
X4580000Y2695000D02*
G01*
X4663500Y2695000D01*
X4663500Y2700000D01*
D15*
G01*
X4663500Y2700000D03*
G01*
X4726490Y2700000D03*
D16*
G01*
X365999Y5185000D03*
G01*
X444000Y5185000D03*
G01*
X375999Y5415000D03*
G01*
X454000Y5415000D03*
D17*
G01*
X3149960Y8031030D03*
D19*
G01*
X3249949Y7628950D03*
G01*
X3049949Y7628950D03*
D17*
G01*
X4049960Y8031030D03*
D19*
G01*
X4149949Y7628950D03*
G01*
X3949949Y7628950D03*
D17*
G01*
X4949960Y7031030D03*
D19*
G01*
X5049949Y6628950D03*
G01*
X4849949Y6628950D03*
D17*
G01*
X4949960Y8031030D03*
D19*
G01*
X5049949Y7628950D03*
G01*
X4849949Y7628950D03*
D17*
G01*
X1349960Y8031030D03*
D19*
G01*
X1449949Y7628950D03*
G01*
X1249949Y7628950D03*
D17*
G01*
X2249960Y8031030D03*
D19*
G01*
X2349949Y7628950D03*
G01*
X2149949Y7628950D03*
D17*
G01*
X449960Y7031030D03*
D19*
G01*
X549949Y6628950D03*
G01*
X349949Y6628950D03*
D20*
G01*
X1510000Y6717440D03*
G01*
X1510000Y6772550D03*
G01*
X2430000Y6722440D03*
G01*
X2430000Y6777550D03*
G01*
X3315000Y6712440D03*
G01*
X3315000Y6767550D03*
G01*
X1525000Y4712440D03*
G01*
X1525000Y4767550D03*
G01*
X2420000Y2717440D03*
G01*
X2420000Y2772550D03*
G01*
X1550000Y2717440D03*
G01*
X1550000Y2772550D03*
G01*
X3305000Y4732440D03*
G01*
X3305000Y4787550D03*
G01*
X2395000Y4722440D03*
G01*
X2395000Y4777550D03*
G01*
X3330000Y732440D03*
G01*
X3330000Y787550D03*
G01*
X2435000Y722440D03*
G01*
X2435000Y777550D03*
G01*
X1550000Y722440D03*
G01*
X1550000Y777550D03*
G01*
X3320000Y2717440D03*
G01*
X3320000Y2772550D03*
D15*
G01*
X1395000Y6803000D03*
G01*
X1395000Y6736999D03*
G01*
X2310000Y6803000D03*
G01*
X2310000Y6736999D03*
G01*
X3230000Y6783000D03*
G01*
X3230000Y6716999D03*
G01*
X1410000Y4788000D03*
G01*
X1410000Y4721999D03*
G01*
X2320000Y2808000D03*
G01*
X2320000Y2741999D03*
G01*
X1455000Y2783000D03*
G01*
X1455000Y2716999D03*
G01*
X3195000Y4823000D03*
G01*
X3195000Y4756999D03*
G01*
X2315000Y4798000D03*
G01*
X2315000Y4731999D03*
G01*
X3210000Y803000D03*
G01*
X3210000Y736999D03*
G01*
X2350000Y793000D03*
G01*
X2350000Y726999D03*
G01*
X1465000Y838000D03*
G01*
X1465000Y771999D03*
G01*
X3215000Y2778000D03*
G01*
X3215000Y2711999D03*
D21*
G01*
X585000Y1951700D03*
G01*
X585000Y1918299D03*
D22*
G01*
X543299Y980000D03*
G01*
X576700Y980000D03*
G01*
X653299Y1410000D03*
G01*
X686700Y1410000D03*
D21*
G01*
X690000Y1951700D03*
G01*
X690000Y1918299D03*
D23*
G01*
X540010Y4969989D03*
G01*
X620010Y4969989D03*
G01*
X720010Y4729989D03*
G01*
X800010Y4729989D03*
G01*
X390010Y4969989D03*
G01*
X310010Y4969989D03*
G01*
X445010Y4359989D03*
G01*
X365010Y4359989D03*
D15*
G01*
X3122439Y7530000D03*
G01*
X3177560Y7530000D03*
D20*
G01*
X2935000Y7352440D03*
G01*
X2935000Y7407550D03*
D15*
G01*
X2837560Y7410000D03*
G01*
X2782449Y7410000D03*
G01*
X3697560Y7415000D03*
G01*
X3642449Y7415000D03*
D20*
G01*
X3790000Y7352440D03*
G01*
X3790000Y7407550D03*
D15*
G01*
X4027439Y7520000D03*
G01*
X4082560Y7520000D03*
G01*
X4927439Y6530000D03*
G01*
X4982560Y6530000D03*
D20*
G01*
X5005000Y6202440D03*
G01*
X5005000Y6257550D03*
G01*
X4925000Y6257559D03*
G01*
X4925000Y6202440D03*
D15*
G01*
X4567560Y7440000D03*
G01*
X4512449Y7440000D03*
D20*
G01*
X4665000Y7382440D03*
G01*
X4665000Y7437550D03*
D15*
G01*
X4922439Y7515000D03*
G01*
X4977560Y7515000D03*
G01*
X1327439Y7510000D03*
G01*
X1382560Y7510000D03*
D20*
G01*
X1125000Y7352440D03*
G01*
X1125000Y7407550D03*
D15*
G01*
X992560Y7420000D03*
G01*
X937449Y7420000D03*
G01*
X1922560Y7435000D03*
G01*
X1867449Y7435000D03*
D20*
G01*
X2035000Y7372440D03*
G01*
X2035000Y7427550D03*
D15*
G01*
X2222439Y7540000D03*
G01*
X2277560Y7540000D03*
G01*
X422440Y7525000D03*
G01*
X477559Y7525000D03*
D20*
G01*
X240000Y7372440D03*
G01*
X240000Y7427550D03*
G01*
X140000Y7427559D03*
G01*
X140000Y7372440D03*
G01*
X135000Y6342559D03*
G01*
X135000Y6287440D03*
G01*
X230000Y6287440D03*
G01*
X230000Y6342550D03*
D15*
G01*
X422440Y6520000D03*
G01*
X477559Y6520000D03*
D20*
G01*
X1880000Y5532440D03*
G01*
X1880000Y5587550D03*
G01*
X1660000Y5437440D03*
G01*
X1660000Y5492550D03*
D15*
G01*
X1577560Y5495000D03*
G01*
X1522449Y5495000D03*
D20*
G01*
X1800000Y5662440D03*
G01*
X1800000Y5717550D03*
D15*
G01*
X2042560Y5810000D03*
G01*
X1987449Y5810000D03*
G01*
X3807560Y1830000D03*
G01*
X3752449Y1830000D03*
D20*
G01*
X3535000Y1692440D03*
G01*
X3535000Y1747550D03*
D15*
G01*
X3292560Y1490000D03*
G01*
X3237449Y1490000D03*
D20*
G01*
X3400000Y1432440D03*
G01*
X3400000Y1487550D03*
G01*
X3620000Y1547440D03*
G01*
X3620000Y1602550D03*
G01*
X3640000Y5532440D03*
G01*
X3640000Y5587550D03*
D15*
G01*
X3277560Y5490000D03*
G01*
X3222449Y5490000D03*
D20*
G01*
X3555000Y5682440D03*
G01*
X3555000Y5737550D03*
D15*
G01*
X3812560Y5805000D03*
G01*
X3757449Y5805000D03*
G01*
X3772560Y3840000D03*
G01*
X3717449Y3840000D03*
D20*
G01*
X3515000Y3697440D03*
G01*
X3515000Y3752550D03*
D15*
G01*
X3262560Y3750000D03*
G01*
X3207449Y3750000D03*
D20*
G01*
X3270000Y3582440D03*
G01*
X3270000Y3637550D03*
G01*
X3590000Y3562440D03*
G01*
X3590000Y3617550D03*
G01*
X1850000Y1542440D03*
G01*
X1850000Y1597550D03*
G01*
X1640000Y1432440D03*
G01*
X1640000Y1487550D03*
D15*
G01*
X1547560Y1490000D03*
G01*
X1492449Y1490000D03*
D20*
G01*
X1770000Y1652440D03*
G01*
X1770000Y1707550D03*
D15*
G01*
X2022560Y1815000D03*
G01*
X1967449Y1815000D03*
G01*
X2992560Y1860000D03*
G01*
X2937449Y1860000D03*
D20*
G01*
X2635000Y1742440D03*
G01*
X2635000Y1797550D03*
D15*
G01*
X2432560Y1520000D03*
G01*
X2377449Y1520000D03*
D20*
G01*
X2530000Y1467440D03*
G01*
X2530000Y1522550D03*
G01*
X2725000Y1587440D03*
G01*
X2725000Y1642550D03*
D15*
G01*
X2942560Y5815000D03*
G01*
X2887449Y5815000D03*
D20*
G01*
X2675000Y5687440D03*
G01*
X2675000Y5742550D03*
D15*
G01*
X2462560Y5510000D03*
G01*
X2407449Y5510000D03*
D20*
G01*
X2550000Y5452440D03*
G01*
X2550000Y5507550D03*
G01*
X2760000Y5547440D03*
G01*
X2760000Y5602550D03*
D15*
G01*
X3892439Y735000D03*
G01*
X3947560Y735000D03*
D20*
G01*
X4025000Y682559D03*
G01*
X4025000Y627440D03*
D22*
G01*
X516700Y620000D03*
G01*
X483299Y620000D03*
D21*
G01*
X5320000Y518299D03*
G01*
X5320000Y551700D03*
D15*
G01*
X426529Y4725000D03*
G01*
X363530Y4725000D03*
D24*
G01*
X3660000Y1789200D03*
G01*
X3697399Y1690799D03*
G01*
X3622600Y1690799D03*
G01*
X3680000Y5769200D03*
G01*
X3717399Y5670799D03*
G01*
X3642600Y5670799D03*
G01*
X3630000Y3794200D03*
G01*
X3667399Y3695799D03*
G01*
X3592600Y3695799D03*
G01*
X1885000Y1774200D03*
G01*
X1922399Y1675799D03*
G01*
X1847600Y1675799D03*
G01*
X2760000Y1829200D03*
G01*
X2797399Y1730799D03*
G01*
X2722600Y1730799D03*
G01*
X2800000Y5779200D03*
G01*
X2837399Y5680799D03*
G01*
X2762600Y5680799D03*
D20*
G01*
X840000Y2937440D03*
G01*
X840000Y2992550D03*
D15*
G01*
X1772560Y3460000D03*
G01*
X1717449Y3460000D03*
G01*
X782559Y5085000D03*
G01*
X727449Y5085000D03*
D20*
G01*
X585000Y2152440D03*
G01*
X585000Y2207550D03*
G01*
X5085029Y1076500D03*
G01*
X5085029Y1013510D03*
G01*
X935030Y1331500D03*
G01*
X935030Y1268510D03*
D22*
G01*
X506700Y475000D03*
G01*
X473299Y475000D03*
G01*
X4556700Y475000D03*
G01*
X4523299Y475000D03*
D25*
G01*
X1800050Y6664949D03*
D26*
G01*
X1633800Y6783060D03*
G01*
X1659399Y6783060D03*
G01*
X1685100Y6783060D03*
G01*
X1710500Y6783060D03*
G01*
X1736099Y6783060D03*
G01*
X1761700Y6783060D03*
G01*
X1787299Y6783060D03*
G01*
X1813000Y6783060D03*
G01*
X1838400Y6783060D03*
G01*
X1863999Y6783060D03*
G01*
X1889600Y6783060D03*
G01*
X1915299Y6783060D03*
G01*
X1940900Y6783060D03*
G01*
X1966099Y6783060D03*
G01*
X1966300Y6546840D03*
G01*
X1941099Y6546840D03*
G01*
X1915600Y6546840D03*
G01*
X1890000Y6546840D03*
G01*
X1864399Y6546840D03*
G01*
X1838800Y6546840D03*
G01*
X1813199Y6546840D03*
G01*
X1787600Y6546840D03*
G01*
X1761999Y6546840D03*
G01*
X1736400Y6546840D03*
G01*
X1710799Y6546840D03*
G01*
X1685200Y6546840D03*
G01*
X1659600Y6546840D03*
G01*
X1634099Y6546840D03*
D25*
G01*
X2700050Y6664949D03*
D26*
G01*
X2533800Y6783060D03*
G01*
X2559399Y6783060D03*
G01*
X2585100Y6783060D03*
G01*
X2610500Y6783060D03*
G01*
X2636099Y6783060D03*
G01*
X2661700Y6783060D03*
G01*
X2687299Y6783060D03*
G01*
X2713000Y6783060D03*
G01*
X2738400Y6783060D03*
G01*
X2763999Y6783060D03*
G01*
X2789600Y6783060D03*
G01*
X2815299Y6783060D03*
G01*
X2840900Y6783060D03*
G01*
X2866099Y6783060D03*
G01*
X2866300Y6546840D03*
G01*
X2841099Y6546840D03*
G01*
X2815600Y6546840D03*
G01*
X2790000Y6546840D03*
G01*
X2764399Y6546840D03*
G01*
X2738800Y6546840D03*
G01*
X2713199Y6546840D03*
G01*
X2687600Y6546840D03*
G01*
X2661999Y6546840D03*
G01*
X2636400Y6546840D03*
G01*
X2610799Y6546840D03*
G01*
X2585200Y6546840D03*
G01*
X2559600Y6546840D03*
G01*
X2534099Y6546840D03*
D25*
G01*
X3600050Y6664949D03*
D26*
G01*
X3433800Y6783060D03*
G01*
X3459399Y6783060D03*
G01*
X3485100Y6783060D03*
G01*
X3510500Y6783060D03*
G01*
X3536099Y6783060D03*
G01*
X3561700Y6783060D03*
G01*
X3587299Y6783060D03*
G01*
X3613000Y6783060D03*
G01*
X3638400Y6783060D03*
G01*
X3663999Y6783060D03*
G01*
X3689600Y6783060D03*
G01*
X3715299Y6783060D03*
G01*
X3740900Y6783060D03*
G01*
X3766099Y6783060D03*
G01*
X3766300Y6546840D03*
G01*
X3741099Y6546840D03*
G01*
X3715600Y6546840D03*
G01*
X3690000Y6546840D03*
G01*
X3664399Y6546840D03*
G01*
X3638800Y6546840D03*
G01*
X3613199Y6546840D03*
G01*
X3587600Y6546840D03*
G01*
X3561999Y6546840D03*
G01*
X3536400Y6546840D03*
G01*
X3510799Y6546840D03*
G01*
X3485200Y6546840D03*
G01*
X3459600Y6546840D03*
G01*
X3434099Y6546840D03*
D25*
G01*
X1800050Y4664949D03*
D26*
G01*
X1633800Y4783060D03*
G01*
X1659399Y4783060D03*
G01*
X1685100Y4783060D03*
G01*
X1710500Y4783060D03*
G01*
X1736099Y4783060D03*
G01*
X1761700Y4783060D03*
G01*
X1787299Y4783060D03*
G01*
X1813000Y4783060D03*
G01*
X1838400Y4783060D03*
G01*
X1863999Y4783060D03*
G01*
X1889600Y4783060D03*
G01*
X1915299Y4783060D03*
G01*
X1940900Y4783060D03*
G01*
X1966099Y4783060D03*
G01*
X1966300Y4546840D03*
G01*
X1941099Y4546840D03*
G01*
X1915600Y4546840D03*
G01*
X1890000Y4546840D03*
G01*
X1864399Y4546840D03*
G01*
X1838800Y4546840D03*
G01*
X1813199Y4546840D03*
G01*
X1787600Y4546840D03*
G01*
X1761999Y4546840D03*
G01*
X1736400Y4546840D03*
G01*
X1710799Y4546840D03*
G01*
X1685200Y4546840D03*
G01*
X1659600Y4546840D03*
G01*
X1634099Y4546840D03*
D25*
G01*
X2700050Y2664949D03*
D26*
G01*
X2533800Y2783060D03*
G01*
X2559399Y2783060D03*
G01*
X2585100Y2783060D03*
G01*
X2610500Y2783060D03*
G01*
X2636099Y2783060D03*
G01*
X2661700Y2783060D03*
G01*
X2687299Y2783060D03*
G01*
X2713000Y2783060D03*
G01*
X2738400Y2783060D03*
G01*
X2763999Y2783060D03*
G01*
X2789600Y2783060D03*
G01*
X2815299Y2783060D03*
G01*
X2840900Y2783060D03*
G01*
X2866099Y2783060D03*
G01*
X2866300Y2546840D03*
G01*
X2841099Y2546840D03*
G01*
X2815600Y2546840D03*
G01*
X2790000Y2546840D03*
G01*
X2764399Y2546840D03*
G01*
X2738800Y2546840D03*
G01*
X2713199Y2546840D03*
G01*
X2687600Y2546840D03*
G01*
X2661999Y2546840D03*
G01*
X2636400Y2546840D03*
G01*
X2610799Y2546840D03*
G01*
X2585200Y2546840D03*
G01*
X2559600Y2546840D03*
G01*
X2534099Y2546840D03*
D25*
G01*
X1800050Y2664949D03*
D26*
G01*
X1633800Y2783060D03*
G01*
X1659399Y2783060D03*
G01*
X1685100Y2783060D03*
G01*
X1710500Y2783060D03*
G01*
X1736099Y2783060D03*
G01*
X1761700Y2783060D03*
G01*
X1787299Y2783060D03*
G01*
X1813000Y2783060D03*
G01*
X1838400Y2783060D03*
G01*
X1863999Y2783060D03*
G01*
X1889600Y2783060D03*
G01*
X1915299Y2783060D03*
G01*
X1940900Y2783060D03*
G01*
X1966099Y2783060D03*
G01*
X1966300Y2546840D03*
G01*
X1941099Y2546840D03*
G01*
X1915600Y2546840D03*
G01*
X1890000Y2546840D03*
G01*
X1864399Y2546840D03*
G01*
X1838800Y2546840D03*
G01*
X1813199Y2546840D03*
G01*
X1787600Y2546840D03*
G01*
X1761999Y2546840D03*
G01*
X1736400Y2546840D03*
G01*
X1710799Y2546840D03*
G01*
X1685200Y2546840D03*
G01*
X1659600Y2546840D03*
G01*
X1634099Y2546840D03*
D25*
G01*
X3600050Y4664949D03*
D26*
G01*
X3433800Y4783060D03*
G01*
X3459399Y4783060D03*
G01*
X3485100Y4783060D03*
G01*
X3510500Y4783060D03*
G01*
X3536099Y4783060D03*
G01*
X3561700Y4783060D03*
G01*
X3587299Y4783060D03*
G01*
X3613000Y4783060D03*
G01*
X3638400Y4783060D03*
G01*
X3663999Y4783060D03*
G01*
X3689600Y4783060D03*
G01*
X3715299Y4783060D03*
G01*
X3740900Y4783060D03*
G01*
X3766099Y4783060D03*
G01*
X3766300Y4546840D03*
G01*
X3741099Y4546840D03*
G01*
X3715600Y4546840D03*
G01*
X3690000Y4546840D03*
G01*
X3664399Y4546840D03*
G01*
X3638800Y4546840D03*
G01*
X3613199Y4546840D03*
G01*
X3587600Y4546840D03*
G01*
X3561999Y4546840D03*
G01*
X3536400Y4546840D03*
G01*
X3510799Y4546840D03*
G01*
X3485200Y4546840D03*
G01*
X3459600Y4546840D03*
G01*
X3434099Y4546840D03*
D25*
G01*
X2700050Y4664949D03*
D26*
G01*
X2533800Y4783060D03*
G01*
X2559399Y4783060D03*
G01*
X2585100Y4783060D03*
G01*
X2610500Y4783060D03*
G01*
X2636099Y4783060D03*
G01*
X2661700Y4783060D03*
G01*
X2687299Y4783060D03*
G01*
X2713000Y4783060D03*
G01*
X2738400Y4783060D03*
G01*
X2763999Y4783060D03*
G01*
X2789600Y4783060D03*
G01*
X2815299Y4783060D03*
G01*
X2840900Y4783060D03*
G01*
X2866099Y4783060D03*
G01*
X2866300Y4546840D03*
G01*
X2841099Y4546840D03*
G01*
X2815600Y4546840D03*
G01*
X2790000Y4546840D03*
G01*
X2764399Y4546840D03*
G01*
X2738800Y4546840D03*
G01*
X2713199Y4546840D03*
G01*
X2687600Y4546840D03*
G01*
X2661999Y4546840D03*
G01*
X2636400Y4546840D03*
G01*
X2610799Y4546840D03*
G01*
X2585200Y4546840D03*
G01*
X2559600Y4546840D03*
G01*
X2534099Y4546840D03*
D25*
G01*
X3600050Y664949D03*
D26*
G01*
X3433800Y783060D03*
G01*
X3459399Y783060D03*
G01*
X3485100Y783060D03*
G01*
X3510500Y783060D03*
G01*
X3536099Y783060D03*
G01*
X3561700Y783060D03*
G01*
X3587299Y783060D03*
G01*
X3613000Y783060D03*
G01*
X3638400Y783060D03*
G01*
X3663999Y783060D03*
G01*
X3689600Y783060D03*
G01*
X3715299Y783060D03*
G01*
X3740900Y783060D03*
G01*
X3766099Y783060D03*
G01*
X3766300Y546840D03*
G01*
X3741099Y546840D03*
G01*
X3715600Y546840D03*
G01*
X3690000Y546840D03*
G01*
X3664399Y546840D03*
G01*
X3638800Y546840D03*
G01*
X3613199Y546840D03*
G01*
X3587600Y546840D03*
G01*
X3561999Y546840D03*
G01*
X3536400Y546840D03*
G01*
X3510799Y546840D03*
G01*
X3485200Y546840D03*
G01*
X3459600Y546840D03*
G01*
X3434099Y546840D03*
D25*
G01*
X2700050Y664949D03*
D26*
G01*
X2533800Y783060D03*
G01*
X2559399Y783060D03*
G01*
X2585100Y783060D03*
G01*
X2610500Y783060D03*
G01*
X2636099Y783060D03*
G01*
X2661700Y783060D03*
G01*
X2687299Y783060D03*
G01*
X2713000Y783060D03*
G01*
X2738400Y783060D03*
G01*
X2763999Y783060D03*
G01*
X2789600Y783060D03*
G01*
X2815299Y783060D03*
G01*
X2840900Y783060D03*
G01*
X2866099Y783060D03*
G01*
X2866300Y546840D03*
G01*
X2841099Y546840D03*
G01*
X2815600Y546840D03*
G01*
X2790000Y546840D03*
G01*
X2764399Y546840D03*
G01*
X2738800Y546840D03*
G01*
X2713199Y546840D03*
G01*
X2687600Y546840D03*
G01*
X2661999Y546840D03*
G01*
X2636400Y546840D03*
G01*
X2610799Y546840D03*
G01*
X2585200Y546840D03*
G01*
X2559600Y546840D03*
G01*
X2534099Y546840D03*
D25*
G01*
X1800050Y664949D03*
D26*
G01*
X1633800Y783060D03*
G01*
X1659399Y783060D03*
G01*
X1685100Y783060D03*
G01*
X1710500Y783060D03*
G01*
X1736099Y783060D03*
G01*
X1761700Y783060D03*
G01*
X1787299Y783060D03*
G01*
X1813000Y783060D03*
G01*
X1838400Y783060D03*
G01*
X1863999Y783060D03*
G01*
X1889600Y783060D03*
G01*
X1915299Y783060D03*
G01*
X1940900Y783060D03*
G01*
X1966099Y783060D03*
G01*
X1966300Y546840D03*
G01*
X1941099Y546840D03*
G01*
X1915600Y546840D03*
G01*
X1890000Y546840D03*
G01*
X1864399Y546840D03*
G01*
X1838800Y546840D03*
G01*
X1813199Y546840D03*
G01*
X1787600Y546840D03*
G01*
X1761999Y546840D03*
G01*
X1736400Y546840D03*
G01*
X1710799Y546840D03*
G01*
X1685200Y546840D03*
G01*
X1659600Y546840D03*
G01*
X1634099Y546840D03*
D25*
G01*
X3600050Y2664949D03*
D26*
G01*
X3433800Y2783060D03*
G01*
X3459399Y2783060D03*
G01*
X3485100Y2783060D03*
G01*
X3510500Y2783060D03*
G01*
X3536099Y2783060D03*
G01*
X3561700Y2783060D03*
G01*
X3587299Y2783060D03*
G01*
X3613000Y2783060D03*
G01*
X3638400Y2783060D03*
G01*
X3663999Y2783060D03*
G01*
X3689600Y2783060D03*
G01*
X3715299Y2783060D03*
G01*
X3740900Y2783060D03*
G01*
X3766099Y2783060D03*
G01*
X3766300Y2546840D03*
G01*
X3741099Y2546840D03*
G01*
X3715600Y2546840D03*
G01*
X3690000Y2546840D03*
G01*
X3664399Y2546840D03*
G01*
X3638800Y2546840D03*
G01*
X3613199Y2546840D03*
G01*
X3587600Y2546840D03*
G01*
X3561999Y2546840D03*
G01*
X3536400Y2546840D03*
G01*
X3510799Y2546840D03*
G01*
X3485200Y2546840D03*
G01*
X3459600Y2546840D03*
G01*
X3434099Y2546840D03*
D20*
G01*
X1040000Y517440D03*
G01*
X1040000Y572550D03*
D15*
G01*
X512440Y550000D03*
G01*
X567559Y550000D03*
G01*
X4567439Y550000D03*
G01*
X4622560Y550000D03*
G01*
X5112560Y520000D03*
G01*
X5057449Y520000D03*
D24*
G01*
X555000Y1169200D03*
G01*
X592399Y1070799D03*
G01*
X517600Y1070799D03*
G01*
X690000Y1574200D03*
G01*
X727399Y1475799D03*
G01*
X652600Y1475799D03*
D27*
G01*
X577600Y5419050D03*
G01*
X652399Y5419050D03*
G01*
X652399Y5300940D03*
G01*
X615000Y5300940D03*
G01*
X577600Y5300940D03*
D28*
G01*
X2710010Y7721999D03*
G01*
X2710010Y7847990D03*
D29*
G01*
X3110020Y7379969D03*
G01*
X3030020Y7353969D03*
G01*
X3030020Y7405970D03*
G01*
X3980020Y7379969D03*
G01*
X3900020Y7353969D03*
G01*
X3900020Y7405970D03*
G01*
X5185020Y6229969D03*
G01*
X5105020Y6203969D03*
G01*
X5105020Y6255970D03*
G01*
X4860020Y7409969D03*
G01*
X4780020Y7383969D03*
G01*
X4780020Y7435970D03*
G01*
X1300020Y7389969D03*
G01*
X1220020Y7363969D03*
G01*
X1220020Y7415970D03*
G01*
X2200020Y7399969D03*
G01*
X2120020Y7373969D03*
G01*
X2120020Y7425970D03*
G01*
X410019Y7394969D03*
G01*
X330019Y7368969D03*
G01*
X330019Y7420970D03*
G01*
X425019Y6319969D03*
G01*
X345019Y6293969D03*
G01*
X345019Y6345970D03*
G01*
X1845020Y5454969D03*
G01*
X1765020Y5428969D03*
G01*
X1765020Y5480970D03*
G01*
X3590020Y1459969D03*
G01*
X3510020Y1433969D03*
G01*
X3510020Y1485970D03*
G01*
X3570020Y5459969D03*
G01*
X3490020Y5433969D03*
G01*
X3490020Y5485970D03*
G01*
X3480020Y3609969D03*
G01*
X3400020Y3583969D03*
G01*
X3400020Y3635970D03*
G01*
X1820020Y1459969D03*
G01*
X1740020Y1433969D03*
G01*
X1740020Y1485970D03*
G01*
X2720020Y5474969D03*
G01*
X2640020Y5448969D03*
G01*
X2640020Y5500970D03*
D30*
G01*
X738000Y413710D03*
D31*
G01*
X690560Y508099D03*
G01*
X674819Y508099D03*
G01*
X659070Y508099D03*
G01*
X643319Y508099D03*
D30*
G01*
X611959Y460689D03*
G01*
X611959Y444929D03*
G01*
X611959Y429180D03*
G01*
X611959Y413429D03*
D31*
G01*
X659600Y381950D03*
G01*
X675290Y381950D03*
G01*
X690990Y381950D03*
G01*
X706689Y381950D03*
D30*
G01*
X738000Y429459D03*
G01*
X738000Y445210D03*
G01*
X738000Y460960D03*
G01*
X738000Y476700D03*
D31*
G01*
X643899Y381939D03*
D30*
G01*
X611990Y476520D03*
D31*
G01*
X706449Y508060D03*
D30*
G01*
X4803000Y413710D03*
D31*
G01*
X4755569Y508099D03*
G01*
X4739820Y508099D03*
G01*
X4724070Y508099D03*
G01*
X4708320Y508099D03*
D30*
G01*
X4676959Y460689D03*
G01*
X4676959Y444929D03*
G01*
X4676959Y429180D03*
G01*
X4676959Y413429D03*
D31*
G01*
X4724600Y381950D03*
G01*
X4740299Y381950D03*
G01*
X4755990Y381950D03*
G01*
X4771689Y381950D03*
D30*
G01*
X4803000Y429459D03*
G01*
X4803000Y445210D03*
G01*
X4803000Y460960D03*
G01*
X4803000Y476700D03*
D31*
G01*
X4708900Y381939D03*
D30*
G01*
X4676989Y476520D03*
D31*
G01*
X4771450Y508060D03*
D32*
G01*
X935000Y1148499D03*
G01*
X935000Y1081500D03*
G01*
X5085000Y913499D03*
G01*
X5085000Y846500D03*
D33*
G01*
X604499Y4867559D03*
G01*
X585500Y4867559D03*
G01*
X565500Y4867559D03*
G01*
X545500Y4867559D03*
G01*
X545500Y4812440D03*
G01*
X565500Y4812440D03*
G01*
X585500Y4812440D03*
G01*
X604499Y4812440D03*
D34*
G01*
X474259Y4555000D03*
G01*
X655749Y4555000D03*
D17*
G01*
X450010Y8031050D03*
D19*
G01*
X550000Y7628960D03*
G01*
X350000Y7628960D03*
D24*
G01*
X1920000Y5759200D03*
G01*
X1957399Y5660799D03*
G01*
X1882600Y5660799D03*
D29*
G01*
X2725000Y1490000D03*
G01*
X2645000Y1464000D03*
G01*
X2645000Y1515999D03*
D20*
G01*
X3365000Y5432440D03*
G01*
X3365000Y5487550D03*
D35*
G01*
X440000Y705000D03*
G01*
X540000Y705000D03*
G01*
X640000Y705000D03*
G01*
X740000Y705000D03*
G01*
X840000Y705000D03*
D36*
G01*
X940000Y705000D03*
G01*
X140000Y250000D03*
D35*
G01*
X240000Y250000D03*
G01*
X340000Y250000D03*
G01*
X440000Y250000D03*
G01*
X540000Y250000D03*
G01*
X640000Y250000D03*
G01*
X740000Y250000D03*
G01*
X840000Y250000D03*
G01*
X940000Y250000D03*
G01*
X1040000Y250000D03*
G01*
X1140000Y250000D03*
G01*
X1240000Y250000D03*
D36*
G01*
X4165000Y245000D03*
D35*
G01*
X4265000Y245000D03*
G01*
X4365000Y245000D03*
G01*
X4465000Y245000D03*
G01*
X4565000Y245000D03*
G01*
X4665000Y245000D03*
G01*
X4765000Y245000D03*
G01*
X4865000Y245000D03*
G01*
X4965000Y245000D03*
G01*
X5065000Y245000D03*
G01*
X5165000Y245000D03*
G01*
X5265000Y245000D03*
G01*
X4425000Y2700000D03*
G01*
X4425000Y2800000D03*
G01*
X4425000Y2900000D03*
G01*
X4425000Y3000000D03*
G01*
X4425000Y3100000D03*
G01*
X4425000Y3200000D03*
G01*
X4425000Y3300000D03*
G01*
X4425000Y3400000D03*
G01*
X4425000Y3500000D03*
G01*
X4425000Y3600000D03*
G01*
X4425000Y3700000D03*
G01*
X4425000Y3800000D03*
G01*
X4425000Y3900000D03*
G01*
X4425000Y4000000D03*
G01*
X4425000Y4100000D03*
G01*
X4425000Y4200000D03*
G01*
X4425000Y4300000D03*
G01*
X4425000Y4400000D03*
G01*
X4425000Y4500000D03*
D36*
G01*
X4425000Y4600000D03*
D35*
G01*
X4975000Y2700000D03*
G01*
X4975000Y2800000D03*
G01*
X4975000Y2900000D03*
G01*
X4975000Y3000000D03*
G01*
X4975000Y3100000D03*
G01*
X4975000Y3200000D03*
G01*
X4975000Y3300000D03*
G01*
X4975000Y3400000D03*
G01*
X4975000Y3500000D03*
G01*
X4975000Y3600000D03*
G01*
X4975000Y3700000D03*
G01*
X4975000Y3800000D03*
G01*
X4975000Y3900000D03*
G01*
X4975000Y4000000D03*
G01*
X4975000Y4100000D03*
G01*
X4975000Y4200000D03*
G01*
X4975000Y4300000D03*
G01*
X4975000Y4400000D03*
G01*
X4975000Y4500000D03*
D36*
G01*
X4975000Y4600000D03*
G01*
X385000Y1720000D03*
D35*
G01*
X485000Y1720000D03*
G01*
X585000Y1720000D03*
G01*
X685000Y1720000D03*
D37*
G01*
X1735000Y3885000D03*
D38*
G01*
X1835000Y3885000D03*
G01*
X1735000Y3785000D03*
G01*
X1835000Y3785000D03*
G01*
X1735000Y3685000D03*
G01*
X1835000Y3685000D03*
G01*
X1735000Y3585000D03*
G01*
X1835000Y3585000D03*
D35*
G01*
X4500000Y680000D03*
G01*
X4600000Y680000D03*
G01*
X4700000Y680000D03*
G01*
X4800000Y680000D03*
G01*
X4900000Y680000D03*
D36*
G01*
X5000000Y680000D03*
D39*
G01*
X1450000Y6150000D03*
D40*
G01*
X1550000Y6150000D03*
G01*
X1650000Y6150000D03*
G01*
X1750000Y6150000D03*
G01*
X1850000Y6150000D03*
G01*
X1950000Y6150000D03*
G01*
X2050000Y6150000D03*
G01*
X2150000Y6150000D03*
D39*
G01*
X1450000Y7150000D03*
D40*
G01*
X1550000Y7150000D03*
G01*
X1650000Y7150000D03*
G01*
X1750000Y7150000D03*
G01*
X1850000Y7150000D03*
G01*
X1950000Y7150000D03*
G01*
X2050000Y7150000D03*
G01*
X2150000Y7150000D03*
D39*
G01*
X2350000Y6150000D03*
D40*
G01*
X2450000Y6150000D03*
G01*
X2550000Y6150000D03*
G01*
X2650000Y6150000D03*
G01*
X2750000Y6150000D03*
G01*
X2850000Y6150000D03*
G01*
X2950000Y6150000D03*
G01*
X3050000Y6150000D03*
D39*
G01*
X2350000Y7150000D03*
D40*
G01*
X2450000Y7150000D03*
G01*
X2550000Y7150000D03*
G01*
X2650000Y7150000D03*
G01*
X2750000Y7150000D03*
G01*
X2850000Y7150000D03*
G01*
X2950000Y7150000D03*
G01*
X3050000Y7150000D03*
D39*
G01*
X3250000Y6150000D03*
D40*
G01*
X3350000Y6150000D03*
G01*
X3450000Y6150000D03*
G01*
X3550000Y6150000D03*
G01*
X3650000Y6150000D03*
G01*
X3750000Y6150000D03*
G01*
X3850000Y6150000D03*
G01*
X3950000Y6150000D03*
D39*
G01*
X3250000Y7150000D03*
D40*
G01*
X3350000Y7150000D03*
G01*
X3450000Y7150000D03*
G01*
X3550000Y7150000D03*
G01*
X3650000Y7150000D03*
G01*
X3750000Y7150000D03*
G01*
X3850000Y7150000D03*
G01*
X3950000Y7150000D03*
D39*
G01*
X1450000Y4150000D03*
D40*
G01*
X1550000Y4150000D03*
G01*
X1650000Y4150000D03*
G01*
X1750000Y4150000D03*
G01*
X1850000Y4150000D03*
G01*
X1950000Y4150000D03*
G01*
X2050000Y4150000D03*
G01*
X2150000Y4150000D03*
D39*
G01*
X1450000Y5150000D03*
D40*
G01*
X1550000Y5150000D03*
G01*
X1650000Y5150000D03*
G01*
X1750000Y5150000D03*
G01*
X1850000Y5150000D03*
G01*
X1950000Y5150000D03*
G01*
X2050000Y5150000D03*
G01*
X2150000Y5150000D03*
D39*
G01*
X2350000Y4150000D03*
D40*
G01*
X2450000Y4150000D03*
G01*
X2550000Y4150000D03*
G01*
X2650000Y4150000D03*
G01*
X2750000Y4150000D03*
G01*
X2850000Y4150000D03*
G01*
X2950000Y4150000D03*
G01*
X3050000Y4150000D03*
D39*
G01*
X2350000Y5150000D03*
D40*
G01*
X2450000Y5150000D03*
G01*
X2550000Y5150000D03*
G01*
X2650000Y5150000D03*
G01*
X2750000Y5150000D03*
G01*
X2850000Y5150000D03*
G01*
X2950000Y5150000D03*
G01*
X3050000Y5150000D03*
D39*
G01*
X3250000Y4150000D03*
D40*
G01*
X3350000Y4150000D03*
G01*
X3450000Y4150000D03*
G01*
X3550000Y4150000D03*
G01*
X3650000Y4150000D03*
G01*
X3750000Y4150000D03*
G01*
X3850000Y4150000D03*
G01*
X3950000Y4150000D03*
D39*
G01*
X3250000Y5150000D03*
D40*
G01*
X3350000Y5150000D03*
G01*
X3450000Y5150000D03*
G01*
X3550000Y5150000D03*
G01*
X3650000Y5150000D03*
G01*
X3750000Y5150000D03*
G01*
X3850000Y5150000D03*
G01*
X3950000Y5150000D03*
D39*
G01*
X1450000Y2150000D03*
D40*
G01*
X1550000Y2150000D03*
G01*
X1650000Y2150000D03*
G01*
X1750000Y2150000D03*
G01*
X1850000Y2150000D03*
G01*
X1950000Y2150000D03*
G01*
X2050000Y2150000D03*
G01*
X2150000Y2150000D03*
D39*
G01*
X1450000Y3150000D03*
D40*
G01*
X1550000Y3150000D03*
G01*
X1650000Y3150000D03*
G01*
X1750000Y3150000D03*
G01*
X1850000Y3150000D03*
G01*
X1950000Y3150000D03*
G01*
X2050000Y3150000D03*
G01*
X2150000Y3150000D03*
D39*
G01*
X2350000Y2150000D03*
D40*
G01*
X2450000Y2150000D03*
G01*
X2550000Y2150000D03*
G01*
X2650000Y2150000D03*
G01*
X2750000Y2150000D03*
G01*
X2850000Y2150000D03*
G01*
X2950000Y2150000D03*
G01*
X3050000Y2150000D03*
D39*
G01*
X2350000Y3150000D03*
D40*
G01*
X2450000Y3150000D03*
G01*
X2550000Y3150000D03*
G01*
X2650000Y3150000D03*
G01*
X2750000Y3150000D03*
G01*
X2850000Y3150000D03*
G01*
X2950000Y3150000D03*
G01*
X3050000Y3150000D03*
D39*
G01*
X3250000Y2150000D03*
D40*
G01*
X3350000Y2150000D03*
G01*
X3450000Y2150000D03*
G01*
X3550000Y2150000D03*
G01*
X3650000Y2150000D03*
G01*
X3750000Y2150000D03*
G01*
X3850000Y2150000D03*
G01*
X3950000Y2150000D03*
D39*
G01*
X3250000Y3150000D03*
D40*
G01*
X3350000Y3150000D03*
G01*
X3450000Y3150000D03*
G01*
X3550000Y3150000D03*
G01*
X3650000Y3150000D03*
G01*
X3750000Y3150000D03*
G01*
X3850000Y3150000D03*
G01*
X3950000Y3150000D03*
D39*
G01*
X1450000Y150000D03*
D40*
G01*
X1550000Y150000D03*
G01*
X1650000Y150000D03*
G01*
X1750000Y150000D03*
G01*
X1850000Y150000D03*
G01*
X1950000Y150000D03*
G01*
X2050000Y150000D03*
G01*
X2150000Y150000D03*
D39*
G01*
X1450000Y1150000D03*
D40*
G01*
X1550000Y1150000D03*
G01*
X1650000Y1150000D03*
G01*
X1750000Y1150000D03*
G01*
X1850000Y1150000D03*
G01*
X1950000Y1150000D03*
G01*
X2050000Y1150000D03*
G01*
X2150000Y1150000D03*
D39*
G01*
X2350000Y150000D03*
D40*
G01*
X2450000Y150000D03*
G01*
X2550000Y150000D03*
G01*
X2650000Y150000D03*
G01*
X2750000Y150000D03*
G01*
X2850000Y150000D03*
G01*
X2950000Y150000D03*
G01*
X3050000Y150000D03*
D39*
G01*
X2350000Y1150000D03*
D40*
G01*
X2450000Y1150000D03*
G01*
X2550000Y1150000D03*
G01*
X2650000Y1150000D03*
G01*
X2750000Y1150000D03*
G01*
X2850000Y1150000D03*
G01*
X2950000Y1150000D03*
G01*
X3050000Y1150000D03*
D39*
G01*
X3250000Y150000D03*
D40*
G01*
X3350000Y150000D03*
G01*
X3450000Y150000D03*
G01*
X3550000Y150000D03*
G01*
X3650000Y150000D03*
G01*
X3750000Y150000D03*
G01*
X3850000Y150000D03*
G01*
X3950000Y150000D03*
D39*
G01*
X3250000Y1150000D03*
D40*
G01*
X3350000Y1150000D03*
G01*
X3450000Y1150000D03*
G01*
X3550000Y1150000D03*
G01*
X3650000Y1150000D03*
G01*
X3750000Y1150000D03*
G01*
X3850000Y1150000D03*
G01*
X3950000Y1150000D03*
D41*
G01*
X1578410Y3460000D03*
G01*
X5050000Y7629000D03*
G01*
X855000Y5085000D03*
G01*
X645000Y5085000D03*
G01*
X2635000Y7880000D03*
G01*
X2635000Y7825000D03*
G01*
X2710000Y7850000D03*
G01*
X2745000Y7665000D03*
G01*
X2710000Y7595000D03*
G01*
X2675000Y7665000D03*
G01*
X2570000Y7855000D03*
G01*
X2710000Y7635000D03*
G01*
X2635000Y2585000D03*
G01*
X1735000Y2750000D03*
G01*
X2635000Y2740000D03*
G01*
X3535000Y2590000D03*
G01*
X1735000Y6735000D03*
G01*
X2635000Y6595000D03*
G01*
X2635000Y6735000D03*
G01*
X3535000Y6585000D03*
G01*
X1735000Y4745000D03*
G01*
X2635000Y4590000D03*
G01*
X2635000Y4740000D03*
G01*
X3535000Y4595000D03*
G01*
X1735000Y4590000D03*
G01*
X3535000Y6735000D03*
G01*
X1735000Y2590000D03*
G01*
X3535000Y4740000D03*
G01*
X3535000Y2740000D03*
G01*
X1735000Y590000D03*
G01*
X1760000Y6975000D03*
G01*
X2575000Y7020000D03*
G01*
X3465000Y7020000D03*
G01*
X1685000Y6965000D03*
G01*
X3460000Y6875000D03*
G01*
X2570000Y6875000D03*
G01*
X1760000Y6385000D03*
G01*
X2620000Y6360000D03*
G01*
X3520000Y6360000D03*
G01*
X1710000Y6340000D03*
G01*
X1685000Y6470000D03*
G01*
X2585000Y6425000D03*
G01*
X2556229Y6330000D03*
G01*
X3460000Y6425000D03*
G01*
X3315000Y6330000D03*
G01*
X2320000Y6290000D03*
G01*
X3260000Y6290000D03*
G01*
X1665000Y6300000D03*
G01*
X1760000Y4400000D03*
G01*
X3540000Y4380000D03*
G01*
X2645000Y4380000D03*
G01*
X1710000Y4365000D03*
G01*
X3485000Y4335000D03*
G01*
X2585000Y4335000D03*
G01*
X1660000Y4325000D03*
G01*
X2490000Y4285000D03*
G01*
X3425000Y4285000D03*
G01*
X1685000Y4460000D03*
G01*
X3465000Y4430000D03*
G01*
X2565000Y4430000D03*
G01*
X1760000Y2400000D03*
G01*
X2615000Y2355000D03*
G01*
X3530000Y2355000D03*
G01*
X1710000Y2350000D03*
G01*
X3460000Y2310000D03*
G01*
X2540000Y2310000D03*
G01*
X1660000Y2315000D03*
G01*
X3220000Y2265000D03*
G01*
X2340000Y2265000D03*
G01*
X1685000Y2475000D03*
G01*
X2555000Y2435000D03*
G01*
X3435000Y2435000D03*
G01*
X1660000Y340000D03*
G01*
X2470000Y325000D03*
G01*
X3350000Y325000D03*
G01*
X1685000Y380000D03*
G01*
X2510000Y360000D03*
G01*
X3385000Y360000D03*
G01*
X1715000Y415000D03*
G01*
X2560000Y390000D03*
G01*
X3440000Y390000D03*
G01*
X1750000Y460000D03*
G01*
X3505000Y420000D03*
G01*
X2640000Y420000D03*
G01*
X2635000Y595000D03*
G01*
X1735000Y735000D03*
G01*
X2635000Y735000D03*
G01*
X3535000Y595000D03*
G01*
X1760000Y4975000D03*
G01*
X2573459Y5020000D03*
G01*
X3455000Y5020000D03*
G01*
X1685000Y4970000D03*
G01*
X2570000Y4870000D03*
G01*
X3465000Y4870000D03*
G01*
X1760000Y2950000D03*
G01*
X2660000Y2990000D03*
G01*
X3560000Y2990000D03*
G01*
X1685000Y2965000D03*
G01*
X2585000Y2860000D03*
G01*
X3485000Y2860000D03*
G01*
X1760000Y965000D03*
G01*
X3540000Y995000D03*
G01*
X2629889Y995000D03*
G01*
X1685000Y985000D03*
G01*
X3480000Y875000D03*
G01*
X2565000Y875000D03*
G01*
X4800000Y2350000D03*
G01*
X4800000Y4460000D03*
G01*
X4565000Y4695000D03*
G01*
X4795000Y5875000D03*
G01*
X5080000Y615000D03*
G01*
X4620000Y610000D03*
G01*
X4350000Y6325000D03*
G01*
X4235000Y2350000D03*
G01*
X1140000Y6225000D03*
G01*
X1500000Y6340000D03*
G01*
X1250000Y6325000D03*
G01*
X1140000Y4275000D03*
G01*
X1400000Y4460000D03*
G01*
X1195000Y4460000D03*
G01*
X1440000Y4365000D03*
G01*
X1250000Y4365000D03*
G01*
X1140000Y2315000D03*
G01*
X1430000Y2350000D03*
G01*
X1250000Y2350000D03*
G01*
X1365000Y2515000D03*
G01*
X1195000Y2540000D03*
G01*
X2775000Y7345000D03*
G01*
X3640000Y7345000D03*
G01*
X4510000Y7350000D03*
G01*
X4925000Y6110000D03*
G01*
X140000Y7275000D03*
G01*
X1865000Y7335000D03*
G01*
X2005000Y7290000D03*
G01*
X935000Y7325000D03*
G01*
X1840000Y5895000D03*
G01*
X1735000Y6585000D03*
G01*
X3195000Y4335000D03*
G01*
X3185000Y2310000D03*
G01*
X3535000Y735000D03*
G01*
X3820000Y735000D03*
G01*
X2820000Y1860000D03*
G01*
X1507439Y1400000D03*
G01*
X3100000Y6360000D03*
G01*
X5305000Y4085000D03*
G01*
X4030000Y6425000D03*
G01*
X3272439Y5400000D03*
G01*
X4515000Y5225000D03*
G01*
X3195000Y3645000D03*
G01*
X4300000Y2935000D03*
G01*
X727399Y800439D03*
G01*
X640000Y867660D03*
G01*
X4650000Y875000D03*
G01*
X825000Y1230000D03*
G01*
X5085000Y1145000D03*
G01*
X4865000Y3095000D03*
G01*
X4910000Y975000D03*
G01*
X5250000Y1310000D03*
G01*
X4030000Y1045000D03*
G01*
X4150000Y7655000D03*
G01*
X3250000Y7660000D03*
G01*
X2350000Y7660000D03*
G01*
X1450000Y7600000D03*
G01*
X550000Y7628960D03*
G01*
X550000Y6610000D03*
G01*
X550000Y6655000D03*
G01*
X550000Y7577460D03*
G01*
X1450000Y7655000D03*
G01*
X2355000Y7600000D03*
G01*
X3250000Y7610000D03*
G01*
X4150000Y7600000D03*
G01*
X5050000Y7590000D03*
G01*
X5050000Y6590000D03*
G01*
X5050000Y6629000D03*
G01*
X490000Y5085000D03*
G01*
X3415000Y6830000D03*
G01*
X3410000Y4835000D03*
G01*
X3400000Y835000D03*
G01*
X2515000Y835000D03*
G01*
X1594040Y835000D03*
G01*
X1595000Y2810000D03*
G01*
X2484229Y2810000D03*
G01*
X3320000Y2810000D03*
G01*
X1587560Y4835000D03*
G01*
X2468519Y4835000D03*
G01*
X1579819Y6830000D03*
G01*
X2484350Y6830000D03*
G01*
X585000Y2295000D03*
G01*
X3535000Y1795000D03*
G01*
X3700000Y1650000D03*
G01*
X2635000Y1850000D03*
G01*
X2795000Y1690000D03*
G01*
X1770000Y1770000D03*
G01*
X1925000Y1630000D03*
G01*
X3670000Y3650000D03*
G01*
X3515000Y3815000D03*
G01*
X1800000Y5800000D03*
G01*
X1960000Y5615000D03*
G01*
X2675000Y5810000D03*
G01*
X2840000Y5635000D03*
G01*
X3555000Y5805000D03*
G01*
X3720000Y5625000D03*
G01*
X4430000Y1175000D03*
G01*
X4910000Y2120000D03*
G01*
X4545000Y2435000D03*
G01*
X4545000Y3040000D03*
G01*
X1007060Y3255000D03*
G01*
X4030000Y3305000D03*
G01*
X190000Y6190000D03*
G01*
X1005000Y3375000D03*
G01*
X4125000Y3340000D03*
G01*
X1685000Y705000D03*
G01*
X1685000Y625000D03*
G01*
X1915000Y625000D03*
G01*
X1915000Y705000D03*
G01*
X1800000Y665000D03*
G01*
X2585000Y705000D03*
G01*
X2585000Y625000D03*
G01*
X2815000Y625000D03*
G01*
X2815000Y705000D03*
G01*
X2700000Y665000D03*
G01*
X3485000Y705000D03*
G01*
X3485000Y625000D03*
G01*
X3600000Y665000D03*
G01*
X3715000Y625000D03*
G01*
X3715000Y705000D03*
G01*
X1685000Y2705000D03*
G01*
X1685000Y2625000D03*
G01*
X1915000Y2625000D03*
G01*
X1915000Y2705000D03*
G01*
X1800000Y2665000D03*
G01*
X2585000Y2705000D03*
G01*
X2585000Y2625000D03*
G01*
X2815000Y2625000D03*
G01*
X2815000Y2705000D03*
G01*
X2700000Y2665000D03*
G01*
X3485000Y2705000D03*
G01*
X3485000Y2625000D03*
G01*
X3600000Y2665000D03*
G01*
X3715000Y2705000D03*
G01*
X3715000Y2625000D03*
G01*
X1685000Y4705000D03*
G01*
X1685000Y4625000D03*
G01*
X1915000Y4625000D03*
G01*
X1915000Y4705000D03*
G01*
X1800000Y4665000D03*
G01*
X2585000Y4705000D03*
G01*
X2585000Y4625000D03*
G01*
X2700000Y4665000D03*
G01*
X2815000Y4625000D03*
G01*
X2815000Y4705000D03*
G01*
X3485000Y4705000D03*
G01*
X3485000Y4625000D03*
G01*
X3715000Y4625000D03*
G01*
X3715000Y4705000D03*
G01*
X3600000Y4665000D03*
G01*
X3485000Y6705000D03*
G01*
X3485000Y6625000D03*
G01*
X3715000Y6625000D03*
G01*
X3715000Y6705000D03*
G01*
X3600000Y6665000D03*
G01*
X2585000Y6705000D03*
G01*
X2815000Y6705000D03*
G01*
X2815000Y6625000D03*
G01*
X2585000Y6625000D03*
G01*
X2700000Y6665000D03*
G01*
X1685000Y6705000D03*
G01*
X1685000Y6625000D03*
G01*
X1915000Y6705000D03*
G01*
X1915000Y6625000D03*
G01*
X1800000Y6665000D03*
G01*
X330000Y7330000D03*
G01*
X240000Y7330000D03*
G01*
X1178540Y7364000D03*
G01*
X2085000Y7335000D03*
G01*
X3850000Y7352440D03*
G01*
X4729160Y7384000D03*
G01*
X296640Y6287440D03*
G01*
X2987020Y7352440D03*
G01*
X2911999Y7848000D03*
G01*
X2911999Y8096999D03*
G01*
X5062340Y6202440D03*
G01*
X4637309Y492689D03*
G01*
X5170000Y520000D03*
G01*
X1721649Y5429000D03*
G01*
X2601790Y5449000D03*
G01*
X2095000Y5810000D03*
G01*
X3000000Y5815000D03*
G01*
X3885000Y5805000D03*
G01*
X3438050Y5434000D03*
G01*
X3340000Y3580000D03*
G01*
X3835000Y3840000D03*
G01*
X4580000Y2695000D03*
G01*
X1697020Y1434000D03*
G01*
X2595000Y1467440D03*
G01*
X2079709Y1815000D03*
G01*
X3065000Y1860000D03*
G01*
X3461710Y1434000D03*
G01*
X3857889Y1830000D03*
G01*
X800000Y4670000D03*
G01*
X375000Y5360000D03*
G01*
X295000Y5190000D03*
G01*
X310000Y4890000D03*
G01*
X360000Y4670000D03*
G01*
X365000Y4300000D03*
G01*
X1925000Y3460000D03*
G01*
X3965000Y3400000D03*
G01*
X4250000Y3575000D03*
G01*
X1020000Y2015000D03*
G01*
X5085000Y1360000D03*
G01*
X3970000Y575000D03*
G01*
X935000Y1415000D03*
G01*
X455000Y1070799D03*
G01*
X610000Y1410000D03*
G01*
X975000Y510000D03*
G01*
X615000Y5240000D03*
G01*
X640000Y4840000D03*
G01*
X585000Y2072829D03*
G01*
X1710000Y6915000D03*
G01*
X3465000Y6935000D03*
G01*
X2580000Y6935000D03*
G01*
X1710000Y4915000D03*
G01*
X2590000Y4925000D03*
G01*
X3485000Y4925000D03*
G01*
X1710000Y2900000D03*
G01*
X2580000Y2925000D03*
G01*
X3485000Y2925000D03*
G01*
X1710000Y945000D03*
G01*
X3490000Y925000D03*
G01*
X2570000Y925000D03*
G01*
X4685000Y4665000D03*
G01*
X4525000Y4820000D03*
G01*
X4685000Y6115000D03*
G01*
X4405000Y6400000D03*
G01*
X4295000Y2405000D03*
G01*
X4685000Y2405000D03*
G01*
X3150000Y3825000D03*
G01*
X3160000Y3055000D03*
G01*
X3160000Y2925000D03*
M02*
