G04 Layer: InnerLayer1*
G04 EasyEDA v6.5.46, 2026-05-09 11:29:15*
G04 568695e0a8b244a196cd7557b316e252,86b453e9c0f046cc872bd768bb4bcadc,10*
G04 Gerber Generator version 0.2*
G04 Scale: 100 percent, Rotated: No, Reflected: No *
G04 Dimensions in inches *
G04 leading zeros omitted , absolute positions ,3 integer and 6 decimal *
%FSLAX36Y36*%
%MOIN*%

%ADD10C,0.0100*%
%ADD11C,0.0300*%
%ADD12C,0.0079*%
%ADD13C,0.0709*%
%ADD14R,0.0709X0.0709*%
%ADD15R,0.0189X0.0709*%
%ADD16R,0.0630X0.0630*%
%ADD17C,0.0630*%
%ADD18R,0.0620X0.0620*%
%ADD19C,0.0620*%
%ADD20C,0.0240*%

%LPD*%
D10*
X1660000Y340000D02*
G01*
X1375000Y340000D01*
X1140000Y575000D01*
X1140000Y6225000D01*
X5000000Y680000D02*
G01*
X5000000Y735000D01*
X5025000Y760000D01*
X5120000Y760000D01*
X5185000Y825000D01*
X5185000Y1100000D01*
X5140000Y1145000D01*
X5085000Y1145000D01*
X1005000Y3375000D02*
G01*
X270000Y3375000D01*
X190000Y3455000D01*
X190000Y6190000D01*
D11*
X4425000Y2700000D02*
G01*
X4430000Y2695000D01*
X4580000Y2695000D01*
D10*
X3560000Y2990000D02*
G01*
X4150000Y2990000D01*
X4300000Y2840000D01*
X4300000Y2520000D01*
X4345000Y2475000D01*
X4610000Y2475000D01*
X4610000Y2855000D01*
X4610000Y2855000D02*
G01*
X4610000Y4865000D01*
X4455000Y5020000D01*
X3455000Y5020000D01*
X3195000Y3645000D02*
G01*
X3195000Y3355000D01*
X3245000Y3305000D01*
X3930000Y3305000D01*
X4300000Y2935000D01*
X3520000Y875000D02*
G01*
X4520000Y875000D01*
X4800000Y1155000D01*
X4800000Y2350000D01*
X4800000Y2350000D02*
G01*
X4800000Y4460000D01*
X3485000Y2860000D02*
G01*
X4010000Y2860000D01*
X4190000Y2680000D01*
X4190000Y2395000D01*
X4235000Y2350000D01*
X1685000Y4970000D02*
G01*
X1656313Y4941313D01*
X1655000Y4941313D01*
X1655000Y4895000D01*
X1680000Y4870000D01*
X3465000Y4870000D01*
X1750000Y460000D02*
G01*
X1790000Y420000D01*
X3505000Y420000D01*
X1735000Y2750000D02*
G01*
X2110000Y2750000D01*
X2275000Y2585000D01*
X2635000Y2585000D01*
X2635000Y2740000D02*
G01*
X3050000Y2740000D01*
X3200000Y2590000D01*
X3535000Y2590000D01*
X1735000Y6735000D02*
G01*
X2155000Y6735000D01*
X2295000Y6595000D01*
X2635000Y6595000D01*
X2635000Y6735000D02*
G01*
X3080000Y6735000D01*
X3230000Y6585000D01*
X3535000Y6585000D01*
X1735000Y4745000D02*
G01*
X2125000Y4745000D01*
X2280000Y4590000D01*
X2635000Y4590000D01*
X2635000Y4740000D02*
G01*
X3060000Y4740000D01*
X3205000Y4595000D01*
X3535000Y4595000D01*
X3535000Y6735000D02*
G01*
X3535000Y6730000D01*
X3830000Y6730000D01*
X4100000Y6460000D01*
X4100000Y6070000D01*
X4025000Y5995000D01*
X1425000Y5995000D01*
X1350000Y5920000D01*
X1350000Y4685000D01*
X1445000Y4590000D01*
X1735000Y4590000D01*
X1760000Y6975000D02*
G01*
X1805000Y7020000D01*
X2575000Y7020000D01*
X1685000Y6965000D02*
G01*
X1685000Y6890000D01*
X1700000Y6875000D01*
X1710000Y6875000D01*
X1710000Y6875000D02*
G01*
X3460000Y6875000D01*
X1760000Y6385000D02*
G01*
X1785000Y6360000D01*
X3520000Y6360000D01*
X1710000Y6340000D02*
G01*
X1720000Y6330000D01*
X2556234Y6330000D01*
X1685000Y6470000D02*
G01*
X1730000Y6425000D01*
X3460000Y6425000D01*
X2556234Y6330000D02*
G01*
X3315000Y6330000D01*
X1665000Y6300000D02*
G01*
X1675000Y6290000D01*
X2375600Y6290000D01*
X2375604Y6290000D02*
G01*
X3260000Y6290000D01*
X1760000Y4400000D02*
G01*
X1780000Y4380000D01*
X3540000Y4380000D01*
X1710000Y4365000D02*
G01*
X1740000Y4335000D01*
X3485000Y4335000D01*
X1660000Y4325000D02*
G01*
X1700000Y4285000D01*
X3425000Y4285000D01*
X1685000Y4460000D02*
G01*
X1715000Y4430000D01*
X2565000Y4430000D01*
X2565000Y4430000D02*
G01*
X3465000Y4430000D01*
X1760000Y2400000D02*
G01*
X1805000Y2355000D01*
X3530000Y2355000D01*
X1710000Y2350000D02*
G01*
X1750000Y2310000D01*
X3460000Y2310000D01*
X1660000Y2315000D02*
G01*
X1710000Y2265000D01*
X3220000Y2265000D01*
X1685000Y2475000D02*
G01*
X1725000Y2435000D01*
X2555000Y2435000D01*
X2555000Y2435000D02*
G01*
X3435000Y2435000D01*
X1660000Y340000D02*
G01*
X1675000Y325000D01*
X3350000Y325000D01*
X1685000Y380000D02*
G01*
X1705000Y360000D01*
X3385000Y360000D01*
X1715000Y415000D02*
G01*
X1740000Y390000D01*
X3440000Y390000D01*
X2635000Y595000D02*
G01*
X2265000Y595000D01*
X2125000Y735000D01*
X1735000Y735000D01*
X2635000Y735000D02*
G01*
X3040000Y735000D01*
X3180000Y595000D01*
X3535000Y595000D01*
X1760000Y4975000D02*
G01*
X1805000Y5020000D01*
X2573461Y5020000D01*
X2573461Y5020000D02*
G01*
X3455000Y5020000D01*
X1760000Y2950000D02*
G01*
X1800000Y2990000D01*
X3560000Y2990000D01*
X1685000Y2965000D02*
G01*
X1685000Y2880000D01*
X1705000Y2860000D01*
X3485000Y2860000D01*
X1760000Y965000D02*
G01*
X1790000Y995000D01*
X2629883Y995000D01*
X2629885Y995000D02*
G01*
X3540000Y995000D01*
X1685000Y985000D02*
G01*
X1685000Y900000D01*
X1710000Y875000D01*
X3480000Y875000D01*
X1735000Y2590000D02*
G01*
X1440000Y2590000D01*
X1350000Y2680000D01*
X1350000Y3880000D01*
X1460000Y3990000D01*
X4005000Y3990000D01*
X4100000Y4085000D01*
X4100000Y4610000D01*
X3970000Y4740000D01*
X3535000Y4740000D01*
X4565000Y4695000D02*
G01*
X4390000Y4870000D01*
X3465000Y4870000D01*
X2575000Y7020000D02*
G01*
X3875000Y7020000D01*
X4610000Y6285000D01*
X4610000Y4865000D01*
X4800000Y4451284D02*
G01*
X4795000Y4456284D01*
X4795000Y5875000D01*
X4350000Y6325000D02*
G01*
X3800000Y6875000D01*
X3460000Y6875000D01*
X1735000Y590000D02*
G01*
X1595000Y590000D01*
X1350000Y1560000D02*
G01*
X1350000Y1890000D01*
X1455000Y1995000D01*
X4040000Y1995000D01*
X4125000Y2080000D01*
X4125000Y2605000D01*
X3990000Y2740000D01*
X3535000Y2740000D01*
X1595000Y590000D02*
G01*
X1440000Y590000D01*
X1350000Y680000D01*
X1350000Y1560000D01*
D12*
X4620000Y610000D02*
G01*
X5080000Y610000D01*
X5080000Y615000D01*
X4610000Y2475000D02*
G01*
X4610000Y2405000D01*
X4610000Y1230000D01*
X4375000Y995000D01*
X3540000Y995000D01*
D10*
X3480000Y875000D02*
G01*
X3520000Y875000D01*
X1750000Y460000D02*
G01*
X1485000Y460000D01*
X1300000Y645000D01*
X1300000Y6340333D01*
X1715000Y415000D02*
G01*
X1450000Y415000D01*
X1250000Y615000D01*
X1250000Y6325000D01*
X1685000Y6470000D02*
G01*
X1265000Y6470000D01*
X1195000Y6400000D01*
X1195000Y595000D01*
X1410000Y380000D01*
X1685000Y380000D01*
X1760000Y6385000D02*
G01*
X1344700Y6385000D01*
X1300000Y6340300D01*
X1710000Y6340000D02*
G01*
X1500000Y6340000D01*
X1685000Y4460000D02*
G01*
X1400000Y4460000D01*
X1710000Y4365000D02*
G01*
X1440000Y4365000D01*
X1760000Y4400000D02*
G01*
X1331322Y4400000D01*
X1300000Y4431322D01*
X1760000Y2400000D02*
G01*
X1351908Y2400000D01*
X1300000Y2451909D01*
X1710000Y2350000D02*
G01*
X1430000Y2350000D01*
X1685000Y2475000D02*
G01*
X1405000Y2475000D01*
X1365000Y2515000D01*
X4975000Y4200000D02*
G01*
X5120000Y4200000D01*
X5220000Y4300000D01*
X5220000Y7155000D01*
X5140000Y7235000D01*
X1965000Y7235000D01*
X1865000Y7335000D01*
X4975000Y4100000D02*
G01*
X5155000Y4100000D01*
X5290000Y4235000D01*
X5290000Y7195000D01*
X5160000Y7325000D01*
X5125000Y7290000D01*
X2005000Y7290000D01*
X3535000Y735000D02*
G01*
X3820000Y735000D01*
X5305000Y4085000D02*
G01*
X5220000Y4000000D01*
X4975000Y4000000D01*
X4030000Y6425000D02*
G01*
X3460000Y6425000D01*
X3272439Y5400000D02*
G01*
X4340000Y5400000D01*
X4515000Y5225000D01*
X4425000Y3600000D02*
G01*
X4560816Y3600000D01*
X4610000Y3649182D01*
X3965000Y3400000D02*
G01*
X4285000Y3400000D01*
X4425000Y3400000D01*
X825000Y1230000D02*
G01*
X825000Y1040000D01*
X940000Y925000D01*
X940000Y705000D01*
X4650000Y875000D02*
G01*
X4700000Y875000D01*
X4865000Y1040000D01*
X4865000Y3095000D01*
X4430000Y1175000D02*
G01*
X4545000Y1290000D01*
X4545000Y2435000D01*
X4910000Y975000D02*
G01*
X4910000Y2120000D01*
X4545000Y3040000D02*
G01*
X4545000Y3455000D01*
X4500000Y3500000D01*
X4425000Y3500000D01*
X4425000Y3100000D02*
G01*
X4365000Y3100000D01*
X4125000Y3340000D01*
X4425000Y3000000D02*
G01*
X4335000Y3000000D01*
X4030000Y3305000D01*
X140000Y7275000D02*
G01*
X110000Y7245000D01*
X110000Y3405000D01*
X260000Y3255000D01*
X880000Y3255000D01*
X905000Y3255000D01*
X1007061Y3255000D02*
G01*
X905000Y3255000D01*
D11*
X1925000Y3460000D02*
G01*
X1955699Y3460000D01*
X1955699Y3460999D01*
X1980000Y3485300D01*
X1980000Y3550000D01*
X1945000Y3585000D01*
X1835000Y3585000D01*
D10*
X3150000Y3825000D02*
G01*
X3150000Y3065000D01*
X3160000Y3055000D01*
X1710000Y4915000D02*
G01*
X1720000Y4925000D01*
X3485000Y4925000D01*
X4525000Y4820000D02*
G01*
X4420000Y4925000D01*
X3485000Y4925000D01*
X4685000Y4665000D02*
G01*
X4685000Y6115000D01*
X4405000Y6400000D02*
G01*
X3870000Y6935000D01*
X3465000Y6935000D01*
X1710000Y6915000D02*
G01*
X1730000Y6935000D01*
X3465000Y6935000D01*
X1710000Y2900000D02*
G01*
X1735000Y2925000D01*
X3485000Y2925000D01*
X1710000Y945000D02*
G01*
X1730000Y925000D01*
X3490000Y925000D01*
X3485000Y2925000D02*
G01*
X4090000Y2925000D01*
X4240000Y2775000D01*
X4240000Y2460000D01*
X4295000Y2405000D01*
X3490000Y925000D02*
G01*
X4410000Y925000D01*
X4685000Y1200000D01*
X4685000Y4665000D01*
D13*
G01*
X440000Y705000D03*
G01*
X540000Y705000D03*
G01*
X640000Y705000D03*
G01*
X740000Y705000D03*
G01*
X840000Y705000D03*
D14*
G01*
X940000Y705000D03*
G01*
X140000Y250000D03*
D13*
G01*
X240000Y250000D03*
G01*
X340000Y250000D03*
G01*
X440000Y250000D03*
G01*
X540000Y250000D03*
G01*
X640000Y250000D03*
G01*
X740000Y250000D03*
G01*
X840000Y250000D03*
G01*
X940000Y250000D03*
G01*
X1040000Y250000D03*
G01*
X1140000Y250000D03*
G01*
X1240000Y250000D03*
D14*
G01*
X4165000Y245000D03*
D13*
G01*
X4265000Y245000D03*
G01*
X4365000Y245000D03*
G01*
X4465000Y245000D03*
G01*
X4565000Y245000D03*
G01*
X4665000Y245000D03*
G01*
X4765000Y245000D03*
G01*
X4865000Y245000D03*
G01*
X4965000Y245000D03*
G01*
X5065000Y245000D03*
G01*
X5165000Y245000D03*
G01*
X5265000Y245000D03*
G01*
X4425000Y2700000D03*
G01*
X4425000Y2800000D03*
G01*
X4425000Y2900000D03*
G01*
X4425000Y3000000D03*
G01*
X4425000Y3100000D03*
G01*
X4425000Y3200000D03*
G01*
X4425000Y3300000D03*
G01*
X4425000Y3400000D03*
G01*
X4425000Y3500000D03*
G01*
X4425000Y3600000D03*
G01*
X4425000Y3700000D03*
G01*
X4425000Y3800000D03*
G01*
X4425000Y3900000D03*
G01*
X4425000Y4000000D03*
G01*
X4425000Y4100000D03*
G01*
X4425000Y4200000D03*
G01*
X4425000Y4300000D03*
G01*
X4425000Y4400000D03*
G01*
X4425000Y4500000D03*
D14*
G01*
X4425000Y4600000D03*
D13*
G01*
X4975000Y2700000D03*
G01*
X4975000Y2800000D03*
G01*
X4975000Y2900000D03*
G01*
X4975000Y3000000D03*
G01*
X4975000Y3100000D03*
G01*
X4975000Y3200000D03*
G01*
X4975000Y3300000D03*
G01*
X4975000Y3400000D03*
G01*
X4975000Y3500000D03*
G01*
X4975000Y3600000D03*
G01*
X4975000Y3700000D03*
G01*
X4975000Y3800000D03*
G01*
X4975000Y3900000D03*
G01*
X4975000Y4000000D03*
G01*
X4975000Y4100000D03*
G01*
X4975000Y4200000D03*
G01*
X4975000Y4300000D03*
G01*
X4975000Y4400000D03*
G01*
X4975000Y4500000D03*
D14*
G01*
X4975000Y4600000D03*
G01*
X385000Y1720000D03*
D13*
G01*
X485000Y1720000D03*
G01*
X585000Y1720000D03*
G01*
X685000Y1720000D03*
D16*
G01*
X1735000Y3885000D03*
D17*
G01*
X1835000Y3885000D03*
G01*
X1735000Y3785000D03*
G01*
X1835000Y3785000D03*
G01*
X1735000Y3685000D03*
G01*
X1835000Y3685000D03*
G01*
X1735000Y3585000D03*
G01*
X1835000Y3585000D03*
D13*
G01*
X4500000Y680000D03*
G01*
X4600000Y680000D03*
G01*
X4700000Y680000D03*
G01*
X4800000Y680000D03*
G01*
X4900000Y680000D03*
D14*
G01*
X5000000Y680000D03*
D18*
G01*
X1450000Y6150000D03*
D19*
G01*
X1550000Y6150000D03*
G01*
X1650000Y6150000D03*
G01*
X1750000Y6150000D03*
G01*
X1850000Y6150000D03*
G01*
X1950000Y6150000D03*
G01*
X2050000Y6150000D03*
G01*
X2150000Y6150000D03*
D18*
G01*
X1450000Y7150000D03*
D19*
G01*
X1550000Y7150000D03*
G01*
X1650000Y7150000D03*
G01*
X1750000Y7150000D03*
G01*
X1850000Y7150000D03*
G01*
X1950000Y7150000D03*
G01*
X2050000Y7150000D03*
G01*
X2150000Y7150000D03*
D18*
G01*
X2350000Y6150000D03*
D19*
G01*
X2450000Y6150000D03*
G01*
X2550000Y6150000D03*
G01*
X2650000Y6150000D03*
G01*
X2750000Y6150000D03*
G01*
X2850000Y6150000D03*
G01*
X2950000Y6150000D03*
G01*
X3050000Y6150000D03*
D18*
G01*
X2350000Y7150000D03*
D19*
G01*
X2450000Y7150000D03*
G01*
X2550000Y7150000D03*
G01*
X2650000Y7150000D03*
G01*
X2750000Y7150000D03*
G01*
X2850000Y7150000D03*
G01*
X2950000Y7150000D03*
G01*
X3050000Y7150000D03*
D18*
G01*
X3250000Y6150000D03*
D19*
G01*
X3350000Y6150000D03*
G01*
X3450000Y6150000D03*
G01*
X3550000Y6150000D03*
G01*
X3650000Y6150000D03*
G01*
X3750000Y6150000D03*
G01*
X3850000Y6150000D03*
G01*
X3950000Y6150000D03*
D18*
G01*
X3250000Y7150000D03*
D19*
G01*
X3350000Y7150000D03*
G01*
X3450000Y7150000D03*
G01*
X3550000Y7150000D03*
G01*
X3650000Y7150000D03*
G01*
X3750000Y7150000D03*
G01*
X3850000Y7150000D03*
G01*
X3950000Y7150000D03*
D18*
G01*
X1450000Y4150000D03*
D19*
G01*
X1550000Y4150000D03*
G01*
X1650000Y4150000D03*
G01*
X1750000Y4150000D03*
G01*
X1850000Y4150000D03*
G01*
X1950000Y4150000D03*
G01*
X2050000Y4150000D03*
G01*
X2150000Y4150000D03*
D18*
G01*
X1450000Y5150000D03*
D19*
G01*
X1550000Y5150000D03*
G01*
X1650000Y5150000D03*
G01*
X1750000Y5150000D03*
G01*
X1850000Y5150000D03*
G01*
X1950000Y5150000D03*
G01*
X2050000Y5150000D03*
G01*
X2150000Y5150000D03*
D18*
G01*
X2350000Y4150000D03*
D19*
G01*
X2450000Y4150000D03*
G01*
X2550000Y4150000D03*
G01*
X2650000Y4150000D03*
G01*
X2750000Y4150000D03*
G01*
X2850000Y4150000D03*
G01*
X2950000Y4150000D03*
G01*
X3050000Y4150000D03*
D18*
G01*
X2350000Y5150000D03*
D19*
G01*
X2450000Y5150000D03*
G01*
X2550000Y5150000D03*
G01*
X2650000Y5150000D03*
G01*
X2750000Y5150000D03*
G01*
X2850000Y5150000D03*
G01*
X2950000Y5150000D03*
G01*
X3050000Y5150000D03*
D18*
G01*
X3250000Y4150000D03*
D19*
G01*
X3350000Y4150000D03*
G01*
X3450000Y4150000D03*
G01*
X3550000Y4150000D03*
G01*
X3650000Y4150000D03*
G01*
X3750000Y4150000D03*
G01*
X3850000Y4150000D03*
G01*
X3950000Y4150000D03*
D18*
G01*
X3250000Y5150000D03*
D19*
G01*
X3350000Y5150000D03*
G01*
X3450000Y5150000D03*
G01*
X3550000Y5150000D03*
G01*
X3650000Y5150000D03*
G01*
X3750000Y5150000D03*
G01*
X3850000Y5150000D03*
G01*
X3950000Y5150000D03*
D18*
G01*
X1450000Y2150000D03*
D19*
G01*
X1550000Y2150000D03*
G01*
X1650000Y2150000D03*
G01*
X1750000Y2150000D03*
G01*
X1850000Y2150000D03*
G01*
X1950000Y2150000D03*
G01*
X2050000Y2150000D03*
G01*
X2150000Y2150000D03*
D18*
G01*
X1450000Y3150000D03*
D19*
G01*
X1550000Y3150000D03*
G01*
X1650000Y3150000D03*
G01*
X1750000Y3150000D03*
G01*
X1850000Y3150000D03*
G01*
X1950000Y3150000D03*
G01*
X2050000Y3150000D03*
G01*
X2150000Y3150000D03*
D18*
G01*
X2350000Y2150000D03*
D19*
G01*
X2450000Y2150000D03*
G01*
X2550000Y2150000D03*
G01*
X2650000Y2150000D03*
G01*
X2750000Y2150000D03*
G01*
X2850000Y2150000D03*
G01*
X2950000Y2150000D03*
G01*
X3050000Y2150000D03*
D18*
G01*
X2350000Y3150000D03*
D19*
G01*
X2450000Y3150000D03*
G01*
X2550000Y3150000D03*
G01*
X2650000Y3150000D03*
G01*
X2750000Y3150000D03*
G01*
X2850000Y3150000D03*
G01*
X2950000Y3150000D03*
G01*
X3050000Y3150000D03*
D18*
G01*
X3250000Y2150000D03*
D19*
G01*
X3350000Y2150000D03*
G01*
X3450000Y2150000D03*
G01*
X3550000Y2150000D03*
G01*
X3650000Y2150000D03*
G01*
X3750000Y2150000D03*
G01*
X3850000Y2150000D03*
G01*
X3950000Y2150000D03*
D18*
G01*
X3250000Y3150000D03*
D19*
G01*
X3350000Y3150000D03*
G01*
X3450000Y3150000D03*
G01*
X3550000Y3150000D03*
G01*
X3650000Y3150000D03*
G01*
X3750000Y3150000D03*
G01*
X3850000Y3150000D03*
G01*
X3950000Y3150000D03*
D18*
G01*
X1450000Y150000D03*
D19*
G01*
X1550000Y150000D03*
G01*
X1650000Y150000D03*
G01*
X1750000Y150000D03*
G01*
X1850000Y150000D03*
G01*
X1950000Y150000D03*
G01*
X2050000Y150000D03*
G01*
X2150000Y150000D03*
D18*
G01*
X1450000Y1150000D03*
D19*
G01*
X1550000Y1150000D03*
G01*
X1650000Y1150000D03*
G01*
X1750000Y1150000D03*
G01*
X1850000Y1150000D03*
G01*
X1950000Y1150000D03*
G01*
X2050000Y1150000D03*
G01*
X2150000Y1150000D03*
D18*
G01*
X2350000Y150000D03*
D19*
G01*
X2450000Y150000D03*
G01*
X2550000Y150000D03*
G01*
X2650000Y150000D03*
G01*
X2750000Y150000D03*
G01*
X2850000Y150000D03*
G01*
X2950000Y150000D03*
G01*
X3050000Y150000D03*
D18*
G01*
X2350000Y1150000D03*
D19*
G01*
X2450000Y1150000D03*
G01*
X2550000Y1150000D03*
G01*
X2650000Y1150000D03*
G01*
X2750000Y1150000D03*
G01*
X2850000Y1150000D03*
G01*
X2950000Y1150000D03*
G01*
X3050000Y1150000D03*
D18*
G01*
X3250000Y150000D03*
D19*
G01*
X3350000Y150000D03*
G01*
X3450000Y150000D03*
G01*
X3550000Y150000D03*
G01*
X3650000Y150000D03*
G01*
X3750000Y150000D03*
G01*
X3850000Y150000D03*
G01*
X3950000Y150000D03*
D18*
G01*
X3250000Y1150000D03*
D19*
G01*
X3350000Y1150000D03*
G01*
X3450000Y1150000D03*
G01*
X3550000Y1150000D03*
G01*
X3650000Y1150000D03*
G01*
X3750000Y1150000D03*
G01*
X3850000Y1150000D03*
G01*
X3950000Y1150000D03*
D20*
G01*
X1578410Y3460000D03*
G01*
X5050000Y7629000D03*
G01*
X855000Y5085000D03*
G01*
X645000Y5085000D03*
G01*
X2635000Y7880000D03*
G01*
X2635000Y7825000D03*
G01*
X2710000Y7850000D03*
G01*
X2745000Y7665000D03*
G01*
X2710000Y7595000D03*
G01*
X2675000Y7665000D03*
G01*
X2570000Y7855000D03*
G01*
X2710000Y7635000D03*
G01*
X2635000Y2585000D03*
G01*
X1735000Y2750000D03*
G01*
X2635000Y2740000D03*
G01*
X3535000Y2590000D03*
G01*
X1735000Y6735000D03*
G01*
X2635000Y6595000D03*
G01*
X2635000Y6735000D03*
G01*
X3535000Y6585000D03*
G01*
X1735000Y4745000D03*
G01*
X2635000Y4590000D03*
G01*
X2635000Y4740000D03*
G01*
X3535000Y4595000D03*
G01*
X1735000Y4590000D03*
G01*
X3535000Y6735000D03*
G01*
X1735000Y2590000D03*
G01*
X3535000Y4740000D03*
G01*
X3535000Y2740000D03*
G01*
X1735000Y590000D03*
G01*
X1760000Y6975000D03*
G01*
X2575000Y7020000D03*
G01*
X3465000Y7020000D03*
G01*
X1685000Y6965000D03*
G01*
X3460000Y6875000D03*
G01*
X2570000Y6875000D03*
G01*
X1760000Y6385000D03*
G01*
X2620000Y6360000D03*
G01*
X3520000Y6360000D03*
G01*
X1710000Y6340000D03*
G01*
X1685000Y6470000D03*
G01*
X2585000Y6425000D03*
G01*
X2556229Y6330000D03*
G01*
X3460000Y6425000D03*
G01*
X3315000Y6330000D03*
G01*
X2320000Y6290000D03*
G01*
X3260000Y6290000D03*
G01*
X1665000Y6300000D03*
G01*
X1760000Y4400000D03*
G01*
X3540000Y4380000D03*
G01*
X2645000Y4380000D03*
G01*
X1710000Y4365000D03*
G01*
X3485000Y4335000D03*
G01*
X2585000Y4335000D03*
G01*
X1660000Y4325000D03*
G01*
X2490000Y4285000D03*
G01*
X3425000Y4285000D03*
G01*
X1685000Y4460000D03*
G01*
X3465000Y4430000D03*
G01*
X2565000Y4430000D03*
G01*
X1760000Y2400000D03*
G01*
X2615000Y2355000D03*
G01*
X3530000Y2355000D03*
G01*
X1710000Y2350000D03*
G01*
X3460000Y2310000D03*
G01*
X2540000Y2310000D03*
G01*
X1660000Y2315000D03*
G01*
X3220000Y2265000D03*
G01*
X2340000Y2265000D03*
G01*
X1685000Y2475000D03*
G01*
X2555000Y2435000D03*
G01*
X3435000Y2435000D03*
G01*
X1660000Y340000D03*
G01*
X2470000Y325000D03*
G01*
X3350000Y325000D03*
G01*
X1685000Y380000D03*
G01*
X2510000Y360000D03*
G01*
X3385000Y360000D03*
G01*
X1715000Y415000D03*
G01*
X2560000Y390000D03*
G01*
X3440000Y390000D03*
G01*
X1750000Y460000D03*
G01*
X3505000Y420000D03*
G01*
X2640000Y420000D03*
G01*
X2635000Y595000D03*
G01*
X1735000Y735000D03*
G01*
X2635000Y735000D03*
G01*
X3535000Y595000D03*
G01*
X1760000Y4975000D03*
G01*
X2573459Y5020000D03*
G01*
X3455000Y5020000D03*
G01*
X1685000Y4970000D03*
G01*
X2570000Y4870000D03*
G01*
X3465000Y4870000D03*
G01*
X1760000Y2950000D03*
G01*
X2660000Y2990000D03*
G01*
X3560000Y2990000D03*
G01*
X1685000Y2965000D03*
G01*
X2585000Y2860000D03*
G01*
X3485000Y2860000D03*
G01*
X1760000Y965000D03*
G01*
X3540000Y995000D03*
G01*
X2629889Y995000D03*
G01*
X1685000Y985000D03*
G01*
X3480000Y875000D03*
G01*
X2565000Y875000D03*
G01*
X4800000Y2350000D03*
G01*
X4800000Y4460000D03*
G01*
X4565000Y4695000D03*
G01*
X4795000Y5875000D03*
G01*
X5080000Y615000D03*
G01*
X4620000Y610000D03*
G01*
X4350000Y6325000D03*
G01*
X4235000Y2350000D03*
G01*
X1140000Y6225000D03*
G01*
X1500000Y6340000D03*
G01*
X1250000Y6325000D03*
G01*
X1140000Y4275000D03*
G01*
X1400000Y4460000D03*
G01*
X1195000Y4460000D03*
G01*
X1440000Y4365000D03*
G01*
X1250000Y4365000D03*
G01*
X1140000Y2315000D03*
G01*
X1430000Y2350000D03*
G01*
X1250000Y2350000D03*
G01*
X1365000Y2515000D03*
G01*
X1195000Y2540000D03*
G01*
X2775000Y7345000D03*
G01*
X3640000Y7345000D03*
G01*
X4510000Y7350000D03*
G01*
X4925000Y6110000D03*
G01*
X140000Y7275000D03*
G01*
X1865000Y7335000D03*
G01*
X2005000Y7290000D03*
G01*
X935000Y7325000D03*
G01*
X1840000Y5895000D03*
G01*
X1735000Y6585000D03*
G01*
X3195000Y4335000D03*
G01*
X3185000Y2310000D03*
G01*
X3535000Y735000D03*
G01*
X3820000Y735000D03*
G01*
X2820000Y1860000D03*
G01*
X1507439Y1400000D03*
G01*
X3100000Y6360000D03*
G01*
X5305000Y4085000D03*
G01*
X4030000Y6425000D03*
G01*
X3272439Y5400000D03*
G01*
X4515000Y5225000D03*
G01*
X3195000Y3645000D03*
G01*
X4300000Y2935000D03*
G01*
X727399Y800439D03*
G01*
X640000Y867660D03*
G01*
X4650000Y875000D03*
G01*
X825000Y1230000D03*
G01*
X5085000Y1145000D03*
G01*
X4865000Y3095000D03*
G01*
X4910000Y975000D03*
G01*
X5250000Y1310000D03*
G01*
X4030000Y1045000D03*
G01*
X4150000Y7655000D03*
G01*
X3250000Y7660000D03*
G01*
X2350000Y7660000D03*
G01*
X1450000Y7600000D03*
G01*
X550000Y7628960D03*
G01*
X550000Y6610000D03*
G01*
X550000Y6655000D03*
G01*
X550000Y7577460D03*
G01*
X1450000Y7655000D03*
G01*
X2355000Y7600000D03*
G01*
X3250000Y7610000D03*
G01*
X4150000Y7600000D03*
G01*
X5050000Y7590000D03*
G01*
X5050000Y6590000D03*
G01*
X5050000Y6629000D03*
G01*
X490000Y5085000D03*
G01*
X3415000Y6830000D03*
G01*
X3410000Y4835000D03*
G01*
X3400000Y835000D03*
G01*
X2515000Y835000D03*
G01*
X1594040Y835000D03*
G01*
X1595000Y2810000D03*
G01*
X2484229Y2810000D03*
G01*
X3320000Y2810000D03*
G01*
X1587560Y4835000D03*
G01*
X2468519Y4835000D03*
G01*
X1579819Y6830000D03*
G01*
X2484350Y6830000D03*
G01*
X585000Y2295000D03*
G01*
X3535000Y1795000D03*
G01*
X3700000Y1650000D03*
G01*
X2635000Y1850000D03*
G01*
X2795000Y1690000D03*
G01*
X1770000Y1770000D03*
G01*
X1925000Y1630000D03*
G01*
X3670000Y3650000D03*
G01*
X3515000Y3815000D03*
G01*
X1800000Y5800000D03*
G01*
X1960000Y5615000D03*
G01*
X2675000Y5810000D03*
G01*
X2840000Y5635000D03*
G01*
X3555000Y5805000D03*
G01*
X3720000Y5625000D03*
G01*
X4430000Y1175000D03*
G01*
X4910000Y2120000D03*
G01*
X4545000Y2435000D03*
G01*
X4545000Y3040000D03*
G01*
X1007060Y3255000D03*
G01*
X4030000Y3305000D03*
G01*
X190000Y6190000D03*
G01*
X1005000Y3375000D03*
G01*
X4125000Y3340000D03*
G01*
X1685000Y705000D03*
G01*
X1685000Y625000D03*
G01*
X1915000Y625000D03*
G01*
X1915000Y705000D03*
G01*
X1800000Y665000D03*
G01*
X2585000Y705000D03*
G01*
X2585000Y625000D03*
G01*
X2815000Y625000D03*
G01*
X2815000Y705000D03*
G01*
X2700000Y665000D03*
G01*
X3485000Y705000D03*
G01*
X3485000Y625000D03*
G01*
X3600000Y665000D03*
G01*
X3715000Y625000D03*
G01*
X3715000Y705000D03*
G01*
X1685000Y2705000D03*
G01*
X1685000Y2625000D03*
G01*
X1915000Y2625000D03*
G01*
X1915000Y2705000D03*
G01*
X1800000Y2665000D03*
G01*
X2585000Y2705000D03*
G01*
X2585000Y2625000D03*
G01*
X2815000Y2625000D03*
G01*
X2815000Y2705000D03*
G01*
X2700000Y2665000D03*
G01*
X3485000Y2705000D03*
G01*
X3485000Y2625000D03*
G01*
X3600000Y2665000D03*
G01*
X3715000Y2705000D03*
G01*
X3715000Y2625000D03*
G01*
X1685000Y4705000D03*
G01*
X1685000Y4625000D03*
G01*
X1915000Y4625000D03*
G01*
X1915000Y4705000D03*
G01*
X1800000Y4665000D03*
G01*
X2585000Y4705000D03*
G01*
X2585000Y4625000D03*
G01*
X2700000Y4665000D03*
G01*
X2815000Y4625000D03*
G01*
X2815000Y4705000D03*
G01*
X3485000Y4705000D03*
G01*
X3485000Y4625000D03*
G01*
X3715000Y4625000D03*
G01*
X3715000Y4705000D03*
G01*
X3600000Y4665000D03*
G01*
X3485000Y6705000D03*
G01*
X3485000Y6625000D03*
G01*
X3715000Y6625000D03*
G01*
X3715000Y6705000D03*
G01*
X3600000Y6665000D03*
G01*
X2585000Y6705000D03*
G01*
X2815000Y6705000D03*
G01*
X2815000Y6625000D03*
G01*
X2585000Y6625000D03*
G01*
X2700000Y6665000D03*
G01*
X1685000Y6705000D03*
G01*
X1685000Y6625000D03*
G01*
X1915000Y6705000D03*
G01*
X1915000Y6625000D03*
G01*
X1800000Y6665000D03*
G01*
X330000Y7330000D03*
G01*
X240000Y7330000D03*
G01*
X1178540Y7364000D03*
G01*
X2085000Y7335000D03*
G01*
X3850000Y7352440D03*
G01*
X4729160Y7384000D03*
G01*
X296640Y6287440D03*
G01*
X2987020Y7352440D03*
G01*
X2911999Y7848000D03*
G01*
X2911999Y8096999D03*
G01*
X5062340Y6202440D03*
G01*
X4637309Y492689D03*
G01*
X5170000Y520000D03*
G01*
X1721649Y5429000D03*
G01*
X2601790Y5449000D03*
G01*
X2095000Y5810000D03*
G01*
X3000000Y5815000D03*
G01*
X3885000Y5805000D03*
G01*
X3438050Y5434000D03*
G01*
X3340000Y3580000D03*
G01*
X3835000Y3840000D03*
G01*
X4580000Y2695000D03*
G01*
X1697020Y1434000D03*
G01*
X2595000Y1467440D03*
G01*
X2079709Y1815000D03*
G01*
X3065000Y1860000D03*
G01*
X3461710Y1434000D03*
G01*
X3857889Y1830000D03*
G01*
X800000Y4670000D03*
G01*
X375000Y5360000D03*
G01*
X295000Y5190000D03*
G01*
X310000Y4890000D03*
G01*
X360000Y4670000D03*
G01*
X365000Y4300000D03*
G01*
X1925000Y3460000D03*
G01*
X3965000Y3400000D03*
G01*
X4250000Y3575000D03*
G01*
X1020000Y2015000D03*
G01*
X5085000Y1360000D03*
G01*
X3970000Y575000D03*
G01*
X935000Y1415000D03*
G01*
X455000Y1070799D03*
G01*
X610000Y1410000D03*
G01*
X975000Y510000D03*
G01*
X615000Y5240000D03*
G01*
X640000Y4840000D03*
G01*
X585000Y2072829D03*
G01*
X1710000Y6915000D03*
G01*
X3465000Y6935000D03*
G01*
X2580000Y6935000D03*
G01*
X1710000Y4915000D03*
G01*
X2590000Y4925000D03*
G01*
X3485000Y4925000D03*
G01*
X1710000Y2900000D03*
G01*
X2580000Y2925000D03*
G01*
X3485000Y2925000D03*
G01*
X1710000Y945000D03*
G01*
X3490000Y925000D03*
G01*
X2570000Y925000D03*
G01*
X4685000Y4665000D03*
G01*
X4525000Y4820000D03*
G01*
X4685000Y6115000D03*
G01*
X4405000Y6400000D03*
G01*
X4295000Y2405000D03*
G01*
X4685000Y2405000D03*
G01*
X3150000Y3825000D03*
G01*
X3160000Y3055000D03*
G01*
X3160000Y2925000D03*
M02*
