G04 Layer: BottomSilkscreenLayer*
G04 EasyEDA v6.5.46, 2026-05-09 11:29:15*
G04 568695e0a8b244a196cd7557b316e252,86b453e9c0f046cc872bd768bb4bcadc,10*
G04 Gerber Generator version 0.2*
G04 Scale: 100 percent, Rotated: No, Reflected: No *
G04 Dimensions in inches *
G04 leading zeros omitted , absolute positions ,3 integer and 6 decimal *
%FSLAX36Y36*%
%MOIN*%

%ADD10C,0.0060*%
%ADD11C,0.0100*%

%LPD*%
D10*
X2442141Y8017399D02*
G01*
X2485095Y8017399D01*
X2442141Y8017399D02*
G01*
X2442141Y7998991D01*
X2444185Y7992855D01*
X2446232Y7990808D01*
X2450322Y7988764D01*
X2456459Y7988764D01*
X2460550Y7990808D01*
X2462595Y7992855D01*
X2464641Y7998991D01*
X2464641Y8017399D01*
X2450322Y7975264D02*
G01*
X2448276Y7971172D01*
X2442141Y7965036D01*
X2485095Y7965036D01*
X2568599Y8050599D02*
G01*
X2601400Y8050599D01*
X2585000Y8066999D02*
G01*
X2585000Y8034299D01*
X2838599Y8123400D02*
G01*
X2836800Y8124299D01*
X2835000Y8126100D01*
X2834099Y8127900D01*
X2834099Y8131500D01*
X2835000Y8133400D01*
X2836800Y8135200D01*
X2838599Y8136100D01*
X2841400Y8136999D01*
X2845900Y8136999D01*
X2848599Y8136100D01*
X2850500Y8135200D01*
X2852299Y8133400D01*
X2853199Y8131500D01*
X2853199Y8127900D01*
X2852299Y8126100D01*
X2850500Y8124299D01*
X2848599Y8123400D01*
X2845900Y8123400D01*
X2845900Y8127900D02*
G01*
X2845900Y8123400D01*
X2834099Y8117399D02*
G01*
X2853199Y8117399D01*
X2834099Y8117399D02*
G01*
X2853199Y8104600D01*
X2834099Y8104600D02*
G01*
X2853199Y8104600D01*
X2834099Y8098600D02*
G01*
X2853199Y8098600D01*
X2834099Y8098600D02*
G01*
X2834099Y8092300D01*
X2835000Y8089499D01*
X2836800Y8087700D01*
X2838599Y8086799D01*
X2841400Y8085900D01*
X2845900Y8085900D01*
X2848599Y8086799D01*
X2850500Y8087700D01*
X2852299Y8089499D01*
X2853199Y8092300D01*
X2853199Y8098600D01*
X1820000Y3995399D02*
G01*
X1820000Y3952500D01*
X1791400Y3995399D02*
G01*
X1791400Y3952500D01*
X1820000Y3975000D02*
G01*
X1791400Y3975000D01*
X1757399Y3995399D02*
G01*
X1777899Y3966799D01*
X1747200Y3966799D01*
X1757399Y3995399D02*
G01*
X1757399Y3952500D01*
D11*
X2556999Y8294000D02*
G01*
X2833000Y8294000D01*
X2871999Y7693000D02*
G01*
X2753999Y7693000D01*
X2753999Y7693000D02*
G01*
X2753999Y7743000D01*
X2753999Y7743000D02*
G01*
X2518000Y7743000D01*
X2518000Y8163000D02*
G01*
X2518000Y8254000D01*
X2518000Y7913000D02*
G01*
X2518000Y8034000D01*
X2518000Y7743000D02*
G01*
X2518000Y7784000D01*
X2871999Y8254000D02*
G01*
X2871999Y8163000D01*
X2871999Y8034000D02*
G01*
X2871999Y7913000D01*
X2871999Y7784000D02*
G01*
X2871999Y7693000D01*
G75*
G01*
X2517835Y8254480D02*
G02*
X2557205Y8293850I39370J0D01*
G75*
G01*
X2832795Y8293850D02*
G02*
X2872165Y8254480I0J-39370D01*
M02*
