G04 Layer: BottomSolderMaskLayer*
G04 EasyEDA v6.5.46, 2026-05-09 11:29:15*
G04 568695e0a8b244a196cd7557b316e252,86b453e9c0f046cc872bd768bb4bcadc,10*
G04 Gerber Generator version 0.2*
G04 Scale: 100 percent, Rotated: No, Reflected: No *
G04 Dimensions in inches *
G04 leading zeros omitted , absolute positions ,3 integer and 6 decimal *
%FSLAX36Y36*%
%MOIN*%

%AMMACRO1*4,1,8,-0.041,-0.0512,-0.0434,-0.0489,-0.0434,0.0489,-0.041,0.0512,0.041,0.0512,0.0434,0.0489,0.0434,-0.0489,0.041,-0.0512,-0.041,-0.0512,0*%
%AMMACRO2*4,1,8,-0.0371,-0.0394,-0.0394,-0.0371,-0.0394,0.0371,-0.0371,0.0394,0.0371,0.0394,0.0394,0.0371,0.0394,-0.0371,0.0371,-0.0394,-0.0371,-0.0394,0*%
%AMMACRO3*4,1,8,-0.0332,-0.0355,-0.0355,-0.0332,-0.0355,0.0332,-0.0332,0.0355,0.0332,0.0355,0.0355,0.0332,0.0355,-0.0332,0.0332,-0.0355,-0.0332,-0.0355,0*%
%AMMACRO4*4,1,8,-0.0327,-0.035,-0.035,-0.0327,-0.035,0.0327,-0.0327,0.035,0.0327,0.035,0.035,0.0327,0.035,-0.0327,0.0327,-0.035,-0.0327,-0.035,0*%
%ADD10MACRO1*%
%ADD11C,0.0789*%
%ADD12MACRO2*%
%ADD13MACRO3*%
%ADD14C,0.0710*%
%ADD15MACRO4*%
%ADD16C,0.0187*%
%ADD17C,0.0700*%

%LPD*%
D10*
G01*
X2478000Y8096999D03*
G01*
X2478000Y7853000D03*
G01*
X2911999Y7853000D03*
G01*
X2911999Y8096999D03*
D11*
G01*
X440000Y705000D03*
G01*
X540000Y705000D03*
G01*
X640000Y705000D03*
G01*
X740000Y705000D03*
G01*
X840000Y705000D03*
D12*
G01*
X940000Y705000D03*
G01*
X140000Y250000D03*
D11*
G01*
X240000Y250000D03*
G01*
X340000Y250000D03*
G01*
X440000Y250000D03*
G01*
X540000Y250000D03*
G01*
X640000Y250000D03*
G01*
X740000Y250000D03*
G01*
X840000Y250000D03*
G01*
X940000Y250000D03*
G01*
X1040000Y250000D03*
G01*
X1140000Y250000D03*
G01*
X1240000Y250000D03*
D12*
G01*
X4165000Y245000D03*
D11*
G01*
X4265000Y245000D03*
G01*
X4365000Y245000D03*
G01*
X4465000Y245000D03*
G01*
X4565000Y245000D03*
G01*
X4665000Y245000D03*
G01*
X4765000Y245000D03*
G01*
X4865000Y245000D03*
G01*
X4965000Y245000D03*
G01*
X5065000Y245000D03*
G01*
X5165000Y245000D03*
G01*
X5265000Y245000D03*
G01*
X4425000Y2700000D03*
G01*
X4425000Y2800000D03*
G01*
X4425000Y2900000D03*
G01*
X4425000Y3000000D03*
G01*
X4425000Y3100000D03*
G01*
X4425000Y3200000D03*
G01*
X4425000Y3300000D03*
G01*
X4425000Y3400000D03*
G01*
X4425000Y3500000D03*
G01*
X4425000Y3600000D03*
G01*
X4425000Y3700000D03*
G01*
X4425000Y3800000D03*
G01*
X4425000Y3900000D03*
G01*
X4425000Y4000000D03*
G01*
X4425000Y4100000D03*
G01*
X4425000Y4200000D03*
G01*
X4425000Y4300000D03*
G01*
X4425000Y4400000D03*
G01*
X4425000Y4500000D03*
D12*
G01*
X4425000Y4600000D03*
D11*
G01*
X4975000Y2700000D03*
G01*
X4975000Y2800000D03*
G01*
X4975000Y2900000D03*
G01*
X4975000Y3000000D03*
G01*
X4975000Y3100000D03*
G01*
X4975000Y3200000D03*
G01*
X4975000Y3300000D03*
G01*
X4975000Y3400000D03*
G01*
X4975000Y3500000D03*
G01*
X4975000Y3600000D03*
G01*
X4975000Y3700000D03*
G01*
X4975000Y3800000D03*
G01*
X4975000Y3900000D03*
G01*
X4975000Y4000000D03*
G01*
X4975000Y4100000D03*
G01*
X4975000Y4200000D03*
G01*
X4975000Y4300000D03*
G01*
X4975000Y4400000D03*
G01*
X4975000Y4500000D03*
D12*
G01*
X4975000Y4600000D03*
G01*
X385000Y1720000D03*
D11*
G01*
X485000Y1720000D03*
G01*
X585000Y1720000D03*
G01*
X685000Y1720000D03*
D13*
G01*
X1735000Y3885000D03*
D14*
G01*
X1835000Y3885000D03*
G01*
X1735000Y3785000D03*
G01*
X1835000Y3785000D03*
G01*
X1735000Y3685000D03*
G01*
X1835000Y3685000D03*
G01*
X1735000Y3585000D03*
G01*
X1835000Y3585000D03*
D11*
G01*
X4500000Y680000D03*
G01*
X4600000Y680000D03*
G01*
X4700000Y680000D03*
G01*
X4800000Y680000D03*
G01*
X4900000Y680000D03*
D12*
G01*
X5000000Y680000D03*
D15*
G01*
X1450000Y6150000D03*
D17*
G01*
X1550000Y6150000D03*
G01*
X1650000Y6150000D03*
G01*
X1750000Y6150000D03*
G01*
X1850000Y6150000D03*
G01*
X1950000Y6150000D03*
G01*
X2050000Y6150000D03*
G01*
X2150000Y6150000D03*
D15*
G01*
X1450000Y7150000D03*
D17*
G01*
X1550000Y7150000D03*
G01*
X1650000Y7150000D03*
G01*
X1750000Y7150000D03*
G01*
X1850000Y7150000D03*
G01*
X1950000Y7150000D03*
G01*
X2050000Y7150000D03*
G01*
X2150000Y7150000D03*
D15*
G01*
X2350000Y6150000D03*
D17*
G01*
X2450000Y6150000D03*
G01*
X2550000Y6150000D03*
G01*
X2650000Y6150000D03*
G01*
X2750000Y6150000D03*
G01*
X2850000Y6150000D03*
G01*
X2950000Y6150000D03*
G01*
X3050000Y6150000D03*
D15*
G01*
X2350000Y7150000D03*
D17*
G01*
X2450000Y7150000D03*
G01*
X2550000Y7150000D03*
G01*
X2650000Y7150000D03*
G01*
X2750000Y7150000D03*
G01*
X2850000Y7150000D03*
G01*
X2950000Y7150000D03*
G01*
X3050000Y7150000D03*
D15*
G01*
X3250000Y6150000D03*
D17*
G01*
X3350000Y6150000D03*
G01*
X3450000Y6150000D03*
G01*
X3550000Y6150000D03*
G01*
X3650000Y6150000D03*
G01*
X3750000Y6150000D03*
G01*
X3850000Y6150000D03*
G01*
X3950000Y6150000D03*
D15*
G01*
X3250000Y7150000D03*
D17*
G01*
X3350000Y7150000D03*
G01*
X3450000Y7150000D03*
G01*
X3550000Y7150000D03*
G01*
X3650000Y7150000D03*
G01*
X3750000Y7150000D03*
G01*
X3850000Y7150000D03*
G01*
X3950000Y7150000D03*
D15*
G01*
X1450000Y4150000D03*
D17*
G01*
X1550000Y4150000D03*
G01*
X1650000Y4150000D03*
G01*
X1750000Y4150000D03*
G01*
X1850000Y4150000D03*
G01*
X1950000Y4150000D03*
G01*
X2050000Y4150000D03*
G01*
X2150000Y4150000D03*
D15*
G01*
X1450000Y5150000D03*
D17*
G01*
X1550000Y5150000D03*
G01*
X1650000Y5150000D03*
G01*
X1750000Y5150000D03*
G01*
X1850000Y5150000D03*
G01*
X1950000Y5150000D03*
G01*
X2050000Y5150000D03*
G01*
X2150000Y5150000D03*
D15*
G01*
X2350000Y4150000D03*
D17*
G01*
X2450000Y4150000D03*
G01*
X2550000Y4150000D03*
G01*
X2650000Y4150000D03*
G01*
X2750000Y4150000D03*
G01*
X2850000Y4150000D03*
G01*
X2950000Y4150000D03*
G01*
X3050000Y4150000D03*
D15*
G01*
X2350000Y5150000D03*
D17*
G01*
X2450000Y5150000D03*
G01*
X2550000Y5150000D03*
G01*
X2650000Y5150000D03*
G01*
X2750000Y5150000D03*
G01*
X2850000Y5150000D03*
G01*
X2950000Y5150000D03*
G01*
X3050000Y5150000D03*
D15*
G01*
X3250000Y4150000D03*
D17*
G01*
X3350000Y4150000D03*
G01*
X3450000Y4150000D03*
G01*
X3550000Y4150000D03*
G01*
X3650000Y4150000D03*
G01*
X3750000Y4150000D03*
G01*
X3850000Y4150000D03*
G01*
X3950000Y4150000D03*
D15*
G01*
X3250000Y5150000D03*
D17*
G01*
X3350000Y5150000D03*
G01*
X3450000Y5150000D03*
G01*
X3550000Y5150000D03*
G01*
X3650000Y5150000D03*
G01*
X3750000Y5150000D03*
G01*
X3850000Y5150000D03*
G01*
X3950000Y5150000D03*
D15*
G01*
X1450000Y2150000D03*
D17*
G01*
X1550000Y2150000D03*
G01*
X1650000Y2150000D03*
G01*
X1750000Y2150000D03*
G01*
X1850000Y2150000D03*
G01*
X1950000Y2150000D03*
G01*
X2050000Y2150000D03*
G01*
X2150000Y2150000D03*
D15*
G01*
X1450000Y3150000D03*
D17*
G01*
X1550000Y3150000D03*
G01*
X1650000Y3150000D03*
G01*
X1750000Y3150000D03*
G01*
X1850000Y3150000D03*
G01*
X1950000Y3150000D03*
G01*
X2050000Y3150000D03*
G01*
X2150000Y3150000D03*
D15*
G01*
X2350000Y2150000D03*
D17*
G01*
X2450000Y2150000D03*
G01*
X2550000Y2150000D03*
G01*
X2650000Y2150000D03*
G01*
X2750000Y2150000D03*
G01*
X2850000Y2150000D03*
G01*
X2950000Y2150000D03*
G01*
X3050000Y2150000D03*
D15*
G01*
X2350000Y3150000D03*
D17*
G01*
X2450000Y3150000D03*
G01*
X2550000Y3150000D03*
G01*
X2650000Y3150000D03*
G01*
X2750000Y3150000D03*
G01*
X2850000Y3150000D03*
G01*
X2950000Y3150000D03*
G01*
X3050000Y3150000D03*
D15*
G01*
X3250000Y2150000D03*
D17*
G01*
X3350000Y2150000D03*
G01*
X3450000Y2150000D03*
G01*
X3550000Y2150000D03*
G01*
X3650000Y2150000D03*
G01*
X3750000Y2150000D03*
G01*
X3850000Y2150000D03*
G01*
X3950000Y2150000D03*
D15*
G01*
X3250000Y3150000D03*
D17*
G01*
X3350000Y3150000D03*
G01*
X3450000Y3150000D03*
G01*
X3550000Y3150000D03*
G01*
X3650000Y3150000D03*
G01*
X3750000Y3150000D03*
G01*
X3850000Y3150000D03*
G01*
X3950000Y3150000D03*
D15*
G01*
X1450000Y150000D03*
D17*
G01*
X1550000Y150000D03*
G01*
X1650000Y150000D03*
G01*
X1750000Y150000D03*
G01*
X1850000Y150000D03*
G01*
X1950000Y150000D03*
G01*
X2050000Y150000D03*
G01*
X2150000Y150000D03*
D15*
G01*
X1450000Y1150000D03*
D17*
G01*
X1550000Y1150000D03*
G01*
X1650000Y1150000D03*
G01*
X1750000Y1150000D03*
G01*
X1850000Y1150000D03*
G01*
X1950000Y1150000D03*
G01*
X2050000Y1150000D03*
G01*
X2150000Y1150000D03*
D15*
G01*
X2350000Y150000D03*
D17*
G01*
X2450000Y150000D03*
G01*
X2550000Y150000D03*
G01*
X2650000Y150000D03*
G01*
X2750000Y150000D03*
G01*
X2850000Y150000D03*
G01*
X2950000Y150000D03*
G01*
X3050000Y150000D03*
D15*
G01*
X2350000Y1150000D03*
D17*
G01*
X2450000Y1150000D03*
G01*
X2550000Y1150000D03*
G01*
X2650000Y1150000D03*
G01*
X2750000Y1150000D03*
G01*
X2850000Y1150000D03*
G01*
X2950000Y1150000D03*
G01*
X3050000Y1150000D03*
D15*
G01*
X3250000Y150000D03*
D17*
G01*
X3350000Y150000D03*
G01*
X3450000Y150000D03*
G01*
X3550000Y150000D03*
G01*
X3650000Y150000D03*
G01*
X3750000Y150000D03*
G01*
X3850000Y150000D03*
G01*
X3950000Y150000D03*
D15*
G01*
X3250000Y1150000D03*
D17*
G01*
X3350000Y1150000D03*
G01*
X3450000Y1150000D03*
G01*
X3550000Y1150000D03*
G01*
X3650000Y1150000D03*
G01*
X3750000Y1150000D03*
G01*
X3850000Y1150000D03*
G01*
X3950000Y1150000D03*
M02*
